M48
; DRILL file KiCad 10.0.3 date 2026-08-01T11:59:26
; FORMAT={-:-/ absolute / inch / decimal}
; #@! TF.CreationDate,2026-08-01T11:59:26+03:00
; #@! TF.GenerationSoftware,Kicad,Pcbnew,10.0.3
; #@! TF.FileFunction,Plated,1,4,PTH
FMAT,2
INCH
; #@! TA.AperFunction,Plated,PTH,ViaDrill
T1C0.0079
; #@! TA.AperFunction,Plated,PTH,ComponentDrill
T2C0.0079
; #@! TA.AperFunction,Plated,PTH,ComponentDrill
T3C0.0236
; #@! TA.AperFunction,Plated,PTH,ComponentDrill
T4C0.0256
; #@! TA.AperFunction,Plated,PTH,ComponentDrill
T5C0.0866
%
G90
G05
T1
X6.0846Y-2.4291
X6.0866Y-2.372
X6.1024Y-2.2795
X6.1142Y-1.9213
X6.1319Y-1.7264
X6.1339Y-1.6693
X6.1339Y-2.2224
X6.1435Y-2.0785
X6.1457Y-2.5197
X6.1516Y-1.8406
X6.1516Y-1.9075
X6.1575Y-2.6299
X6.1575Y-2.8346
X6.1594Y-1.6575
X6.1654Y-2.2913
X6.1654Y-2.813
X6.1752Y-2.8524
X6.1772Y-2.6299
X6.1811Y-2.3583
X6.1811Y-2.375
X6.1859Y-2.9193
X6.1931Y-1.5413
X6.1931Y-1.5581
X6.1949Y-1.9862
X6.197Y-1.5758
X6.2047Y-2.8543
X6.2126Y-2.7028
X6.2146Y-2.628
X6.2146Y-2.654
X6.2154Y-2.7334
X6.2165Y-2.6791
X6.2185Y-2.0
X6.2205Y-2.434
X6.2207Y-1.497
X6.2239Y-2.401
X6.2244Y-2.378
X6.2264Y-2.7028
X6.228Y-2.018
X6.234Y-2.7283
X6.2402Y-2.2854
X6.2482Y-1.497
X6.25Y-2.3484
X6.2657Y-2.2874
X6.2705Y-2.5728
X6.2756Y-1.4961
X6.2854Y-2.2874
X6.2874Y-2.5039
X6.2894Y-1.935
X6.2913Y-2.3937
X6.2953Y-2.2008
X6.3031Y-1.4961
X6.3032Y-2.3268
X6.313Y-2.3031
X6.315Y-2.8966
X6.3248Y-2.6063
X6.3268Y-3.311
X6.3268Y-2.9882
X6.3346Y-3.0
X6.3346Y-3.5157
X6.3465Y-2.4528
X6.3465Y-2.9035
X6.3465Y-3.311
X6.3543Y-3.5157
X6.3661Y-3.311
X6.374Y-3.5157
X6.378Y-2.8898
X6.3839Y-1.7244
X6.3858Y-3.311
X6.3937Y-3.5157
X6.3976Y-2.3937
X6.3976Y-2.5079
X6.3976Y-2.7343
X6.3976Y-2.8898
X6.3996Y-1.689
X6.4055Y-3.311
X6.4114Y-3.2835
X6.4134Y-2.2343
X6.4134Y-3.5157
X6.4173Y-2.9724
X6.4186Y-2.7133
X6.4252Y-3.0
X6.4252Y-3.311
X6.4291Y-2.8051
X6.4291Y-2.8307
X6.4311Y-3.2835
X6.437Y-2.9843
X6.437Y-3.3268
X6.4449Y-2.815
X6.4508Y-3.4806
X6.4616Y-2.1584
X6.4646Y-1.9173
X6.4646Y-2.1024
X6.4646Y-2.815
X6.4665Y-2.4862
X6.4676Y-3.4806
X6.4705Y-2.4075
X6.4724Y-2.5256
X6.4724Y-2.5433
X6.4764Y-2.2382
X6.4783Y-2.0157
X6.4783Y-2.6594
X6.4809Y-2.5999
X6.4882Y-1.813
X6.4882Y-2.4803
X6.4882Y-3.185
X6.4882Y-3.4806
X6.4902Y-2.4075
X6.4921Y-2.8189
X6.4923Y-2.1577
X6.4961Y-3.2047
X6.5079Y-3.185
X6.5194Y-2.546
X6.5197Y-3.2008
X6.5215Y-2.4765
X6.5236Y-2.4606
X6.5236Y-2.8917
X6.5236Y-2.9094
X6.5236Y-3.4806
X6.5335Y-2.0906
X6.5433Y-2.8917
X6.5433Y-2.9094
X6.5453Y-3.4806
X6.5591Y-1.8858
X6.565Y-2.6929
X6.5669Y-3.4806
X6.5689Y-2.0039
X6.5886Y-1.7736
X6.5945Y-2.8425
X6.6043Y-1.8839
X6.6043Y-2.9469
X6.6063Y-3.1378
X6.608Y-1.5531
X6.6142Y-2.752
X6.6181Y-3.1575
X6.6201Y-2.8386
X6.6255Y-3.0123
X6.626Y-3.126
X6.6299Y-2.4823
X6.6339Y-3.4764
X6.6378Y-3.1457
X6.6378Y-3.1732
X6.6417Y-1.9508
X6.6496Y-1.7343
X6.6496Y-2.7165
X6.6498Y-2.7518
X6.6547Y-3.1809
X6.6575Y-3.1575
X6.6732Y-2.3465
X6.6732Y-3.1732
X6.6772Y-2.3858
X6.686Y-1.652
X6.7146Y-1.7362
X6.7185Y-1.9469
X6.7205Y-3.1535
X6.7244Y-3.1339
X6.7362Y-3.1693
X6.7402Y-3.1181
X6.7441Y-2.4547
X6.7441Y-2.9843
X6.7441Y-3.0138
X6.7441Y-3.1496
X6.7559Y-2.9646
X6.7559Y-3.1339
X6.7598Y-1.6752
X6.7598Y-2.3307
X6.7598Y-3.1693
X6.7638Y-1.571
X6.7717Y-2.815
X6.7717Y-2.833
X6.7717Y-2.851
X6.7717Y-2.8701
X6.7756Y-2.315
X6.7756Y-3.1496
X6.7835Y-1.7362
X6.7835Y-2.939
X6.7835Y-2.9567
X6.7874Y-2.7283
X6.7933Y-2.3012
X6.7992Y-1.9528
X6.8071Y-2.939
X6.8071Y-2.9567
X6.8091Y-2.2874
X6.813Y-3.0492
X6.8189Y-3.0118
X6.8189Y-3.0315
X6.8228Y-1.7756
X6.8268Y-1.8425
X6.8268Y-1.9094
X6.8307Y-2.939
X6.8307Y-2.9567
X6.8346Y-2.7795
X6.8504Y-3.0945
X6.8524Y-1.7677
X6.8642Y-3.185
X6.8661Y-2.7795
X6.878Y-2.4882
X6.8878Y-1.748
X6.8878Y-2.9724
X6.894Y-2.1437
X6.9213Y-3.1732
X6.935Y-1.6063
X6.939Y-1.5591
X6.955Y-2.1201
X6.9567Y-1.5079
X6.9606Y-1.799
X6.9665Y-2.1713
X6.9744Y-1.498
X6.9764Y-1.5197
X6.9862Y-2.5315
X6.9882Y-2.9685
X6.9902Y-3.2559
X6.9921Y-2.7579
X7.002Y-2.5177
X7.0039Y-2.5354
X7.0217Y-2.5827
X7.0236Y-2.5551
X7.0335Y-2.7067
X7.0472Y-2.5
X7.0472Y-2.5197
X7.0472Y-2.5394
X7.0512Y-3.185
X7.0709Y-2.5
X7.0709Y-2.5197
X7.0709Y-2.5394
X7.1024Y-2.0433
X7.1043Y-2.2697
X7.1063Y-1.9843
X7.1102Y-2.1732
X7.1181Y-3.2323
X7.121Y-2.702
X7.122Y-2.6339
X7.122Y-3.252
X7.1299Y-2.622
X7.1299Y-2.6457
X7.1378Y-3.2323
X7.14Y-2.762
X7.1457Y-3.252
X7.147Y-2.535
X7.1569Y-2.0459
X7.1575Y-3.2323
X7.165Y-2.535
X7.17Y-2.7
X7.17Y-2.72
X7.17Y-2.742
X7.17Y-2.76
X7.1732Y-2.9134
X7.1732Y-2.9331
X7.187Y-2.535
X7.189Y-2.6614
X7.1929Y-2.0433
X7.1929Y-2.9134
X7.1929Y-2.9331
X7.1969Y-3.0906
X7.1969Y-3.1142
X7.1969Y-3.1378
X7.1969Y-3.1614
X7.198Y-2.553
X7.199Y-2.575
X7.199Y-2.594
X7.2Y-2.622
X7.2008Y-2.6417
X7.2041Y-2.29
X7.2126Y-2.9134
X7.2126Y-2.9331
X7.2165Y-2.1417
X7.2165Y-3.0906
X7.2165Y-3.1142
X7.2165Y-3.1378
X7.2165Y-3.1614
T2
X6.4934Y-3.264
X6.516Y-3.2266
X6.516Y-3.3014
X6.5386Y-3.264
X6.9557Y-3.0317
X6.9557Y-3.075
X6.9557Y-3.1183
X6.999Y-3.0317
X6.999Y-3.075
X6.999Y-3.1183
X7.0423Y-3.0317
X7.0423Y-3.075
X7.0423Y-3.1183
T4
X7.1453Y-1.7118
X7.1453Y-1.7618
X7.1453Y-1.8118
T5
X6.1319Y-3.4547
X7.1654Y-1.565
T3
G00X6.9223Y-2.4579
M15
G01X6.9656Y-2.4579
M16
G05
G00X6.9223Y-2.7981
M15
G01X6.9656Y-2.7981
M16
G05
G00X7.0936Y-2.4579
M15
G01X7.1251Y-2.4579
M16
G05
G00X7.0936Y-2.7981
M15
G01X7.1251Y-2.7981
M16
G05
M30
