%TF.GenerationSoftware,KiCad,Pcbnew,10.0.3*%
%TF.CreationDate,2026-08-01T11:59:26+03:00*%
%TF.ProjectId,Conversational AI audio guide handset,436f6e76-6572-4736-9174-696f6e616c20,rev?*%
%TF.SameCoordinates,Original*%
%TF.FileFunction,Copper,L2,Inr*%
%TF.FilePolarity,Positive*%
%FSLAX46Y46*%
G04 Gerber Fmt 4.6, Leading zero omitted, Abs format (unit mm)*
G04 Created by KiCad (PCBNEW 10.0.3) date 2026-08-01 11:59:26*
%MOMM*%
%LPD*%
G01*
G04 APERTURE LIST*
%TA.AperFunction,ComponentPad*%
%ADD10C,0.500000*%
%TD*%
%TA.AperFunction,ComponentPad*%
%ADD11R,1.000000X1.000000*%
%TD*%
%TA.AperFunction,ComponentPad*%
%ADD12C,1.000000*%
%TD*%
%TA.AperFunction,ComponentPad*%
%ADD13C,3.800000*%
%TD*%
%TA.AperFunction,ComponentPad*%
%ADD14O,2.100000X1.000000*%
%TD*%
%TA.AperFunction,ComponentPad*%
%ADD15O,1.800000X1.000000*%
%TD*%
%TA.AperFunction,HeatsinkPad*%
%ADD16C,0.500000*%
%TD*%
%TA.AperFunction,ViaPad*%
%ADD17C,0.400000*%
%TD*%
G04 APERTURE END LIST*
D10*
%TO.N,GND*%
%TO.C,U2*%
X166081400Y-82905600D03*
X165506400Y-83855600D03*
X165506400Y-81955600D03*
X164931400Y-82905600D03*
%TD*%
D11*
%TO.N,GND*%
%TO.C,J1*%
X181491004Y-46020000D03*
D12*
%TO.N,/ESP32/ESP32_RX*%
X181491004Y-44750000D03*
%TO.N,/ESP32/ESP32_TX*%
X181491004Y-43480000D03*
%TD*%
D13*
%TO.N,N/C*%
%TO.C,H2*%
X155750000Y-87750000D03*
%TD*%
D14*
%TO.N,unconnected-(P1-SHIELD-PadSH)_3*%
%TO.C,P1*%
X176376800Y-71071200D03*
D15*
%TO.N,unconnected-(P1-SHIELD-PadSH)*%
X180576800Y-71071200D03*
D14*
%TO.N,unconnected-(P1-SHIELD-PadSH)_2*%
X176376800Y-62431200D03*
D15*
%TO.N,unconnected-(P1-SHIELD-PadSH)_1*%
X180576800Y-62431200D03*
%TD*%
D16*
%TO.N,GND*%
%TO.C,U1*%
X176674600Y-77005000D03*
X176674600Y-78105000D03*
X176674600Y-79205000D03*
X177774600Y-77005000D03*
X177774600Y-78105000D03*
X177774600Y-79205000D03*
X178874600Y-77005000D03*
X178874600Y-78105000D03*
X178874600Y-79205000D03*
%TD*%
D13*
%TO.N,N/C*%
%TO.C,H1*%
X182000000Y-39750000D03*
%TD*%
D17*
%TO.N,Net-(D6-K)*%
X164200000Y-53400000D03*
X164905000Y-54805000D03*
%TO.N,Net-(D15-K)*%
X164800000Y-46050000D03*
X168904600Y-69895400D03*
X172950000Y-58100000D03*
%TO.N,+3V3*%
X162700000Y-84100000D03*
X156600000Y-71450000D03*
X163700000Y-71500000D03*
X164400000Y-64150000D03*
X163300000Y-71250000D03*
X157000000Y-59900000D03*
X157000000Y-60325000D03*
X157305000Y-39150000D03*
X163300000Y-71900000D03*
X168150000Y-72100000D03*
X157850000Y-67411600D03*
X159150000Y-58100000D03*
X164350000Y-61150000D03*
X157871400Y-69428600D03*
X171800000Y-39903400D03*
X161200000Y-84100000D03*
X164250000Y-63150000D03*
X161700000Y-84100000D03*
X161200000Y-73750000D03*
X162000000Y-73400000D03*
X156400000Y-72000000D03*
X183300000Y-54400000D03*
X163200000Y-84100000D03*
X162200000Y-84100000D03*
X159650000Y-58100000D03*
X167750000Y-74850000D03*
X157122800Y-74150000D03*
X157305000Y-39575000D03*
X156250000Y-46750000D03*
X164850000Y-61150000D03*
X164200000Y-71500000D03*
X157900000Y-68050000D03*
X157350000Y-50450000D03*
X157405000Y-40025000D03*
X165950000Y-53100000D03*
X167843200Y-39450000D03*
X155800000Y-42400000D03*
X164400000Y-64600000D03*
X158343600Y-69300000D03*
X157850000Y-66750000D03*
X163500000Y-84500000D03*
X160101000Y-59101000D03*
X164800000Y-63000000D03*
X162500000Y-73400000D03*
X160700000Y-84100000D03*
%TO.N,GND*%
X169500000Y-59600000D03*
X162850000Y-83400000D03*
X160100000Y-38000000D03*
X155300000Y-48800000D03*
X168700000Y-49550000D03*
X173400000Y-46800000D03*
X164900000Y-71600000D03*
X174400000Y-70600000D03*
X167350000Y-45050000D03*
X178650000Y-68750000D03*
X165700000Y-73900000D03*
X165700000Y-88406400D03*
X159269641Y-65348959D03*
X160700500Y-75900500D03*
X163000000Y-75500000D03*
X156400000Y-66800000D03*
X165592600Y-64668400D03*
X177200000Y-38600000D03*
X182829200Y-64846200D03*
X181800000Y-82100000D03*
X173050000Y-77450000D03*
X156600000Y-58200000D03*
X165600000Y-81300000D03*
X172400000Y-69300000D03*
X165646500Y-62903500D03*
X156100000Y-64000000D03*
X159800000Y-60800000D03*
X161900000Y-89300000D03*
X168400000Y-63050000D03*
X181500000Y-82600000D03*
X166200000Y-73900000D03*
X159700000Y-63600000D03*
X166800000Y-88406400D03*
X173400000Y-48500000D03*
X162500000Y-63700000D03*
X165000000Y-81400000D03*
X161400000Y-89300000D03*
X178400000Y-64900000D03*
X182854600Y-65887600D03*
X180873400Y-68630800D03*
X167750000Y-47850000D03*
X182118000Y-68580000D03*
X156850000Y-72450000D03*
X163851200Y-88406400D03*
X165300000Y-80900000D03*
X155800000Y-56450000D03*
X162400000Y-89300000D03*
X163200000Y-76200000D03*
X164800000Y-80900000D03*
X180800000Y-82100000D03*
X165700000Y-62500000D03*
X163500000Y-75800000D03*
X158005000Y-38025000D03*
X177600000Y-70050000D03*
X163350000Y-83400000D03*
X168287895Y-76512105D03*
X157600000Y-72500000D03*
X168500000Y-88300000D03*
X156900000Y-66800000D03*
X182700000Y-74500000D03*
X182118000Y-69088000D03*
X182549800Y-64389000D03*
X170550000Y-44100000D03*
X174950000Y-75500000D03*
X166250000Y-88406400D03*
X171300000Y-75800000D03*
X160650000Y-66200000D03*
X177550000Y-82700000D03*
X173300000Y-45100000D03*
X182700000Y-74000000D03*
X173200000Y-76500000D03*
X177850000Y-63950000D03*
X182700000Y-51900000D03*
X178350000Y-65600000D03*
X177450000Y-64300000D03*
X183200000Y-74000000D03*
X173200000Y-77000000D03*
X158705000Y-38025000D03*
X181300000Y-82100000D03*
X182984574Y-58165426D03*
X166200000Y-73450000D03*
X177900000Y-64400000D03*
X169600000Y-60600000D03*
X164613700Y-66036300D03*
X156450000Y-42100000D03*
X181533800Y-64389000D03*
X161200000Y-62300000D03*
X160900000Y-89300000D03*
X181356000Y-70154800D03*
X182118000Y-69646800D03*
X164800000Y-88406400D03*
X171300000Y-76550000D03*
X182200000Y-74000000D03*
X159400000Y-38000000D03*
X177150000Y-38050000D03*
X176700000Y-38300000D03*
X158150000Y-68650000D03*
X160900000Y-76200000D03*
X180900000Y-82600000D03*
X158500000Y-58050000D03*
X182200000Y-74500000D03*
X171600000Y-75300000D03*
X173600000Y-70600000D03*
X162900000Y-89300000D03*
X157800000Y-68650000D03*
X174700000Y-63200000D03*
X162500000Y-69450000D03*
X164550000Y-67550000D03*
X165700000Y-73450000D03*
X170650000Y-49450000D03*
X168900000Y-44050000D03*
X182854600Y-65405000D03*
X155000000Y-57900000D03*
X181991000Y-64389000D03*
X156045000Y-52795000D03*
X182118000Y-70104000D03*
X172700000Y-49600000D03*
X164276800Y-88406400D03*
X155750000Y-43850000D03*
X163033200Y-68916800D03*
X156250000Y-48450000D03*
X172300000Y-44100000D03*
X166600000Y-47900000D03*
X169825000Y-41960800D03*
X183200000Y-74500000D03*
X162500000Y-60800000D03*
%TO.N,+VSYS*%
X183300000Y-78500000D03*
X182800000Y-78500000D03*
X168100000Y-80200000D03*
X183300000Y-79100000D03*
X182800000Y-79700000D03*
X182800000Y-80300000D03*
X182800000Y-79100000D03*
X168600000Y-79900000D03*
X167800000Y-79700000D03*
X168600000Y-80600000D03*
X168300000Y-79400000D03*
X169030337Y-80795839D03*
X169500000Y-80600000D03*
X183300000Y-79700000D03*
X183300000Y-80300000D03*
X169100000Y-80200000D03*
%TO.N,/ESP32/MCLK*%
X162900000Y-56750000D03*
X176657000Y-53850000D03*
%TO.N,/ESP32/DOUT*%
X159900000Y-55900000D03*
X160350000Y-58500000D03*
%TO.N,/Speaker & audio/mic_data*%
X158750000Y-59650000D03*
%TO.N,/ESP32/SCL*%
X158100000Y-60400000D03*
X158192000Y-51258000D03*
X174000000Y-78600000D03*
X162550000Y-42900000D03*
%TO.N,/ESP32/SDA*%
X157950000Y-50800000D03*
X162150000Y-43800000D03*
X158086000Y-60986000D03*
X174350000Y-80900000D03*
%TO.N,/Speaker & audio/mic_clock*%
X158000000Y-61823600D03*
%TO.N,/ESP32/RESETZD*%
X175107600Y-54450000D03*
X164500000Y-56850000D03*
%TO.N,Net-(R35-Pad1)*%
X180450000Y-57650000D03*
%TO.N,Net-(U1-REGN)*%
X175800000Y-80600000D03*
X177500000Y-75400000D03*
%TO.N,+VBUS*%
X172000000Y-71500000D03*
X172000000Y-72900000D03*
X172000000Y-71958200D03*
X172000000Y-72415400D03*
%TO.N,/ESP32/volume*%
X181784700Y-51965300D03*
X180600000Y-55200000D03*
%TO.N,/ESP32/TALK*%
X154600000Y-60250000D03*
X154550000Y-61700000D03*
X176950000Y-55150000D03*
%TO.N,+VDD*%
X181100000Y-66600000D03*
X182600000Y-67600000D03*
X181100000Y-67200000D03*
X173500000Y-75100000D03*
X182880000Y-66598800D03*
X172900000Y-74650000D03*
X172900000Y-75100000D03*
X172300000Y-74650000D03*
X173500000Y-74650000D03*
X182900000Y-67100000D03*
X180900000Y-66900000D03*
X172300000Y-75100000D03*
%TO.N,Net-(D13-K)*%
X168000000Y-69900000D03*
X166850000Y-50900000D03*
X172550000Y-58450000D03*
%TO.N,/ESP32/SDR*%
X171300000Y-62350000D03*
X160400000Y-73572800D03*
%TO.N,Net-(D16-K)*%
X172100000Y-58800000D03*
X164200000Y-48700000D03*
X168900000Y-69000000D03*
%TO.N,Net-(R34-Pad1)*%
X180500000Y-50400000D03*
X180400000Y-51900000D03*
%TO.N,/ESP32/QON*%
X164124000Y-54824000D03*
X179100000Y-80900000D03*
X166750000Y-68400000D03*
X159750000Y-49150000D03*
%TO.N,/ESP32/SER*%
X176800000Y-45694600D03*
%TO.N,/ESP32/SRCLK*%
X174950000Y-44400000D03*
%TO.N,/ESP32/RCLK*%
X176150000Y-40800000D03*
%TO.N,/ESP32/BAT_Level*%
X176250000Y-39600000D03*
%TO.N,Net-(D14-K)*%
X171700000Y-59200000D03*
X167500000Y-72200000D03*
X164550000Y-51200000D03*
%TO.N,+PowerSupply*%
X171100000Y-80500000D03*
X171200000Y-79200000D03*
X171600000Y-79600000D03*
X172100000Y-80000000D03*
X179000000Y-64000000D03*
X179000000Y-63500000D03*
X171700000Y-80500000D03*
X170800000Y-79600000D03*
X171300000Y-80000000D03*
X179000000Y-64500000D03*
X179600000Y-64000000D03*
X179600000Y-63500000D03*
X179600000Y-64500000D03*
X170700000Y-80100000D03*
%TO.N,/ESP32/BAT_LED1*%
X171700000Y-42550000D03*
X174050000Y-44900000D03*
%TD*%
%TA.AperFunction,Conductor*%
%TO.N,GND*%
G36*
X180784313Y-37470185D02*
G01*
X180830068Y-37522989D01*
X180840012Y-37592147D01*
X180810987Y-37655703D01*
X180783246Y-37679494D01*
X180608712Y-37789161D01*
X180397915Y-37957265D01*
X180207265Y-38147915D01*
X180039161Y-38358712D01*
X179895714Y-38587005D01*
X179778734Y-38829917D01*
X179689687Y-39084397D01*
X179689684Y-39084405D01*
X179629688Y-39347268D01*
X179629686Y-39347280D01*
X179599500Y-39615186D01*
X179599500Y-39884813D01*
X179629686Y-40152719D01*
X179629688Y-40152731D01*
X179689684Y-40415594D01*
X179689687Y-40415602D01*
X179778734Y-40670082D01*
X179895714Y-40912994D01*
X179895716Y-40912997D01*
X180039162Y-41141289D01*
X180207266Y-41352085D01*
X180397915Y-41542734D01*
X180608711Y-41710838D01*
X180837003Y-41854284D01*
X180837005Y-41854285D01*
X180840330Y-41855886D01*
X181079921Y-41971267D01*
X181271049Y-42038145D01*
X181334397Y-42060312D01*
X181334405Y-42060315D01*
X181334408Y-42060315D01*
X181334409Y-42060316D01*
X181597268Y-42120312D01*
X181865187Y-42150499D01*
X181865188Y-42150500D01*
X181865191Y-42150500D01*
X182134812Y-42150500D01*
X182134812Y-42150499D01*
X182402732Y-42120312D01*
X182665591Y-42060316D01*
X182920079Y-41971267D01*
X183162997Y-41854284D01*
X183391289Y-41710838D01*
X183602085Y-41542734D01*
X183788319Y-41356500D01*
X183849642Y-41323015D01*
X183919334Y-41327999D01*
X183975267Y-41369871D01*
X183999684Y-41435335D01*
X184000000Y-41444181D01*
X184000000Y-53809981D01*
X183980315Y-53877020D01*
X183927511Y-53922775D01*
X183858353Y-53932719D01*
X183794797Y-53903694D01*
X183788319Y-53897662D01*
X183746545Y-53855888D01*
X183746541Y-53855885D01*
X183631817Y-53779228D01*
X183631804Y-53779221D01*
X183504332Y-53726421D01*
X183504322Y-53726418D01*
X183368995Y-53699500D01*
X183368993Y-53699500D01*
X183231007Y-53699500D01*
X183231005Y-53699500D01*
X183095677Y-53726418D01*
X183095667Y-53726421D01*
X182968195Y-53779221D01*
X182968182Y-53779228D01*
X182853458Y-53855885D01*
X182853454Y-53855888D01*
X182755888Y-53953454D01*
X182755885Y-53953458D01*
X182679228Y-54068182D01*
X182679221Y-54068195D01*
X182626421Y-54195667D01*
X182626418Y-54195677D01*
X182599500Y-54331004D01*
X182599500Y-54331007D01*
X182599500Y-54468993D01*
X182599500Y-54468995D01*
X182599499Y-54468995D01*
X182626418Y-54604322D01*
X182626421Y-54604332D01*
X182679221Y-54731804D01*
X182679228Y-54731817D01*
X182755885Y-54846541D01*
X182755888Y-54846545D01*
X182853454Y-54944111D01*
X182853458Y-54944114D01*
X182968182Y-55020771D01*
X182968195Y-55020778D01*
X183088890Y-55070771D01*
X183095672Y-55073580D01*
X183095676Y-55073580D01*
X183095677Y-55073581D01*
X183231004Y-55100500D01*
X183231007Y-55100500D01*
X183368995Y-55100500D01*
X183467005Y-55081004D01*
X183504328Y-55073580D01*
X183631811Y-55020775D01*
X183746542Y-54944114D01*
X183746545Y-54944111D01*
X183788319Y-54902338D01*
X183849642Y-54868853D01*
X183919334Y-54873837D01*
X183975267Y-54915709D01*
X183999684Y-54981173D01*
X184000000Y-54990019D01*
X184000000Y-77909981D01*
X183980315Y-77977020D01*
X183927511Y-78022775D01*
X183858353Y-78032719D01*
X183794797Y-78003694D01*
X183788319Y-77997662D01*
X183746545Y-77955888D01*
X183746541Y-77955885D01*
X183631817Y-77879228D01*
X183631804Y-77879221D01*
X183504332Y-77826421D01*
X183504322Y-77826418D01*
X183368995Y-77799500D01*
X183368993Y-77799500D01*
X183231007Y-77799500D01*
X183231005Y-77799500D01*
X183095674Y-77826419D01*
X183089840Y-77828189D01*
X183089344Y-77826555D01*
X183027975Y-77833149D01*
X183010235Y-77827940D01*
X183010160Y-77828189D01*
X183004325Y-77826419D01*
X182868995Y-77799500D01*
X182868993Y-77799500D01*
X182731007Y-77799500D01*
X182731005Y-77799500D01*
X182595677Y-77826418D01*
X182595667Y-77826421D01*
X182468195Y-77879221D01*
X182468182Y-77879228D01*
X182353458Y-77955885D01*
X182353454Y-77955888D01*
X182255888Y-78053454D01*
X182255885Y-78053458D01*
X182179228Y-78168182D01*
X182179221Y-78168195D01*
X182126421Y-78295667D01*
X182126418Y-78295677D01*
X182099500Y-78431004D01*
X182099500Y-78431007D01*
X182099500Y-78568993D01*
X182099500Y-78568995D01*
X182099499Y-78568995D01*
X182126418Y-78704321D01*
X182126420Y-78704329D01*
X182146393Y-78752548D01*
X182153862Y-78822018D01*
X182146393Y-78847452D01*
X182126420Y-78895670D01*
X182126418Y-78895678D01*
X182099500Y-79031004D01*
X182099500Y-79031007D01*
X182099500Y-79168993D01*
X182099500Y-79168995D01*
X182099499Y-79168995D01*
X182126418Y-79304321D01*
X182126420Y-79304329D01*
X182146393Y-79352548D01*
X182153862Y-79422018D01*
X182146393Y-79447452D01*
X182126420Y-79495670D01*
X182126418Y-79495678D01*
X182099500Y-79631004D01*
X182099500Y-79631007D01*
X182099500Y-79768993D01*
X182099500Y-79768995D01*
X182099499Y-79768995D01*
X182126418Y-79904321D01*
X182126420Y-79904329D01*
X182146393Y-79952548D01*
X182153862Y-80022018D01*
X182146393Y-80047452D01*
X182126420Y-80095670D01*
X182126418Y-80095678D01*
X182099500Y-80231004D01*
X182099500Y-80231007D01*
X182099500Y-80368993D01*
X182099500Y-80368995D01*
X182099499Y-80368995D01*
X182126418Y-80504322D01*
X182126421Y-80504332D01*
X182179221Y-80631804D01*
X182179228Y-80631817D01*
X182255885Y-80746541D01*
X182255888Y-80746545D01*
X182353454Y-80844111D01*
X182353458Y-80844114D01*
X182468182Y-80920771D01*
X182468195Y-80920778D01*
X182592007Y-80972062D01*
X182595672Y-80973580D01*
X182595676Y-80973580D01*
X182595677Y-80973581D01*
X182731004Y-81000500D01*
X182731007Y-81000500D01*
X182868995Y-81000500D01*
X182960041Y-80982389D01*
X183004328Y-80973580D01*
X183004335Y-80973576D01*
X183010155Y-80971812D01*
X183010651Y-80973448D01*
X183072003Y-80966846D01*
X183089769Y-80972062D01*
X183089845Y-80971812D01*
X183095667Y-80973578D01*
X183095672Y-80973580D01*
X183095676Y-80973580D01*
X183095677Y-80973581D01*
X183231004Y-81000500D01*
X183231007Y-81000500D01*
X183368995Y-81000500D01*
X183460041Y-80982389D01*
X183504328Y-80973580D01*
X183631811Y-80920775D01*
X183746542Y-80844114D01*
X183759652Y-80831004D01*
X183788319Y-80802338D01*
X183849642Y-80768853D01*
X183919334Y-80773837D01*
X183975267Y-80815709D01*
X183999684Y-80881173D01*
X184000000Y-80890019D01*
X184000000Y-89925500D01*
X183980315Y-89992539D01*
X183927511Y-90038294D01*
X183876000Y-90049500D01*
X157032726Y-90049500D01*
X156965687Y-90029815D01*
X156919932Y-89977011D01*
X156909988Y-89907853D01*
X156939013Y-89844297D01*
X156966754Y-89820506D01*
X157141289Y-89710838D01*
X157352085Y-89542734D01*
X157542734Y-89352085D01*
X157710838Y-89141289D01*
X157854284Y-88912997D01*
X157971267Y-88670079D01*
X158060316Y-88415591D01*
X158120312Y-88152732D01*
X158150500Y-87884809D01*
X158150500Y-87615191D01*
X158120312Y-87347268D01*
X158060316Y-87084409D01*
X157971267Y-86829921D01*
X157854284Y-86587003D01*
X157710838Y-86358711D01*
X157542734Y-86147915D01*
X157352085Y-85957266D01*
X157141289Y-85789162D01*
X156912997Y-85645716D01*
X156912994Y-85645714D01*
X156670082Y-85528734D01*
X156415602Y-85439687D01*
X156415594Y-85439684D01*
X156218446Y-85394687D01*
X156152732Y-85379688D01*
X156152728Y-85379687D01*
X156152719Y-85379686D01*
X155884813Y-85349500D01*
X155884809Y-85349500D01*
X155615191Y-85349500D01*
X155615186Y-85349500D01*
X155347280Y-85379686D01*
X155347268Y-85379688D01*
X155084405Y-85439684D01*
X155084397Y-85439687D01*
X154829917Y-85528734D01*
X154587005Y-85645714D01*
X154358712Y-85789161D01*
X154147915Y-85957265D01*
X153957265Y-86147915D01*
X153904025Y-86214677D01*
X153846837Y-86254817D01*
X153777025Y-86257667D01*
X153716755Y-86222322D01*
X153685162Y-86160003D01*
X153683078Y-86137364D01*
X153683078Y-84168995D01*
X159999499Y-84168995D01*
X160026418Y-84304322D01*
X160026421Y-84304332D01*
X160079221Y-84431804D01*
X160079228Y-84431817D01*
X160155885Y-84546541D01*
X160155888Y-84546545D01*
X160253454Y-84644111D01*
X160253458Y-84644114D01*
X160368182Y-84720771D01*
X160368195Y-84720778D01*
X160492007Y-84772062D01*
X160495672Y-84773580D01*
X160495676Y-84773580D01*
X160495677Y-84773581D01*
X160631004Y-84800500D01*
X160631007Y-84800500D01*
X160768995Y-84800500D01*
X160860041Y-84782389D01*
X160904328Y-84773580D01*
X160904335Y-84773576D01*
X160910155Y-84771812D01*
X160910651Y-84773448D01*
X160972003Y-84766846D01*
X160989769Y-84772062D01*
X160989845Y-84771812D01*
X160995667Y-84773578D01*
X160995672Y-84773580D01*
X160995676Y-84773580D01*
X160995677Y-84773581D01*
X161131004Y-84800500D01*
X161131007Y-84800500D01*
X161268995Y-84800500D01*
X161360041Y-84782389D01*
X161404328Y-84773580D01*
X161404335Y-84773576D01*
X161410155Y-84771812D01*
X161410651Y-84773448D01*
X161472003Y-84766846D01*
X161489769Y-84772062D01*
X161489845Y-84771812D01*
X161495667Y-84773578D01*
X161495672Y-84773580D01*
X161495676Y-84773580D01*
X161495677Y-84773581D01*
X161631004Y-84800500D01*
X161631007Y-84800500D01*
X161768995Y-84800500D01*
X161860041Y-84782389D01*
X161904328Y-84773580D01*
X161904335Y-84773576D01*
X161910155Y-84771812D01*
X161910651Y-84773448D01*
X161972003Y-84766846D01*
X161989769Y-84772062D01*
X161989845Y-84771812D01*
X161995667Y-84773578D01*
X161995672Y-84773580D01*
X161995676Y-84773580D01*
X161995677Y-84773581D01*
X162131004Y-84800500D01*
X162131007Y-84800500D01*
X162268995Y-84800500D01*
X162360041Y-84782389D01*
X162404328Y-84773580D01*
X162404335Y-84773576D01*
X162410155Y-84771812D01*
X162410651Y-84773448D01*
X162472003Y-84766846D01*
X162489769Y-84772062D01*
X162489845Y-84771812D01*
X162495667Y-84773578D01*
X162495672Y-84773580D01*
X162495676Y-84773580D01*
X162495677Y-84773581D01*
X162631004Y-84800500D01*
X162631007Y-84800500D01*
X162768997Y-84800500D01*
X162775060Y-84799903D01*
X162775243Y-84801767D01*
X162836122Y-84807197D01*
X162891312Y-84850044D01*
X162893857Y-84853710D01*
X162955882Y-84946537D01*
X162955888Y-84946545D01*
X163053454Y-85044111D01*
X163053458Y-85044114D01*
X163168182Y-85120771D01*
X163168195Y-85120778D01*
X163295667Y-85173578D01*
X163295672Y-85173580D01*
X163295676Y-85173580D01*
X163295677Y-85173581D01*
X163431004Y-85200500D01*
X163431007Y-85200500D01*
X163568995Y-85200500D01*
X163660041Y-85182389D01*
X163704328Y-85173580D01*
X163831811Y-85120775D01*
X163946542Y-85044114D01*
X164044114Y-84946542D01*
X164120775Y-84831811D01*
X164173580Y-84704328D01*
X164185558Y-84644111D01*
X164200500Y-84568995D01*
X164200500Y-84533177D01*
X165182375Y-84533177D01*
X165287636Y-84576778D01*
X165287640Y-84576779D01*
X165432526Y-84605599D01*
X165432529Y-84605600D01*
X165580271Y-84605600D01*
X165580273Y-84605599D01*
X165725160Y-84576779D01*
X165725175Y-84576775D01*
X165830424Y-84533178D01*
X165830424Y-84533177D01*
X165506401Y-84209154D01*
X165506400Y-84209154D01*
X165182375Y-84533177D01*
X164200500Y-84533177D01*
X164200500Y-84431004D01*
X164173581Y-84295677D01*
X164173580Y-84295676D01*
X164173580Y-84295672D01*
X164173578Y-84295667D01*
X164120778Y-84168195D01*
X164120771Y-84168182D01*
X164044114Y-84053458D01*
X164044111Y-84053454D01*
X163946542Y-83955885D01*
X163911420Y-83932418D01*
X163866615Y-83878806D01*
X163865750Y-83876768D01*
X163820778Y-83768195D01*
X163820771Y-83768182D01*
X163744114Y-83653458D01*
X163744111Y-83653454D01*
X163673834Y-83583177D01*
X164607375Y-83583177D01*
X164687527Y-83616378D01*
X164741930Y-83660220D01*
X164763994Y-83726514D01*
X164761691Y-83755127D01*
X164756400Y-83781729D01*
X164756400Y-83929473D01*
X164785220Y-84074359D01*
X164785222Y-84074367D01*
X164828821Y-84179624D01*
X165241942Y-83766504D01*
X165303265Y-83733019D01*
X165372957Y-83738003D01*
X165417304Y-83766504D01*
X165435689Y-83784889D01*
X165421624Y-83798955D01*
X165406400Y-83835709D01*
X165406400Y-83875491D01*
X165421624Y-83912245D01*
X165449755Y-83940376D01*
X165486509Y-83955600D01*
X165526291Y-83955600D01*
X165563045Y-83940376D01*
X165591176Y-83912245D01*
X165606400Y-83875491D01*
X165606400Y-83835709D01*
X165591176Y-83798955D01*
X165577109Y-83784888D01*
X165595494Y-83766504D01*
X165656817Y-83733019D01*
X165726509Y-83738003D01*
X165770857Y-83766504D01*
X166183977Y-84179624D01*
X166183978Y-84179624D01*
X166227575Y-84074375D01*
X166227579Y-84074360D01*
X166256399Y-83929473D01*
X166256400Y-83929471D01*
X166256400Y-83781729D01*
X166251109Y-83755132D01*
X166257336Y-83685540D01*
X166300198Y-83630362D01*
X166325272Y-83616378D01*
X166405424Y-83583177D01*
X166081400Y-83259154D01*
X165723604Y-83616950D01*
X165662281Y-83650435D01*
X165592589Y-83645451D01*
X165548242Y-83616950D01*
X165506400Y-83575108D01*
X165464558Y-83616950D01*
X165403234Y-83650434D01*
X165333543Y-83645449D01*
X165289196Y-83616949D01*
X164931401Y-83259154D01*
X164931400Y-83259154D01*
X164607375Y-83583177D01*
X163673834Y-83583177D01*
X163646545Y-83555888D01*
X163646541Y-83555885D01*
X163531817Y-83479228D01*
X163531804Y-83479221D01*
X163404332Y-83426421D01*
X163404322Y-83426418D01*
X163268995Y-83399500D01*
X163268993Y-83399500D01*
X163131007Y-83399500D01*
X163131005Y-83399500D01*
X162995674Y-83426419D01*
X162989840Y-83428189D01*
X162989344Y-83426555D01*
X162927975Y-83433149D01*
X162910235Y-83427940D01*
X162910160Y-83428189D01*
X162904325Y-83426419D01*
X162768995Y-83399500D01*
X162768993Y-83399500D01*
X162631007Y-83399500D01*
X162631005Y-83399500D01*
X162495674Y-83426419D01*
X162489840Y-83428189D01*
X162489344Y-83426555D01*
X162427975Y-83433149D01*
X162410235Y-83427940D01*
X162410160Y-83428189D01*
X162404325Y-83426419D01*
X162268995Y-83399500D01*
X162268993Y-83399500D01*
X162131007Y-83399500D01*
X162131005Y-83399500D01*
X161995674Y-83426419D01*
X161989840Y-83428189D01*
X161989344Y-83426555D01*
X161927975Y-83433149D01*
X161910235Y-83427940D01*
X161910160Y-83428189D01*
X161904325Y-83426419D01*
X161768995Y-83399500D01*
X161768993Y-83399500D01*
X161631007Y-83399500D01*
X161631005Y-83399500D01*
X161495674Y-83426419D01*
X161489840Y-83428189D01*
X161489344Y-83426555D01*
X161427975Y-83433149D01*
X161410235Y-83427940D01*
X161410160Y-83428189D01*
X161404325Y-83426419D01*
X161268995Y-83399500D01*
X161268993Y-83399500D01*
X161131007Y-83399500D01*
X161131005Y-83399500D01*
X160995674Y-83426419D01*
X160989840Y-83428189D01*
X160989344Y-83426555D01*
X160927975Y-83433149D01*
X160910235Y-83427940D01*
X160910160Y-83428189D01*
X160904325Y-83426419D01*
X160768995Y-83399500D01*
X160768993Y-83399500D01*
X160631007Y-83399500D01*
X160631005Y-83399500D01*
X160495677Y-83426418D01*
X160495667Y-83426421D01*
X160368195Y-83479221D01*
X160368182Y-83479228D01*
X160253458Y-83555885D01*
X160253454Y-83555888D01*
X160155888Y-83653454D01*
X160155885Y-83653458D01*
X160079228Y-83768182D01*
X160079221Y-83768195D01*
X160026421Y-83895667D01*
X160026418Y-83895677D01*
X159999500Y-84031004D01*
X159999500Y-84031007D01*
X159999500Y-84168993D01*
X159999500Y-84168995D01*
X159999499Y-84168995D01*
X153683078Y-84168995D01*
X153683078Y-82831726D01*
X164181400Y-82831726D01*
X164181400Y-82979473D01*
X164210220Y-83124359D01*
X164210222Y-83124367D01*
X164253821Y-83229624D01*
X164577846Y-82905600D01*
X164577846Y-82905599D01*
X164557956Y-82885709D01*
X164831400Y-82885709D01*
X164831400Y-82925491D01*
X164846624Y-82962245D01*
X164874755Y-82990376D01*
X164911509Y-83005600D01*
X164951291Y-83005600D01*
X164988045Y-82990376D01*
X165016176Y-82962245D01*
X165031400Y-82925491D01*
X165031400Y-82905600D01*
X165284954Y-82905600D01*
X165506400Y-83127046D01*
X165727846Y-82905600D01*
X165707955Y-82885709D01*
X165981400Y-82885709D01*
X165981400Y-82925491D01*
X165996624Y-82962245D01*
X166024755Y-82990376D01*
X166061509Y-83005600D01*
X166101291Y-83005600D01*
X166138045Y-82990376D01*
X166166176Y-82962245D01*
X166181400Y-82925491D01*
X166181400Y-82905599D01*
X166434954Y-82905599D01*
X166434954Y-82905601D01*
X166758977Y-83229624D01*
X166758978Y-83229624D01*
X166802575Y-83124375D01*
X166802579Y-83124360D01*
X166831399Y-82979473D01*
X166831400Y-82979471D01*
X166831400Y-82831728D01*
X166831399Y-82831726D01*
X166802579Y-82686840D01*
X166802578Y-82686836D01*
X166758977Y-82581575D01*
X166434954Y-82905599D01*
X166181400Y-82905599D01*
X166181400Y-82885709D01*
X166166176Y-82848955D01*
X166138045Y-82820824D01*
X166101291Y-82805600D01*
X166061509Y-82805600D01*
X166024755Y-82820824D01*
X165996624Y-82848955D01*
X165981400Y-82885709D01*
X165707955Y-82885709D01*
X165506400Y-82684154D01*
X165284954Y-82905600D01*
X165031400Y-82905600D01*
X165031400Y-82885709D01*
X165016176Y-82848955D01*
X164988045Y-82820824D01*
X164951291Y-82805600D01*
X164911509Y-82805600D01*
X164874755Y-82820824D01*
X164846624Y-82848955D01*
X164831400Y-82885709D01*
X164557956Y-82885709D01*
X164253821Y-82581574D01*
X164253820Y-82581574D01*
X164210223Y-82686828D01*
X164210220Y-82686840D01*
X164181400Y-82831726D01*
X153683078Y-82831726D01*
X153683078Y-82228021D01*
X164607374Y-82228021D01*
X164931399Y-82552046D01*
X165289196Y-82194250D01*
X165350519Y-82160765D01*
X165420211Y-82165749D01*
X165464558Y-82194250D01*
X165506400Y-82236092D01*
X165548242Y-82194250D01*
X165609565Y-82160765D01*
X165679257Y-82165749D01*
X165723604Y-82194250D01*
X166081400Y-82552046D01*
X166081401Y-82552046D01*
X166405424Y-82228021D01*
X166325273Y-82194821D01*
X166270870Y-82150980D01*
X166248805Y-82084686D01*
X166251109Y-82056067D01*
X166256400Y-82029469D01*
X166256400Y-81881728D01*
X166256399Y-81881726D01*
X166227579Y-81736840D01*
X166227578Y-81736836D01*
X166183976Y-81631574D01*
X165770857Y-82044695D01*
X165709534Y-82078180D01*
X165639842Y-82073196D01*
X165595495Y-82044695D01*
X165577110Y-82026310D01*
X165591176Y-82012245D01*
X165606400Y-81975491D01*
X165606400Y-81935709D01*
X165591176Y-81898955D01*
X165563045Y-81870824D01*
X165526291Y-81855600D01*
X165486509Y-81855600D01*
X165449755Y-81870824D01*
X165421624Y-81898955D01*
X165406400Y-81935709D01*
X165406400Y-81975491D01*
X165421624Y-82012245D01*
X165435689Y-82026310D01*
X165417304Y-82044696D01*
X165355981Y-82078180D01*
X165286289Y-82073196D01*
X165241942Y-82044695D01*
X164828821Y-81631574D01*
X164828820Y-81631574D01*
X164785223Y-81736828D01*
X164785220Y-81736840D01*
X164756400Y-81881726D01*
X164756400Y-82029469D01*
X164761691Y-82056071D01*
X164755462Y-82125662D01*
X164712598Y-82180839D01*
X164687526Y-82194821D01*
X164607374Y-82228021D01*
X153683078Y-82228021D01*
X153683078Y-81278020D01*
X165182374Y-81278020D01*
X165182374Y-81278021D01*
X165506400Y-81602046D01*
X165506401Y-81602046D01*
X165830424Y-81278021D01*
X165725167Y-81234422D01*
X165725159Y-81234420D01*
X165580272Y-81205600D01*
X165432528Y-81205600D01*
X165287640Y-81234420D01*
X165287628Y-81234423D01*
X165182374Y-81278020D01*
X153683078Y-81278020D01*
X153683078Y-79768995D01*
X167099499Y-79768995D01*
X167126418Y-79904322D01*
X167126421Y-79904332D01*
X167179221Y-80031804D01*
X167179228Y-80031817D01*
X167255885Y-80146541D01*
X167255888Y-80146545D01*
X167353454Y-80244111D01*
X167353457Y-80244113D01*
X167353458Y-80244114D01*
X167358146Y-80247246D01*
X167402950Y-80300859D01*
X167410870Y-80326156D01*
X167426418Y-80404320D01*
X167426421Y-80404332D01*
X167479221Y-80531804D01*
X167479228Y-80531817D01*
X167555885Y-80646541D01*
X167555888Y-80646545D01*
X167653454Y-80744111D01*
X167653458Y-80744114D01*
X167768182Y-80820771D01*
X167768195Y-80820778D01*
X167844678Y-80852458D01*
X167895672Y-80873580D01*
X167896819Y-80873808D01*
X167897362Y-80874092D01*
X167901505Y-80875349D01*
X167901266Y-80876134D01*
X167958729Y-80906194D01*
X167974816Y-80927431D01*
X167975841Y-80926747D01*
X168055882Y-81046537D01*
X168055888Y-81046545D01*
X168153454Y-81144111D01*
X168153458Y-81144114D01*
X168268182Y-81220771D01*
X168268195Y-81220778D01*
X168395667Y-81273578D01*
X168395672Y-81273580D01*
X168452109Y-81284806D01*
X168510760Y-81296473D01*
X168572671Y-81328858D01*
X168574250Y-81330409D01*
X168583791Y-81339950D01*
X168583795Y-81339953D01*
X168698519Y-81416610D01*
X168698532Y-81416617D01*
X168826004Y-81469417D01*
X168826009Y-81469419D01*
X168826013Y-81469419D01*
X168826014Y-81469420D01*
X168961341Y-81496339D01*
X168961344Y-81496339D01*
X169099332Y-81496339D01*
X169190378Y-81478228D01*
X169234665Y-81469419D01*
X169362148Y-81416614D01*
X169476879Y-81339953D01*
X169476882Y-81339950D01*
X169480014Y-81336819D01*
X169541337Y-81303334D01*
X169567695Y-81300500D01*
X169568995Y-81300500D01*
X169660041Y-81282389D01*
X169704328Y-81273580D01*
X169831811Y-81220775D01*
X169946542Y-81144114D01*
X170044114Y-81046542D01*
X170120775Y-80931811D01*
X170173580Y-80804328D01*
X170174875Y-80797815D01*
X170207257Y-80735905D01*
X170267971Y-80701328D01*
X170337740Y-80705064D01*
X170349578Y-80709941D01*
X170357813Y-80713842D01*
X170368189Y-80720775D01*
X170402100Y-80734821D01*
X170404882Y-80736139D01*
X170428745Y-80757408D01*
X170453652Y-80777479D01*
X170455917Y-80781627D01*
X170457040Y-80782628D01*
X170457639Y-80784782D01*
X170466358Y-80800748D01*
X170479223Y-80831807D01*
X170479228Y-80831817D01*
X170555885Y-80946541D01*
X170555888Y-80946545D01*
X170653454Y-81044111D01*
X170653458Y-81044114D01*
X170768182Y-81120771D01*
X170768195Y-81120778D01*
X170895667Y-81173578D01*
X170895672Y-81173580D01*
X170895676Y-81173580D01*
X170895677Y-81173581D01*
X171031004Y-81200500D01*
X171031007Y-81200500D01*
X171168995Y-81200500D01*
X171260041Y-81182389D01*
X171304328Y-81173580D01*
X171352546Y-81153606D01*
X171422015Y-81146137D01*
X171447451Y-81153606D01*
X171464646Y-81160728D01*
X171495666Y-81173578D01*
X171495669Y-81173578D01*
X171495672Y-81173580D01*
X171495676Y-81173580D01*
X171495677Y-81173581D01*
X171631004Y-81200500D01*
X171631007Y-81200500D01*
X171768995Y-81200500D01*
X171860041Y-81182389D01*
X171904328Y-81173580D01*
X172031811Y-81120775D01*
X172146542Y-81044114D01*
X172221661Y-80968995D01*
X173649499Y-80968995D01*
X173676418Y-81104322D01*
X173676421Y-81104332D01*
X173729221Y-81231804D01*
X173729228Y-81231817D01*
X173805885Y-81346541D01*
X173805888Y-81346545D01*
X173903454Y-81444111D01*
X173903458Y-81444114D01*
X174018182Y-81520771D01*
X174018195Y-81520778D01*
X174145667Y-81573578D01*
X174145672Y-81573580D01*
X174145676Y-81573580D01*
X174145677Y-81573581D01*
X174281004Y-81600500D01*
X174281007Y-81600500D01*
X174418995Y-81600500D01*
X174510041Y-81582389D01*
X174554328Y-81573580D01*
X174681811Y-81520775D01*
X174796542Y-81444114D01*
X174894114Y-81346542D01*
X174970775Y-81231811D01*
X175023580Y-81104328D01*
X175027325Y-81085496D01*
X175059709Y-81023586D01*
X175120424Y-80989010D01*
X175190193Y-80992748D01*
X175246866Y-81033613D01*
X175252042Y-81040791D01*
X175255882Y-81046537D01*
X175255888Y-81046545D01*
X175353454Y-81144111D01*
X175353458Y-81144114D01*
X175468182Y-81220771D01*
X175468195Y-81220778D01*
X175595667Y-81273578D01*
X175595672Y-81273580D01*
X175595676Y-81273580D01*
X175595677Y-81273581D01*
X175731004Y-81300500D01*
X175731007Y-81300500D01*
X175868995Y-81300500D01*
X175960041Y-81282389D01*
X176004328Y-81273580D01*
X176131811Y-81220775D01*
X176246542Y-81144114D01*
X176344114Y-81046542D01*
X176395929Y-80968995D01*
X178399499Y-80968995D01*
X178426418Y-81104322D01*
X178426421Y-81104332D01*
X178479221Y-81231804D01*
X178479228Y-81231817D01*
X178555885Y-81346541D01*
X178555888Y-81346545D01*
X178653454Y-81444111D01*
X178653458Y-81444114D01*
X178768182Y-81520771D01*
X178768195Y-81520778D01*
X178895667Y-81573578D01*
X178895672Y-81573580D01*
X178895676Y-81573580D01*
X178895677Y-81573581D01*
X179031004Y-81600500D01*
X179031007Y-81600500D01*
X179168995Y-81600500D01*
X179260041Y-81582389D01*
X179304328Y-81573580D01*
X179431811Y-81520775D01*
X179546542Y-81444114D01*
X179644114Y-81346542D01*
X179720775Y-81231811D01*
X179773580Y-81104328D01*
X179795775Y-80992748D01*
X179800500Y-80968995D01*
X179800500Y-80831004D01*
X179773581Y-80695677D01*
X179773580Y-80695676D01*
X179773580Y-80695672D01*
X179773578Y-80695667D01*
X179720778Y-80568195D01*
X179720771Y-80568182D01*
X179644114Y-80453458D01*
X179644111Y-80453454D01*
X179546545Y-80355888D01*
X179546541Y-80355885D01*
X179431817Y-80279228D01*
X179431804Y-80279221D01*
X179304332Y-80226421D01*
X179304322Y-80226418D01*
X179168995Y-80199500D01*
X179168993Y-80199500D01*
X179031007Y-80199500D01*
X179031005Y-80199500D01*
X178895677Y-80226418D01*
X178895667Y-80226421D01*
X178768195Y-80279221D01*
X178768182Y-80279228D01*
X178653458Y-80355885D01*
X178653454Y-80355888D01*
X178555888Y-80453454D01*
X178555885Y-80453458D01*
X178479228Y-80568182D01*
X178479221Y-80568195D01*
X178426421Y-80695667D01*
X178426418Y-80695677D01*
X178399500Y-80831004D01*
X178399500Y-80831007D01*
X178399500Y-80968993D01*
X178399500Y-80968995D01*
X178399499Y-80968995D01*
X176395929Y-80968995D01*
X176420775Y-80931811D01*
X176473580Y-80804328D01*
X176485074Y-80746545D01*
X176500500Y-80668995D01*
X176500500Y-80531004D01*
X176473581Y-80395677D01*
X176473580Y-80395674D01*
X176473580Y-80395672D01*
X176457100Y-80355885D01*
X176420778Y-80268195D01*
X176420771Y-80268182D01*
X176344114Y-80153458D01*
X176344111Y-80153454D01*
X176322352Y-80131695D01*
X176322346Y-80131690D01*
X176246542Y-80055886D01*
X176152452Y-79993016D01*
X176152446Y-79993012D01*
X176131815Y-79979227D01*
X176131804Y-79979221D01*
X176004332Y-79926421D01*
X176004322Y-79926418D01*
X175868995Y-79899500D01*
X175868993Y-79899500D01*
X175731007Y-79899500D01*
X175731005Y-79899500D01*
X175595677Y-79926418D01*
X175595667Y-79926421D01*
X175468195Y-79979221D01*
X175468182Y-79979228D01*
X175353458Y-80055885D01*
X175353454Y-80055888D01*
X175255888Y-80153454D01*
X175255885Y-80153458D01*
X175179228Y-80268182D01*
X175179221Y-80268195D01*
X175126421Y-80395667D01*
X175126419Y-80395674D01*
X175122673Y-80414507D01*
X175090286Y-80476417D01*
X175029570Y-80510990D01*
X174959800Y-80507249D01*
X174903129Y-80466381D01*
X174897955Y-80459206D01*
X174894113Y-80453456D01*
X174796545Y-80355888D01*
X174796541Y-80355885D01*
X174681817Y-80279228D01*
X174681804Y-80279221D01*
X174554332Y-80226421D01*
X174554322Y-80226418D01*
X174418995Y-80199500D01*
X174418993Y-80199500D01*
X174281007Y-80199500D01*
X174281005Y-80199500D01*
X174145677Y-80226418D01*
X174145667Y-80226421D01*
X174018195Y-80279221D01*
X174018182Y-80279228D01*
X173903458Y-80355885D01*
X173903454Y-80355888D01*
X173805888Y-80453454D01*
X173805885Y-80453458D01*
X173729228Y-80568182D01*
X173729221Y-80568195D01*
X173676421Y-80695667D01*
X173676418Y-80695677D01*
X173649500Y-80831004D01*
X173649500Y-80831007D01*
X173649500Y-80968993D01*
X173649500Y-80968995D01*
X173649499Y-80968995D01*
X172221661Y-80968995D01*
X172244114Y-80946542D01*
X172320775Y-80831811D01*
X172373580Y-80704328D01*
X172375887Y-80692729D01*
X172379713Y-80682798D01*
X172394729Y-80663180D01*
X172406179Y-80641284D01*
X172418690Y-80631876D01*
X172422181Y-80627317D01*
X172427131Y-80625530D01*
X172427483Y-80625265D01*
X172426745Y-80624160D01*
X172546542Y-80544114D01*
X172644111Y-80446545D01*
X172644114Y-80446542D01*
X172720775Y-80331811D01*
X172773580Y-80204328D01*
X172800500Y-80068993D01*
X172800500Y-79931007D01*
X172800500Y-79931004D01*
X172785613Y-79856165D01*
X176376986Y-79856165D01*
X176464994Y-79928000D01*
X176600726Y-79954999D01*
X176600729Y-79955000D01*
X176748471Y-79955000D01*
X176748473Y-79954999D01*
X176893360Y-79926179D01*
X176893375Y-79926175D01*
X176998624Y-79882578D01*
X176998624Y-79882577D01*
X177450575Y-79882577D01*
X177555836Y-79926178D01*
X177555840Y-79926179D01*
X177700726Y-79954999D01*
X177700729Y-79955000D01*
X177848471Y-79955000D01*
X177848473Y-79954999D01*
X177993360Y-79926179D01*
X177993375Y-79926175D01*
X178098624Y-79882578D01*
X178098624Y-79882577D01*
X178550575Y-79882577D01*
X178655836Y-79926178D01*
X178655840Y-79926179D01*
X178800726Y-79954999D01*
X178800729Y-79955000D01*
X178948471Y-79955000D01*
X178948473Y-79954999D01*
X179093360Y-79926179D01*
X179093375Y-79926175D01*
X179198624Y-79882578D01*
X179198624Y-79882577D01*
X178874601Y-79558554D01*
X178874600Y-79558554D01*
X178550575Y-79882577D01*
X178098624Y-79882577D01*
X177774601Y-79558554D01*
X177774600Y-79558554D01*
X177450575Y-79882577D01*
X176998624Y-79882577D01*
X176674601Y-79558554D01*
X176674600Y-79558554D01*
X176376986Y-79856165D01*
X172785613Y-79856165D01*
X172773581Y-79795677D01*
X172773580Y-79795676D01*
X172773580Y-79795672D01*
X172762196Y-79768189D01*
X172720778Y-79668195D01*
X172720771Y-79668182D01*
X172644114Y-79553458D01*
X172644111Y-79553454D01*
X172546545Y-79455888D01*
X172546541Y-79455885D01*
X172431817Y-79379228D01*
X172431804Y-79379221D01*
X172304332Y-79326421D01*
X172304314Y-79326416D01*
X172303168Y-79326188D01*
X172302623Y-79325903D01*
X172298496Y-79324651D01*
X172298733Y-79323867D01*
X172241261Y-79293795D01*
X172225203Y-79272557D01*
X172224160Y-79273254D01*
X172144114Y-79153458D01*
X172144111Y-79153454D01*
X172046545Y-79055888D01*
X172046541Y-79055885D01*
X171931817Y-78979228D01*
X171931807Y-78979223D01*
X171900748Y-78966358D01*
X171846345Y-78922517D01*
X171833641Y-78899252D01*
X171820775Y-78868189D01*
X171812554Y-78855886D01*
X171744114Y-78753458D01*
X171744111Y-78753454D01*
X171659652Y-78668995D01*
X173299499Y-78668995D01*
X173326418Y-78804322D01*
X173326421Y-78804332D01*
X173379221Y-78931804D01*
X173379228Y-78931817D01*
X173455885Y-79046541D01*
X173455888Y-79046545D01*
X173553454Y-79144111D01*
X173553458Y-79144114D01*
X173668182Y-79220771D01*
X173668195Y-79220778D01*
X173766858Y-79261645D01*
X173795672Y-79273580D01*
X173795676Y-79273580D01*
X173795677Y-79273581D01*
X173931004Y-79300500D01*
X173931007Y-79300500D01*
X174068995Y-79300500D01*
X174177718Y-79278873D01*
X174204328Y-79273580D01*
X174331811Y-79220775D01*
X174446542Y-79144114D01*
X174459530Y-79131126D01*
X175924600Y-79131126D01*
X175924600Y-79278873D01*
X175953420Y-79423759D01*
X175953422Y-79423767D01*
X175997021Y-79529024D01*
X176321046Y-79205000D01*
X176321046Y-79204999D01*
X176301156Y-79185109D01*
X176574600Y-79185109D01*
X176574600Y-79224891D01*
X176589824Y-79261645D01*
X176617955Y-79289776D01*
X176654709Y-79305000D01*
X176694491Y-79305000D01*
X176731245Y-79289776D01*
X176759376Y-79261645D01*
X176774600Y-79224891D01*
X176774600Y-79205000D01*
X177028154Y-79205000D01*
X177224600Y-79401446D01*
X177421046Y-79205000D01*
X177401155Y-79185109D01*
X177674600Y-79185109D01*
X177674600Y-79224891D01*
X177689824Y-79261645D01*
X177717955Y-79289776D01*
X177754709Y-79305000D01*
X177794491Y-79305000D01*
X177831245Y-79289776D01*
X177859376Y-79261645D01*
X177874600Y-79224891D01*
X177874600Y-79205000D01*
X178128154Y-79205000D01*
X178324600Y-79401446D01*
X178521046Y-79205000D01*
X178501155Y-79185109D01*
X178774600Y-79185109D01*
X178774600Y-79224891D01*
X178789824Y-79261645D01*
X178817955Y-79289776D01*
X178854709Y-79305000D01*
X178894491Y-79305000D01*
X178931245Y-79289776D01*
X178959376Y-79261645D01*
X178974600Y-79224891D01*
X178974600Y-79204999D01*
X179228154Y-79204999D01*
X179228154Y-79205001D01*
X179552177Y-79529024D01*
X179552178Y-79529024D01*
X179595775Y-79423775D01*
X179595779Y-79423760D01*
X179624599Y-79278873D01*
X179624600Y-79278871D01*
X179624600Y-79131128D01*
X179624599Y-79131126D01*
X179595779Y-78986240D01*
X179595778Y-78986236D01*
X179552177Y-78880975D01*
X179228154Y-79204999D01*
X178974600Y-79204999D01*
X178974600Y-79185109D01*
X178959376Y-79148355D01*
X178931245Y-79120224D01*
X178894491Y-79105000D01*
X178854709Y-79105000D01*
X178817955Y-79120224D01*
X178789824Y-79148355D01*
X178774600Y-79185109D01*
X178501155Y-79185109D01*
X178324600Y-79008554D01*
X178128154Y-79205000D01*
X177874600Y-79205000D01*
X177874600Y-79185109D01*
X177859376Y-79148355D01*
X177831245Y-79120224D01*
X177794491Y-79105000D01*
X177754709Y-79105000D01*
X177717955Y-79120224D01*
X177689824Y-79148355D01*
X177674600Y-79185109D01*
X177401155Y-79185109D01*
X177224600Y-79008554D01*
X177028154Y-79205000D01*
X176774600Y-79205000D01*
X176774600Y-79185109D01*
X176759376Y-79148355D01*
X176731245Y-79120224D01*
X176694491Y-79105000D01*
X176654709Y-79105000D01*
X176617955Y-79120224D01*
X176589824Y-79148355D01*
X176574600Y-79185109D01*
X176301156Y-79185109D01*
X175997021Y-78880974D01*
X175997020Y-78880974D01*
X175953423Y-78986228D01*
X175953420Y-78986240D01*
X175924600Y-79131126D01*
X174459530Y-79131126D01*
X174544114Y-79046542D01*
X174620775Y-78931811D01*
X174673580Y-78804328D01*
X174689077Y-78726420D01*
X174700500Y-78668995D01*
X174700500Y-78655000D01*
X176478154Y-78655000D01*
X176674600Y-78851446D01*
X176871046Y-78655000D01*
X177578154Y-78655000D01*
X177774600Y-78851446D01*
X177971046Y-78655000D01*
X178678154Y-78655000D01*
X178874600Y-78851446D01*
X179071046Y-78655000D01*
X178874600Y-78458554D01*
X178678154Y-78655000D01*
X177971046Y-78655000D01*
X177774600Y-78458554D01*
X177578154Y-78655000D01*
X176871046Y-78655000D01*
X176674600Y-78458554D01*
X176478154Y-78655000D01*
X174700500Y-78655000D01*
X174700500Y-78531004D01*
X174673581Y-78395677D01*
X174673580Y-78395676D01*
X174673580Y-78395672D01*
X174673578Y-78395667D01*
X174620778Y-78268195D01*
X174620771Y-78268182D01*
X174544114Y-78153458D01*
X174544111Y-78153454D01*
X174446545Y-78055888D01*
X174446541Y-78055885D01*
X174409487Y-78031126D01*
X175924600Y-78031126D01*
X175924600Y-78178873D01*
X175953420Y-78323759D01*
X175953422Y-78323767D01*
X175997021Y-78429024D01*
X176321046Y-78105000D01*
X176321046Y-78104999D01*
X176301156Y-78085109D01*
X176574600Y-78085109D01*
X176574600Y-78124891D01*
X176589824Y-78161645D01*
X176617955Y-78189776D01*
X176654709Y-78205000D01*
X176694491Y-78205000D01*
X176731245Y-78189776D01*
X176759376Y-78161645D01*
X176774600Y-78124891D01*
X176774600Y-78105000D01*
X177028154Y-78105000D01*
X177224600Y-78301446D01*
X177421046Y-78105000D01*
X177401155Y-78085109D01*
X177674600Y-78085109D01*
X177674600Y-78124891D01*
X177689824Y-78161645D01*
X177717955Y-78189776D01*
X177754709Y-78205000D01*
X177794491Y-78205000D01*
X177831245Y-78189776D01*
X177859376Y-78161645D01*
X177874600Y-78124891D01*
X177874600Y-78105000D01*
X178128154Y-78105000D01*
X178324600Y-78301446D01*
X178521046Y-78105000D01*
X178501155Y-78085109D01*
X178774600Y-78085109D01*
X178774600Y-78124891D01*
X178789824Y-78161645D01*
X178817955Y-78189776D01*
X178854709Y-78205000D01*
X178894491Y-78205000D01*
X178931245Y-78189776D01*
X178959376Y-78161645D01*
X178974600Y-78124891D01*
X178974600Y-78104999D01*
X179228154Y-78104999D01*
X179228154Y-78105001D01*
X179552177Y-78429024D01*
X179552178Y-78429024D01*
X179595775Y-78323775D01*
X179595779Y-78323760D01*
X179624599Y-78178873D01*
X179624600Y-78178871D01*
X179624600Y-78031128D01*
X179624599Y-78031126D01*
X179595779Y-77886240D01*
X179595778Y-77886236D01*
X179552177Y-77780975D01*
X179228154Y-78104999D01*
X178974600Y-78104999D01*
X178974600Y-78085109D01*
X178959376Y-78048355D01*
X178931245Y-78020224D01*
X178894491Y-78005000D01*
X178854709Y-78005000D01*
X178817955Y-78020224D01*
X178789824Y-78048355D01*
X178774600Y-78085109D01*
X178501155Y-78085109D01*
X178324600Y-77908554D01*
X178128154Y-78105000D01*
X177874600Y-78105000D01*
X177874600Y-78085109D01*
X177859376Y-78048355D01*
X177831245Y-78020224D01*
X177794491Y-78005000D01*
X177754709Y-78005000D01*
X177717955Y-78020224D01*
X177689824Y-78048355D01*
X177674600Y-78085109D01*
X177401155Y-78085109D01*
X177224600Y-77908554D01*
X177028154Y-78105000D01*
X176774600Y-78105000D01*
X176774600Y-78085109D01*
X176759376Y-78048355D01*
X176731245Y-78020224D01*
X176694491Y-78005000D01*
X176654709Y-78005000D01*
X176617955Y-78020224D01*
X176589824Y-78048355D01*
X176574600Y-78085109D01*
X176301156Y-78085109D01*
X175997021Y-77780974D01*
X175997020Y-77780974D01*
X175953423Y-77886228D01*
X175953420Y-77886240D01*
X175924600Y-78031126D01*
X174409487Y-78031126D01*
X174331817Y-77979228D01*
X174331804Y-77979221D01*
X174204332Y-77926421D01*
X174204322Y-77926418D01*
X174068995Y-77899500D01*
X174068993Y-77899500D01*
X173931007Y-77899500D01*
X173931005Y-77899500D01*
X173795677Y-77926418D01*
X173795667Y-77926421D01*
X173668195Y-77979221D01*
X173668182Y-77979228D01*
X173553458Y-78055885D01*
X173553454Y-78055888D01*
X173455888Y-78153454D01*
X173455885Y-78153458D01*
X173379228Y-78268182D01*
X173379221Y-78268195D01*
X173326421Y-78395667D01*
X173326418Y-78395677D01*
X173299500Y-78531004D01*
X173299500Y-78531007D01*
X173299500Y-78668993D01*
X173299500Y-78668995D01*
X173299499Y-78668995D01*
X171659652Y-78668995D01*
X171646545Y-78655888D01*
X171646541Y-78655885D01*
X171604834Y-78628017D01*
X171531817Y-78579228D01*
X171531804Y-78579221D01*
X171404332Y-78526421D01*
X171404322Y-78526418D01*
X171268995Y-78499500D01*
X171268993Y-78499500D01*
X171131007Y-78499500D01*
X171131005Y-78499500D01*
X170995677Y-78526418D01*
X170995667Y-78526421D01*
X170868195Y-78579221D01*
X170868182Y-78579228D01*
X170753458Y-78655885D01*
X170753454Y-78655888D01*
X170655888Y-78753454D01*
X170655882Y-78753462D01*
X170579226Y-78868186D01*
X170579222Y-78868192D01*
X170566357Y-78899252D01*
X170522515Y-78953655D01*
X170499252Y-78966357D01*
X170468192Y-78979222D01*
X170468186Y-78979226D01*
X170353462Y-79055882D01*
X170353454Y-79055888D01*
X170255888Y-79153454D01*
X170255885Y-79153458D01*
X170179228Y-79268182D01*
X170179221Y-79268195D01*
X170126421Y-79395667D01*
X170126418Y-79395677D01*
X170099500Y-79531004D01*
X170099500Y-79668992D01*
X170100034Y-79671677D01*
X170099905Y-79673111D01*
X170100097Y-79675055D01*
X170099728Y-79675091D01*
X170093805Y-79741269D01*
X170093095Y-79743033D01*
X170088390Y-79754471D01*
X170079225Y-79768189D01*
X170026420Y-79895672D01*
X170022772Y-79914009D01*
X170018185Y-79925163D01*
X170003566Y-79943396D01*
X169992734Y-79964102D01*
X169982120Y-79970145D01*
X169974479Y-79979676D01*
X169952323Y-79987111D01*
X169932017Y-79998674D01*
X169919820Y-79998019D01*
X169908240Y-80001906D01*
X169885582Y-79996182D01*
X169862248Y-79994931D01*
X169843528Y-79985560D01*
X169840498Y-79984795D01*
X169839175Y-79983381D01*
X169834614Y-79981098D01*
X169831811Y-79979225D01*
X169831807Y-79979223D01*
X169800748Y-79966358D01*
X169746345Y-79922517D01*
X169733642Y-79899254D01*
X169720775Y-79868189D01*
X169644114Y-79753458D01*
X169644111Y-79753454D01*
X169546545Y-79655888D01*
X169546541Y-79655885D01*
X169431817Y-79579228D01*
X169431804Y-79579221D01*
X169304332Y-79526421D01*
X169304320Y-79526418D01*
X169226156Y-79510870D01*
X169164245Y-79478485D01*
X169162666Y-79476934D01*
X169154029Y-79468297D01*
X169144114Y-79453458D01*
X169046542Y-79355886D01*
X169031702Y-79345970D01*
X169023064Y-79337332D01*
X169011938Y-79316956D01*
X168997048Y-79299139D01*
X168990111Y-79276983D01*
X168989579Y-79276009D01*
X168989621Y-79275418D01*
X168989130Y-79273850D01*
X168973580Y-79195672D01*
X168936023Y-79105000D01*
X168920778Y-79068195D01*
X168920771Y-79068182D01*
X168844114Y-78953458D01*
X168844111Y-78953454D01*
X168746545Y-78855888D01*
X168746541Y-78855885D01*
X168631817Y-78779228D01*
X168631804Y-78779221D01*
X168504332Y-78726421D01*
X168504322Y-78726418D01*
X168368995Y-78699500D01*
X168368993Y-78699500D01*
X168231007Y-78699500D01*
X168231005Y-78699500D01*
X168095677Y-78726418D01*
X168095667Y-78726421D01*
X167968195Y-78779221D01*
X167968182Y-78779228D01*
X167853458Y-78855885D01*
X167853454Y-78855888D01*
X167755890Y-78953452D01*
X167755883Y-78953460D01*
X167752750Y-78958150D01*
X167699135Y-79002952D01*
X167673844Y-79010870D01*
X167595677Y-79026418D01*
X167595667Y-79026421D01*
X167468195Y-79079221D01*
X167468182Y-79079228D01*
X167353458Y-79155885D01*
X167353454Y-79155888D01*
X167255888Y-79253454D01*
X167255885Y-79253458D01*
X167179228Y-79368182D01*
X167179221Y-79368195D01*
X167126421Y-79495667D01*
X167126418Y-79495677D01*
X167099500Y-79631004D01*
X167099500Y-79631007D01*
X167099500Y-79768993D01*
X167099500Y-79768995D01*
X167099499Y-79768995D01*
X153683078Y-79768995D01*
X153683078Y-77555000D01*
X176478154Y-77555000D01*
X176674600Y-77751446D01*
X176871046Y-77555000D01*
X177578154Y-77555000D01*
X177774600Y-77751446D01*
X177971046Y-77555000D01*
X178678154Y-77555000D01*
X178874600Y-77751446D01*
X179071046Y-77555000D01*
X178874600Y-77358554D01*
X178678154Y-77555000D01*
X177971046Y-77555000D01*
X177774600Y-77358554D01*
X177578154Y-77555000D01*
X176871046Y-77555000D01*
X176674600Y-77358554D01*
X176478154Y-77555000D01*
X153683078Y-77555000D01*
X153683078Y-76931126D01*
X175924600Y-76931126D01*
X175924600Y-77078873D01*
X175953420Y-77223759D01*
X175953422Y-77223767D01*
X175997021Y-77329024D01*
X176321046Y-77005000D01*
X176321046Y-77004999D01*
X176301156Y-76985109D01*
X176574600Y-76985109D01*
X176574600Y-77024891D01*
X176589824Y-77061645D01*
X176617955Y-77089776D01*
X176654709Y-77105000D01*
X176694491Y-77105000D01*
X176731245Y-77089776D01*
X176759376Y-77061645D01*
X176774600Y-77024891D01*
X176774600Y-77005000D01*
X177028154Y-77005000D01*
X177224600Y-77201446D01*
X177421046Y-77005000D01*
X177401155Y-76985109D01*
X177674600Y-76985109D01*
X177674600Y-77024891D01*
X177689824Y-77061645D01*
X177717955Y-77089776D01*
X177754709Y-77105000D01*
X177794491Y-77105000D01*
X177831245Y-77089776D01*
X177859376Y-77061645D01*
X177874600Y-77024891D01*
X177874600Y-77005000D01*
X178128154Y-77005000D01*
X178324600Y-77201446D01*
X178521046Y-77005000D01*
X178501155Y-76985109D01*
X178774600Y-76985109D01*
X178774600Y-77024891D01*
X178789824Y-77061645D01*
X178817955Y-77089776D01*
X178854709Y-77105000D01*
X178894491Y-77105000D01*
X178931245Y-77089776D01*
X178959376Y-77061645D01*
X178974600Y-77024891D01*
X178974600Y-77004999D01*
X179228154Y-77004999D01*
X179228154Y-77005001D01*
X179552177Y-77329024D01*
X179552178Y-77329024D01*
X179595775Y-77223775D01*
X179595779Y-77223760D01*
X179624599Y-77078873D01*
X179624600Y-77078871D01*
X179624600Y-76931128D01*
X179624599Y-76931126D01*
X179595779Y-76786240D01*
X179595778Y-76786236D01*
X179552177Y-76680975D01*
X179228154Y-77004999D01*
X178974600Y-77004999D01*
X178974600Y-76985109D01*
X178959376Y-76948355D01*
X178931245Y-76920224D01*
X178894491Y-76905000D01*
X178854709Y-76905000D01*
X178817955Y-76920224D01*
X178789824Y-76948355D01*
X178774600Y-76985109D01*
X178501155Y-76985109D01*
X178324600Y-76808554D01*
X178128154Y-77005000D01*
X177874600Y-77005000D01*
X177874600Y-76985109D01*
X177859376Y-76948355D01*
X177831245Y-76920224D01*
X177794491Y-76905000D01*
X177754709Y-76905000D01*
X177717955Y-76920224D01*
X177689824Y-76948355D01*
X177674600Y-76985109D01*
X177401155Y-76985109D01*
X177224600Y-76808554D01*
X177028154Y-77005000D01*
X176774600Y-77005000D01*
X176774600Y-76985109D01*
X176759376Y-76948355D01*
X176731245Y-76920224D01*
X176694491Y-76905000D01*
X176654709Y-76905000D01*
X176617955Y-76920224D01*
X176589824Y-76948355D01*
X176574600Y-76985109D01*
X176301156Y-76985109D01*
X175997021Y-76680974D01*
X175997020Y-76680974D01*
X175953423Y-76786228D01*
X175953420Y-76786240D01*
X175924600Y-76931126D01*
X153683078Y-76931126D01*
X153683078Y-76327420D01*
X176350574Y-76327420D01*
X176350574Y-76327421D01*
X176674600Y-76651446D01*
X176674601Y-76651446D01*
X176998624Y-76327421D01*
X176893367Y-76283822D01*
X176893359Y-76283820D01*
X176748472Y-76255000D01*
X176600728Y-76255000D01*
X176455840Y-76283820D01*
X176455828Y-76283823D01*
X176350574Y-76327420D01*
X153683078Y-76327420D01*
X153683078Y-74918995D01*
X167049499Y-74918995D01*
X167076418Y-75054322D01*
X167076421Y-75054332D01*
X167129221Y-75181804D01*
X167129228Y-75181817D01*
X167205885Y-75296541D01*
X167205888Y-75296545D01*
X167303454Y-75394111D01*
X167303458Y-75394114D01*
X167418182Y-75470771D01*
X167418195Y-75470778D01*
X167545667Y-75523578D01*
X167545672Y-75523580D01*
X167545676Y-75523580D01*
X167545677Y-75523581D01*
X167681004Y-75550500D01*
X167681007Y-75550500D01*
X167818995Y-75550500D01*
X167910041Y-75532389D01*
X167954328Y-75523580D01*
X168081811Y-75470775D01*
X168196542Y-75394114D01*
X168294114Y-75296542D01*
X168370775Y-75181811D01*
X168376084Y-75168995D01*
X171599499Y-75168995D01*
X171626418Y-75304322D01*
X171626421Y-75304332D01*
X171679221Y-75431804D01*
X171679228Y-75431817D01*
X171755885Y-75546541D01*
X171755888Y-75546545D01*
X171853454Y-75644111D01*
X171853458Y-75644114D01*
X171968182Y-75720771D01*
X171968195Y-75720778D01*
X172095667Y-75773578D01*
X172095672Y-75773580D01*
X172095676Y-75773580D01*
X172095677Y-75773581D01*
X172231004Y-75800500D01*
X172231007Y-75800500D01*
X172368995Y-75800500D01*
X172460041Y-75782389D01*
X172504328Y-75773580D01*
X172552546Y-75753606D01*
X172622015Y-75746137D01*
X172647451Y-75753606D01*
X172664646Y-75760728D01*
X172695666Y-75773578D01*
X172695669Y-75773578D01*
X172695672Y-75773580D01*
X172695676Y-75773580D01*
X172695677Y-75773581D01*
X172831004Y-75800500D01*
X172831007Y-75800500D01*
X172968995Y-75800500D01*
X173060041Y-75782389D01*
X173104328Y-75773580D01*
X173152546Y-75753606D01*
X173222015Y-75746137D01*
X173247451Y-75753606D01*
X173264646Y-75760728D01*
X173295666Y-75773578D01*
X173295669Y-75773578D01*
X173295672Y-75773580D01*
X173295676Y-75773580D01*
X173295677Y-75773581D01*
X173431004Y-75800500D01*
X173431007Y-75800500D01*
X173568995Y-75800500D01*
X173660041Y-75782389D01*
X173704328Y-75773580D01*
X173831811Y-75720775D01*
X173946542Y-75644114D01*
X174044114Y-75546542D01*
X174095929Y-75468995D01*
X176799499Y-75468995D01*
X176826418Y-75604322D01*
X176826421Y-75604332D01*
X176879221Y-75731804D01*
X176879228Y-75731817D01*
X176955885Y-75846541D01*
X176955888Y-75846545D01*
X177053454Y-75944111D01*
X177053458Y-75944114D01*
X177168182Y-76020771D01*
X177168195Y-76020778D01*
X177295667Y-76073578D01*
X177295672Y-76073580D01*
X177413412Y-76097000D01*
X177475323Y-76129384D01*
X177509897Y-76190100D01*
X177506158Y-76259870D01*
X177465292Y-76316542D01*
X177451097Y-76324793D01*
X177450574Y-76327421D01*
X177774600Y-76651446D01*
X177774601Y-76651446D01*
X178098624Y-76327421D01*
X178098622Y-76327420D01*
X178550574Y-76327420D01*
X178550574Y-76327421D01*
X178874600Y-76651446D01*
X178874601Y-76651446D01*
X179198624Y-76327421D01*
X179093367Y-76283822D01*
X179093359Y-76283820D01*
X178948472Y-76255000D01*
X178800728Y-76255000D01*
X178655840Y-76283820D01*
X178655828Y-76283823D01*
X178550574Y-76327420D01*
X178098622Y-76327420D01*
X177993367Y-76283822D01*
X177993361Y-76283820D01*
X177856116Y-76256520D01*
X177794205Y-76224135D01*
X177759631Y-76163419D01*
X177763371Y-76093649D01*
X177804238Y-76036978D01*
X177826615Y-76023971D01*
X177826441Y-76023645D01*
X177831804Y-76020777D01*
X177831811Y-76020775D01*
X177946542Y-75944114D01*
X178044114Y-75846542D01*
X178120775Y-75731811D01*
X178173580Y-75604328D01*
X178200146Y-75470775D01*
X178200500Y-75468995D01*
X178200500Y-75331004D01*
X178173581Y-75195677D01*
X178173580Y-75195676D01*
X178173580Y-75195672D01*
X178162529Y-75168993D01*
X178120778Y-75068195D01*
X178120771Y-75068182D01*
X178044114Y-74953458D01*
X178044111Y-74953454D01*
X177946545Y-74855888D01*
X177946541Y-74855885D01*
X177831817Y-74779228D01*
X177831804Y-74779221D01*
X177704332Y-74726421D01*
X177704322Y-74726418D01*
X177568995Y-74699500D01*
X177568993Y-74699500D01*
X177431007Y-74699500D01*
X177431005Y-74699500D01*
X177295677Y-74726418D01*
X177295667Y-74726421D01*
X177168195Y-74779221D01*
X177168182Y-74779228D01*
X177053458Y-74855885D01*
X177053454Y-74855888D01*
X176955888Y-74953454D01*
X176955885Y-74953458D01*
X176879228Y-75068182D01*
X176879221Y-75068195D01*
X176826421Y-75195667D01*
X176826418Y-75195677D01*
X176799500Y-75331004D01*
X176799500Y-75331007D01*
X176799500Y-75468993D01*
X176799500Y-75468995D01*
X176799499Y-75468995D01*
X174095929Y-75468995D01*
X174120775Y-75431811D01*
X174173580Y-75304328D01*
X174197949Y-75181817D01*
X174200500Y-75168995D01*
X174200500Y-75031004D01*
X174174280Y-74899192D01*
X174174280Y-74850808D01*
X174200500Y-74718995D01*
X174200500Y-74581004D01*
X174173581Y-74445677D01*
X174173580Y-74445676D01*
X174173580Y-74445672D01*
X174164429Y-74423580D01*
X174120778Y-74318195D01*
X174120771Y-74318182D01*
X174044114Y-74203458D01*
X174044111Y-74203454D01*
X173946545Y-74105888D01*
X173946541Y-74105885D01*
X173831817Y-74029228D01*
X173831804Y-74029221D01*
X173704332Y-73976421D01*
X173704322Y-73976418D01*
X173568995Y-73949500D01*
X173568993Y-73949500D01*
X173431007Y-73949500D01*
X173431005Y-73949500D01*
X173295678Y-73976418D01*
X173295670Y-73976420D01*
X173247452Y-73996393D01*
X173177982Y-74003862D01*
X173152548Y-73996393D01*
X173104329Y-73976420D01*
X173104321Y-73976418D01*
X172968995Y-73949500D01*
X172968993Y-73949500D01*
X172831007Y-73949500D01*
X172831005Y-73949500D01*
X172695678Y-73976418D01*
X172695670Y-73976420D01*
X172647452Y-73996393D01*
X172577982Y-74003862D01*
X172552548Y-73996393D01*
X172504329Y-73976420D01*
X172504321Y-73976418D01*
X172368995Y-73949500D01*
X172368993Y-73949500D01*
X172231007Y-73949500D01*
X172231005Y-73949500D01*
X172095677Y-73976418D01*
X172095667Y-73976421D01*
X171968195Y-74029221D01*
X171968182Y-74029228D01*
X171853458Y-74105885D01*
X171853454Y-74105888D01*
X171755888Y-74203454D01*
X171755885Y-74203458D01*
X171679228Y-74318182D01*
X171679221Y-74318195D01*
X171626421Y-74445667D01*
X171626418Y-74445677D01*
X171599500Y-74581004D01*
X171599500Y-74718997D01*
X171625719Y-74850809D01*
X171625719Y-74899191D01*
X171599500Y-75031002D01*
X171599500Y-75031007D01*
X171599500Y-75168993D01*
X171599500Y-75168995D01*
X171599499Y-75168995D01*
X168376084Y-75168995D01*
X168423580Y-75054328D01*
X168432389Y-75010041D01*
X168450500Y-74918995D01*
X168450500Y-74781004D01*
X168423581Y-74645677D01*
X168423580Y-74645676D01*
X168423580Y-74645672D01*
X168395796Y-74578595D01*
X168370778Y-74518195D01*
X168370771Y-74518182D01*
X168294114Y-74403458D01*
X168294111Y-74403454D01*
X168196545Y-74305888D01*
X168196541Y-74305885D01*
X168081817Y-74229228D01*
X168081804Y-74229221D01*
X167954332Y-74176421D01*
X167954322Y-74176418D01*
X167818995Y-74149500D01*
X167818993Y-74149500D01*
X167681007Y-74149500D01*
X167681005Y-74149500D01*
X167545677Y-74176418D01*
X167545667Y-74176421D01*
X167418195Y-74229221D01*
X167418182Y-74229228D01*
X167303458Y-74305885D01*
X167303454Y-74305888D01*
X167205888Y-74403454D01*
X167205885Y-74403458D01*
X167129228Y-74518182D01*
X167129221Y-74518195D01*
X167076421Y-74645667D01*
X167076418Y-74645677D01*
X167049500Y-74781004D01*
X167049500Y-74781007D01*
X167049500Y-74918993D01*
X167049500Y-74918995D01*
X167049499Y-74918995D01*
X153683078Y-74918995D01*
X153683078Y-74218995D01*
X156422299Y-74218995D01*
X156449218Y-74354322D01*
X156449221Y-74354332D01*
X156502021Y-74481804D01*
X156502028Y-74481817D01*
X156578685Y-74596541D01*
X156578688Y-74596545D01*
X156676254Y-74694111D01*
X156676258Y-74694114D01*
X156790982Y-74770771D01*
X156790995Y-74770778D01*
X156918467Y-74823578D01*
X156918472Y-74823580D01*
X156918476Y-74823580D01*
X156918477Y-74823581D01*
X157053804Y-74850500D01*
X157053807Y-74850500D01*
X157191795Y-74850500D01*
X157282841Y-74832389D01*
X157327128Y-74823580D01*
X157434211Y-74779225D01*
X157454604Y-74770778D01*
X157454604Y-74770777D01*
X157454611Y-74770775D01*
X157569342Y-74694114D01*
X157569345Y-74694111D01*
X157576223Y-74687234D01*
X157666911Y-74596545D01*
X157666914Y-74596542D01*
X157743575Y-74481811D01*
X157796380Y-74354328D01*
X157817852Y-74246381D01*
X157823300Y-74218995D01*
X157823300Y-74081004D01*
X157796381Y-73945677D01*
X157796380Y-73945676D01*
X157796380Y-73945672D01*
X157779369Y-73904604D01*
X157743578Y-73818195D01*
X157743571Y-73818182D01*
X157666914Y-73703458D01*
X157666911Y-73703454D01*
X157605252Y-73641795D01*
X159699499Y-73641795D01*
X159726418Y-73777122D01*
X159726421Y-73777132D01*
X159779221Y-73904604D01*
X159779228Y-73904617D01*
X159855885Y-74019341D01*
X159855888Y-74019345D01*
X159953454Y-74116911D01*
X159953458Y-74116914D01*
X160068182Y-74193571D01*
X160068195Y-74193578D01*
X160191401Y-74244611D01*
X160195672Y-74246380D01*
X160195676Y-74246380D01*
X160195677Y-74246381D01*
X160331004Y-74273300D01*
X160331007Y-74273300D01*
X160468995Y-74273300D01*
X160604323Y-74246381D01*
X160604323Y-74246380D01*
X160604328Y-74246380D01*
X160604332Y-74246378D01*
X160610159Y-74244611D01*
X160610932Y-74247161D01*
X160668927Y-74240916D01*
X160731411Y-74272181D01*
X160734612Y-74275269D01*
X160753454Y-74294111D01*
X160753458Y-74294114D01*
X160868182Y-74370771D01*
X160868195Y-74370778D01*
X160995667Y-74423578D01*
X160995672Y-74423580D01*
X160995676Y-74423580D01*
X160995677Y-74423581D01*
X161131004Y-74450500D01*
X161131007Y-74450500D01*
X161268995Y-74450500D01*
X161360041Y-74432389D01*
X161404328Y-74423580D01*
X161531811Y-74370775D01*
X161646542Y-74294114D01*
X161744114Y-74196542D01*
X161776652Y-74147844D01*
X161830264Y-74103039D01*
X161899588Y-74094330D01*
X161903914Y-74095110D01*
X161931007Y-74100500D01*
X162068995Y-74100500D01*
X162177990Y-74078819D01*
X162204328Y-74073580D01*
X162204335Y-74073576D01*
X162210155Y-74071812D01*
X162210651Y-74073448D01*
X162272003Y-74066846D01*
X162289769Y-74072062D01*
X162289845Y-74071812D01*
X162295667Y-74073578D01*
X162295672Y-74073580D01*
X162295676Y-74073580D01*
X162295677Y-74073581D01*
X162431004Y-74100500D01*
X162431007Y-74100500D01*
X162568995Y-74100500D01*
X162677990Y-74078819D01*
X162704328Y-74073580D01*
X162811411Y-74029225D01*
X162831804Y-74020778D01*
X162831804Y-74020777D01*
X162831811Y-74020775D01*
X162946542Y-73944114D01*
X163044114Y-73846542D01*
X163120775Y-73731811D01*
X163173580Y-73604328D01*
X163182389Y-73560041D01*
X163200500Y-73468995D01*
X163200500Y-73331004D01*
X163173581Y-73195677D01*
X163173580Y-73195676D01*
X163173580Y-73195672D01*
X163144828Y-73126258D01*
X163120778Y-73068195D01*
X163120771Y-73068182D01*
X163044114Y-72953458D01*
X163044111Y-72953454D01*
X162946545Y-72855888D01*
X162946541Y-72855885D01*
X162831817Y-72779228D01*
X162831804Y-72779221D01*
X162704332Y-72726421D01*
X162704322Y-72726418D01*
X162568995Y-72699500D01*
X162568993Y-72699500D01*
X162431007Y-72699500D01*
X162431005Y-72699500D01*
X162295674Y-72726419D01*
X162289840Y-72728189D01*
X162289344Y-72726555D01*
X162227975Y-72733149D01*
X162210235Y-72727940D01*
X162210160Y-72728189D01*
X162204325Y-72726419D01*
X162068995Y-72699500D01*
X162068993Y-72699500D01*
X161931007Y-72699500D01*
X161931005Y-72699500D01*
X161795677Y-72726418D01*
X161795667Y-72726421D01*
X161668195Y-72779221D01*
X161668182Y-72779228D01*
X161553458Y-72855885D01*
X161553454Y-72855888D01*
X161455888Y-72953454D01*
X161423346Y-73002157D01*
X161369733Y-73046961D01*
X161300408Y-73055668D01*
X161296053Y-73054882D01*
X161268997Y-73049500D01*
X161268993Y-73049500D01*
X161131007Y-73049500D01*
X161131005Y-73049500D01*
X160995678Y-73076418D01*
X160989849Y-73078187D01*
X160989081Y-73075658D01*
X160930962Y-73081864D01*
X160868506Y-73050543D01*
X160865388Y-73047531D01*
X160846545Y-73028688D01*
X160846541Y-73028685D01*
X160731817Y-72952028D01*
X160731804Y-72952021D01*
X160604332Y-72899221D01*
X160604322Y-72899218D01*
X160468995Y-72872300D01*
X160468993Y-72872300D01*
X160331007Y-72872300D01*
X160331005Y-72872300D01*
X160195677Y-72899218D01*
X160195667Y-72899221D01*
X160068195Y-72952021D01*
X160068182Y-72952028D01*
X159953458Y-73028685D01*
X159953454Y-73028688D01*
X159855888Y-73126254D01*
X159855885Y-73126258D01*
X159779228Y-73240982D01*
X159779221Y-73240995D01*
X159726421Y-73368467D01*
X159726418Y-73368477D01*
X159699500Y-73503804D01*
X159699500Y-73503807D01*
X159699500Y-73641793D01*
X159699500Y-73641795D01*
X159699499Y-73641795D01*
X157605252Y-73641795D01*
X157569344Y-73605887D01*
X157561757Y-73600818D01*
X157561756Y-73600817D01*
X157454617Y-73529228D01*
X157454604Y-73529221D01*
X157327132Y-73476421D01*
X157327122Y-73476418D01*
X157191795Y-73449500D01*
X157191793Y-73449500D01*
X157053807Y-73449500D01*
X157053805Y-73449500D01*
X156918477Y-73476418D01*
X156918467Y-73476421D01*
X156790995Y-73529221D01*
X156790982Y-73529228D01*
X156676258Y-73605885D01*
X156676254Y-73605888D01*
X156578688Y-73703454D01*
X156578685Y-73703458D01*
X156502028Y-73818182D01*
X156502021Y-73818195D01*
X156449221Y-73945667D01*
X156449218Y-73945677D01*
X156422300Y-74081004D01*
X156422300Y-74081007D01*
X156422300Y-74218993D01*
X156422300Y-74218995D01*
X156422299Y-74218995D01*
X153683078Y-74218995D01*
X153683078Y-72068995D01*
X155699499Y-72068995D01*
X155726418Y-72204322D01*
X155726421Y-72204332D01*
X155779221Y-72331804D01*
X155779228Y-72331817D01*
X155855885Y-72446541D01*
X155855888Y-72446545D01*
X155953454Y-72544111D01*
X155953458Y-72544114D01*
X156068182Y-72620771D01*
X156068195Y-72620778D01*
X156157334Y-72657700D01*
X156195672Y-72673580D01*
X156195676Y-72673580D01*
X156195677Y-72673581D01*
X156331004Y-72700500D01*
X156331007Y-72700500D01*
X156468995Y-72700500D01*
X156560041Y-72682389D01*
X156604328Y-72673580D01*
X156724438Y-72623829D01*
X156731804Y-72620778D01*
X156731804Y-72620777D01*
X156731811Y-72620775D01*
X156846542Y-72544114D01*
X156944114Y-72446542D01*
X157020775Y-72331811D01*
X157073580Y-72204328D01*
X157093471Y-72104332D01*
X157100500Y-72068995D01*
X157100500Y-71991518D01*
X157120185Y-71924479D01*
X157136823Y-71903833D01*
X157144114Y-71896542D01*
X157220775Y-71781811D01*
X157273580Y-71654328D01*
X157284980Y-71597018D01*
X157300500Y-71518995D01*
X157300500Y-71381004D01*
X157288165Y-71318995D01*
X162599499Y-71318995D01*
X162626418Y-71454321D01*
X162626419Y-71454323D01*
X162626420Y-71454328D01*
X162656749Y-71527550D01*
X162664217Y-71597018D01*
X162656751Y-71622444D01*
X162626420Y-71695672D01*
X162626418Y-71695678D01*
X162599500Y-71831004D01*
X162599500Y-71831007D01*
X162599500Y-71968993D01*
X162599500Y-71968995D01*
X162599499Y-71968995D01*
X162626418Y-72104322D01*
X162626421Y-72104332D01*
X162679221Y-72231804D01*
X162679228Y-72231817D01*
X162755885Y-72346541D01*
X162755888Y-72346545D01*
X162853454Y-72444111D01*
X162853458Y-72444114D01*
X162968182Y-72520771D01*
X162968195Y-72520778D01*
X163095667Y-72573578D01*
X163095672Y-72573580D01*
X163095676Y-72573580D01*
X163095677Y-72573581D01*
X163231004Y-72600500D01*
X163231007Y-72600500D01*
X163368995Y-72600500D01*
X163460041Y-72582389D01*
X163504328Y-72573580D01*
X163631811Y-72520775D01*
X163746542Y-72444114D01*
X163844114Y-72346542D01*
X163883889Y-72287013D01*
X163895929Y-72268995D01*
X166799499Y-72268995D01*
X166826418Y-72404322D01*
X166826421Y-72404332D01*
X166879221Y-72531804D01*
X166879228Y-72531817D01*
X166955885Y-72646541D01*
X166955888Y-72646545D01*
X167053454Y-72744111D01*
X167053458Y-72744114D01*
X167168182Y-72820771D01*
X167168195Y-72820778D01*
X167292582Y-72872300D01*
X167295672Y-72873580D01*
X167295676Y-72873580D01*
X167295677Y-72873581D01*
X167431004Y-72900500D01*
X167431007Y-72900500D01*
X167568995Y-72900500D01*
X167660041Y-72882389D01*
X167704328Y-72873580D01*
X167831811Y-72820775D01*
X167869654Y-72795488D01*
X167936327Y-72774611D01*
X167962735Y-72776974D01*
X168081004Y-72800500D01*
X168081007Y-72800500D01*
X168218995Y-72800500D01*
X168310041Y-72782389D01*
X168354328Y-72773580D01*
X168481811Y-72720775D01*
X168596542Y-72644114D01*
X168694114Y-72546542D01*
X168735639Y-72484395D01*
X171299499Y-72484395D01*
X171326419Y-72619729D01*
X171327023Y-72621718D01*
X171327032Y-72622809D01*
X171327608Y-72625702D01*
X171327059Y-72625811D01*
X171327639Y-72691585D01*
X171327023Y-72693682D01*
X171326419Y-72695670D01*
X171299500Y-72831004D01*
X171299500Y-72831007D01*
X171299500Y-72968993D01*
X171299500Y-72968995D01*
X171299499Y-72968995D01*
X171326418Y-73104322D01*
X171326421Y-73104332D01*
X171379221Y-73231804D01*
X171379228Y-73231817D01*
X171455885Y-73346541D01*
X171455888Y-73346545D01*
X171553454Y-73444111D01*
X171553458Y-73444114D01*
X171668182Y-73520771D01*
X171668195Y-73520778D01*
X171795667Y-73573578D01*
X171795672Y-73573580D01*
X171795676Y-73573580D01*
X171795677Y-73573581D01*
X171931004Y-73600500D01*
X171931007Y-73600500D01*
X172068995Y-73600500D01*
X172160041Y-73582389D01*
X172204328Y-73573580D01*
X172311411Y-73529225D01*
X172331804Y-73520778D01*
X172331804Y-73520777D01*
X172331811Y-73520775D01*
X172446542Y-73444114D01*
X172544114Y-73346542D01*
X172620775Y-73231811D01*
X172673580Y-73104328D01*
X172683259Y-73055668D01*
X172700500Y-72968995D01*
X172700500Y-72831004D01*
X172673580Y-72695670D01*
X172672981Y-72693696D01*
X172672971Y-72692610D01*
X172672392Y-72689698D01*
X172672944Y-72689588D01*
X172672357Y-72623829D01*
X172672981Y-72621704D01*
X172673580Y-72619729D01*
X172700500Y-72484395D01*
X172700500Y-72346404D01*
X172673564Y-72210992D01*
X172673564Y-72162608D01*
X172700500Y-72027195D01*
X172700500Y-71889204D01*
X172687348Y-71823089D01*
X172673580Y-71753872D01*
X172673578Y-71753869D01*
X172673464Y-71753292D01*
X172673464Y-71704908D01*
X172673578Y-71704330D01*
X172673580Y-71704328D01*
X172690035Y-71621601D01*
X172700500Y-71568995D01*
X172700500Y-71431004D01*
X172673581Y-71295677D01*
X172673580Y-71295676D01*
X172673580Y-71295672D01*
X172673578Y-71295667D01*
X172621419Y-71169743D01*
X174826299Y-71169743D01*
X174864747Y-71363029D01*
X174864750Y-71363039D01*
X174940164Y-71545107D01*
X174940171Y-71545120D01*
X175049660Y-71708981D01*
X175049663Y-71708985D01*
X175189014Y-71848336D01*
X175189018Y-71848339D01*
X175352879Y-71957828D01*
X175352892Y-71957835D01*
X175520344Y-72027195D01*
X175534965Y-72033251D01*
X175534969Y-72033251D01*
X175534970Y-72033252D01*
X175728256Y-72071700D01*
X175728259Y-72071700D01*
X177025343Y-72071700D01*
X177155382Y-72045832D01*
X177218635Y-72033251D01*
X177400714Y-71957832D01*
X177564582Y-71848339D01*
X177703939Y-71708982D01*
X177813432Y-71545114D01*
X177822582Y-71523025D01*
X177860696Y-71431007D01*
X177888851Y-71363035D01*
X177901432Y-71299782D01*
X177927300Y-71169743D01*
X179176299Y-71169743D01*
X179214747Y-71363029D01*
X179214750Y-71363039D01*
X179290164Y-71545107D01*
X179290171Y-71545120D01*
X179399660Y-71708981D01*
X179399663Y-71708985D01*
X179539014Y-71848336D01*
X179539018Y-71848339D01*
X179702879Y-71957828D01*
X179702892Y-71957835D01*
X179870344Y-72027195D01*
X179884965Y-72033251D01*
X179884969Y-72033251D01*
X179884970Y-72033252D01*
X180078256Y-72071700D01*
X180078259Y-72071700D01*
X181075343Y-72071700D01*
X181205382Y-72045832D01*
X181268635Y-72033251D01*
X181450714Y-71957832D01*
X181614582Y-71848339D01*
X181753939Y-71708982D01*
X181863432Y-71545114D01*
X181872582Y-71523025D01*
X181910696Y-71431007D01*
X181938851Y-71363035D01*
X181951432Y-71299782D01*
X181977300Y-71169743D01*
X181977300Y-70972656D01*
X181938852Y-70779370D01*
X181938851Y-70779369D01*
X181938851Y-70779365D01*
X181876663Y-70629228D01*
X181863435Y-70597292D01*
X181863428Y-70597279D01*
X181753939Y-70433418D01*
X181753936Y-70433414D01*
X181614585Y-70294063D01*
X181614581Y-70294060D01*
X181450720Y-70184571D01*
X181450707Y-70184564D01*
X181268639Y-70109150D01*
X181268629Y-70109147D01*
X181075343Y-70070700D01*
X181075341Y-70070700D01*
X180078259Y-70070700D01*
X180078257Y-70070700D01*
X179884970Y-70109147D01*
X179884960Y-70109150D01*
X179702892Y-70184564D01*
X179702879Y-70184571D01*
X179539018Y-70294060D01*
X179539014Y-70294063D01*
X179399663Y-70433414D01*
X179399660Y-70433418D01*
X179290171Y-70597279D01*
X179290164Y-70597292D01*
X179214750Y-70779360D01*
X179214747Y-70779370D01*
X179176300Y-70972656D01*
X179176300Y-70972659D01*
X179176300Y-71169741D01*
X179176300Y-71169743D01*
X179176299Y-71169743D01*
X177927300Y-71169743D01*
X177927300Y-70972656D01*
X177888852Y-70779370D01*
X177888851Y-70779369D01*
X177888851Y-70779365D01*
X177826663Y-70629228D01*
X177813435Y-70597292D01*
X177813428Y-70597279D01*
X177703939Y-70433418D01*
X177703936Y-70433414D01*
X177564585Y-70294063D01*
X177564581Y-70294060D01*
X177400720Y-70184571D01*
X177400710Y-70184566D01*
X177307126Y-70145802D01*
X177252723Y-70101961D01*
X177230658Y-70035666D01*
X177247937Y-69967967D01*
X177266893Y-69943565D01*
X177277295Y-69933164D01*
X177339895Y-69824736D01*
X177372300Y-69703801D01*
X177372300Y-69578599D01*
X177339895Y-69457664D01*
X177277295Y-69349236D01*
X177188764Y-69260705D01*
X177080336Y-69198105D01*
X177080337Y-69198105D01*
X177023173Y-69182788D01*
X176959401Y-69165700D01*
X176834199Y-69165700D01*
X176770427Y-69182788D01*
X176713263Y-69198105D01*
X176604837Y-69260704D01*
X176604834Y-69260706D01*
X176516306Y-69349234D01*
X176516304Y-69349237D01*
X176453705Y-69457663D01*
X176453705Y-69457664D01*
X176421300Y-69578599D01*
X176421300Y-69703801D01*
X176453705Y-69824736D01*
X176488325Y-69884701D01*
X176504796Y-69952602D01*
X176481943Y-70018628D01*
X176427022Y-70061818D01*
X176380937Y-70070700D01*
X175728257Y-70070700D01*
X175534970Y-70109147D01*
X175534960Y-70109150D01*
X175352892Y-70184564D01*
X175352879Y-70184571D01*
X175189018Y-70294060D01*
X175189014Y-70294063D01*
X175049663Y-70433414D01*
X175049660Y-70433418D01*
X174940171Y-70597279D01*
X174940164Y-70597292D01*
X174864750Y-70779360D01*
X174864747Y-70779370D01*
X174826300Y-70972656D01*
X174826300Y-70972659D01*
X174826300Y-71169741D01*
X174826300Y-71169743D01*
X174826299Y-71169743D01*
X172621419Y-71169743D01*
X172620778Y-71168195D01*
X172620771Y-71168182D01*
X172544114Y-71053458D01*
X172544111Y-71053454D01*
X172446545Y-70955888D01*
X172446541Y-70955885D01*
X172331817Y-70879228D01*
X172331804Y-70879221D01*
X172204332Y-70826421D01*
X172204322Y-70826418D01*
X172068995Y-70799500D01*
X172068993Y-70799500D01*
X171931007Y-70799500D01*
X171931005Y-70799500D01*
X171795677Y-70826418D01*
X171795667Y-70826421D01*
X171668195Y-70879221D01*
X171668182Y-70879228D01*
X171553458Y-70955885D01*
X171553454Y-70955888D01*
X171455888Y-71053454D01*
X171455885Y-71053458D01*
X171379228Y-71168182D01*
X171379221Y-71168195D01*
X171326421Y-71295667D01*
X171326418Y-71295677D01*
X171299500Y-71431004D01*
X171299500Y-71568997D01*
X171326535Y-71704909D01*
X171326535Y-71753291D01*
X171299500Y-71889202D01*
X171299500Y-72027197D01*
X171326435Y-72162609D01*
X171326435Y-72210991D01*
X171299500Y-72346402D01*
X171299500Y-72346407D01*
X171299500Y-72484393D01*
X171299500Y-72484395D01*
X171299499Y-72484395D01*
X168735639Y-72484395D01*
X168770775Y-72431811D01*
X168823580Y-72304328D01*
X168837141Y-72236152D01*
X168850500Y-72168995D01*
X168850500Y-72031004D01*
X168823581Y-71895677D01*
X168823580Y-71895676D01*
X168823580Y-71895672D01*
X168803973Y-71848336D01*
X168770778Y-71768195D01*
X168770771Y-71768182D01*
X168694114Y-71653458D01*
X168694111Y-71653454D01*
X168596545Y-71555888D01*
X168596541Y-71555885D01*
X168554834Y-71528017D01*
X168481817Y-71479228D01*
X168481804Y-71479221D01*
X168354332Y-71426421D01*
X168354322Y-71426418D01*
X168218995Y-71399500D01*
X168218993Y-71399500D01*
X168081007Y-71399500D01*
X168081005Y-71399500D01*
X167945677Y-71426418D01*
X167945671Y-71426420D01*
X167818192Y-71479223D01*
X167818182Y-71479229D01*
X167780342Y-71504512D01*
X167713664Y-71525388D01*
X167687262Y-71523025D01*
X167568995Y-71499500D01*
X167568993Y-71499500D01*
X167431007Y-71499500D01*
X167431005Y-71499500D01*
X167295677Y-71526418D01*
X167295667Y-71526421D01*
X167168195Y-71579221D01*
X167168182Y-71579228D01*
X167053458Y-71655885D01*
X167053454Y-71655888D01*
X166955888Y-71753454D01*
X166955885Y-71753458D01*
X166879228Y-71868182D01*
X166879221Y-71868195D01*
X166826421Y-71995667D01*
X166826418Y-71995677D01*
X166799500Y-72131004D01*
X166799500Y-72131007D01*
X166799500Y-72268993D01*
X166799500Y-72268995D01*
X166799499Y-72268995D01*
X163895929Y-72268995D01*
X163917875Y-72236152D01*
X163971487Y-72191347D01*
X164040812Y-72182640D01*
X164045169Y-72183426D01*
X164131004Y-72200500D01*
X164131007Y-72200500D01*
X164268995Y-72200500D01*
X164360041Y-72182389D01*
X164404328Y-72173580D01*
X164531811Y-72120775D01*
X164646542Y-72044114D01*
X164646545Y-72044111D01*
X164653423Y-72037234D01*
X164744111Y-71946545D01*
X164744114Y-71946542D01*
X164820775Y-71831811D01*
X164873580Y-71704328D01*
X164889866Y-71622452D01*
X164900500Y-71568995D01*
X164900500Y-71431004D01*
X164873581Y-71295677D01*
X164873580Y-71295676D01*
X164873580Y-71295672D01*
X164873578Y-71295667D01*
X164820778Y-71168195D01*
X164820771Y-71168182D01*
X164744114Y-71053458D01*
X164744111Y-71053454D01*
X164646545Y-70955888D01*
X164646541Y-70955885D01*
X164531817Y-70879228D01*
X164531804Y-70879221D01*
X164404332Y-70826421D01*
X164404322Y-70826418D01*
X164268995Y-70799500D01*
X164268993Y-70799500D01*
X164131007Y-70799500D01*
X164131005Y-70799500D01*
X163995674Y-70826419D01*
X163989840Y-70828189D01*
X163989344Y-70826555D01*
X163974899Y-70828107D01*
X163953322Y-70835076D01*
X163937419Y-70832134D01*
X163927975Y-70833149D01*
X163918266Y-70830991D01*
X163910223Y-70828861D01*
X163904328Y-70826420D01*
X163890942Y-70823757D01*
X163887175Y-70822760D01*
X163860462Y-70806588D01*
X163832802Y-70792117D01*
X163831228Y-70790571D01*
X163746545Y-70705888D01*
X163746541Y-70705885D01*
X163631817Y-70629228D01*
X163631804Y-70629221D01*
X163504332Y-70576421D01*
X163504322Y-70576418D01*
X163368995Y-70549500D01*
X163368993Y-70549500D01*
X163231007Y-70549500D01*
X163231005Y-70549500D01*
X163095677Y-70576418D01*
X163095667Y-70576421D01*
X162968195Y-70629221D01*
X162968182Y-70629228D01*
X162853458Y-70705885D01*
X162853454Y-70705888D01*
X162755888Y-70803454D01*
X162755885Y-70803458D01*
X162679228Y-70918182D01*
X162679221Y-70918195D01*
X162626421Y-71045667D01*
X162626418Y-71045677D01*
X162599500Y-71181004D01*
X162599500Y-71181007D01*
X162599500Y-71318993D01*
X162599500Y-71318995D01*
X162599499Y-71318995D01*
X157288165Y-71318995D01*
X157273581Y-71245677D01*
X157273580Y-71245676D01*
X157273580Y-71245672D01*
X157242129Y-71169743D01*
X157220778Y-71118195D01*
X157220771Y-71118182D01*
X157144114Y-71003458D01*
X157144111Y-71003454D01*
X157046545Y-70905888D01*
X157046541Y-70905885D01*
X156931817Y-70829228D01*
X156931804Y-70829221D01*
X156804332Y-70776421D01*
X156804322Y-70776418D01*
X156668995Y-70749500D01*
X156668993Y-70749500D01*
X156531007Y-70749500D01*
X156531005Y-70749500D01*
X156395677Y-70776418D01*
X156395667Y-70776421D01*
X156268195Y-70829221D01*
X156268182Y-70829228D01*
X156153458Y-70905885D01*
X156153454Y-70905888D01*
X156055888Y-71003454D01*
X156055885Y-71003458D01*
X155979228Y-71118182D01*
X155979221Y-71118195D01*
X155926421Y-71245667D01*
X155926418Y-71245677D01*
X155899500Y-71381004D01*
X155899500Y-71458481D01*
X155879815Y-71525520D01*
X155863181Y-71546162D01*
X155855888Y-71553454D01*
X155855885Y-71553458D01*
X155779228Y-71668182D01*
X155779221Y-71668195D01*
X155726421Y-71795667D01*
X155726418Y-71795677D01*
X155699500Y-71931004D01*
X155699500Y-71931007D01*
X155699500Y-72068993D01*
X155699500Y-72068995D01*
X155699499Y-72068995D01*
X153683078Y-72068995D01*
X153683078Y-66818995D01*
X157149499Y-66818995D01*
X157176418Y-66954322D01*
X157176419Y-66954323D01*
X157176420Y-66954328D01*
X157205370Y-67024219D01*
X157209151Y-67033348D01*
X157216619Y-67102818D01*
X157209151Y-67128251D01*
X157176420Y-67207272D01*
X157176419Y-67207275D01*
X157176419Y-67207276D01*
X157176418Y-67207277D01*
X157149500Y-67342604D01*
X157149500Y-67342607D01*
X157149500Y-67480593D01*
X157149500Y-67480595D01*
X157149499Y-67480595D01*
X157176418Y-67615922D01*
X157176421Y-67615932D01*
X157229345Y-67743703D01*
X157236814Y-67813172D01*
X157229348Y-67838600D01*
X157226421Y-67845666D01*
X157226419Y-67845673D01*
X157199500Y-67981004D01*
X157199500Y-67981007D01*
X157199500Y-68118993D01*
X157199500Y-68118995D01*
X157199499Y-68118995D01*
X157226418Y-68254322D01*
X157226421Y-68254332D01*
X157279221Y-68381804D01*
X157279228Y-68381817D01*
X157355885Y-68496541D01*
X157355888Y-68496545D01*
X157453455Y-68594112D01*
X157453458Y-68594114D01*
X157502140Y-68626642D01*
X157546944Y-68680253D01*
X157555652Y-68749578D01*
X157525498Y-68812606D01*
X157502141Y-68832845D01*
X157424860Y-68884483D01*
X157424854Y-68884488D01*
X157327288Y-68982054D01*
X157327285Y-68982058D01*
X157250628Y-69096782D01*
X157250621Y-69096795D01*
X157197821Y-69224267D01*
X157197818Y-69224277D01*
X157170900Y-69359604D01*
X157170900Y-69359607D01*
X157170900Y-69497593D01*
X157170900Y-69497595D01*
X157170899Y-69497595D01*
X157197818Y-69632922D01*
X157197821Y-69632932D01*
X157250621Y-69760404D01*
X157250628Y-69760417D01*
X157327285Y-69875141D01*
X157327288Y-69875145D01*
X157424854Y-69972711D01*
X157424858Y-69972714D01*
X157539582Y-70049371D01*
X157539595Y-70049378D01*
X157619123Y-70082319D01*
X157667072Y-70102180D01*
X157667076Y-70102180D01*
X157667077Y-70102181D01*
X157802404Y-70129100D01*
X157802407Y-70129100D01*
X157940395Y-70129100D01*
X158031441Y-70110989D01*
X158075728Y-70102180D01*
X158203211Y-70049375D01*
X158245081Y-70021397D01*
X158311759Y-70000520D01*
X158313972Y-70000500D01*
X158412595Y-70000500D01*
X158503641Y-69982389D01*
X158547928Y-69973580D01*
X158558997Y-69968995D01*
X167299499Y-69968995D01*
X167326418Y-70104322D01*
X167326421Y-70104332D01*
X167379221Y-70231804D01*
X167379228Y-70231817D01*
X167455885Y-70346541D01*
X167455888Y-70346545D01*
X167553454Y-70444111D01*
X167553458Y-70444114D01*
X167668182Y-70520771D01*
X167668195Y-70520778D01*
X167784569Y-70568981D01*
X167795672Y-70573580D01*
X167795676Y-70573580D01*
X167795677Y-70573581D01*
X167931004Y-70600500D01*
X167931007Y-70600500D01*
X168068995Y-70600500D01*
X168190050Y-70576420D01*
X168204328Y-70573580D01*
X168331811Y-70520775D01*
X168331816Y-70520771D01*
X168331819Y-70520770D01*
X168386850Y-70483999D01*
X168453527Y-70463120D01*
X168520907Y-70481604D01*
X168524634Y-70483999D01*
X168572780Y-70516170D01*
X168572795Y-70516178D01*
X168700267Y-70568978D01*
X168700272Y-70568980D01*
X168700276Y-70568980D01*
X168700277Y-70568981D01*
X168835604Y-70595900D01*
X168835607Y-70595900D01*
X168973595Y-70595900D01*
X169085812Y-70573578D01*
X169108928Y-70568980D01*
X169236411Y-70516175D01*
X169351142Y-70439514D01*
X169448714Y-70341942D01*
X169525375Y-70227211D01*
X169578180Y-70099728D01*
X169597918Y-70000500D01*
X169605100Y-69964395D01*
X169605100Y-69826404D01*
X169578181Y-69691077D01*
X169578180Y-69691076D01*
X169578180Y-69691072D01*
X169553636Y-69631817D01*
X169525378Y-69563595D01*
X169525370Y-69563580D01*
X169491672Y-69513149D01*
X169470793Y-69446472D01*
X169489277Y-69379092D01*
X169491658Y-69375385D01*
X169520775Y-69331811D01*
X169573580Y-69204328D01*
X169594971Y-69096789D01*
X169600500Y-69068995D01*
X169600500Y-68931004D01*
X169573581Y-68795677D01*
X169573580Y-68795676D01*
X169573580Y-68795672D01*
X169557100Y-68755885D01*
X169520778Y-68668195D01*
X169520771Y-68668182D01*
X169444114Y-68553458D01*
X169444111Y-68553454D01*
X169346545Y-68455888D01*
X169346541Y-68455885D01*
X169231817Y-68379228D01*
X169231804Y-68379221D01*
X169104332Y-68326421D01*
X169104322Y-68326418D01*
X168968995Y-68299500D01*
X168968993Y-68299500D01*
X168831007Y-68299500D01*
X168831005Y-68299500D01*
X168695677Y-68326418D01*
X168695667Y-68326421D01*
X168568195Y-68379221D01*
X168568182Y-68379228D01*
X168453458Y-68455885D01*
X168453454Y-68455888D01*
X168355888Y-68553454D01*
X168355885Y-68553458D01*
X168279228Y-68668182D01*
X168279221Y-68668195D01*
X168226421Y-68795667D01*
X168226418Y-68795677D01*
X168199500Y-68931004D01*
X168199500Y-69075085D01*
X168196746Y-69075085D01*
X168185892Y-69132110D01*
X168137794Y-69182788D01*
X168075085Y-69198155D01*
X168075085Y-69199500D01*
X167931005Y-69199500D01*
X167795677Y-69226418D01*
X167795667Y-69226421D01*
X167668195Y-69279221D01*
X167668182Y-69279228D01*
X167553458Y-69355885D01*
X167553454Y-69355888D01*
X167455888Y-69453454D01*
X167455885Y-69453458D01*
X167379228Y-69568182D01*
X167379221Y-69568195D01*
X167326421Y-69695667D01*
X167326418Y-69695677D01*
X167299500Y-69831004D01*
X167299500Y-69831007D01*
X167299500Y-69968993D01*
X167299500Y-69968995D01*
X167299499Y-69968995D01*
X158558997Y-69968995D01*
X158675411Y-69920775D01*
X158790142Y-69844114D01*
X158887714Y-69746542D01*
X158964375Y-69631811D01*
X159017180Y-69504328D01*
X159028947Y-69445172D01*
X159044100Y-69368995D01*
X159044100Y-69231004D01*
X159017181Y-69095677D01*
X159017180Y-69095676D01*
X159017180Y-69095672D01*
X159008029Y-69073580D01*
X158964378Y-68968195D01*
X158964371Y-68968182D01*
X158887714Y-68853458D01*
X158887711Y-68853454D01*
X158790145Y-68755888D01*
X158790141Y-68755885D01*
X158675417Y-68679228D01*
X158675404Y-68679221D01*
X158542301Y-68624089D01*
X158542915Y-68622605D01*
X158532870Y-68616019D01*
X158514123Y-68609656D01*
X158504249Y-68597255D01*
X158490995Y-68588565D01*
X158482935Y-68570484D01*
X158470604Y-68554995D01*
X158469002Y-68539224D01*
X158462550Y-68524748D01*
X158465545Y-68505179D01*
X158463546Y-68485482D01*
X158470260Y-68468995D01*
X166049499Y-68468995D01*
X166076418Y-68604322D01*
X166076421Y-68604332D01*
X166129221Y-68731804D01*
X166129228Y-68731817D01*
X166205885Y-68846541D01*
X166205888Y-68846545D01*
X166303454Y-68944111D01*
X166303458Y-68944114D01*
X166418182Y-69020771D01*
X166418195Y-69020778D01*
X166534598Y-69068993D01*
X166545672Y-69073580D01*
X166545676Y-69073580D01*
X166545677Y-69073581D01*
X166681004Y-69100500D01*
X166681007Y-69100500D01*
X166818995Y-69100500D01*
X166910041Y-69082389D01*
X166954328Y-69073580D01*
X167081811Y-69020775D01*
X167196542Y-68944114D01*
X167294114Y-68846542D01*
X167370775Y-68731811D01*
X167423580Y-68604328D01*
X167445020Y-68496542D01*
X167450500Y-68468995D01*
X167450500Y-68331004D01*
X167423581Y-68195677D01*
X167423580Y-68195676D01*
X167423580Y-68195672D01*
X167402223Y-68144111D01*
X167370778Y-68068195D01*
X167370771Y-68068182D01*
X167294114Y-67953458D01*
X167294111Y-67953454D01*
X167196545Y-67855888D01*
X167196541Y-67855885D01*
X167081817Y-67779228D01*
X167081804Y-67779221D01*
X166954332Y-67726421D01*
X166954322Y-67726418D01*
X166818995Y-67699500D01*
X166818993Y-67699500D01*
X166681007Y-67699500D01*
X166681005Y-67699500D01*
X166545677Y-67726418D01*
X166545667Y-67726421D01*
X166418195Y-67779221D01*
X166418182Y-67779228D01*
X166303458Y-67855885D01*
X166303454Y-67855888D01*
X166205888Y-67953454D01*
X166205885Y-67953458D01*
X166129228Y-68068182D01*
X166129221Y-68068195D01*
X166076421Y-68195667D01*
X166076418Y-68195677D01*
X166049500Y-68331004D01*
X166049500Y-68331007D01*
X166049500Y-68468993D01*
X166049500Y-68468995D01*
X166049499Y-68468995D01*
X158470260Y-68468995D01*
X158471583Y-68465747D01*
X158473124Y-68455683D01*
X158474890Y-68452061D01*
X158478234Y-68445477D01*
X158520775Y-68381811D01*
X158573580Y-68254328D01*
X158582389Y-68210041D01*
X158600500Y-68118995D01*
X158600500Y-67981004D01*
X158573581Y-67845677D01*
X158573580Y-67845673D01*
X158573580Y-67845672D01*
X158563269Y-67820778D01*
X158520654Y-67717895D01*
X158513185Y-67648426D01*
X158520653Y-67622992D01*
X158523580Y-67615928D01*
X158550500Y-67480593D01*
X158550500Y-67342607D01*
X158550500Y-67342604D01*
X158523581Y-67207277D01*
X158523580Y-67207276D01*
X158523580Y-67207272D01*
X158490847Y-67128249D01*
X158483379Y-67058785D01*
X158490844Y-67033356D01*
X158517504Y-66968995D01*
X180199499Y-66968995D01*
X180226418Y-67104322D01*
X180226421Y-67104332D01*
X180279221Y-67231804D01*
X180279228Y-67231817D01*
X180355884Y-67346540D01*
X180355885Y-67346541D01*
X180355886Y-67346542D01*
X180417994Y-67408650D01*
X180444872Y-67448876D01*
X180479223Y-67531808D01*
X180479228Y-67531817D01*
X180555885Y-67646541D01*
X180555888Y-67646545D01*
X180653454Y-67744111D01*
X180653458Y-67744114D01*
X180768182Y-67820771D01*
X180768195Y-67820778D01*
X180895667Y-67873578D01*
X180895672Y-67873580D01*
X180895676Y-67873580D01*
X180895677Y-67873581D01*
X181031004Y-67900500D01*
X181031007Y-67900500D01*
X181168995Y-67900500D01*
X181260041Y-67882389D01*
X181304328Y-67873580D01*
X181431811Y-67820775D01*
X181546542Y-67744114D01*
X181644114Y-67646542D01*
X181672397Y-67604212D01*
X181726009Y-67559407D01*
X181795334Y-67550700D01*
X181858362Y-67580854D01*
X181895082Y-67640297D01*
X181898140Y-67663008D01*
X181898903Y-67662933D01*
X181899499Y-67668995D01*
X181926418Y-67804322D01*
X181926421Y-67804332D01*
X181979221Y-67931804D01*
X181979228Y-67931817D01*
X182055885Y-68046541D01*
X182055888Y-68046545D01*
X182153454Y-68144111D01*
X182153458Y-68144114D01*
X182268182Y-68220771D01*
X182268195Y-68220778D01*
X182394351Y-68273033D01*
X182395672Y-68273580D01*
X182395676Y-68273580D01*
X182395677Y-68273581D01*
X182531004Y-68300500D01*
X182531007Y-68300500D01*
X182668995Y-68300500D01*
X182760041Y-68282389D01*
X182804328Y-68273580D01*
X182931811Y-68220775D01*
X183046542Y-68144114D01*
X183144114Y-68046542D01*
X183220775Y-67931811D01*
X183273580Y-67804328D01*
X183289129Y-67726154D01*
X183321513Y-67664245D01*
X183341866Y-67647238D01*
X183346542Y-67644114D01*
X183444114Y-67546542D01*
X183520775Y-67431811D01*
X183573580Y-67304328D01*
X183586258Y-67240592D01*
X183600500Y-67168995D01*
X183600500Y-67031004D01*
X183573581Y-66895677D01*
X183573580Y-66895676D01*
X183573580Y-66895672D01*
X183562026Y-66867780D01*
X183554558Y-66798311D01*
X183554971Y-66796136D01*
X183580500Y-66667795D01*
X183580500Y-66529804D01*
X183553581Y-66394477D01*
X183553580Y-66394476D01*
X183553580Y-66394472D01*
X183515881Y-66303458D01*
X183500778Y-66266995D01*
X183500771Y-66266982D01*
X183424114Y-66152258D01*
X183424111Y-66152254D01*
X183326545Y-66054688D01*
X183326541Y-66054685D01*
X183211817Y-65978028D01*
X183211804Y-65978021D01*
X183084332Y-65925221D01*
X183084322Y-65925218D01*
X182948995Y-65898300D01*
X182948993Y-65898300D01*
X182811007Y-65898300D01*
X182811005Y-65898300D01*
X182675677Y-65925218D01*
X182675667Y-65925221D01*
X182548195Y-65978021D01*
X182548182Y-65978028D01*
X182433458Y-66054685D01*
X182433454Y-66054688D01*
X182335888Y-66152254D01*
X182335885Y-66152258D01*
X182259228Y-66266982D01*
X182259221Y-66266995D01*
X182206421Y-66394467D01*
X182206418Y-66394477D01*
X182179500Y-66529804D01*
X182179500Y-66529807D01*
X182179500Y-66667793D01*
X182179500Y-66667795D01*
X182179499Y-66667795D01*
X182206418Y-66803121D01*
X182206420Y-66803129D01*
X182217973Y-66831021D01*
X182219993Y-66849821D01*
X182226917Y-66867417D01*
X182225243Y-66898660D01*
X182225440Y-66900491D01*
X182225029Y-66902661D01*
X182210871Y-66973842D01*
X182178486Y-67035753D01*
X182158150Y-67052750D01*
X182153460Y-67055883D01*
X182153452Y-67055890D01*
X182055888Y-67153454D01*
X182055885Y-67153458D01*
X182027602Y-67195787D01*
X181973989Y-67240592D01*
X181904664Y-67249299D01*
X181841637Y-67219144D01*
X181804918Y-67159701D01*
X181804154Y-67156775D01*
X181800500Y-67142057D01*
X181800500Y-67131007D01*
X181773580Y-66995672D01*
X181750055Y-66938879D01*
X181747821Y-66929879D01*
X181748920Y-66903868D01*
X181746137Y-66877985D01*
X181750665Y-66862562D01*
X181750771Y-66860072D01*
X181751844Y-66858546D01*
X181753607Y-66852546D01*
X181767506Y-66818993D01*
X181773580Y-66804328D01*
X181795194Y-66695667D01*
X181800500Y-66668995D01*
X181800500Y-66531004D01*
X181773581Y-66395677D01*
X181773580Y-66395676D01*
X181773580Y-66395672D01*
X181735384Y-66303458D01*
X181720778Y-66268195D01*
X181720771Y-66268182D01*
X181644114Y-66153458D01*
X181644111Y-66153454D01*
X181546545Y-66055888D01*
X181546541Y-66055885D01*
X181431817Y-65979228D01*
X181431804Y-65979221D01*
X181304332Y-65926421D01*
X181304322Y-65926418D01*
X181168995Y-65899500D01*
X181168993Y-65899500D01*
X181031007Y-65899500D01*
X181031005Y-65899500D01*
X180895677Y-65926418D01*
X180895667Y-65926421D01*
X180768195Y-65979221D01*
X180768182Y-65979228D01*
X180653458Y-66055885D01*
X180653454Y-66055888D01*
X180555888Y-66153454D01*
X180555885Y-66153458D01*
X180479228Y-66268182D01*
X180479220Y-66268197D01*
X180444871Y-66351122D01*
X180417994Y-66391347D01*
X180355887Y-66453455D01*
X180355883Y-66453461D01*
X180279228Y-66568182D01*
X180279221Y-66568195D01*
X180226421Y-66695667D01*
X180226418Y-66695677D01*
X180199500Y-66831004D01*
X180199500Y-66831007D01*
X180199500Y-66968993D01*
X180199500Y-66968995D01*
X180199499Y-66968995D01*
X158517504Y-66968995D01*
X158523580Y-66954328D01*
X158534653Y-66898660D01*
X158550500Y-66818995D01*
X158550500Y-66681004D01*
X158523581Y-66545677D01*
X158523580Y-66545676D01*
X158523580Y-66545672D01*
X158485383Y-66453455D01*
X158470778Y-66418195D01*
X158470771Y-66418182D01*
X158394114Y-66303458D01*
X158394111Y-66303454D01*
X158296545Y-66205888D01*
X158296541Y-66205885D01*
X158181817Y-66129228D01*
X158181804Y-66129221D01*
X158054332Y-66076421D01*
X158054322Y-66076418D01*
X157918995Y-66049500D01*
X157918993Y-66049500D01*
X157781007Y-66049500D01*
X157781005Y-66049500D01*
X157645677Y-66076418D01*
X157645667Y-66076421D01*
X157518195Y-66129221D01*
X157518182Y-66129228D01*
X157403458Y-66205885D01*
X157403454Y-66205888D01*
X157305888Y-66303454D01*
X157305885Y-66303458D01*
X157229228Y-66418182D01*
X157229221Y-66418195D01*
X157176421Y-66545667D01*
X157176418Y-66545677D01*
X157149500Y-66681004D01*
X157149500Y-66681007D01*
X157149500Y-66818993D01*
X157149500Y-66818995D01*
X157149499Y-66818995D01*
X153683078Y-66818995D01*
X153683078Y-63218995D01*
X163549499Y-63218995D01*
X163576418Y-63354322D01*
X163576421Y-63354332D01*
X163629221Y-63481804D01*
X163629228Y-63481817D01*
X163705885Y-63596541D01*
X163705888Y-63596545D01*
X163766670Y-63657327D01*
X163800155Y-63718650D01*
X163795171Y-63788342D01*
X163782094Y-63813895D01*
X163779228Y-63818184D01*
X163779223Y-63818192D01*
X163726420Y-63945671D01*
X163726418Y-63945677D01*
X163699500Y-64081004D01*
X163699500Y-64218997D01*
X163725719Y-64350809D01*
X163725719Y-64399191D01*
X163699500Y-64531002D01*
X163699500Y-64531007D01*
X163699500Y-64668993D01*
X163699500Y-64668995D01*
X163699499Y-64668995D01*
X163726418Y-64804322D01*
X163726421Y-64804332D01*
X163779221Y-64931804D01*
X163779228Y-64931817D01*
X163855885Y-65046541D01*
X163855888Y-65046545D01*
X163953454Y-65144111D01*
X163953458Y-65144114D01*
X164068182Y-65220771D01*
X164068195Y-65220778D01*
X164195667Y-65273578D01*
X164195672Y-65273580D01*
X164195676Y-65273580D01*
X164195677Y-65273581D01*
X164331004Y-65300500D01*
X164331007Y-65300500D01*
X164468995Y-65300500D01*
X164560041Y-65282389D01*
X164604328Y-65273580D01*
X164731811Y-65220775D01*
X164846542Y-65144114D01*
X164944114Y-65046542D01*
X165020775Y-64931811D01*
X165073580Y-64804328D01*
X165093471Y-64704332D01*
X165100500Y-64668995D01*
X165100500Y-64531004D01*
X165074280Y-64399192D01*
X165074280Y-64350808D01*
X165100500Y-64218995D01*
X165100500Y-64081004D01*
X165073581Y-63945677D01*
X165073580Y-63945676D01*
X165073580Y-63945672D01*
X165064520Y-63923799D01*
X165020776Y-63818190D01*
X165019004Y-63814875D01*
X165018600Y-63812938D01*
X165018444Y-63812560D01*
X165018515Y-63812530D01*
X165004761Y-63746472D01*
X165029760Y-63681228D01*
X165080907Y-63641859D01*
X165131811Y-63620775D01*
X165246542Y-63544114D01*
X165344114Y-63446542D01*
X165420775Y-63331811D01*
X165473580Y-63204328D01*
X165482389Y-63160041D01*
X165500500Y-63068995D01*
X165500500Y-62931004D01*
X165473581Y-62795677D01*
X165473580Y-62795676D01*
X165473580Y-62795672D01*
X165443493Y-62723035D01*
X165420778Y-62668195D01*
X165420771Y-62668182D01*
X165344114Y-62553458D01*
X165344111Y-62553454D01*
X165246545Y-62455888D01*
X165246541Y-62455885D01*
X165191331Y-62418995D01*
X170599499Y-62418995D01*
X170626418Y-62554322D01*
X170626421Y-62554332D01*
X170679221Y-62681804D01*
X170679228Y-62681817D01*
X170755885Y-62796541D01*
X170755888Y-62796545D01*
X170853454Y-62894111D01*
X170853458Y-62894114D01*
X170968182Y-62970771D01*
X170968195Y-62970778D01*
X171095667Y-63023578D01*
X171095672Y-63023580D01*
X171095676Y-63023580D01*
X171095677Y-63023581D01*
X171231004Y-63050500D01*
X171231007Y-63050500D01*
X171368995Y-63050500D01*
X171460041Y-63032389D01*
X171504328Y-63023580D01*
X171631811Y-62970775D01*
X171746542Y-62894114D01*
X171844114Y-62796542D01*
X171920775Y-62681811D01*
X171973580Y-62554328D01*
X171978470Y-62529743D01*
X174826299Y-62529743D01*
X174864747Y-62723029D01*
X174864750Y-62723039D01*
X174940164Y-62905107D01*
X174940171Y-62905120D01*
X175049660Y-63068981D01*
X175049663Y-63068985D01*
X175189014Y-63208336D01*
X175189018Y-63208339D01*
X175352879Y-63317828D01*
X175352892Y-63317835D01*
X175491656Y-63375312D01*
X175534965Y-63393251D01*
X175534969Y-63393251D01*
X175534970Y-63393252D01*
X175728256Y-63431700D01*
X175728259Y-63431700D01*
X176380937Y-63431700D01*
X176447976Y-63451385D01*
X176493731Y-63504189D01*
X176503675Y-63573347D01*
X176488325Y-63617699D01*
X176453705Y-63677663D01*
X176444865Y-63710655D01*
X176421300Y-63798599D01*
X176421300Y-63923801D01*
X176453705Y-64044736D01*
X176516305Y-64153164D01*
X176604836Y-64241695D01*
X176713264Y-64304295D01*
X176834199Y-64336700D01*
X176834201Y-64336700D01*
X176959399Y-64336700D01*
X176959401Y-64336700D01*
X177080336Y-64304295D01*
X177188764Y-64241695D01*
X177277295Y-64153164D01*
X177339895Y-64044736D01*
X177372300Y-63923801D01*
X177372300Y-63798599D01*
X177339895Y-63677664D01*
X177277295Y-63569236D01*
X177277054Y-63568995D01*
X178299499Y-63568995D01*
X178326419Y-63704325D01*
X178328189Y-63710160D01*
X178326555Y-63710655D01*
X178333149Y-63772025D01*
X178327940Y-63789764D01*
X178328189Y-63789840D01*
X178326419Y-63795674D01*
X178299500Y-63931004D01*
X178299500Y-63931007D01*
X178299500Y-64068993D01*
X178299500Y-64068995D01*
X178299499Y-64068995D01*
X178326419Y-64204325D01*
X178328189Y-64210160D01*
X178326555Y-64210655D01*
X178333149Y-64272025D01*
X178327940Y-64289764D01*
X178328189Y-64289840D01*
X178326419Y-64295674D01*
X178299500Y-64431004D01*
X178299500Y-64431007D01*
X178299500Y-64568993D01*
X178299500Y-64568995D01*
X178299499Y-64568995D01*
X178326418Y-64704322D01*
X178326421Y-64704332D01*
X178379221Y-64831804D01*
X178379228Y-64831817D01*
X178455885Y-64946541D01*
X178455888Y-64946545D01*
X178553454Y-65044111D01*
X178553458Y-65044114D01*
X178668182Y-65120771D01*
X178668195Y-65120778D01*
X178795667Y-65173578D01*
X178795672Y-65173580D01*
X178795676Y-65173580D01*
X178795677Y-65173581D01*
X178931004Y-65200500D01*
X178931007Y-65200500D01*
X179068995Y-65200500D01*
X179160041Y-65182389D01*
X179204328Y-65173580D01*
X179252546Y-65153606D01*
X179322015Y-65146137D01*
X179347451Y-65153606D01*
X179364646Y-65160728D01*
X179395666Y-65173578D01*
X179395669Y-65173578D01*
X179395672Y-65173580D01*
X179395676Y-65173580D01*
X179395677Y-65173581D01*
X179531004Y-65200500D01*
X179531007Y-65200500D01*
X179668995Y-65200500D01*
X179760041Y-65182389D01*
X179804328Y-65173580D01*
X179931811Y-65120775D01*
X180046542Y-65044114D01*
X180144114Y-64946542D01*
X180220775Y-64831811D01*
X180273580Y-64704328D01*
X180300500Y-64568993D01*
X180300500Y-64431007D01*
X180300500Y-64431004D01*
X180273581Y-64295677D01*
X180273580Y-64295674D01*
X180273580Y-64295672D01*
X180273578Y-64295667D01*
X180271812Y-64289845D01*
X180273448Y-64289348D01*
X180266846Y-64227997D01*
X180272062Y-64210230D01*
X180271812Y-64210155D01*
X180273576Y-64204335D01*
X180273580Y-64204328D01*
X180283758Y-64153162D01*
X180300500Y-64068995D01*
X180300500Y-63931004D01*
X180273581Y-63795677D01*
X180273580Y-63795674D01*
X180273580Y-63795672D01*
X180273578Y-63795667D01*
X180271812Y-63789845D01*
X180273448Y-63789348D01*
X180266846Y-63727997D01*
X180266911Y-63727639D01*
X180269282Y-63714702D01*
X180273580Y-63704328D01*
X180300500Y-63568993D01*
X180300500Y-63544427D01*
X180302533Y-63533339D01*
X180313390Y-63511800D01*
X180320185Y-63488661D01*
X180328831Y-63481168D01*
X180333984Y-63470948D01*
X180354764Y-63458697D01*
X180372989Y-63442906D01*
X180386560Y-63439953D01*
X180394173Y-63435466D01*
X180405229Y-63435892D01*
X180424500Y-63431700D01*
X181075343Y-63431700D01*
X181205382Y-63405832D01*
X181268635Y-63393251D01*
X181450714Y-63317832D01*
X181614582Y-63208339D01*
X181753939Y-63068982D01*
X181863432Y-62905114D01*
X181874156Y-62879225D01*
X181908402Y-62796545D01*
X181938851Y-62723035D01*
X181962154Y-62605885D01*
X181977300Y-62529743D01*
X181977300Y-62332656D01*
X181938852Y-62139370D01*
X181938851Y-62139369D01*
X181938851Y-62139365D01*
X181894298Y-62031804D01*
X181863435Y-61957292D01*
X181863428Y-61957279D01*
X181753939Y-61793418D01*
X181753936Y-61793414D01*
X181614585Y-61654063D01*
X181614581Y-61654060D01*
X181450720Y-61544571D01*
X181450707Y-61544564D01*
X181268639Y-61469150D01*
X181268629Y-61469147D01*
X181075343Y-61430700D01*
X181075341Y-61430700D01*
X180078259Y-61430700D01*
X180078257Y-61430700D01*
X179884970Y-61469147D01*
X179884960Y-61469150D01*
X179702892Y-61544564D01*
X179702879Y-61544571D01*
X179539018Y-61654060D01*
X179539014Y-61654063D01*
X179399663Y-61793414D01*
X179399660Y-61793418D01*
X179290171Y-61957279D01*
X179290164Y-61957292D01*
X179214750Y-62139360D01*
X179214747Y-62139370D01*
X179176300Y-62332656D01*
X179176300Y-62529745D01*
X179200556Y-62651688D01*
X179194329Y-62721279D01*
X179151466Y-62776457D01*
X179085576Y-62799701D01*
X179075085Y-62799467D01*
X179075085Y-62799500D01*
X178931005Y-62799500D01*
X178795677Y-62826418D01*
X178795667Y-62826421D01*
X178668195Y-62879221D01*
X178668182Y-62879228D01*
X178553458Y-62955885D01*
X178553454Y-62955888D01*
X178455888Y-63053454D01*
X178455885Y-63053458D01*
X178379228Y-63168182D01*
X178379221Y-63168195D01*
X178326421Y-63295667D01*
X178326418Y-63295677D01*
X178299500Y-63431004D01*
X178299500Y-63431007D01*
X178299500Y-63568993D01*
X178299500Y-63568995D01*
X178299499Y-63568995D01*
X177277054Y-63568995D01*
X177266897Y-63558838D01*
X177251431Y-63530515D01*
X177234712Y-63502907D01*
X177234788Y-63500036D01*
X177233412Y-63497515D01*
X177235714Y-63465316D01*
X177236575Y-63433062D01*
X177238191Y-63430688D01*
X177238396Y-63427823D01*
X177257738Y-63401985D01*
X177275903Y-63375312D01*
X177279174Y-63373351D01*
X177280268Y-63371890D01*
X177306093Y-63357029D01*
X177306469Y-63356868D01*
X177400714Y-63317832D01*
X177564582Y-63208339D01*
X177703939Y-63068982D01*
X177813432Y-62905114D01*
X177824156Y-62879225D01*
X177858402Y-62796545D01*
X177888851Y-62723035D01*
X177912154Y-62605885D01*
X177927300Y-62529743D01*
X177927300Y-62332656D01*
X177888852Y-62139370D01*
X177888851Y-62139369D01*
X177888851Y-62139365D01*
X177844298Y-62031804D01*
X177813435Y-61957292D01*
X177813428Y-61957279D01*
X177703939Y-61793418D01*
X177703936Y-61793414D01*
X177564585Y-61654063D01*
X177564581Y-61654060D01*
X177400720Y-61544571D01*
X177400707Y-61544564D01*
X177218639Y-61469150D01*
X177218629Y-61469147D01*
X177025343Y-61430700D01*
X177025341Y-61430700D01*
X175728259Y-61430700D01*
X175728257Y-61430700D01*
X175534970Y-61469147D01*
X175534960Y-61469150D01*
X175352892Y-61544564D01*
X175352879Y-61544571D01*
X175189018Y-61654060D01*
X175189014Y-61654063D01*
X175049663Y-61793414D01*
X175049660Y-61793418D01*
X174940171Y-61957279D01*
X174940164Y-61957292D01*
X174864750Y-62139360D01*
X174864747Y-62139370D01*
X174826300Y-62332656D01*
X174826300Y-62332659D01*
X174826300Y-62529741D01*
X174826300Y-62529743D01*
X174826299Y-62529743D01*
X171978470Y-62529743D01*
X171989077Y-62476420D01*
X172000500Y-62418995D01*
X172000500Y-62281004D01*
X171973581Y-62145677D01*
X171973580Y-62145676D01*
X171973580Y-62145672D01*
X171970968Y-62139365D01*
X171920778Y-62018195D01*
X171920771Y-62018182D01*
X171844114Y-61903458D01*
X171844111Y-61903454D01*
X171746545Y-61805888D01*
X171746541Y-61805885D01*
X171631817Y-61729228D01*
X171631804Y-61729221D01*
X171504332Y-61676421D01*
X171504322Y-61676418D01*
X171368995Y-61649500D01*
X171368993Y-61649500D01*
X171231007Y-61649500D01*
X171231005Y-61649500D01*
X171095677Y-61676418D01*
X171095667Y-61676421D01*
X170968195Y-61729221D01*
X170968182Y-61729228D01*
X170853458Y-61805885D01*
X170853454Y-61805888D01*
X170755888Y-61903454D01*
X170755885Y-61903458D01*
X170679228Y-62018182D01*
X170679221Y-62018195D01*
X170626421Y-62145667D01*
X170626418Y-62145677D01*
X170599500Y-62281004D01*
X170599500Y-62281007D01*
X170599500Y-62418993D01*
X170599500Y-62418995D01*
X170599499Y-62418995D01*
X165191331Y-62418995D01*
X165131816Y-62379228D01*
X165131804Y-62379221D01*
X165004332Y-62326421D01*
X165004322Y-62326418D01*
X164868995Y-62299500D01*
X164868993Y-62299500D01*
X164731007Y-62299500D01*
X164731005Y-62299500D01*
X164595677Y-62326418D01*
X164595667Y-62326421D01*
X164468195Y-62379221D01*
X164468182Y-62379228D01*
X164394250Y-62428629D01*
X164327573Y-62449507D01*
X164325084Y-62449407D01*
X164325084Y-62449500D01*
X164181005Y-62449500D01*
X164045677Y-62476418D01*
X164045667Y-62476421D01*
X163918195Y-62529221D01*
X163918182Y-62529228D01*
X163803458Y-62605885D01*
X163803454Y-62605888D01*
X163705888Y-62703454D01*
X163705885Y-62703458D01*
X163629228Y-62818182D01*
X163629221Y-62818195D01*
X163576421Y-62945667D01*
X163576418Y-62945677D01*
X163549500Y-63081004D01*
X163549500Y-63081007D01*
X163549500Y-63218993D01*
X163549500Y-63218995D01*
X163549499Y-63218995D01*
X153683078Y-63218995D01*
X153683078Y-62060950D01*
X153702763Y-61993911D01*
X153755567Y-61948156D01*
X153824725Y-61938212D01*
X153888281Y-61967237D01*
X153921639Y-62013498D01*
X153929221Y-62031804D01*
X153929228Y-62031817D01*
X154005885Y-62146541D01*
X154005888Y-62146545D01*
X154103454Y-62244111D01*
X154103458Y-62244114D01*
X154218182Y-62320771D01*
X154218195Y-62320778D01*
X154331503Y-62367711D01*
X154345672Y-62373580D01*
X154345676Y-62373580D01*
X154345677Y-62373581D01*
X154481004Y-62400500D01*
X154481007Y-62400500D01*
X154618995Y-62400500D01*
X154710041Y-62382389D01*
X154754328Y-62373580D01*
X154881811Y-62320775D01*
X154996542Y-62244114D01*
X155094114Y-62146542D01*
X155170775Y-62031811D01*
X155178361Y-62013498D01*
X155223578Y-61904332D01*
X155223580Y-61904328D01*
X155239994Y-61821812D01*
X155250500Y-61768995D01*
X155250500Y-61631004D01*
X155223581Y-61495677D01*
X155223580Y-61495676D01*
X155223580Y-61495672D01*
X155212593Y-61469147D01*
X155170778Y-61368195D01*
X155170771Y-61368182D01*
X155094114Y-61253458D01*
X155094111Y-61253454D01*
X154996545Y-61155888D01*
X154996541Y-61155885D01*
X154901253Y-61092215D01*
X154856448Y-61038603D01*
X154847741Y-60969278D01*
X154877896Y-60906250D01*
X154922697Y-60874550D01*
X154931806Y-60870777D01*
X154931805Y-60870777D01*
X154931811Y-60870775D01*
X155046542Y-60794114D01*
X155144114Y-60696542D01*
X155220775Y-60581811D01*
X155221283Y-60580586D01*
X155242514Y-60529328D01*
X155273580Y-60454328D01*
X155285581Y-60393995D01*
X156299499Y-60393995D01*
X156326418Y-60529322D01*
X156326421Y-60529332D01*
X156379221Y-60656804D01*
X156379228Y-60656817D01*
X156455885Y-60771541D01*
X156455888Y-60771545D01*
X156553454Y-60869111D01*
X156553458Y-60869114D01*
X156668182Y-60945771D01*
X156668195Y-60945778D01*
X156795667Y-60998578D01*
X156795672Y-60998580D01*
X156795676Y-60998580D01*
X156795677Y-60998581D01*
X156931004Y-61025500D01*
X156931007Y-61025500D01*
X157068995Y-61025500D01*
X157166633Y-61006078D01*
X157204328Y-60998580D01*
X157221749Y-60991363D01*
X157236993Y-60989724D01*
X157250906Y-60983282D01*
X157271023Y-60986066D01*
X157291217Y-60983895D01*
X157304928Y-60990758D01*
X157320116Y-60992860D01*
X157335534Y-61006078D01*
X157353696Y-61015169D01*
X157362311Y-61029033D01*
X157373161Y-61038335D01*
X157382776Y-61061969D01*
X157387992Y-61070362D01*
X157389676Y-61075987D01*
X157412420Y-61190328D01*
X157453853Y-61290357D01*
X157455666Y-61296412D01*
X157455818Y-61325284D01*
X157458905Y-61353992D01*
X157456007Y-61361166D01*
X157456035Y-61366281D01*
X157450291Y-61375322D01*
X157439977Y-61400866D01*
X157379228Y-61491782D01*
X157379221Y-61491795D01*
X157326421Y-61619267D01*
X157326418Y-61619277D01*
X157299500Y-61754604D01*
X157299500Y-61754607D01*
X157299500Y-61892593D01*
X157299500Y-61892595D01*
X157299499Y-61892595D01*
X157326418Y-62027922D01*
X157326421Y-62027932D01*
X157379221Y-62155404D01*
X157379228Y-62155417D01*
X157455885Y-62270141D01*
X157455888Y-62270145D01*
X157553454Y-62367711D01*
X157553458Y-62367714D01*
X157668182Y-62444371D01*
X157668195Y-62444378D01*
X157745555Y-62476421D01*
X157795672Y-62497180D01*
X157795676Y-62497180D01*
X157795677Y-62497181D01*
X157931004Y-62524100D01*
X157931007Y-62524100D01*
X158068995Y-62524100D01*
X158160041Y-62505989D01*
X158204328Y-62497180D01*
X158331811Y-62444375D01*
X158446542Y-62367714D01*
X158544114Y-62270142D01*
X158620775Y-62155411D01*
X158673580Y-62027928D01*
X158685652Y-61967237D01*
X158700500Y-61892595D01*
X158700500Y-61754604D01*
X158673581Y-61619277D01*
X158673580Y-61619276D01*
X158673580Y-61619272D01*
X158642635Y-61544564D01*
X158634563Y-61525075D01*
X158627094Y-61455606D01*
X158646021Y-61408734D01*
X158706775Y-61317811D01*
X158747706Y-61218995D01*
X163649499Y-61218995D01*
X163676418Y-61354322D01*
X163676421Y-61354332D01*
X163729221Y-61481804D01*
X163729228Y-61481817D01*
X163805885Y-61596541D01*
X163805888Y-61596545D01*
X163903454Y-61694111D01*
X163903458Y-61694114D01*
X164018182Y-61770771D01*
X164018195Y-61770778D01*
X164142007Y-61822062D01*
X164145672Y-61823580D01*
X164145676Y-61823580D01*
X164145677Y-61823581D01*
X164281004Y-61850500D01*
X164281007Y-61850500D01*
X164418995Y-61850500D01*
X164510041Y-61832389D01*
X164554328Y-61823580D01*
X164554335Y-61823576D01*
X164560155Y-61821812D01*
X164560651Y-61823448D01*
X164622003Y-61816846D01*
X164639769Y-61822062D01*
X164639845Y-61821812D01*
X164645667Y-61823578D01*
X164645672Y-61823580D01*
X164645676Y-61823580D01*
X164645677Y-61823581D01*
X164781004Y-61850500D01*
X164781007Y-61850500D01*
X164918995Y-61850500D01*
X165010041Y-61832389D01*
X165054328Y-61823580D01*
X165181811Y-61770775D01*
X165296542Y-61694114D01*
X165394114Y-61596542D01*
X165470775Y-61481811D01*
X165523580Y-61354328D01*
X165535100Y-61296412D01*
X165550500Y-61218995D01*
X165550500Y-61081004D01*
X165523581Y-60945677D01*
X165523580Y-60945676D01*
X165523580Y-60945672D01*
X165511707Y-60917007D01*
X165470778Y-60818195D01*
X165470771Y-60818182D01*
X165394114Y-60703458D01*
X165394111Y-60703454D01*
X165296545Y-60605888D01*
X165296541Y-60605885D01*
X165181817Y-60529228D01*
X165181804Y-60529221D01*
X165062264Y-60479707D01*
X165054328Y-60476420D01*
X165054322Y-60476418D01*
X164918995Y-60449500D01*
X164918993Y-60449500D01*
X164781007Y-60449500D01*
X164781005Y-60449500D01*
X164645674Y-60476419D01*
X164639840Y-60478189D01*
X164639344Y-60476555D01*
X164577975Y-60483149D01*
X164560235Y-60477940D01*
X164560160Y-60478189D01*
X164554325Y-60476419D01*
X164418995Y-60449500D01*
X164418993Y-60449500D01*
X164281007Y-60449500D01*
X164281005Y-60449500D01*
X164145677Y-60476418D01*
X164145667Y-60476421D01*
X164018195Y-60529221D01*
X164018182Y-60529228D01*
X163903458Y-60605885D01*
X163903454Y-60605888D01*
X163805888Y-60703454D01*
X163805885Y-60703458D01*
X163729228Y-60818182D01*
X163729221Y-60818195D01*
X163676421Y-60945667D01*
X163676418Y-60945677D01*
X163649500Y-61081004D01*
X163649500Y-61081007D01*
X163649500Y-61218993D01*
X163649500Y-61218995D01*
X163649499Y-61218995D01*
X158747706Y-61218995D01*
X158759580Y-61190328D01*
X158786500Y-61054993D01*
X158786500Y-60917007D01*
X158786500Y-60917004D01*
X158759581Y-60781677D01*
X158759580Y-60781676D01*
X158759580Y-60781672D01*
X158749505Y-60757351D01*
X158742037Y-60687883D01*
X158749507Y-60662445D01*
X158773577Y-60604336D01*
X158773577Y-60604333D01*
X158773580Y-60604328D01*
X158788500Y-60529322D01*
X158800500Y-60468995D01*
X158800500Y-60455942D01*
X158820185Y-60388903D01*
X158838223Y-60373273D01*
X168012000Y-60373273D01*
X168012000Y-60478727D01*
X168025560Y-60529332D01*
X168039293Y-60580586D01*
X168039294Y-60580589D01*
X168040000Y-60581811D01*
X168092020Y-60671913D01*
X168166587Y-60746480D01*
X168257913Y-60799207D01*
X168359773Y-60826500D01*
X168359775Y-60826500D01*
X168465225Y-60826500D01*
X168465227Y-60826500D01*
X168567087Y-60799207D01*
X168658413Y-60746480D01*
X168732980Y-60671913D01*
X168785707Y-60580587D01*
X168813000Y-60478727D01*
X168813000Y-60373273D01*
X168785707Y-60271413D01*
X168732980Y-60180087D01*
X168658413Y-60105520D01*
X168567087Y-60052793D01*
X168465227Y-60025500D01*
X168359773Y-60025500D01*
X168257913Y-60052793D01*
X168257910Y-60052794D01*
X168166585Y-60105521D01*
X168092021Y-60180085D01*
X168039294Y-60271410D01*
X168039293Y-60271413D01*
X168012000Y-60373273D01*
X158838223Y-60373273D01*
X158872989Y-60343148D01*
X158900302Y-60334326D01*
X158954328Y-60323580D01*
X159081811Y-60270775D01*
X159196542Y-60194114D01*
X159294114Y-60096542D01*
X159370775Y-59981811D01*
X159423580Y-59854328D01*
X159450500Y-59718993D01*
X159451395Y-59714494D01*
X159483780Y-59652583D01*
X159544495Y-59618009D01*
X159614265Y-59621748D01*
X159651678Y-59642832D01*
X159654451Y-59645107D01*
X159654458Y-59645114D01*
X159656600Y-59646545D01*
X159769182Y-59721771D01*
X159769195Y-59721778D01*
X159856702Y-59758024D01*
X159896672Y-59774580D01*
X159896676Y-59774580D01*
X159896677Y-59774581D01*
X160032004Y-59801500D01*
X160032007Y-59801500D01*
X160169995Y-59801500D01*
X160281976Y-59779225D01*
X160305328Y-59774580D01*
X160432811Y-59721775D01*
X160547542Y-59645114D01*
X160645114Y-59547542D01*
X160721775Y-59432811D01*
X160726761Y-59420775D01*
X160769253Y-59318189D01*
X160774580Y-59305328D01*
X160781807Y-59268995D01*
X170999499Y-59268995D01*
X171026418Y-59404322D01*
X171026421Y-59404332D01*
X171079221Y-59531804D01*
X171079228Y-59531817D01*
X171155885Y-59646541D01*
X171155888Y-59646545D01*
X171253454Y-59744111D01*
X171253458Y-59744114D01*
X171368182Y-59820771D01*
X171368195Y-59820778D01*
X171495667Y-59873578D01*
X171495672Y-59873580D01*
X171495676Y-59873580D01*
X171495677Y-59873581D01*
X171631004Y-59900500D01*
X171631007Y-59900500D01*
X171768995Y-59900500D01*
X171860041Y-59882389D01*
X171904328Y-59873580D01*
X172031811Y-59820775D01*
X172146542Y-59744114D01*
X172244114Y-59646542D01*
X172320775Y-59531811D01*
X172333641Y-59500749D01*
X172377482Y-59446346D01*
X172400749Y-59433641D01*
X172404314Y-59432164D01*
X172431811Y-59420775D01*
X172546542Y-59344114D01*
X172644114Y-59246542D01*
X172694642Y-59170920D01*
X172748253Y-59126116D01*
X172750292Y-59125250D01*
X172754319Y-59123581D01*
X172754328Y-59123580D01*
X172881811Y-59070775D01*
X172996542Y-58994114D01*
X173094114Y-58896542D01*
X173163778Y-58792282D01*
X173217386Y-58747481D01*
X173219340Y-58746650D01*
X173281811Y-58720775D01*
X173396542Y-58644114D01*
X173494114Y-58546542D01*
X173570775Y-58431811D01*
X173623580Y-58304328D01*
X173650500Y-58168993D01*
X173650500Y-58031007D01*
X173650500Y-58031004D01*
X173623581Y-57895677D01*
X173623580Y-57895676D01*
X173623580Y-57895672D01*
X173616769Y-57879228D01*
X173570778Y-57768195D01*
X173570771Y-57768182D01*
X173537905Y-57718995D01*
X179749499Y-57718995D01*
X179776418Y-57854322D01*
X179776421Y-57854332D01*
X179829221Y-57981804D01*
X179829228Y-57981817D01*
X179905885Y-58096541D01*
X179905888Y-58096545D01*
X180003454Y-58194111D01*
X180003458Y-58194114D01*
X180118182Y-58270771D01*
X180118195Y-58270778D01*
X180245667Y-58323578D01*
X180245672Y-58323580D01*
X180245676Y-58323580D01*
X180245677Y-58323581D01*
X180381004Y-58350500D01*
X180381007Y-58350500D01*
X180518995Y-58350500D01*
X180610041Y-58332389D01*
X180654328Y-58323580D01*
X180781811Y-58270775D01*
X180896542Y-58194114D01*
X180994114Y-58096542D01*
X181070775Y-57981811D01*
X181123580Y-57854328D01*
X181150500Y-57718993D01*
X181150500Y-57581007D01*
X181150500Y-57581004D01*
X181123581Y-57445677D01*
X181123580Y-57445676D01*
X181123580Y-57445672D01*
X181114429Y-57423580D01*
X181070778Y-57318195D01*
X181070771Y-57318182D01*
X180994114Y-57203458D01*
X180994111Y-57203454D01*
X180896545Y-57105888D01*
X180896541Y-57105885D01*
X180781817Y-57029228D01*
X180781804Y-57029221D01*
X180654332Y-56976421D01*
X180654322Y-56976418D01*
X180518995Y-56949500D01*
X180518993Y-56949500D01*
X180381007Y-56949500D01*
X180381005Y-56949500D01*
X180245677Y-56976418D01*
X180245667Y-56976421D01*
X180118195Y-57029221D01*
X180118182Y-57029228D01*
X180003458Y-57105885D01*
X180003454Y-57105888D01*
X179905888Y-57203454D01*
X179905885Y-57203458D01*
X179829228Y-57318182D01*
X179829221Y-57318195D01*
X179776421Y-57445667D01*
X179776418Y-57445677D01*
X179749500Y-57581004D01*
X179749500Y-57581007D01*
X179749500Y-57718993D01*
X179749500Y-57718995D01*
X179749499Y-57718995D01*
X173537905Y-57718995D01*
X173494113Y-57653456D01*
X173396545Y-57555888D01*
X173396541Y-57555885D01*
X173281817Y-57479228D01*
X173281804Y-57479221D01*
X173154332Y-57426421D01*
X173154322Y-57426418D01*
X173018995Y-57399500D01*
X173018993Y-57399500D01*
X172881007Y-57399500D01*
X172881005Y-57399500D01*
X172745677Y-57426418D01*
X172745667Y-57426421D01*
X172618195Y-57479221D01*
X172618182Y-57479228D01*
X172503458Y-57555885D01*
X172503454Y-57555888D01*
X172405888Y-57653454D01*
X172405885Y-57653458D01*
X172336224Y-57757713D01*
X172282611Y-57802518D01*
X172280576Y-57803383D01*
X172218188Y-57829225D01*
X172218182Y-57829228D01*
X172103458Y-57905885D01*
X172103454Y-57905888D01*
X172005888Y-58003454D01*
X172005885Y-58003458D01*
X171955358Y-58079077D01*
X171901745Y-58123882D01*
X171899709Y-58124747D01*
X171768192Y-58179223D01*
X171768182Y-58179228D01*
X171653458Y-58255885D01*
X171653454Y-58255888D01*
X171555888Y-58353454D01*
X171555882Y-58353462D01*
X171479226Y-58468186D01*
X171479222Y-58468192D01*
X171466357Y-58499252D01*
X171422515Y-58553655D01*
X171399252Y-58566357D01*
X171368192Y-58579222D01*
X171368186Y-58579226D01*
X171253462Y-58655882D01*
X171253454Y-58655888D01*
X171155888Y-58753454D01*
X171155885Y-58753458D01*
X171079228Y-58868182D01*
X171079221Y-58868195D01*
X171026421Y-58995667D01*
X171026418Y-58995677D01*
X170999500Y-59131004D01*
X170999500Y-59131007D01*
X170999500Y-59268993D01*
X170999500Y-59268995D01*
X170999499Y-59268995D01*
X160781807Y-59268995D01*
X160790276Y-59226418D01*
X160801500Y-59169995D01*
X160801500Y-59090518D01*
X160821185Y-59023479D01*
X160837814Y-59002841D01*
X160894114Y-58946542D01*
X160970775Y-58831811D01*
X161023580Y-58704328D01*
X161048465Y-58579225D01*
X161050500Y-58568995D01*
X161050500Y-58431004D01*
X161023581Y-58295677D01*
X161023580Y-58295676D01*
X161023580Y-58295672D01*
X161013269Y-58270778D01*
X160970778Y-58168195D01*
X160970771Y-58168182D01*
X160894114Y-58053458D01*
X160894111Y-58053454D01*
X160796545Y-57955888D01*
X160796541Y-57955885D01*
X160681817Y-57879228D01*
X160681804Y-57879221D01*
X160554332Y-57826421D01*
X160554322Y-57826418D01*
X160418995Y-57799500D01*
X160418993Y-57799500D01*
X160357976Y-57799500D01*
X160290937Y-57779815D01*
X160254874Y-57744391D01*
X160194114Y-57653458D01*
X160194111Y-57653454D01*
X160096545Y-57555888D01*
X160096541Y-57555885D01*
X159981817Y-57479228D01*
X159981804Y-57479221D01*
X159854332Y-57426421D01*
X159854322Y-57426418D01*
X159718995Y-57399500D01*
X159718993Y-57399500D01*
X159581007Y-57399500D01*
X159581005Y-57399500D01*
X159445674Y-57426419D01*
X159439840Y-57428189D01*
X159439344Y-57426555D01*
X159377975Y-57433149D01*
X159360235Y-57427940D01*
X159360160Y-57428189D01*
X159354325Y-57426419D01*
X159218995Y-57399500D01*
X159218993Y-57399500D01*
X159081007Y-57399500D01*
X159081005Y-57399500D01*
X158945677Y-57426418D01*
X158945667Y-57426421D01*
X158818195Y-57479221D01*
X158818182Y-57479228D01*
X158703458Y-57555885D01*
X158703454Y-57555888D01*
X158605888Y-57653454D01*
X158605885Y-57653458D01*
X158529228Y-57768182D01*
X158529221Y-57768195D01*
X158476421Y-57895667D01*
X158476418Y-57895677D01*
X158449500Y-58031004D01*
X158449500Y-58031007D01*
X158449500Y-58168993D01*
X158449500Y-58168995D01*
X158449499Y-58168995D01*
X158476418Y-58304322D01*
X158476421Y-58304332D01*
X158529221Y-58431804D01*
X158529228Y-58431817D01*
X158605885Y-58546541D01*
X158605888Y-58546545D01*
X158703454Y-58644111D01*
X158703458Y-58644114D01*
X158820617Y-58722398D01*
X158865422Y-58776010D01*
X158874129Y-58845335D01*
X158843974Y-58908363D01*
X158784531Y-58945082D01*
X158751726Y-58949500D01*
X158681005Y-58949500D01*
X158545677Y-58976418D01*
X158545667Y-58976421D01*
X158418195Y-59029221D01*
X158418182Y-59029228D01*
X158303458Y-59105885D01*
X158303454Y-59105888D01*
X158205888Y-59203454D01*
X158205885Y-59203458D01*
X158129228Y-59318182D01*
X158129221Y-59318195D01*
X158076421Y-59445667D01*
X158076418Y-59445677D01*
X158049500Y-59581004D01*
X158049500Y-59594057D01*
X158042365Y-59618355D01*
X158039223Y-59643484D01*
X158032687Y-59651312D01*
X158029815Y-59661096D01*
X158010679Y-59677677D01*
X157994448Y-59697121D01*
X157982546Y-59702054D01*
X157977011Y-59706851D01*
X157962619Y-59712371D01*
X157956240Y-59714372D01*
X157895672Y-59726420D01*
X157826460Y-59755088D01*
X157821202Y-59756738D01*
X157791548Y-59757283D01*
X157762065Y-59760453D01*
X157757004Y-59757919D01*
X157751344Y-59758024D01*
X157726104Y-59742452D01*
X157699586Y-59729178D01*
X157695837Y-59723779D01*
X157691881Y-59721338D01*
X157686844Y-59710826D01*
X157669522Y-59685876D01*
X157620778Y-59568194D01*
X157620771Y-59568182D01*
X157544114Y-59453458D01*
X157544111Y-59453454D01*
X157446545Y-59355888D01*
X157446541Y-59355885D01*
X157331817Y-59279228D01*
X157331804Y-59279221D01*
X157204332Y-59226421D01*
X157204322Y-59226418D01*
X157068995Y-59199500D01*
X157068993Y-59199500D01*
X156931007Y-59199500D01*
X156931005Y-59199500D01*
X156795677Y-59226418D01*
X156795667Y-59226421D01*
X156668195Y-59279221D01*
X156668182Y-59279228D01*
X156553458Y-59355885D01*
X156553454Y-59355888D01*
X156455888Y-59453454D01*
X156455885Y-59453458D01*
X156379228Y-59568182D01*
X156379221Y-59568195D01*
X156326421Y-59695667D01*
X156326418Y-59695677D01*
X156299500Y-59831004D01*
X156299500Y-59831007D01*
X156299500Y-59968993D01*
X156302050Y-59981811D01*
X156323233Y-60088309D01*
X156323233Y-60136691D01*
X156311812Y-60194111D01*
X156299500Y-60256007D01*
X156299500Y-60393993D01*
X156299500Y-60393995D01*
X156299499Y-60393995D01*
X155285581Y-60393995D01*
X155300500Y-60318995D01*
X155300500Y-60181004D01*
X155273581Y-60045677D01*
X155273580Y-60045676D01*
X155273580Y-60045672D01*
X155265225Y-60025500D01*
X155220778Y-59918195D01*
X155220770Y-59918180D01*
X155204484Y-59893807D01*
X155204483Y-59893806D01*
X155144114Y-59803458D01*
X155144111Y-59803454D01*
X155046545Y-59705888D01*
X155046541Y-59705885D01*
X154931817Y-59629228D01*
X154931804Y-59629221D01*
X154804332Y-59576421D01*
X154804322Y-59576418D01*
X154668995Y-59549500D01*
X154668993Y-59549500D01*
X154531007Y-59549500D01*
X154531005Y-59549500D01*
X154395677Y-59576418D01*
X154395667Y-59576421D01*
X154268195Y-59629221D01*
X154268182Y-59629228D01*
X154153458Y-59705885D01*
X154153454Y-59705888D01*
X154055888Y-59803454D01*
X154055885Y-59803458D01*
X153979228Y-59918182D01*
X153979221Y-59918195D01*
X153926421Y-60045667D01*
X153925737Y-60047924D01*
X153925057Y-60048960D01*
X153924089Y-60051299D01*
X153923645Y-60051115D01*
X153887436Y-60106360D01*
X153823622Y-60134813D01*
X153754556Y-60124249D01*
X153702165Y-60078022D01*
X153683078Y-60011922D01*
X153683078Y-56818995D01*
X162199499Y-56818995D01*
X162226418Y-56954322D01*
X162226421Y-56954332D01*
X162279221Y-57081804D01*
X162279228Y-57081817D01*
X162355885Y-57196541D01*
X162355888Y-57196545D01*
X162453454Y-57294111D01*
X162453458Y-57294114D01*
X162568182Y-57370771D01*
X162568195Y-57370778D01*
X162695667Y-57423578D01*
X162695672Y-57423580D01*
X162695676Y-57423580D01*
X162695677Y-57423581D01*
X162831004Y-57450500D01*
X162831007Y-57450500D01*
X162968995Y-57450500D01*
X163081157Y-57428189D01*
X163104328Y-57423580D01*
X163231811Y-57370775D01*
X163346542Y-57294114D01*
X163444114Y-57196542D01*
X163520775Y-57081811D01*
X163573580Y-56954328D01*
X163573581Y-56954320D01*
X163574522Y-56952050D01*
X163618363Y-56897646D01*
X163684657Y-56875580D01*
X163752356Y-56892859D01*
X163799967Y-56943995D01*
X163810701Y-56975309D01*
X163826418Y-57054322D01*
X163826421Y-57054332D01*
X163879221Y-57181804D01*
X163879228Y-57181817D01*
X163955885Y-57296541D01*
X163955888Y-57296545D01*
X164053454Y-57394111D01*
X164053458Y-57394114D01*
X164168182Y-57470771D01*
X164168195Y-57470778D01*
X164295667Y-57523578D01*
X164295672Y-57523580D01*
X164295676Y-57523580D01*
X164295677Y-57523581D01*
X164431004Y-57550500D01*
X164431007Y-57550500D01*
X164568995Y-57550500D01*
X164660041Y-57532389D01*
X164704328Y-57523580D01*
X164811411Y-57479225D01*
X164831804Y-57470778D01*
X164831804Y-57470777D01*
X164831811Y-57470775D01*
X164946542Y-57394114D01*
X165044114Y-57296542D01*
X165120775Y-57181811D01*
X165173580Y-57054328D01*
X165189077Y-56976420D01*
X165200500Y-56918995D01*
X165200500Y-56781004D01*
X165173581Y-56645677D01*
X165173580Y-56645676D01*
X165173580Y-56645672D01*
X165143719Y-56573580D01*
X165120778Y-56518195D01*
X165120771Y-56518182D01*
X165044114Y-56403458D01*
X165044111Y-56403454D01*
X164946545Y-56305888D01*
X164946541Y-56305885D01*
X164831817Y-56229228D01*
X164831804Y-56229221D01*
X164704332Y-56176421D01*
X164704322Y-56176418D01*
X164568995Y-56149500D01*
X164568993Y-56149500D01*
X164431007Y-56149500D01*
X164431005Y-56149500D01*
X164295677Y-56176418D01*
X164295667Y-56176421D01*
X164168195Y-56229221D01*
X164168182Y-56229228D01*
X164053458Y-56305885D01*
X164053454Y-56305888D01*
X163955888Y-56403454D01*
X163955885Y-56403458D01*
X163879228Y-56518182D01*
X163879221Y-56518195D01*
X163825476Y-56647950D01*
X163781635Y-56702354D01*
X163715341Y-56724419D01*
X163647642Y-56707140D01*
X163600031Y-56656003D01*
X163589298Y-56624689D01*
X163573581Y-56545679D01*
X163573581Y-56545677D01*
X163573580Y-56545672D01*
X163563269Y-56520778D01*
X163520778Y-56418195D01*
X163520771Y-56418182D01*
X163444114Y-56303458D01*
X163444111Y-56303454D01*
X163346545Y-56205888D01*
X163346541Y-56205885D01*
X163231817Y-56129228D01*
X163231804Y-56129221D01*
X163104332Y-56076421D01*
X163104322Y-56076418D01*
X162968995Y-56049500D01*
X162968993Y-56049500D01*
X162831007Y-56049500D01*
X162831005Y-56049500D01*
X162695677Y-56076418D01*
X162695667Y-56076421D01*
X162568195Y-56129221D01*
X162568182Y-56129228D01*
X162453458Y-56205885D01*
X162453454Y-56205888D01*
X162355888Y-56303454D01*
X162355885Y-56303458D01*
X162279228Y-56418182D01*
X162279221Y-56418195D01*
X162226421Y-56545667D01*
X162226418Y-56545677D01*
X162199500Y-56681004D01*
X162199500Y-56681007D01*
X162199500Y-56818993D01*
X162199500Y-56818995D01*
X162199499Y-56818995D01*
X153683078Y-56818995D01*
X153683078Y-55968995D01*
X159199499Y-55968995D01*
X159226418Y-56104322D01*
X159226421Y-56104332D01*
X159279221Y-56231804D01*
X159279228Y-56231817D01*
X159355885Y-56346541D01*
X159355888Y-56346545D01*
X159453454Y-56444111D01*
X159453458Y-56444114D01*
X159568182Y-56520771D01*
X159568195Y-56520778D01*
X159663739Y-56560353D01*
X159695672Y-56573580D01*
X159695676Y-56573580D01*
X159695677Y-56573581D01*
X159831004Y-56600500D01*
X159831007Y-56600500D01*
X159968995Y-56600500D01*
X160060041Y-56582389D01*
X160104328Y-56573580D01*
X160231811Y-56520775D01*
X160346542Y-56444114D01*
X160444114Y-56346542D01*
X160520775Y-56231811D01*
X160573580Y-56104328D01*
X160600500Y-55968993D01*
X160600500Y-55831007D01*
X160600500Y-55831004D01*
X160573581Y-55695677D01*
X160573580Y-55695676D01*
X160573580Y-55695672D01*
X160553230Y-55646542D01*
X160520778Y-55568195D01*
X160520771Y-55568182D01*
X160444114Y-55453458D01*
X160444111Y-55453454D01*
X160346545Y-55355888D01*
X160346541Y-55355885D01*
X160231817Y-55279228D01*
X160231804Y-55279221D01*
X160104332Y-55226421D01*
X160104322Y-55226418D01*
X159968995Y-55199500D01*
X159968993Y-55199500D01*
X159831007Y-55199500D01*
X159831005Y-55199500D01*
X159695677Y-55226418D01*
X159695667Y-55226421D01*
X159568195Y-55279221D01*
X159568182Y-55279228D01*
X159453458Y-55355885D01*
X159453454Y-55355888D01*
X159355888Y-55453454D01*
X159355885Y-55453458D01*
X159279228Y-55568182D01*
X159279221Y-55568195D01*
X159226421Y-55695667D01*
X159226418Y-55695677D01*
X159199500Y-55831004D01*
X159199500Y-55831007D01*
X159199500Y-55968993D01*
X159199500Y-55968995D01*
X159199499Y-55968995D01*
X153683078Y-55968995D01*
X153683078Y-54892995D01*
X163423499Y-54892995D01*
X163450418Y-55028322D01*
X163450421Y-55028332D01*
X163503221Y-55155804D01*
X163503228Y-55155817D01*
X163579885Y-55270541D01*
X163579888Y-55270545D01*
X163677454Y-55368111D01*
X163677458Y-55368114D01*
X163792182Y-55444771D01*
X163792195Y-55444778D01*
X163919667Y-55497578D01*
X163919672Y-55497580D01*
X163919676Y-55497580D01*
X163919677Y-55497581D01*
X164055004Y-55524500D01*
X164055007Y-55524500D01*
X164192995Y-55524500D01*
X164288512Y-55505500D01*
X164328328Y-55497580D01*
X164455811Y-55444775D01*
X164463172Y-55439856D01*
X164529847Y-55418977D01*
X164579516Y-55428395D01*
X164700672Y-55478580D01*
X164700676Y-55478580D01*
X164700677Y-55478581D01*
X164836004Y-55505500D01*
X164836007Y-55505500D01*
X164973995Y-55505500D01*
X165065041Y-55487389D01*
X165109328Y-55478580D01*
X165207924Y-55437740D01*
X165236804Y-55425778D01*
X165236804Y-55425777D01*
X165236811Y-55425775D01*
X165351542Y-55349114D01*
X165449114Y-55251542D01*
X165525775Y-55136811D01*
X165578580Y-55009328D01*
X165601015Y-54896541D01*
X165605500Y-54873995D01*
X165605500Y-54736004D01*
X165578581Y-54600677D01*
X165578580Y-54600676D01*
X165578580Y-54600672D01*
X165569698Y-54579228D01*
X165544749Y-54518995D01*
X174407099Y-54518995D01*
X174434018Y-54654322D01*
X174434021Y-54654332D01*
X174486821Y-54781804D01*
X174486828Y-54781817D01*
X174563485Y-54896541D01*
X174563488Y-54896545D01*
X174661054Y-54994111D01*
X174661058Y-54994114D01*
X174775782Y-55070771D01*
X174775795Y-55070778D01*
X174903267Y-55123578D01*
X174903272Y-55123580D01*
X174903276Y-55123580D01*
X174903277Y-55123581D01*
X175038604Y-55150500D01*
X175038607Y-55150500D01*
X175176595Y-55150500D01*
X175274605Y-55131004D01*
X175311928Y-55123580D01*
X175439411Y-55070775D01*
X175554142Y-54994114D01*
X175651714Y-54896542D01*
X175728375Y-54781811D01*
X175781180Y-54654328D01*
X175791854Y-54600667D01*
X175808100Y-54518995D01*
X175808100Y-54381004D01*
X175781181Y-54245677D01*
X175781180Y-54245676D01*
X175781180Y-54245672D01*
X175763397Y-54202740D01*
X175728378Y-54118195D01*
X175728371Y-54118182D01*
X175651714Y-54003458D01*
X175651711Y-54003454D01*
X175567252Y-53918995D01*
X175956499Y-53918995D01*
X175983418Y-54054322D01*
X175983421Y-54054332D01*
X176036221Y-54181804D01*
X176036228Y-54181817D01*
X176112885Y-54296541D01*
X176112888Y-54296545D01*
X176210454Y-54394111D01*
X176210458Y-54394114D01*
X176325182Y-54470771D01*
X176325189Y-54470775D01*
X176375328Y-54491543D01*
X176429731Y-54535383D01*
X176451797Y-54601677D01*
X176434519Y-54669376D01*
X176415560Y-54693782D01*
X176405890Y-54703452D01*
X176405885Y-54703458D01*
X176329228Y-54818182D01*
X176329221Y-54818195D01*
X176276421Y-54945667D01*
X176276418Y-54945677D01*
X176249500Y-55081004D01*
X176249500Y-55081007D01*
X176249500Y-55218993D01*
X176249500Y-55218995D01*
X176249499Y-55218995D01*
X176276418Y-55354322D01*
X176276421Y-55354332D01*
X176329221Y-55481804D01*
X176329228Y-55481817D01*
X176405885Y-55596541D01*
X176405888Y-55596545D01*
X176503454Y-55694111D01*
X176503458Y-55694114D01*
X176618182Y-55770771D01*
X176618195Y-55770778D01*
X176738890Y-55820771D01*
X176745672Y-55823580D01*
X176745676Y-55823580D01*
X176745677Y-55823581D01*
X176881004Y-55850500D01*
X176881007Y-55850500D01*
X177018995Y-55850500D01*
X177117005Y-55831004D01*
X177154328Y-55823580D01*
X177281811Y-55770775D01*
X177396542Y-55694114D01*
X177494114Y-55596542D01*
X177570775Y-55481811D01*
X177623580Y-55354328D01*
X177632389Y-55310041D01*
X177640554Y-55268995D01*
X179899499Y-55268995D01*
X179926418Y-55404322D01*
X179926421Y-55404332D01*
X179979221Y-55531804D01*
X179979228Y-55531817D01*
X180055885Y-55646541D01*
X180055888Y-55646545D01*
X180153454Y-55744111D01*
X180153458Y-55744114D01*
X180268182Y-55820771D01*
X180268195Y-55820778D01*
X180395667Y-55873578D01*
X180395672Y-55873580D01*
X180395676Y-55873580D01*
X180395677Y-55873581D01*
X180531004Y-55900500D01*
X180531007Y-55900500D01*
X180668995Y-55900500D01*
X180760041Y-55882389D01*
X180804328Y-55873580D01*
X180931811Y-55820775D01*
X181046542Y-55744114D01*
X181144114Y-55646542D01*
X181220775Y-55531811D01*
X181273580Y-55404328D01*
X181298466Y-55279221D01*
X181300500Y-55268995D01*
X181300500Y-55131004D01*
X181273581Y-54995677D01*
X181273580Y-54995676D01*
X181273580Y-54995672D01*
X181272933Y-54994111D01*
X181220778Y-54868195D01*
X181220771Y-54868182D01*
X181144114Y-54753458D01*
X181144111Y-54753454D01*
X181046545Y-54655888D01*
X181046541Y-54655885D01*
X180931817Y-54579228D01*
X180931804Y-54579221D01*
X180804332Y-54526421D01*
X180804322Y-54526418D01*
X180668995Y-54499500D01*
X180668993Y-54499500D01*
X180531007Y-54499500D01*
X180531005Y-54499500D01*
X180395677Y-54526418D01*
X180395667Y-54526421D01*
X180268195Y-54579221D01*
X180268182Y-54579228D01*
X180153458Y-54655885D01*
X180153454Y-54655888D01*
X180055888Y-54753454D01*
X180055885Y-54753458D01*
X179979228Y-54868182D01*
X179979221Y-54868195D01*
X179926421Y-54995667D01*
X179926418Y-54995677D01*
X179899500Y-55131004D01*
X179899500Y-55131007D01*
X179899500Y-55268993D01*
X179899500Y-55268995D01*
X179899499Y-55268995D01*
X177640554Y-55268995D01*
X177650500Y-55218995D01*
X177650500Y-55081004D01*
X177623581Y-54945677D01*
X177623580Y-54945676D01*
X177623580Y-54945672D01*
X177603230Y-54896542D01*
X177570778Y-54818195D01*
X177570771Y-54818182D01*
X177494114Y-54703458D01*
X177494111Y-54703454D01*
X177396545Y-54605888D01*
X177396541Y-54605885D01*
X177281817Y-54529228D01*
X177281804Y-54529221D01*
X177231671Y-54508456D01*
X177177267Y-54464615D01*
X177155202Y-54398321D01*
X177172481Y-54330622D01*
X177191445Y-54306211D01*
X177201112Y-54296544D01*
X177201114Y-54296542D01*
X177277775Y-54181811D01*
X177330580Y-54054328D01*
X177344353Y-53985085D01*
X177357500Y-53918995D01*
X177357500Y-53781004D01*
X177330581Y-53645677D01*
X177330580Y-53645676D01*
X177330580Y-53645672D01*
X177329933Y-53644111D01*
X177277778Y-53518195D01*
X177277771Y-53518182D01*
X177201114Y-53403458D01*
X177201111Y-53403454D01*
X177103545Y-53305888D01*
X177103541Y-53305885D01*
X176988817Y-53229228D01*
X176988804Y-53229221D01*
X176861332Y-53176421D01*
X176861322Y-53176418D01*
X176725995Y-53149500D01*
X176725993Y-53149500D01*
X176588007Y-53149500D01*
X176588005Y-53149500D01*
X176452677Y-53176418D01*
X176452667Y-53176421D01*
X176325195Y-53229221D01*
X176325182Y-53229228D01*
X176210458Y-53305885D01*
X176210454Y-53305888D01*
X176112888Y-53403454D01*
X176112885Y-53403458D01*
X176036228Y-53518182D01*
X176036221Y-53518195D01*
X175983421Y-53645667D01*
X175983418Y-53645677D01*
X175956500Y-53781004D01*
X175956500Y-53781007D01*
X175956500Y-53918993D01*
X175956500Y-53918995D01*
X175956499Y-53918995D01*
X175567252Y-53918995D01*
X175554145Y-53905888D01*
X175554141Y-53905885D01*
X175512434Y-53878017D01*
X175439417Y-53829228D01*
X175439404Y-53829221D01*
X175311932Y-53776421D01*
X175311922Y-53776418D01*
X175176595Y-53749500D01*
X175176593Y-53749500D01*
X175038607Y-53749500D01*
X175038605Y-53749500D01*
X174903277Y-53776418D01*
X174903267Y-53776421D01*
X174775795Y-53829221D01*
X174775782Y-53829228D01*
X174661058Y-53905885D01*
X174661054Y-53905888D01*
X174563488Y-54003454D01*
X174563485Y-54003458D01*
X174486828Y-54118182D01*
X174486821Y-54118195D01*
X174434021Y-54245667D01*
X174434018Y-54245677D01*
X174407100Y-54381004D01*
X174407100Y-54381007D01*
X174407100Y-54518993D01*
X174407100Y-54518995D01*
X174407099Y-54518995D01*
X165544749Y-54518995D01*
X165525778Y-54473195D01*
X165525770Y-54473180D01*
X165506143Y-54443807D01*
X165506142Y-54443806D01*
X165449114Y-54358458D01*
X165449111Y-54358454D01*
X165351545Y-54260888D01*
X165351541Y-54260885D01*
X165236817Y-54184228D01*
X165236804Y-54184221D01*
X165109332Y-54131421D01*
X165109322Y-54131418D01*
X164973995Y-54104500D01*
X164973993Y-54104500D01*
X164836007Y-54104500D01*
X164800205Y-54111621D01*
X164730613Y-54105392D01*
X164675436Y-54062528D01*
X164652193Y-53996638D01*
X164668262Y-53928642D01*
X164688330Y-53902325D01*
X164744114Y-53846542D01*
X164820775Y-53731811D01*
X164873580Y-53604328D01*
X164900500Y-53468993D01*
X164900500Y-53331007D01*
X164900500Y-53331004D01*
X164873581Y-53195677D01*
X164873580Y-53195676D01*
X164873580Y-53195672D01*
X164862530Y-53168995D01*
X165249499Y-53168995D01*
X165276418Y-53304322D01*
X165276421Y-53304332D01*
X165329221Y-53431804D01*
X165329228Y-53431817D01*
X165405885Y-53546541D01*
X165405888Y-53546545D01*
X165503454Y-53644111D01*
X165503458Y-53644114D01*
X165618182Y-53720771D01*
X165618195Y-53720778D01*
X165745667Y-53773578D01*
X165745672Y-53773580D01*
X165745676Y-53773580D01*
X165745677Y-53773581D01*
X165881004Y-53800500D01*
X165881007Y-53800500D01*
X166018995Y-53800500D01*
X166117005Y-53781004D01*
X166154328Y-53773580D01*
X166281811Y-53720775D01*
X166396542Y-53644114D01*
X166494114Y-53546542D01*
X166570775Y-53431811D01*
X166623580Y-53304328D01*
X166632389Y-53260041D01*
X166650500Y-53168995D01*
X166650500Y-53031004D01*
X166623581Y-52895677D01*
X166623580Y-52895676D01*
X166623580Y-52895672D01*
X166607100Y-52855885D01*
X166570778Y-52768195D01*
X166570771Y-52768182D01*
X166494114Y-52653458D01*
X166494111Y-52653454D01*
X166396545Y-52555888D01*
X166396541Y-52555885D01*
X166281817Y-52479228D01*
X166281804Y-52479221D01*
X166154332Y-52426421D01*
X166154322Y-52426418D01*
X166018995Y-52399500D01*
X166018993Y-52399500D01*
X165881007Y-52399500D01*
X165881005Y-52399500D01*
X165745677Y-52426418D01*
X165745667Y-52426421D01*
X165618195Y-52479221D01*
X165618182Y-52479228D01*
X165503458Y-52555885D01*
X165503454Y-52555888D01*
X165405888Y-52653454D01*
X165405885Y-52653458D01*
X165329228Y-52768182D01*
X165329221Y-52768195D01*
X165276421Y-52895667D01*
X165276418Y-52895677D01*
X165249500Y-53031004D01*
X165249500Y-53031007D01*
X165249500Y-53168993D01*
X165249500Y-53168995D01*
X165249499Y-53168995D01*
X164862530Y-53168995D01*
X164854455Y-53149500D01*
X164822517Y-53072393D01*
X164822505Y-53072366D01*
X164820775Y-53068189D01*
X164820771Y-53068182D01*
X164744114Y-52953458D01*
X164744111Y-52953454D01*
X164646545Y-52855888D01*
X164646541Y-52855885D01*
X164531817Y-52779228D01*
X164531804Y-52779221D01*
X164404332Y-52726421D01*
X164404322Y-52726418D01*
X164268995Y-52699500D01*
X164268993Y-52699500D01*
X164131007Y-52699500D01*
X164131005Y-52699500D01*
X163995677Y-52726418D01*
X163995667Y-52726421D01*
X163868195Y-52779221D01*
X163868182Y-52779228D01*
X163753458Y-52855885D01*
X163753454Y-52855888D01*
X163655888Y-52953454D01*
X163655885Y-52953458D01*
X163579228Y-53068182D01*
X163579221Y-53068195D01*
X163526421Y-53195667D01*
X163526418Y-53195677D01*
X163499500Y-53331004D01*
X163499500Y-53331007D01*
X163499500Y-53468993D01*
X163499500Y-53468995D01*
X163499499Y-53468995D01*
X163526418Y-53604322D01*
X163526421Y-53604332D01*
X163579221Y-53731804D01*
X163579228Y-53731817D01*
X163655885Y-53846541D01*
X163655888Y-53846545D01*
X163753454Y-53944111D01*
X163753458Y-53944114D01*
X163814775Y-53985085D01*
X163859580Y-54038697D01*
X163868287Y-54108022D01*
X163838133Y-54171049D01*
X163797330Y-54199926D01*
X163797559Y-54200355D01*
X163794151Y-54202176D01*
X163793355Y-54202740D01*
X163792205Y-54203216D01*
X163792182Y-54203228D01*
X163677458Y-54279885D01*
X163677454Y-54279888D01*
X163579888Y-54377454D01*
X163579885Y-54377458D01*
X163503228Y-54492182D01*
X163503221Y-54492195D01*
X163450421Y-54619667D01*
X163450418Y-54619677D01*
X163423500Y-54755004D01*
X163423500Y-54755007D01*
X163423500Y-54892993D01*
X163423500Y-54892995D01*
X163423499Y-54892995D01*
X153683078Y-54892995D01*
X153683078Y-51968995D01*
X179699499Y-51968995D01*
X179726418Y-52104322D01*
X179726421Y-52104332D01*
X179779221Y-52231804D01*
X179779228Y-52231817D01*
X179855885Y-52346541D01*
X179855888Y-52346545D01*
X179953454Y-52444111D01*
X179953458Y-52444114D01*
X180068182Y-52520771D01*
X180068195Y-52520778D01*
X180195667Y-52573578D01*
X180195672Y-52573580D01*
X180195676Y-52573580D01*
X180195677Y-52573581D01*
X180331004Y-52600500D01*
X180331007Y-52600500D01*
X180468995Y-52600500D01*
X180560041Y-52582389D01*
X180604328Y-52573580D01*
X180731811Y-52520775D01*
X180846542Y-52444114D01*
X180944114Y-52346542D01*
X180967430Y-52311646D01*
X181021042Y-52266841D01*
X181090366Y-52258132D01*
X181153394Y-52288286D01*
X181173635Y-52311644D01*
X181240588Y-52411845D01*
X181338154Y-52509411D01*
X181338158Y-52509414D01*
X181452882Y-52586071D01*
X181452895Y-52586078D01*
X181580367Y-52638878D01*
X181580372Y-52638880D01*
X181580376Y-52638880D01*
X181580377Y-52638881D01*
X181715704Y-52665800D01*
X181715707Y-52665800D01*
X181853695Y-52665800D01*
X181944741Y-52647689D01*
X181989028Y-52638880D01*
X182116511Y-52586075D01*
X182231242Y-52509414D01*
X182328814Y-52411842D01*
X182405475Y-52297111D01*
X182458280Y-52169628D01*
X182485200Y-52034293D01*
X182485200Y-51896307D01*
X182485200Y-51896304D01*
X182458281Y-51760977D01*
X182458280Y-51760976D01*
X182458280Y-51760972D01*
X182451296Y-51744111D01*
X182405478Y-51633495D01*
X182405471Y-51633482D01*
X182328814Y-51518758D01*
X182328811Y-51518754D01*
X182231245Y-51421188D01*
X182231241Y-51421185D01*
X182116517Y-51344528D01*
X182116504Y-51344521D01*
X181989032Y-51291721D01*
X181989022Y-51291718D01*
X181853695Y-51264800D01*
X181853693Y-51264800D01*
X181715707Y-51264800D01*
X181715705Y-51264800D01*
X181580377Y-51291718D01*
X181580367Y-51291721D01*
X181452895Y-51344521D01*
X181452882Y-51344528D01*
X181338158Y-51421185D01*
X181338154Y-51421188D01*
X181240588Y-51518754D01*
X181240583Y-51518760D01*
X181217267Y-51553655D01*
X181163654Y-51598460D01*
X181094329Y-51607166D01*
X181031302Y-51577010D01*
X181011064Y-51553654D01*
X180944114Y-51453458D01*
X180944111Y-51453454D01*
X180846545Y-51355888D01*
X180846541Y-51355885D01*
X180726746Y-51275840D01*
X180727832Y-51274214D01*
X180684427Y-51231578D01*
X180668966Y-51163440D01*
X180692797Y-51097760D01*
X180745270Y-51056621D01*
X180831811Y-51020775D01*
X180946542Y-50944114D01*
X181044114Y-50846542D01*
X181120775Y-50731811D01*
X181173580Y-50604328D01*
X181189077Y-50526420D01*
X181200500Y-50468995D01*
X181200500Y-50331004D01*
X181173581Y-50195677D01*
X181173580Y-50195676D01*
X181173580Y-50195672D01*
X181166769Y-50179228D01*
X181120778Y-50068195D01*
X181120771Y-50068182D01*
X181044114Y-49953458D01*
X181044111Y-49953454D01*
X180946545Y-49855888D01*
X180946541Y-49855885D01*
X180831817Y-49779228D01*
X180831804Y-49779221D01*
X180704332Y-49726421D01*
X180704322Y-49726418D01*
X180568995Y-49699500D01*
X180568993Y-49699500D01*
X180431007Y-49699500D01*
X180431005Y-49699500D01*
X180295677Y-49726418D01*
X180295667Y-49726421D01*
X180168195Y-49779221D01*
X180168182Y-49779228D01*
X180053458Y-49855885D01*
X180053454Y-49855888D01*
X179955888Y-49953454D01*
X179955885Y-49953458D01*
X179879228Y-50068182D01*
X179879221Y-50068195D01*
X179826421Y-50195667D01*
X179826418Y-50195677D01*
X179799500Y-50331004D01*
X179799500Y-50331007D01*
X179799500Y-50468993D01*
X179799500Y-50468995D01*
X179799499Y-50468995D01*
X179826418Y-50604322D01*
X179826421Y-50604332D01*
X179879221Y-50731804D01*
X179879228Y-50731817D01*
X179955885Y-50846541D01*
X179955888Y-50846545D01*
X180053454Y-50944111D01*
X180053458Y-50944114D01*
X180173254Y-51024160D01*
X180172166Y-51025788D01*
X180215564Y-51068408D01*
X180231034Y-51136543D01*
X180207211Y-51202226D01*
X180154728Y-51243379D01*
X180068192Y-51279223D01*
X180068182Y-51279228D01*
X179953458Y-51355885D01*
X179953454Y-51355888D01*
X179855888Y-51453454D01*
X179855885Y-51453458D01*
X179779228Y-51568182D01*
X179779221Y-51568195D01*
X179726421Y-51695667D01*
X179726418Y-51695677D01*
X179699500Y-51831004D01*
X179699500Y-51831007D01*
X179699500Y-51968993D01*
X179699500Y-51968995D01*
X179699499Y-51968995D01*
X153683078Y-51968995D01*
X153683078Y-50518995D01*
X156649499Y-50518995D01*
X156676418Y-50654322D01*
X156676421Y-50654332D01*
X156729221Y-50781804D01*
X156729228Y-50781817D01*
X156805885Y-50896541D01*
X156805888Y-50896545D01*
X156903454Y-50994111D01*
X156903458Y-50994114D01*
X157018182Y-51070771D01*
X157018195Y-51070778D01*
X157145667Y-51123578D01*
X157145672Y-51123580D01*
X157145676Y-51123580D01*
X157145677Y-51123581D01*
X157281004Y-51150500D01*
X157287067Y-51151097D01*
X157286807Y-51153731D01*
X157309298Y-51160444D01*
X157342472Y-51170185D01*
X157342751Y-51170428D01*
X157342935Y-51170483D01*
X157343837Y-51171373D01*
X157369505Y-51193714D01*
X157374382Y-51199394D01*
X157405886Y-51246542D01*
X157469509Y-51310165D01*
X157472574Y-51313734D01*
X157485086Y-51341456D01*
X157499668Y-51368161D01*
X157500119Y-51370328D01*
X157518418Y-51462322D01*
X157518420Y-51462330D01*
X157571221Y-51589804D01*
X157571228Y-51589817D01*
X157647885Y-51704541D01*
X157647888Y-51704545D01*
X157745454Y-51802111D01*
X157745458Y-51802114D01*
X157860182Y-51878771D01*
X157860195Y-51878778D01*
X157987667Y-51931578D01*
X157987672Y-51931580D01*
X157987676Y-51931580D01*
X157987677Y-51931581D01*
X158123004Y-51958500D01*
X158123007Y-51958500D01*
X158260995Y-51958500D01*
X158352041Y-51940389D01*
X158396328Y-51931580D01*
X158523811Y-51878775D01*
X158638542Y-51802114D01*
X158736114Y-51704542D01*
X158812775Y-51589811D01*
X158865580Y-51462328D01*
X158884311Y-51368161D01*
X158892500Y-51326995D01*
X158892500Y-51268995D01*
X163849499Y-51268995D01*
X163876418Y-51404322D01*
X163876421Y-51404332D01*
X163929221Y-51531804D01*
X163929228Y-51531817D01*
X164005885Y-51646541D01*
X164005888Y-51646545D01*
X164103454Y-51744111D01*
X164103458Y-51744114D01*
X164218182Y-51820771D01*
X164218195Y-51820778D01*
X164345667Y-51873578D01*
X164345672Y-51873580D01*
X164345676Y-51873580D01*
X164345677Y-51873581D01*
X164481004Y-51900500D01*
X164481007Y-51900500D01*
X164618995Y-51900500D01*
X164728231Y-51878771D01*
X164754328Y-51873580D01*
X164881811Y-51820775D01*
X164996542Y-51744114D01*
X164996545Y-51744111D01*
X165003423Y-51737234D01*
X165094111Y-51646545D01*
X165094114Y-51646542D01*
X165170775Y-51531811D01*
X165223580Y-51404328D01*
X165235476Y-51344525D01*
X165250500Y-51268995D01*
X165250500Y-51131004D01*
X165223581Y-50995677D01*
X165223580Y-50995676D01*
X165223580Y-50995672D01*
X165212530Y-50968995D01*
X166149499Y-50968995D01*
X166176418Y-51104322D01*
X166176421Y-51104332D01*
X166229221Y-51231804D01*
X166229228Y-51231817D01*
X166305885Y-51346541D01*
X166305888Y-51346545D01*
X166403454Y-51444111D01*
X166403458Y-51444114D01*
X166518182Y-51520771D01*
X166518195Y-51520778D01*
X166632640Y-51568182D01*
X166645672Y-51573580D01*
X166645676Y-51573580D01*
X166645677Y-51573581D01*
X166781004Y-51600500D01*
X166781007Y-51600500D01*
X166918995Y-51600500D01*
X167037084Y-51577010D01*
X167054328Y-51573580D01*
X167181811Y-51520775D01*
X167296542Y-51444114D01*
X167394114Y-51346542D01*
X167470775Y-51231811D01*
X167523580Y-51104328D01*
X167550500Y-50968993D01*
X167550500Y-50831007D01*
X167550500Y-50831004D01*
X167523581Y-50695677D01*
X167523580Y-50695676D01*
X167523580Y-50695672D01*
X167507100Y-50655885D01*
X167470778Y-50568195D01*
X167470771Y-50568182D01*
X167394114Y-50453458D01*
X167394111Y-50453454D01*
X167296545Y-50355888D01*
X167296541Y-50355885D01*
X167181817Y-50279228D01*
X167181804Y-50279221D01*
X167054332Y-50226421D01*
X167054322Y-50226418D01*
X166918995Y-50199500D01*
X166918993Y-50199500D01*
X166781007Y-50199500D01*
X166781005Y-50199500D01*
X166645677Y-50226418D01*
X166645667Y-50226421D01*
X166518195Y-50279221D01*
X166518182Y-50279228D01*
X166403458Y-50355885D01*
X166403454Y-50355888D01*
X166305888Y-50453454D01*
X166305885Y-50453458D01*
X166229228Y-50568182D01*
X166229221Y-50568195D01*
X166176421Y-50695667D01*
X166176418Y-50695677D01*
X166149500Y-50831004D01*
X166149500Y-50831007D01*
X166149500Y-50968993D01*
X166149500Y-50968995D01*
X166149499Y-50968995D01*
X165212530Y-50968995D01*
X165194802Y-50926195D01*
X165172517Y-50872393D01*
X165172505Y-50872366D01*
X165170775Y-50868189D01*
X165170771Y-50868182D01*
X165094114Y-50753458D01*
X165094111Y-50753454D01*
X164996545Y-50655888D01*
X164996541Y-50655885D01*
X164881817Y-50579228D01*
X164881804Y-50579221D01*
X164754332Y-50526421D01*
X164754322Y-50526418D01*
X164618995Y-50499500D01*
X164618993Y-50499500D01*
X164481007Y-50499500D01*
X164481005Y-50499500D01*
X164345677Y-50526418D01*
X164345667Y-50526421D01*
X164218195Y-50579221D01*
X164218182Y-50579228D01*
X164103458Y-50655885D01*
X164103454Y-50655888D01*
X164005888Y-50753454D01*
X164005885Y-50753458D01*
X163929228Y-50868182D01*
X163929221Y-50868195D01*
X163876421Y-50995667D01*
X163876418Y-50995677D01*
X163849500Y-51131004D01*
X163849500Y-51131007D01*
X163849500Y-51268993D01*
X163849500Y-51268995D01*
X163849499Y-51268995D01*
X158892500Y-51268995D01*
X158892500Y-51189004D01*
X158892499Y-51189002D01*
X158884564Y-51149106D01*
X158865581Y-51053677D01*
X158865580Y-51053676D01*
X158865580Y-51053672D01*
X158841554Y-50995667D01*
X158812778Y-50926195D01*
X158812771Y-50926182D01*
X158736115Y-50811459D01*
X158706460Y-50781804D01*
X158675813Y-50751157D01*
X158642330Y-50689837D01*
X158641906Y-50687802D01*
X158623580Y-50595672D01*
X158616769Y-50579228D01*
X158570778Y-50468195D01*
X158570771Y-50468182D01*
X158494114Y-50353458D01*
X158494111Y-50353454D01*
X158396545Y-50255888D01*
X158396541Y-50255885D01*
X158281817Y-50179228D01*
X158281804Y-50179221D01*
X158154332Y-50126421D01*
X158154322Y-50126418D01*
X158018995Y-50099499D01*
X158012933Y-50098903D01*
X158013202Y-50096163D01*
X157957528Y-50079815D01*
X157921465Y-50044391D01*
X157894114Y-50003458D01*
X157894111Y-50003454D01*
X157796545Y-49905888D01*
X157796541Y-49905885D01*
X157681817Y-49829228D01*
X157681804Y-49829221D01*
X157554332Y-49776421D01*
X157554322Y-49776418D01*
X157418995Y-49749500D01*
X157418993Y-49749500D01*
X157281007Y-49749500D01*
X157281005Y-49749500D01*
X157145677Y-49776418D01*
X157145667Y-49776421D01*
X157018195Y-49829221D01*
X157018182Y-49829228D01*
X156903458Y-49905885D01*
X156903454Y-49905888D01*
X156805888Y-50003454D01*
X156805885Y-50003458D01*
X156729228Y-50118182D01*
X156729221Y-50118195D01*
X156676421Y-50245667D01*
X156676418Y-50245677D01*
X156649500Y-50381004D01*
X156649500Y-50381007D01*
X156649500Y-50518993D01*
X156649500Y-50518995D01*
X156649499Y-50518995D01*
X153683078Y-50518995D01*
X153683078Y-49218995D01*
X159049499Y-49218995D01*
X159076418Y-49354322D01*
X159076421Y-49354332D01*
X159129221Y-49481804D01*
X159129228Y-49481817D01*
X159205885Y-49596541D01*
X159205888Y-49596545D01*
X159303454Y-49694111D01*
X159303458Y-49694114D01*
X159418182Y-49770771D01*
X159418195Y-49770778D01*
X159545667Y-49823578D01*
X159545672Y-49823580D01*
X159545676Y-49823580D01*
X159545677Y-49823581D01*
X159681004Y-49850500D01*
X159681007Y-49850500D01*
X159818995Y-49850500D01*
X159910041Y-49832389D01*
X159954328Y-49823580D01*
X160061411Y-49779225D01*
X160081804Y-49770778D01*
X160081804Y-49770777D01*
X160081811Y-49770775D01*
X160196542Y-49694114D01*
X160294114Y-49596542D01*
X160370775Y-49481811D01*
X160423580Y-49354328D01*
X160450500Y-49218993D01*
X160450500Y-49081007D01*
X160450500Y-49081004D01*
X160423581Y-48945677D01*
X160423580Y-48945676D01*
X160423580Y-48945672D01*
X160423578Y-48945667D01*
X160370778Y-48818195D01*
X160370771Y-48818182D01*
X160337905Y-48768995D01*
X163499499Y-48768995D01*
X163526418Y-48904322D01*
X163526421Y-48904332D01*
X163579221Y-49031804D01*
X163579228Y-49031817D01*
X163655885Y-49146541D01*
X163655888Y-49146545D01*
X163753454Y-49244111D01*
X163753458Y-49244114D01*
X163868182Y-49320771D01*
X163868195Y-49320778D01*
X163995667Y-49373578D01*
X163995672Y-49373580D01*
X163995676Y-49373580D01*
X163995677Y-49373581D01*
X164131004Y-49400500D01*
X164131007Y-49400500D01*
X164268995Y-49400500D01*
X164360041Y-49382389D01*
X164404328Y-49373580D01*
X164531811Y-49320775D01*
X164646542Y-49244114D01*
X164744114Y-49146542D01*
X164820775Y-49031811D01*
X164873580Y-48904328D01*
X164900500Y-48768993D01*
X164900500Y-48631007D01*
X164900500Y-48631004D01*
X164873581Y-48495677D01*
X164873580Y-48495676D01*
X164873580Y-48495672D01*
X164854455Y-48449500D01*
X164820778Y-48368195D01*
X164820771Y-48368182D01*
X164744114Y-48253458D01*
X164744111Y-48253454D01*
X164646545Y-48155888D01*
X164646541Y-48155885D01*
X164531817Y-48079228D01*
X164531804Y-48079221D01*
X164404332Y-48026421D01*
X164404322Y-48026418D01*
X164268995Y-47999500D01*
X164268993Y-47999500D01*
X164131007Y-47999500D01*
X164131005Y-47999500D01*
X163995677Y-48026418D01*
X163995667Y-48026421D01*
X163868195Y-48079221D01*
X163868182Y-48079228D01*
X163753458Y-48155885D01*
X163753454Y-48155888D01*
X163655888Y-48253454D01*
X163655885Y-48253458D01*
X163579228Y-48368182D01*
X163579221Y-48368195D01*
X163526421Y-48495667D01*
X163526418Y-48495677D01*
X163499500Y-48631004D01*
X163499500Y-48631007D01*
X163499500Y-48768993D01*
X163499500Y-48768995D01*
X163499499Y-48768995D01*
X160337905Y-48768995D01*
X160294113Y-48703456D01*
X160196545Y-48605888D01*
X160196541Y-48605885D01*
X160081817Y-48529228D01*
X160081804Y-48529221D01*
X159954332Y-48476421D01*
X159954322Y-48476418D01*
X159818995Y-48449500D01*
X159818993Y-48449500D01*
X159681007Y-48449500D01*
X159681005Y-48449500D01*
X159545677Y-48476418D01*
X159545667Y-48476421D01*
X159418195Y-48529221D01*
X159418182Y-48529228D01*
X159303458Y-48605885D01*
X159303454Y-48605888D01*
X159205888Y-48703454D01*
X159205885Y-48703458D01*
X159129228Y-48818182D01*
X159129221Y-48818195D01*
X159076421Y-48945667D01*
X159076418Y-48945677D01*
X159049500Y-49081004D01*
X159049500Y-49081007D01*
X159049500Y-49218993D01*
X159049500Y-49218995D01*
X159049499Y-49218995D01*
X153683078Y-49218995D01*
X153683078Y-46818995D01*
X155549499Y-46818995D01*
X155576418Y-46954322D01*
X155576421Y-46954332D01*
X155629221Y-47081804D01*
X155629228Y-47081817D01*
X155705885Y-47196541D01*
X155705888Y-47196545D01*
X155803454Y-47294111D01*
X155803458Y-47294114D01*
X155918182Y-47370771D01*
X155918195Y-47370778D01*
X156045667Y-47423578D01*
X156045672Y-47423580D01*
X156045676Y-47423580D01*
X156045677Y-47423581D01*
X156181004Y-47450500D01*
X156181007Y-47450500D01*
X156318995Y-47450500D01*
X156410041Y-47432389D01*
X156454328Y-47423580D01*
X156581811Y-47370775D01*
X156696542Y-47294114D01*
X156794114Y-47196542D01*
X156870775Y-47081811D01*
X156923580Y-46954328D01*
X156938924Y-46877190D01*
X156950500Y-46818995D01*
X156950500Y-46681004D01*
X156923581Y-46545677D01*
X156923580Y-46545676D01*
X156923580Y-46545672D01*
X156903230Y-46496542D01*
X156870778Y-46418195D01*
X156870771Y-46418182D01*
X156794114Y-46303458D01*
X156794111Y-46303454D01*
X156696545Y-46205888D01*
X156696541Y-46205885D01*
X156581817Y-46129228D01*
X156581804Y-46129221D01*
X156557116Y-46118995D01*
X164099499Y-46118995D01*
X164126418Y-46254322D01*
X164126421Y-46254332D01*
X164179221Y-46381804D01*
X164179228Y-46381817D01*
X164255885Y-46496541D01*
X164255888Y-46496545D01*
X164353454Y-46594111D01*
X164353458Y-46594114D01*
X164468182Y-46670771D01*
X164468195Y-46670778D01*
X164595667Y-46723578D01*
X164595672Y-46723580D01*
X164595676Y-46723580D01*
X164595677Y-46723581D01*
X164731004Y-46750500D01*
X164731007Y-46750500D01*
X164868995Y-46750500D01*
X164960041Y-46732389D01*
X165004328Y-46723580D01*
X165131811Y-46670775D01*
X165246542Y-46594114D01*
X165272812Y-46567844D01*
X180491004Y-46567844D01*
X180497405Y-46627372D01*
X180497407Y-46627379D01*
X180547649Y-46762086D01*
X180547653Y-46762093D01*
X180633813Y-46877187D01*
X180633816Y-46877190D01*
X180748910Y-46963350D01*
X180748917Y-46963354D01*
X180883624Y-47013596D01*
X180883631Y-47013598D01*
X180943159Y-47019999D01*
X180943176Y-47020000D01*
X181241004Y-47020000D01*
X181741004Y-47020000D01*
X182038832Y-47020000D01*
X182038848Y-47019999D01*
X182098376Y-47013598D01*
X182098383Y-47013596D01*
X182233090Y-46963354D01*
X182233097Y-46963350D01*
X182348191Y-46877190D01*
X182348194Y-46877187D01*
X182434354Y-46762093D01*
X182434358Y-46762086D01*
X182484600Y-46627379D01*
X182484602Y-46627372D01*
X182491003Y-46567844D01*
X182491004Y-46567827D01*
X182491004Y-46270000D01*
X181741004Y-46270000D01*
X181741004Y-47020000D01*
X181241004Y-47020000D01*
X181241004Y-46270000D01*
X180491004Y-46270000D01*
X180491004Y-46567844D01*
X165272812Y-46567844D01*
X165344114Y-46496542D01*
X165420775Y-46381811D01*
X165473580Y-46254328D01*
X165483216Y-46205885D01*
X165500500Y-46118995D01*
X165500500Y-45981004D01*
X165473581Y-45845677D01*
X165473580Y-45845676D01*
X165473580Y-45845672D01*
X165439583Y-45763595D01*
X176099499Y-45763595D01*
X176126418Y-45898922D01*
X176126421Y-45898932D01*
X176179221Y-46026404D01*
X176179228Y-46026417D01*
X176255885Y-46141141D01*
X176255888Y-46141145D01*
X176353454Y-46238711D01*
X176353458Y-46238714D01*
X176468182Y-46315371D01*
X176468195Y-46315378D01*
X176539710Y-46345000D01*
X176595672Y-46368180D01*
X176595676Y-46368180D01*
X176595677Y-46368181D01*
X176731004Y-46395100D01*
X176731007Y-46395100D01*
X176868995Y-46395100D01*
X176960041Y-46376989D01*
X177004328Y-46368180D01*
X177131811Y-46315375D01*
X177246542Y-46238714D01*
X177344114Y-46141142D01*
X177420775Y-46026411D01*
X177473580Y-45898928D01*
X177500500Y-45763593D01*
X177500500Y-45625607D01*
X177500500Y-45625604D01*
X177473581Y-45490277D01*
X177473580Y-45490276D01*
X177473580Y-45490272D01*
X177441416Y-45412620D01*
X177420778Y-45362795D01*
X177420771Y-45362782D01*
X177344114Y-45248058D01*
X177344111Y-45248054D01*
X177246545Y-45150488D01*
X177246541Y-45150485D01*
X177131817Y-45073828D01*
X177131804Y-45073821D01*
X177004332Y-45021021D01*
X177004322Y-45021018D01*
X176868995Y-44994100D01*
X176868993Y-44994100D01*
X176731007Y-44994100D01*
X176731005Y-44994100D01*
X176595677Y-45021018D01*
X176595667Y-45021021D01*
X176468195Y-45073821D01*
X176468182Y-45073828D01*
X176353458Y-45150485D01*
X176353454Y-45150488D01*
X176255888Y-45248054D01*
X176255885Y-45248058D01*
X176179228Y-45362782D01*
X176179221Y-45362795D01*
X176126421Y-45490267D01*
X176126418Y-45490277D01*
X176099500Y-45625604D01*
X176099500Y-45625607D01*
X176099500Y-45763593D01*
X176099500Y-45763595D01*
X176099499Y-45763595D01*
X165439583Y-45763595D01*
X165434159Y-45750500D01*
X165420778Y-45718195D01*
X165420771Y-45718182D01*
X165344114Y-45603458D01*
X165344111Y-45603454D01*
X165246545Y-45505888D01*
X165246541Y-45505885D01*
X165131817Y-45429228D01*
X165131804Y-45429221D01*
X165004332Y-45376421D01*
X165004322Y-45376418D01*
X164868995Y-45349500D01*
X164868993Y-45349500D01*
X164731007Y-45349500D01*
X164731005Y-45349500D01*
X164595677Y-45376418D01*
X164595667Y-45376421D01*
X164468195Y-45429221D01*
X164468182Y-45429228D01*
X164353458Y-45505885D01*
X164353454Y-45505888D01*
X164255888Y-45603454D01*
X164255885Y-45603458D01*
X164179228Y-45718182D01*
X164179221Y-45718195D01*
X164126421Y-45845667D01*
X164126418Y-45845677D01*
X164099500Y-45981004D01*
X164099500Y-45981007D01*
X164099500Y-46118993D01*
X164099500Y-46118995D01*
X164099499Y-46118995D01*
X156557116Y-46118995D01*
X156485849Y-46089476D01*
X156454332Y-46076421D01*
X156454322Y-46076418D01*
X156318995Y-46049500D01*
X156318993Y-46049500D01*
X156181007Y-46049500D01*
X156181005Y-46049500D01*
X156045677Y-46076418D01*
X156045667Y-46076421D01*
X155918195Y-46129221D01*
X155918182Y-46129228D01*
X155803458Y-46205885D01*
X155803454Y-46205888D01*
X155705888Y-46303454D01*
X155705885Y-46303458D01*
X155629228Y-46418182D01*
X155629221Y-46418195D01*
X155576421Y-46545667D01*
X155576418Y-46545677D01*
X155549500Y-46681004D01*
X155549500Y-46681007D01*
X155549500Y-46818993D01*
X155549500Y-46818995D01*
X155549499Y-46818995D01*
X153683078Y-46818995D01*
X153683078Y-44968995D01*
X173349499Y-44968995D01*
X173376418Y-45104322D01*
X173376421Y-45104332D01*
X173429221Y-45231804D01*
X173429228Y-45231817D01*
X173505885Y-45346541D01*
X173505888Y-45346545D01*
X173603454Y-45444111D01*
X173603458Y-45444114D01*
X173718182Y-45520771D01*
X173718195Y-45520778D01*
X173845667Y-45573578D01*
X173845672Y-45573580D01*
X173845676Y-45573580D01*
X173845677Y-45573581D01*
X173981004Y-45600500D01*
X173981007Y-45600500D01*
X174118995Y-45600500D01*
X174210041Y-45582389D01*
X174254328Y-45573580D01*
X174381811Y-45520775D01*
X174496542Y-45444114D01*
X174594114Y-45346542D01*
X174670775Y-45231811D01*
X174698085Y-45165876D01*
X174741923Y-45111476D01*
X174808217Y-45089410D01*
X174836837Y-45091714D01*
X174881005Y-45100500D01*
X174881007Y-45100500D01*
X175018995Y-45100500D01*
X175110041Y-45082389D01*
X175154328Y-45073580D01*
X175281220Y-45021020D01*
X175281804Y-45020778D01*
X175281804Y-45020777D01*
X175281811Y-45020775D01*
X175396542Y-44944114D01*
X175494114Y-44846542D01*
X175570775Y-44731811D01*
X175623580Y-44604328D01*
X175644233Y-44500500D01*
X175650500Y-44468995D01*
X175650500Y-44331004D01*
X175623581Y-44195677D01*
X175623580Y-44195676D01*
X175623580Y-44195672D01*
X175617158Y-44180167D01*
X175570778Y-44068195D01*
X175570771Y-44068182D01*
X175494114Y-43953458D01*
X175494111Y-43953454D01*
X175396545Y-43855888D01*
X175396541Y-43855885D01*
X175281817Y-43779228D01*
X175281804Y-43779221D01*
X175154332Y-43726421D01*
X175154322Y-43726418D01*
X175018995Y-43699500D01*
X175018993Y-43699500D01*
X174881007Y-43699500D01*
X174881005Y-43699500D01*
X174745677Y-43726418D01*
X174745667Y-43726421D01*
X174618195Y-43779221D01*
X174618182Y-43779228D01*
X174503458Y-43855885D01*
X174503454Y-43855888D01*
X174405888Y-43953454D01*
X174405885Y-43953458D01*
X174329228Y-44068182D01*
X174329225Y-44068189D01*
X174301914Y-44134122D01*
X174258072Y-44188525D01*
X174191778Y-44210589D01*
X174163162Y-44208285D01*
X174118997Y-44199500D01*
X174118993Y-44199500D01*
X173981007Y-44199500D01*
X173981005Y-44199500D01*
X173845677Y-44226418D01*
X173845667Y-44226421D01*
X173718195Y-44279221D01*
X173718182Y-44279228D01*
X173603458Y-44355885D01*
X173603454Y-44355888D01*
X173505888Y-44453454D01*
X173505885Y-44453458D01*
X173429228Y-44568182D01*
X173429221Y-44568195D01*
X173376421Y-44695667D01*
X173376418Y-44695677D01*
X173349500Y-44831004D01*
X173349500Y-44831007D01*
X173349500Y-44968993D01*
X173349500Y-44968995D01*
X173349499Y-44968995D01*
X153683078Y-44968995D01*
X153683078Y-43868995D01*
X161449499Y-43868995D01*
X161476418Y-44004322D01*
X161476421Y-44004332D01*
X161529221Y-44131804D01*
X161529228Y-44131817D01*
X161605885Y-44246541D01*
X161605888Y-44246545D01*
X161703454Y-44344111D01*
X161703458Y-44344114D01*
X161818182Y-44420771D01*
X161818195Y-44420778D01*
X161934598Y-44468993D01*
X161945672Y-44473580D01*
X161945676Y-44473580D01*
X161945677Y-44473581D01*
X162081004Y-44500500D01*
X162081007Y-44500500D01*
X162218995Y-44500500D01*
X162310041Y-44482389D01*
X162354328Y-44473580D01*
X162481811Y-44420775D01*
X162596542Y-44344114D01*
X162694114Y-44246542D01*
X162770775Y-44131811D01*
X162823580Y-44004328D01*
X162850500Y-43868993D01*
X162850500Y-43731007D01*
X162850500Y-43731004D01*
X162833426Y-43645169D01*
X162839388Y-43578543D01*
X180490503Y-43578543D01*
X180528951Y-43771829D01*
X180528954Y-43771839D01*
X180604181Y-43953454D01*
X180604372Y-43953914D01*
X180638060Y-44004332D01*
X180665975Y-44046110D01*
X180686852Y-44112787D01*
X180668367Y-44180167D01*
X180665975Y-44183890D01*
X180604370Y-44276089D01*
X180528954Y-44458160D01*
X180528951Y-44458170D01*
X180490504Y-44651456D01*
X180490504Y-44651459D01*
X180490504Y-44848541D01*
X180490504Y-44848543D01*
X180490503Y-44848543D01*
X180528951Y-45041829D01*
X180528954Y-45041839D01*
X180571544Y-45144660D01*
X180579013Y-45214129D01*
X180556252Y-45266420D01*
X180547652Y-45277908D01*
X180547649Y-45277913D01*
X180497407Y-45412620D01*
X180497405Y-45412627D01*
X180491004Y-45472155D01*
X180491004Y-45770000D01*
X181281386Y-45770000D01*
X181230940Y-45820446D01*
X181188153Y-45894555D01*
X181166004Y-45977213D01*
X181166004Y-46062787D01*
X181188153Y-46145445D01*
X181230940Y-46219554D01*
X181291450Y-46280064D01*
X181365559Y-46322851D01*
X181448217Y-46345000D01*
X181533791Y-46345000D01*
X181616449Y-46322851D01*
X181690558Y-46280064D01*
X181751068Y-46219554D01*
X181793855Y-46145445D01*
X181816004Y-46062787D01*
X181816004Y-45977213D01*
X181793855Y-45894555D01*
X181751068Y-45820446D01*
X181700622Y-45770000D01*
X182491004Y-45770000D01*
X182491004Y-45472172D01*
X182491003Y-45472155D01*
X182484602Y-45412627D01*
X182484601Y-45412623D01*
X182434354Y-45277907D01*
X182425757Y-45266422D01*
X182401340Y-45200958D01*
X182410462Y-45144663D01*
X182453055Y-45041835D01*
X182491504Y-44848541D01*
X182491504Y-44651459D01*
X182491504Y-44651456D01*
X182453056Y-44458170D01*
X182453055Y-44458169D01*
X182453055Y-44458165D01*
X182400384Y-44331004D01*
X182377639Y-44276092D01*
X182377637Y-44276088D01*
X182377636Y-44276086D01*
X182333872Y-44210589D01*
X182316033Y-44183891D01*
X182295155Y-44117214D01*
X182313639Y-44049834D01*
X182316033Y-44046109D01*
X182328876Y-44026887D01*
X182377636Y-43953914D01*
X182453055Y-43771835D01*
X182465636Y-43708582D01*
X182491504Y-43578543D01*
X182491504Y-43381456D01*
X182453056Y-43188170D01*
X182453055Y-43188169D01*
X182453055Y-43188165D01*
X182436281Y-43147668D01*
X182377639Y-43006092D01*
X182377632Y-43006079D01*
X182268143Y-42842218D01*
X182268140Y-42842214D01*
X182128789Y-42702863D01*
X182128785Y-42702860D01*
X181964924Y-42593371D01*
X181964911Y-42593364D01*
X181782843Y-42517950D01*
X181782833Y-42517947D01*
X181589547Y-42479500D01*
X181589545Y-42479500D01*
X181392463Y-42479500D01*
X181392461Y-42479500D01*
X181199174Y-42517947D01*
X181199164Y-42517950D01*
X181017096Y-42593364D01*
X181017083Y-42593371D01*
X180853222Y-42702860D01*
X180853218Y-42702863D01*
X180713867Y-42842214D01*
X180713864Y-42842218D01*
X180604375Y-43006079D01*
X180604368Y-43006092D01*
X180528954Y-43188160D01*
X180528951Y-43188170D01*
X180490504Y-43381456D01*
X180490504Y-43381459D01*
X180490504Y-43578541D01*
X180490504Y-43578543D01*
X180490503Y-43578543D01*
X162839388Y-43578543D01*
X162839653Y-43575577D01*
X162882516Y-43520400D01*
X162886152Y-43517875D01*
X162960511Y-43468189D01*
X162996542Y-43444114D01*
X163094114Y-43346542D01*
X163107323Y-43326772D01*
X163120886Y-43306476D01*
X163170771Y-43231817D01*
X163170771Y-43231816D01*
X163170775Y-43231811D01*
X163223580Y-43104328D01*
X163240201Y-43020771D01*
X163250500Y-42968995D01*
X163250500Y-42831004D01*
X163223581Y-42695677D01*
X163223580Y-42695676D01*
X163223580Y-42695672D01*
X163223578Y-42695667D01*
X163191820Y-42618995D01*
X170999499Y-42618995D01*
X171026418Y-42754322D01*
X171026421Y-42754332D01*
X171079221Y-42881804D01*
X171079228Y-42881817D01*
X171155885Y-42996541D01*
X171155888Y-42996545D01*
X171253454Y-43094111D01*
X171253458Y-43094114D01*
X171368182Y-43170771D01*
X171368195Y-43170778D01*
X171410184Y-43188170D01*
X171495672Y-43223580D01*
X171495676Y-43223580D01*
X171495677Y-43223581D01*
X171631004Y-43250500D01*
X171631007Y-43250500D01*
X171768995Y-43250500D01*
X171862983Y-43231804D01*
X171904328Y-43223580D01*
X172004410Y-43182125D01*
X172031804Y-43170778D01*
X172031804Y-43170777D01*
X172031811Y-43170775D01*
X172146542Y-43094114D01*
X172244114Y-42996542D01*
X172320775Y-42881811D01*
X172373580Y-42754328D01*
X172383817Y-42702863D01*
X172400500Y-42618995D01*
X172400500Y-42481004D01*
X172373581Y-42345677D01*
X172373580Y-42345676D01*
X172373580Y-42345672D01*
X172324185Y-42226421D01*
X172320778Y-42218195D01*
X172320771Y-42218182D01*
X172244114Y-42103458D01*
X172244111Y-42103454D01*
X172146545Y-42005888D01*
X172146541Y-42005885D01*
X172031817Y-41929228D01*
X172031804Y-41929221D01*
X171904332Y-41876421D01*
X171904322Y-41876418D01*
X171768995Y-41849500D01*
X171768993Y-41849500D01*
X171631007Y-41849500D01*
X171631005Y-41849500D01*
X171495677Y-41876418D01*
X171495667Y-41876421D01*
X171368195Y-41929221D01*
X171368182Y-41929228D01*
X171253458Y-42005885D01*
X171253454Y-42005888D01*
X171155888Y-42103454D01*
X171155885Y-42103458D01*
X171079228Y-42218182D01*
X171079221Y-42218195D01*
X171026421Y-42345667D01*
X171026418Y-42345677D01*
X170999500Y-42481004D01*
X170999500Y-42481007D01*
X170999500Y-42618993D01*
X170999500Y-42618995D01*
X170999499Y-42618995D01*
X163191820Y-42618995D01*
X163170778Y-42568195D01*
X163170770Y-42568180D01*
X163154484Y-42543807D01*
X163154483Y-42543806D01*
X163094114Y-42453458D01*
X163094111Y-42453454D01*
X162996545Y-42355888D01*
X162996541Y-42355885D01*
X162881817Y-42279228D01*
X162881804Y-42279221D01*
X162754332Y-42226421D01*
X162754322Y-42226418D01*
X162618995Y-42199500D01*
X162618993Y-42199500D01*
X162481007Y-42199500D01*
X162481005Y-42199500D01*
X162345677Y-42226418D01*
X162345667Y-42226421D01*
X162218195Y-42279221D01*
X162218182Y-42279228D01*
X162103458Y-42355885D01*
X162103454Y-42355888D01*
X162005888Y-42453454D01*
X162005885Y-42453458D01*
X161929228Y-42568182D01*
X161929221Y-42568195D01*
X161876421Y-42695667D01*
X161876418Y-42695677D01*
X161849500Y-42831004D01*
X161849500Y-42831007D01*
X161849500Y-42968993D01*
X161849500Y-42968995D01*
X161849499Y-42968995D01*
X161866574Y-43054831D01*
X161860347Y-43124423D01*
X161817484Y-43179600D01*
X161813848Y-43182125D01*
X161703458Y-43255885D01*
X161703454Y-43255888D01*
X161605888Y-43353454D01*
X161605885Y-43353458D01*
X161529228Y-43468182D01*
X161529221Y-43468195D01*
X161476421Y-43595667D01*
X161476418Y-43595677D01*
X161449500Y-43731004D01*
X161449500Y-43731007D01*
X161449500Y-43868993D01*
X161449500Y-43868995D01*
X161449499Y-43868995D01*
X153683078Y-43868995D01*
X153683078Y-42468995D01*
X155099499Y-42468995D01*
X155126418Y-42604322D01*
X155126421Y-42604332D01*
X155179221Y-42731804D01*
X155179228Y-42731817D01*
X155255885Y-42846541D01*
X155255888Y-42846545D01*
X155353454Y-42944111D01*
X155353458Y-42944114D01*
X155468182Y-43020771D01*
X155468195Y-43020778D01*
X155595667Y-43073578D01*
X155595672Y-43073580D01*
X155595676Y-43073580D01*
X155595677Y-43073581D01*
X155731004Y-43100500D01*
X155731007Y-43100500D01*
X155868995Y-43100500D01*
X155960041Y-43082389D01*
X156004328Y-43073580D01*
X156131811Y-43020775D01*
X156246542Y-42944114D01*
X156344114Y-42846542D01*
X156420775Y-42731811D01*
X156473580Y-42604328D01*
X156482389Y-42560041D01*
X156500500Y-42468995D01*
X156500500Y-42331004D01*
X156473581Y-42195677D01*
X156473580Y-42195676D01*
X156473580Y-42195672D01*
X156454869Y-42150499D01*
X156420778Y-42068195D01*
X156420771Y-42068182D01*
X156344114Y-41953458D01*
X156344111Y-41953454D01*
X156246545Y-41855888D01*
X156246541Y-41855885D01*
X156131817Y-41779228D01*
X156131804Y-41779221D01*
X156004332Y-41726421D01*
X156004322Y-41726418D01*
X155868995Y-41699500D01*
X155868993Y-41699500D01*
X155731007Y-41699500D01*
X155731005Y-41699500D01*
X155595677Y-41726418D01*
X155595667Y-41726421D01*
X155468195Y-41779221D01*
X155468182Y-41779228D01*
X155353458Y-41855885D01*
X155353454Y-41855888D01*
X155255888Y-41953454D01*
X155255885Y-41953458D01*
X155179228Y-42068182D01*
X155179221Y-42068195D01*
X155126421Y-42195667D01*
X155126418Y-42195677D01*
X155099500Y-42331004D01*
X155099500Y-42331007D01*
X155099500Y-42468993D01*
X155099500Y-42468995D01*
X155099499Y-42468995D01*
X153683078Y-42468995D01*
X153683078Y-40868995D01*
X175449499Y-40868995D01*
X175476418Y-41004322D01*
X175476421Y-41004332D01*
X175529221Y-41131804D01*
X175529228Y-41131817D01*
X175605885Y-41246541D01*
X175605888Y-41246545D01*
X175703454Y-41344111D01*
X175703458Y-41344114D01*
X175818182Y-41420771D01*
X175818195Y-41420778D01*
X175874696Y-41444181D01*
X175945672Y-41473580D01*
X175945676Y-41473580D01*
X175945677Y-41473581D01*
X176081004Y-41500500D01*
X176081007Y-41500500D01*
X176218995Y-41500500D01*
X176310041Y-41482389D01*
X176354328Y-41473580D01*
X176481811Y-41420775D01*
X176596542Y-41344114D01*
X176694114Y-41246542D01*
X176770775Y-41131811D01*
X176823580Y-41004328D01*
X176850500Y-40868993D01*
X176850500Y-40731007D01*
X176850500Y-40731004D01*
X176823581Y-40595677D01*
X176823580Y-40595676D01*
X176823580Y-40595672D01*
X176815837Y-40576978D01*
X176770778Y-40468195D01*
X176770771Y-40468182D01*
X176694114Y-40353458D01*
X176694111Y-40353454D01*
X176676434Y-40335777D01*
X176642949Y-40274454D01*
X176647933Y-40204762D01*
X176689805Y-40148829D01*
X176695201Y-40145009D01*
X176696542Y-40144114D01*
X176794114Y-40046542D01*
X176870775Y-39931811D01*
X176923580Y-39804328D01*
X176945687Y-39693189D01*
X176950500Y-39668995D01*
X176950500Y-39531004D01*
X176923581Y-39395677D01*
X176923580Y-39395676D01*
X176923580Y-39395672D01*
X176909840Y-39362500D01*
X176870778Y-39268195D01*
X176870771Y-39268182D01*
X176794114Y-39153458D01*
X176794111Y-39153454D01*
X176696545Y-39055888D01*
X176696541Y-39055885D01*
X176581817Y-38979228D01*
X176581804Y-38979221D01*
X176454332Y-38926421D01*
X176454322Y-38926418D01*
X176318995Y-38899500D01*
X176318993Y-38899500D01*
X176181007Y-38899500D01*
X176181005Y-38899500D01*
X176045677Y-38926418D01*
X176045667Y-38926421D01*
X175918195Y-38979221D01*
X175918182Y-38979228D01*
X175803458Y-39055885D01*
X175803454Y-39055888D01*
X175705888Y-39153454D01*
X175705885Y-39153458D01*
X175629228Y-39268182D01*
X175629221Y-39268195D01*
X175576421Y-39395667D01*
X175576418Y-39395677D01*
X175549500Y-39531004D01*
X175549500Y-39531007D01*
X175549500Y-39668993D01*
X175549500Y-39668995D01*
X175549499Y-39668995D01*
X175576418Y-39804322D01*
X175576421Y-39804332D01*
X175629221Y-39931804D01*
X175629228Y-39931817D01*
X175705885Y-40046541D01*
X175705888Y-40046545D01*
X175723565Y-40064222D01*
X175757050Y-40125545D01*
X175752066Y-40195237D01*
X175710194Y-40251170D01*
X175704782Y-40255000D01*
X175703463Y-40255880D01*
X175703454Y-40255888D01*
X175605888Y-40353454D01*
X175605885Y-40353458D01*
X175529228Y-40468182D01*
X175529221Y-40468195D01*
X175476421Y-40595667D01*
X175476418Y-40595677D01*
X175449500Y-40731004D01*
X175449500Y-40731007D01*
X175449500Y-40868993D01*
X175449500Y-40868995D01*
X175449499Y-40868995D01*
X153683078Y-40868995D01*
X153683078Y-39643995D01*
X156604499Y-39643995D01*
X156631418Y-39779322D01*
X156631420Y-39779328D01*
X156684223Y-39906807D01*
X156687098Y-39912185D01*
X156685793Y-39912882D01*
X156704480Y-39972547D01*
X156704500Y-39974769D01*
X156704500Y-40093993D01*
X156704500Y-40093995D01*
X156704499Y-40093995D01*
X156731418Y-40229322D01*
X156731421Y-40229332D01*
X156784221Y-40356804D01*
X156784228Y-40356817D01*
X156860885Y-40471541D01*
X156860888Y-40471545D01*
X156958454Y-40569111D01*
X156958458Y-40569114D01*
X157073182Y-40645771D01*
X157073195Y-40645778D01*
X157131864Y-40670079D01*
X157200672Y-40698580D01*
X157200676Y-40698580D01*
X157200677Y-40698581D01*
X157336004Y-40725500D01*
X157336007Y-40725500D01*
X157473995Y-40725500D01*
X157565041Y-40707389D01*
X157609328Y-40698580D01*
X157736811Y-40645775D01*
X157851542Y-40569114D01*
X157949114Y-40471542D01*
X158025775Y-40356811D01*
X158078580Y-40229328D01*
X158094260Y-40150500D01*
X158105500Y-40093995D01*
X158105500Y-39956004D01*
X158078581Y-39820677D01*
X158078580Y-39820676D01*
X158078580Y-39820672D01*
X158062484Y-39781812D01*
X158025776Y-39693190D01*
X158022905Y-39687819D01*
X158024205Y-39687123D01*
X158005520Y-39627438D01*
X158005500Y-39625230D01*
X158005500Y-39518995D01*
X167142699Y-39518995D01*
X167169618Y-39654322D01*
X167169621Y-39654332D01*
X167222421Y-39781804D01*
X167222428Y-39781817D01*
X167299085Y-39896541D01*
X167299088Y-39896545D01*
X167396654Y-39994111D01*
X167396658Y-39994114D01*
X167511382Y-40070771D01*
X167511395Y-40070778D01*
X167600611Y-40107732D01*
X167638872Y-40123580D01*
X167638876Y-40123580D01*
X167638877Y-40123581D01*
X167774204Y-40150500D01*
X167774207Y-40150500D01*
X167912195Y-40150500D01*
X168037649Y-40125545D01*
X168047528Y-40123580D01*
X168175011Y-40070775D01*
X168289742Y-39994114D01*
X168311461Y-39972395D01*
X171099499Y-39972395D01*
X171126418Y-40107722D01*
X171126421Y-40107732D01*
X171179221Y-40235204D01*
X171179228Y-40235217D01*
X171255885Y-40349941D01*
X171255888Y-40349945D01*
X171353454Y-40447511D01*
X171353458Y-40447514D01*
X171468182Y-40524171D01*
X171468195Y-40524178D01*
X171595667Y-40576978D01*
X171595672Y-40576980D01*
X171595676Y-40576980D01*
X171595677Y-40576981D01*
X171731004Y-40603900D01*
X171731007Y-40603900D01*
X171868995Y-40603900D01*
X171868996Y-40603899D01*
X171869854Y-40603728D01*
X171872017Y-40603299D01*
X171872022Y-40603298D01*
X171967930Y-40584219D01*
X172004328Y-40576980D01*
X172131811Y-40524175D01*
X172246542Y-40447514D01*
X172344114Y-40349942D01*
X172420775Y-40235211D01*
X172473580Y-40107728D01*
X172485751Y-40046541D01*
X172500500Y-39972395D01*
X172500500Y-39834404D01*
X172473581Y-39699077D01*
X172473580Y-39699076D01*
X172473580Y-39699072D01*
X172455048Y-39654332D01*
X172420778Y-39571595D01*
X172420771Y-39571582D01*
X172344114Y-39456858D01*
X172344111Y-39456854D01*
X172246545Y-39359288D01*
X172246541Y-39359285D01*
X172131817Y-39282628D01*
X172131804Y-39282621D01*
X172004332Y-39229821D01*
X172004322Y-39229818D01*
X171868995Y-39202900D01*
X171868993Y-39202900D01*
X171731007Y-39202900D01*
X171731005Y-39202900D01*
X171595677Y-39229818D01*
X171595667Y-39229821D01*
X171468195Y-39282621D01*
X171468182Y-39282628D01*
X171353458Y-39359285D01*
X171353454Y-39359288D01*
X171255888Y-39456854D01*
X171255885Y-39456858D01*
X171179228Y-39571582D01*
X171179221Y-39571595D01*
X171126421Y-39699067D01*
X171126418Y-39699077D01*
X171099500Y-39834404D01*
X171099500Y-39834407D01*
X171099500Y-39972393D01*
X171099500Y-39972395D01*
X171099499Y-39972395D01*
X168311461Y-39972395D01*
X168387314Y-39896542D01*
X168463975Y-39781811D01*
X168516780Y-39654328D01*
X168533239Y-39571582D01*
X168543700Y-39518995D01*
X168543700Y-39381004D01*
X168516781Y-39245677D01*
X168516780Y-39245676D01*
X168516780Y-39245672D01*
X168505729Y-39218993D01*
X168463978Y-39118195D01*
X168463971Y-39118182D01*
X168387314Y-39003458D01*
X168387311Y-39003454D01*
X168289745Y-38905888D01*
X168289741Y-38905885D01*
X168175017Y-38829228D01*
X168175004Y-38829221D01*
X168047532Y-38776421D01*
X168047522Y-38776418D01*
X167912195Y-38749500D01*
X167912193Y-38749500D01*
X167774207Y-38749500D01*
X167774205Y-38749500D01*
X167638877Y-38776418D01*
X167638867Y-38776421D01*
X167511395Y-38829221D01*
X167511382Y-38829228D01*
X167396658Y-38905885D01*
X167396654Y-38905888D01*
X167299088Y-39003454D01*
X167299085Y-39003458D01*
X167222428Y-39118182D01*
X167222421Y-39118195D01*
X167169621Y-39245667D01*
X167169618Y-39245677D01*
X167142700Y-39381004D01*
X167142700Y-39381007D01*
X167142700Y-39518993D01*
X167142700Y-39518995D01*
X167142699Y-39518995D01*
X158005500Y-39518995D01*
X158005500Y-39506004D01*
X157984236Y-39399107D01*
X157984236Y-39399106D01*
X157981767Y-39386696D01*
X157981766Y-39338309D01*
X158003346Y-39229821D01*
X158005500Y-39218995D01*
X158005500Y-39081004D01*
X157978581Y-38945677D01*
X157978580Y-38945676D01*
X157978580Y-38945672D01*
X157930633Y-38829917D01*
X157925778Y-38818195D01*
X157925771Y-38818182D01*
X157849114Y-38703458D01*
X157849111Y-38703454D01*
X157751545Y-38605888D01*
X157751541Y-38605885D01*
X157636817Y-38529228D01*
X157636804Y-38529221D01*
X157509332Y-38476421D01*
X157509322Y-38476418D01*
X157373995Y-38449500D01*
X157373993Y-38449500D01*
X157236007Y-38449500D01*
X157236005Y-38449500D01*
X157100677Y-38476418D01*
X157100667Y-38476421D01*
X156973195Y-38529221D01*
X156973182Y-38529228D01*
X156858458Y-38605885D01*
X156858454Y-38605888D01*
X156760888Y-38703454D01*
X156760885Y-38703458D01*
X156684228Y-38818182D01*
X156684221Y-38818195D01*
X156631421Y-38945667D01*
X156631418Y-38945677D01*
X156604500Y-39081004D01*
X156604500Y-39081007D01*
X156604500Y-39218993D01*
X156606654Y-39229820D01*
X156628233Y-39338309D01*
X156628233Y-39386691D01*
X156614277Y-39456854D01*
X156604500Y-39506007D01*
X156604500Y-39643993D01*
X156604500Y-39643995D01*
X156604499Y-39643995D01*
X153683078Y-39643995D01*
X153683078Y-37574500D01*
X153702763Y-37507461D01*
X153755567Y-37461706D01*
X153807078Y-37450500D01*
X180717274Y-37450500D01*
X180784313Y-37470185D01*
G37*
%TD.AperFunction*%
%TD*%
M02*
