%TF.GenerationSoftware,KiCad,Pcbnew,10.0.3*%
%TF.CreationDate,2026-08-01T11:59:26+03:00*%
%TF.ProjectId,Conversational AI audio guide handset,436f6e76-6572-4736-9174-696f6e616c20,rev?*%
%TF.SameCoordinates,Original*%
%TF.FileFunction,Legend,Bot*%
%TF.FilePolarity,Positive*%
%FSLAX46Y46*%
G04 Gerber Fmt 4.6, Leading zero omitted, Abs format (unit mm)*
G04 Created by KiCad (PCBNEW 10.0.3) date 2026-08-01 11:59:26*
%MOMM*%
%LPD*%
G01*
G04 APERTURE LIST*
G04 Aperture macros list*
%AMRoundRect*
0 Rectangle with rounded corners*
0 $1 Rounding radius*
0 $2 $3 $4 $5 $6 $7 $8 $9 X,Y pos of 4 corners*
0 Add a 4 corners polygon primitive as box body*
4,1,4,$2,$3,$4,$5,$6,$7,$8,$9,$2,$3,0*
0 Add four circle primitives for the rounded corners*
1,1,$1+$1,$2,$3*
1,1,$1+$1,$4,$5*
1,1,$1+$1,$6,$7*
1,1,$1+$1,$8,$9*
0 Add four rect primitives between the rounded corners*
20,1,$1+$1,$2,$3,$4,$5,0*
20,1,$1+$1,$4,$5,$6,$7,0*
20,1,$1+$1,$6,$7,$8,$9,0*
20,1,$1+$1,$8,$9,$2,$3,0*%
%AMFreePoly0*
4,1,64,0.031751,0.146088,0.079639,0.146088,0.235856,0.115014,0.383010,0.054061,0.515445,-0.034429,0.628071,-0.147055,0.716561,-0.279490,0.777514,-0.426644,0.808588,-0.582861,0.808588,-0.742139,0.777514,-0.898356,0.716561,-1.045510,0.628071,-1.177945,0.515445,-1.290571,0.383010,-1.379061,0.235856,-1.440014,0.079639,-1.471088,-0.079639,-1.471088,-0.235856,-1.440014,-0.383010,-1.379061,
-0.515445,-1.290571,-0.628071,-1.177945,-0.716561,-1.045510,-0.777514,-0.898356,-0.808588,-0.742139,-0.808588,-0.595028,-0.512500,-0.595028,-0.512500,-0.729972,-0.477574,-0.860317,-0.410102,-0.977182,-0.314682,-1.072602,-0.197817,-1.140074,-0.067472,-1.175000,0.067472,-1.175000,0.197817,-1.140074,0.314682,-1.072602,0.410102,-0.977182,0.477574,-0.860317,0.512500,-0.729972,0.512500,-0.595028,
0.477574,-0.464683,0.410102,-0.347818,0.314682,-0.252398,0.197817,-0.184926,0.067472,-0.150000,-0.067472,-0.150000,-0.197817,-0.184926,-0.314682,-0.252398,-0.410102,-0.347818,-0.477574,-0.464683,-0.512500,-0.595028,-0.808588,-0.595028,-0.808588,-0.582861,-0.777514,-0.426644,-0.716561,-0.279490,-0.628071,-0.147055,-0.515445,-0.034429,-0.383010,0.054061,-0.235856,0.115014,-0.079639,0.146088,
-0.031751,0.146088,-0.029264,0.147118,0.029264,0.147118,0.031751,0.146088,0.031751,0.146088,$1*%
G04 Aperture macros list end*
%ADD10C,0.150000*%
%ADD11C,0.120000*%
%ADD12C,0.100000*%
%ADD13R,1.000000X1.000000*%
%ADD14C,1.000000*%
%ADD15C,3.800000*%
%ADD16C,0.650000*%
%ADD17O,2.100000X1.000000*%
%ADD18O,1.800000X1.000000*%
%ADD19RoundRect,0.250000X0.275000X-0.450000X0.275000X0.450000X-0.275000X0.450000X-0.275000X-0.450000X0*%
%ADD20RoundRect,0.135000X-0.185000X0.135000X-0.185000X-0.135000X0.185000X-0.135000X0.185000X0.135000X0*%
%ADD21RoundRect,0.225000X0.225000X0.250000X-0.225000X0.250000X-0.225000X-0.250000X0.225000X-0.250000X0*%
%ADD22RoundRect,0.225000X-0.225000X-0.250000X0.225000X-0.250000X0.225000X0.250000X-0.225000X0.250000X0*%
%ADD23RoundRect,0.147500X-0.172500X0.147500X-0.172500X-0.147500X0.172500X-0.147500X0.172500X0.147500X0*%
%ADD24RoundRect,0.175000X-0.175000X-1.675000X0.175000X-1.675000X0.175000X1.675000X-0.175000X1.675000X0*%
%ADD25RoundRect,0.250001X-0.499999X-0.899999X0.499999X-0.899999X0.499999X0.899999X-0.499999X0.899999X0*%
%ADD26RoundRect,0.135000X-0.135000X-0.185000X0.135000X-0.185000X0.135000X0.185000X-0.135000X0.185000X0*%
%ADD27RoundRect,0.140000X-0.140000X-0.170000X0.140000X-0.170000X0.140000X0.170000X-0.140000X0.170000X0*%
%ADD28RoundRect,0.135000X0.135000X0.185000X-0.135000X0.185000X-0.135000X-0.185000X0.135000X-0.185000X0*%
%ADD29RoundRect,0.100000X0.100000X-0.637500X0.100000X0.637500X-0.100000X0.637500X-0.100000X-0.637500X0*%
%ADD30RoundRect,0.150000X-0.150000X0.587500X-0.150000X-0.587500X0.150000X-0.587500X0.150000X0.587500X0*%
%ADD31RoundRect,0.250000X-0.275000X0.450000X-0.275000X-0.450000X0.275000X-0.450000X0.275000X0.450000X0*%
%ADD32RoundRect,0.050000X0.100000X-0.285000X0.100000X0.285000X-0.100000X0.285000X-0.100000X-0.285000X0*%
%ADD33RoundRect,0.225000X0.250000X-0.225000X0.250000X0.225000X-0.250000X0.225000X-0.250000X-0.225000X0*%
%ADD34RoundRect,0.140000X0.140000X0.170000X-0.140000X0.170000X-0.140000X-0.170000X0.140000X-0.170000X0*%
%ADD35RoundRect,0.250000X-0.625000X0.375000X-0.625000X-0.375000X0.625000X-0.375000X0.625000X0.375000X0*%
%ADD36RoundRect,0.150000X0.150000X0.750000X-0.150000X0.750000X-0.150000X-0.750000X0.150000X-0.750000X0*%
%ADD37RoundRect,0.250000X1.050000X1.250000X-1.050000X1.250000X-1.050000X-1.250000X1.050000X-1.250000X0*%
%ADD38C,0.500000*%
%ADD39R,0.725000X0.522000*%
%ADD40FreePoly0,0.000000*%
%ADD41RoundRect,0.135000X0.185000X-0.135000X0.185000X0.135000X-0.185000X0.135000X-0.185000X-0.135000X0*%
G04 APERTURE END LIST*
D10*
X157137704Y-55347618D02*
X157937704Y-55347618D01*
X157937704Y-55347618D02*
X157937704Y-55042856D01*
X157937704Y-55042856D02*
X157899609Y-54966666D01*
X157899609Y-54966666D02*
X157861514Y-54928571D01*
X157861514Y-54928571D02*
X157785323Y-54890475D01*
X157785323Y-54890475D02*
X157671038Y-54890475D01*
X157671038Y-54890475D02*
X157594847Y-54928571D01*
X157594847Y-54928571D02*
X157556752Y-54966666D01*
X157556752Y-54966666D02*
X157518657Y-55042856D01*
X157518657Y-55042856D02*
X157518657Y-55347618D01*
X157937704Y-54395237D02*
X157937704Y-54242856D01*
X157937704Y-54242856D02*
X157899609Y-54166666D01*
X157899609Y-54166666D02*
X157823419Y-54090475D01*
X157823419Y-54090475D02*
X157671038Y-54052380D01*
X157671038Y-54052380D02*
X157404371Y-54052380D01*
X157404371Y-54052380D02*
X157251990Y-54090475D01*
X157251990Y-54090475D02*
X157175800Y-54166666D01*
X157175800Y-54166666D02*
X157137704Y-54242856D01*
X157137704Y-54242856D02*
X157137704Y-54395237D01*
X157137704Y-54395237D02*
X157175800Y-54471428D01*
X157175800Y-54471428D02*
X157251990Y-54547618D01*
X157251990Y-54547618D02*
X157404371Y-54585714D01*
X157404371Y-54585714D02*
X157671038Y-54585714D01*
X157671038Y-54585714D02*
X157823419Y-54547618D01*
X157823419Y-54547618D02*
X157899609Y-54471428D01*
X157899609Y-54471428D02*
X157937704Y-54395237D01*
X157937704Y-53785714D02*
X157137704Y-53595238D01*
X157137704Y-53595238D02*
X157709133Y-53442857D01*
X157709133Y-53442857D02*
X157137704Y-53290476D01*
X157137704Y-53290476D02*
X157937704Y-53100000D01*
X157137704Y-52338094D02*
X157518657Y-52604761D01*
X157137704Y-52795237D02*
X157937704Y-52795237D01*
X157937704Y-52795237D02*
X157937704Y-52490475D01*
X157937704Y-52490475D02*
X157899609Y-52414285D01*
X157899609Y-52414285D02*
X157861514Y-52376190D01*
X157861514Y-52376190D02*
X157785323Y-52338094D01*
X157785323Y-52338094D02*
X157671038Y-52338094D01*
X157671038Y-52338094D02*
X157594847Y-52376190D01*
X157594847Y-52376190D02*
X157556752Y-52414285D01*
X157556752Y-52414285D02*
X157518657Y-52490475D01*
X157518657Y-52490475D02*
X157518657Y-52795237D01*
X157556752Y-51995237D02*
X157556752Y-51728571D01*
X157137704Y-51614285D02*
X157137704Y-51995237D01*
X157137704Y-51995237D02*
X157937704Y-51995237D01*
X157937704Y-51995237D02*
X157937704Y-51614285D01*
X179562295Y-50671429D02*
X180209914Y-50671429D01*
X180209914Y-50671429D02*
X180286104Y-50709524D01*
X180286104Y-50709524D02*
X180324200Y-50747619D01*
X180324200Y-50747619D02*
X180362295Y-50823810D01*
X180362295Y-50823810D02*
X180362295Y-50976191D01*
X180362295Y-50976191D02*
X180324200Y-51052381D01*
X180324200Y-51052381D02*
X180286104Y-51090476D01*
X180286104Y-51090476D02*
X180209914Y-51128572D01*
X180209914Y-51128572D02*
X179562295Y-51128572D01*
X180362295Y-51509524D02*
X179562295Y-51509524D01*
X179562295Y-51509524D02*
X179562295Y-51814286D01*
X179562295Y-51814286D02*
X179600390Y-51890476D01*
X179600390Y-51890476D02*
X179638485Y-51928571D01*
X179638485Y-51928571D02*
X179714676Y-51966667D01*
X179714676Y-51966667D02*
X179828961Y-51966667D01*
X179828961Y-51966667D02*
X179905152Y-51928571D01*
X179905152Y-51928571D02*
X179943247Y-51890476D01*
X179943247Y-51890476D02*
X179981342Y-51814286D01*
X179981342Y-51814286D02*
X179981342Y-51509524D01*
X180362295Y-56595238D02*
X179562295Y-56595238D01*
X179562295Y-56595238D02*
X179562295Y-56785714D01*
X179562295Y-56785714D02*
X179600390Y-56900000D01*
X179600390Y-56900000D02*
X179676580Y-56976190D01*
X179676580Y-56976190D02*
X179752771Y-57014285D01*
X179752771Y-57014285D02*
X179905152Y-57052381D01*
X179905152Y-57052381D02*
X180019438Y-57052381D01*
X180019438Y-57052381D02*
X180171819Y-57014285D01*
X180171819Y-57014285D02*
X180248009Y-56976190D01*
X180248009Y-56976190D02*
X180324200Y-56900000D01*
X180324200Y-56900000D02*
X180362295Y-56785714D01*
X180362295Y-56785714D02*
X180362295Y-56595238D01*
X179562295Y-57547619D02*
X179562295Y-57700000D01*
X179562295Y-57700000D02*
X179600390Y-57776190D01*
X179600390Y-57776190D02*
X179676580Y-57852381D01*
X179676580Y-57852381D02*
X179828961Y-57890476D01*
X179828961Y-57890476D02*
X180095628Y-57890476D01*
X180095628Y-57890476D02*
X180248009Y-57852381D01*
X180248009Y-57852381D02*
X180324200Y-57776190D01*
X180324200Y-57776190D02*
X180362295Y-57700000D01*
X180362295Y-57700000D02*
X180362295Y-57547619D01*
X180362295Y-57547619D02*
X180324200Y-57471428D01*
X180324200Y-57471428D02*
X180248009Y-57395238D01*
X180248009Y-57395238D02*
X180095628Y-57357142D01*
X180095628Y-57357142D02*
X179828961Y-57357142D01*
X179828961Y-57357142D02*
X179676580Y-57395238D01*
X179676580Y-57395238D02*
X179600390Y-57471428D01*
X179600390Y-57471428D02*
X179562295Y-57547619D01*
X179562295Y-58157142D02*
X180362295Y-58347618D01*
X180362295Y-58347618D02*
X179790866Y-58499999D01*
X179790866Y-58499999D02*
X180362295Y-58652380D01*
X180362295Y-58652380D02*
X179562295Y-58842857D01*
X180362295Y-59147619D02*
X179562295Y-59147619D01*
X179562295Y-59147619D02*
X180362295Y-59604762D01*
X180362295Y-59604762D02*
X179562295Y-59604762D01*
X183343247Y-87109523D02*
X183381342Y-87223809D01*
X183381342Y-87223809D02*
X183419438Y-87261904D01*
X183419438Y-87261904D02*
X183495628Y-87300000D01*
X183495628Y-87300000D02*
X183609914Y-87300000D01*
X183609914Y-87300000D02*
X183686104Y-87261904D01*
X183686104Y-87261904D02*
X183724200Y-87223809D01*
X183724200Y-87223809D02*
X183762295Y-87147619D01*
X183762295Y-87147619D02*
X183762295Y-86842857D01*
X183762295Y-86842857D02*
X182962295Y-86842857D01*
X182962295Y-86842857D02*
X182962295Y-87109523D01*
X182962295Y-87109523D02*
X183000390Y-87185714D01*
X183000390Y-87185714D02*
X183038485Y-87223809D01*
X183038485Y-87223809D02*
X183114676Y-87261904D01*
X183114676Y-87261904D02*
X183190866Y-87261904D01*
X183190866Y-87261904D02*
X183267057Y-87223809D01*
X183267057Y-87223809D02*
X183305152Y-87185714D01*
X183305152Y-87185714D02*
X183343247Y-87109523D01*
X183343247Y-87109523D02*
X183343247Y-86842857D01*
X183533723Y-87604761D02*
X183533723Y-87985714D01*
X183762295Y-87528571D02*
X182962295Y-87795238D01*
X182962295Y-87795238D02*
X183762295Y-88061904D01*
X182962295Y-88214285D02*
X182962295Y-88671428D01*
X183762295Y-88442856D02*
X182962295Y-88442856D01*
X157837704Y-62295237D02*
X157837704Y-61838094D01*
X157037704Y-62066666D02*
X157837704Y-62066666D01*
X157266276Y-61609523D02*
X157266276Y-61228570D01*
X157037704Y-61685713D02*
X157837704Y-61419046D01*
X157837704Y-61419046D02*
X157037704Y-61152380D01*
X157037704Y-60504761D02*
X157037704Y-60885713D01*
X157037704Y-60885713D02*
X157837704Y-60885713D01*
X157037704Y-60238094D02*
X157837704Y-60238094D01*
X157037704Y-59780951D02*
X157494847Y-60123809D01*
X157837704Y-59780951D02*
X157380561Y-60238094D01*
X157656752Y-45123809D02*
X157618657Y-45009523D01*
X157618657Y-45009523D02*
X157580561Y-44971428D01*
X157580561Y-44971428D02*
X157504371Y-44933332D01*
X157504371Y-44933332D02*
X157390085Y-44933332D01*
X157390085Y-44933332D02*
X157313895Y-44971428D01*
X157313895Y-44971428D02*
X157275800Y-45009523D01*
X157275800Y-45009523D02*
X157237704Y-45085713D01*
X157237704Y-45085713D02*
X157237704Y-45390475D01*
X157237704Y-45390475D02*
X158037704Y-45390475D01*
X158037704Y-45390475D02*
X158037704Y-45123809D01*
X158037704Y-45123809D02*
X157999609Y-45047618D01*
X157999609Y-45047618D02*
X157961514Y-45009523D01*
X157961514Y-45009523D02*
X157885323Y-44971428D01*
X157885323Y-44971428D02*
X157809133Y-44971428D01*
X157809133Y-44971428D02*
X157732942Y-45009523D01*
X157732942Y-45009523D02*
X157694847Y-45047618D01*
X157694847Y-45047618D02*
X157656752Y-45123809D01*
X157656752Y-45123809D02*
X157656752Y-45390475D01*
X157466276Y-44628571D02*
X157466276Y-44247618D01*
X157237704Y-44704761D02*
X158037704Y-44438094D01*
X158037704Y-44438094D02*
X157237704Y-44171428D01*
X158037704Y-44019047D02*
X158037704Y-43561904D01*
X157237704Y-43790476D02*
X158037704Y-43790476D01*
X157161514Y-43485714D02*
X157161514Y-42876190D01*
X157237704Y-42304761D02*
X157237704Y-42685713D01*
X157237704Y-42685713D02*
X158037704Y-42685713D01*
X157656752Y-42038094D02*
X157656752Y-41771428D01*
X157237704Y-41657142D02*
X157237704Y-42038094D01*
X157237704Y-42038094D02*
X158037704Y-42038094D01*
X158037704Y-42038094D02*
X158037704Y-41657142D01*
X158037704Y-41428570D02*
X157237704Y-41161903D01*
X157237704Y-41161903D02*
X158037704Y-40895237D01*
X167462295Y-49485714D02*
X167081342Y-49219047D01*
X167462295Y-49028571D02*
X166662295Y-49028571D01*
X166662295Y-49028571D02*
X166662295Y-49333333D01*
X166662295Y-49333333D02*
X166700390Y-49409523D01*
X166700390Y-49409523D02*
X166738485Y-49447618D01*
X166738485Y-49447618D02*
X166814676Y-49485714D01*
X166814676Y-49485714D02*
X166928961Y-49485714D01*
X166928961Y-49485714D02*
X167005152Y-49447618D01*
X167005152Y-49447618D02*
X167043247Y-49409523D01*
X167043247Y-49409523D02*
X167081342Y-49333333D01*
X167081342Y-49333333D02*
X167081342Y-49028571D01*
X166662295Y-49752380D02*
X166662295Y-50247618D01*
X166662295Y-50247618D02*
X166967057Y-49980952D01*
X166967057Y-49980952D02*
X166967057Y-50095237D01*
X166967057Y-50095237D02*
X167005152Y-50171428D01*
X167005152Y-50171428D02*
X167043247Y-50209523D01*
X167043247Y-50209523D02*
X167119438Y-50247618D01*
X167119438Y-50247618D02*
X167309914Y-50247618D01*
X167309914Y-50247618D02*
X167386104Y-50209523D01*
X167386104Y-50209523D02*
X167424200Y-50171428D01*
X167424200Y-50171428D02*
X167462295Y-50095237D01*
X167462295Y-50095237D02*
X167462295Y-49866666D01*
X167462295Y-49866666D02*
X167424200Y-49790475D01*
X167424200Y-49790475D02*
X167386104Y-49752380D01*
X167005152Y-50704761D02*
X166967057Y-50628571D01*
X166967057Y-50628571D02*
X166928961Y-50590476D01*
X166928961Y-50590476D02*
X166852771Y-50552380D01*
X166852771Y-50552380D02*
X166814676Y-50552380D01*
X166814676Y-50552380D02*
X166738485Y-50590476D01*
X166738485Y-50590476D02*
X166700390Y-50628571D01*
X166700390Y-50628571D02*
X166662295Y-50704761D01*
X166662295Y-50704761D02*
X166662295Y-50857142D01*
X166662295Y-50857142D02*
X166700390Y-50933333D01*
X166700390Y-50933333D02*
X166738485Y-50971428D01*
X166738485Y-50971428D02*
X166814676Y-51009523D01*
X166814676Y-51009523D02*
X166852771Y-51009523D01*
X166852771Y-51009523D02*
X166928961Y-50971428D01*
X166928961Y-50971428D02*
X166967057Y-50933333D01*
X166967057Y-50933333D02*
X167005152Y-50857142D01*
X167005152Y-50857142D02*
X167005152Y-50704761D01*
X167005152Y-50704761D02*
X167043247Y-50628571D01*
X167043247Y-50628571D02*
X167081342Y-50590476D01*
X167081342Y-50590476D02*
X167157533Y-50552380D01*
X167157533Y-50552380D02*
X167309914Y-50552380D01*
X167309914Y-50552380D02*
X167386104Y-50590476D01*
X167386104Y-50590476D02*
X167424200Y-50628571D01*
X167424200Y-50628571D02*
X167462295Y-50704761D01*
X167462295Y-50704761D02*
X167462295Y-50857142D01*
X167462295Y-50857142D02*
X167424200Y-50933333D01*
X167424200Y-50933333D02*
X167386104Y-50971428D01*
X167386104Y-50971428D02*
X167309914Y-51009523D01*
X167309914Y-51009523D02*
X167157533Y-51009523D01*
X167157533Y-51009523D02*
X167081342Y-50971428D01*
X167081342Y-50971428D02*
X167043247Y-50933333D01*
X167043247Y-50933333D02*
X167005152Y-50857142D01*
X176614285Y-65439904D02*
X176652381Y-65478000D01*
X176652381Y-65478000D02*
X176766666Y-65516095D01*
X176766666Y-65516095D02*
X176842857Y-65516095D01*
X176842857Y-65516095D02*
X176957143Y-65478000D01*
X176957143Y-65478000D02*
X177033333Y-65401809D01*
X177033333Y-65401809D02*
X177071428Y-65325619D01*
X177071428Y-65325619D02*
X177109524Y-65173238D01*
X177109524Y-65173238D02*
X177109524Y-65058952D01*
X177109524Y-65058952D02*
X177071428Y-64906571D01*
X177071428Y-64906571D02*
X177033333Y-64830380D01*
X177033333Y-64830380D02*
X176957143Y-64754190D01*
X176957143Y-64754190D02*
X176842857Y-64716095D01*
X176842857Y-64716095D02*
X176766666Y-64716095D01*
X176766666Y-64716095D02*
X176652381Y-64754190D01*
X176652381Y-64754190D02*
X176614285Y-64792285D01*
X176347619Y-64716095D02*
X175852381Y-64716095D01*
X175852381Y-64716095D02*
X176119047Y-65020857D01*
X176119047Y-65020857D02*
X176004762Y-65020857D01*
X176004762Y-65020857D02*
X175928571Y-65058952D01*
X175928571Y-65058952D02*
X175890476Y-65097047D01*
X175890476Y-65097047D02*
X175852381Y-65173238D01*
X175852381Y-65173238D02*
X175852381Y-65363714D01*
X175852381Y-65363714D02*
X175890476Y-65439904D01*
X175890476Y-65439904D02*
X175928571Y-65478000D01*
X175928571Y-65478000D02*
X176004762Y-65516095D01*
X176004762Y-65516095D02*
X176233333Y-65516095D01*
X176233333Y-65516095D02*
X176309524Y-65478000D01*
X176309524Y-65478000D02*
X176347619Y-65439904D01*
X175585714Y-64716095D02*
X175052380Y-64716095D01*
X175052380Y-64716095D02*
X175395238Y-65516095D01*
X182786104Y-68885714D02*
X182824200Y-68847618D01*
X182824200Y-68847618D02*
X182862295Y-68733333D01*
X182862295Y-68733333D02*
X182862295Y-68657142D01*
X182862295Y-68657142D02*
X182824200Y-68542856D01*
X182824200Y-68542856D02*
X182748009Y-68466666D01*
X182748009Y-68466666D02*
X182671819Y-68428571D01*
X182671819Y-68428571D02*
X182519438Y-68390475D01*
X182519438Y-68390475D02*
X182405152Y-68390475D01*
X182405152Y-68390475D02*
X182252771Y-68428571D01*
X182252771Y-68428571D02*
X182176580Y-68466666D01*
X182176580Y-68466666D02*
X182100390Y-68542856D01*
X182100390Y-68542856D02*
X182062295Y-68657142D01*
X182062295Y-68657142D02*
X182062295Y-68733333D01*
X182062295Y-68733333D02*
X182100390Y-68847618D01*
X182100390Y-68847618D02*
X182138485Y-68885714D01*
X182862295Y-69647618D02*
X182862295Y-69190475D01*
X182862295Y-69419047D02*
X182062295Y-69419047D01*
X182062295Y-69419047D02*
X182176580Y-69342856D01*
X182176580Y-69342856D02*
X182252771Y-69266666D01*
X182252771Y-69266666D02*
X182290866Y-69190475D01*
X182862295Y-70409523D02*
X182862295Y-69952380D01*
X182862295Y-70180952D02*
X182062295Y-70180952D01*
X182062295Y-70180952D02*
X182176580Y-70104761D01*
X182176580Y-70104761D02*
X182252771Y-70028571D01*
X182252771Y-70028571D02*
X182290866Y-69952380D01*
X166052295Y-51678571D02*
X165252295Y-51678571D01*
X165252295Y-51678571D02*
X165252295Y-51869047D01*
X165252295Y-51869047D02*
X165290390Y-51983333D01*
X165290390Y-51983333D02*
X165366580Y-52059523D01*
X165366580Y-52059523D02*
X165442771Y-52097618D01*
X165442771Y-52097618D02*
X165595152Y-52135714D01*
X165595152Y-52135714D02*
X165709438Y-52135714D01*
X165709438Y-52135714D02*
X165861819Y-52097618D01*
X165861819Y-52097618D02*
X165938009Y-52059523D01*
X165938009Y-52059523D02*
X166014200Y-51983333D01*
X166014200Y-51983333D02*
X166052295Y-51869047D01*
X166052295Y-51869047D02*
X166052295Y-51678571D01*
X166052295Y-52897618D02*
X166052295Y-52440475D01*
X166052295Y-52669047D02*
X165252295Y-52669047D01*
X165252295Y-52669047D02*
X165366580Y-52592856D01*
X165366580Y-52592856D02*
X165442771Y-52516666D01*
X165442771Y-52516666D02*
X165480866Y-52440475D01*
X165328485Y-53202380D02*
X165290390Y-53240476D01*
X165290390Y-53240476D02*
X165252295Y-53316666D01*
X165252295Y-53316666D02*
X165252295Y-53507142D01*
X165252295Y-53507142D02*
X165290390Y-53583333D01*
X165290390Y-53583333D02*
X165328485Y-53621428D01*
X165328485Y-53621428D02*
X165404676Y-53659523D01*
X165404676Y-53659523D02*
X165480866Y-53659523D01*
X165480866Y-53659523D02*
X165595152Y-53621428D01*
X165595152Y-53621428D02*
X166052295Y-53164285D01*
X166052295Y-53164285D02*
X166052295Y-53659523D01*
X163462295Y-49485714D02*
X163081342Y-49219047D01*
X163462295Y-49028571D02*
X162662295Y-49028571D01*
X162662295Y-49028571D02*
X162662295Y-49333333D01*
X162662295Y-49333333D02*
X162700390Y-49409523D01*
X162700390Y-49409523D02*
X162738485Y-49447618D01*
X162738485Y-49447618D02*
X162814676Y-49485714D01*
X162814676Y-49485714D02*
X162928961Y-49485714D01*
X162928961Y-49485714D02*
X163005152Y-49447618D01*
X163005152Y-49447618D02*
X163043247Y-49409523D01*
X163043247Y-49409523D02*
X163081342Y-49333333D01*
X163081342Y-49333333D02*
X163081342Y-49028571D01*
X162928961Y-50171428D02*
X163462295Y-50171428D01*
X162624200Y-49980952D02*
X163195628Y-49790475D01*
X163195628Y-49790475D02*
X163195628Y-50285714D01*
X162662295Y-50742857D02*
X162662295Y-50819047D01*
X162662295Y-50819047D02*
X162700390Y-50895238D01*
X162700390Y-50895238D02*
X162738485Y-50933333D01*
X162738485Y-50933333D02*
X162814676Y-50971428D01*
X162814676Y-50971428D02*
X162967057Y-51009523D01*
X162967057Y-51009523D02*
X163157533Y-51009523D01*
X163157533Y-51009523D02*
X163309914Y-50971428D01*
X163309914Y-50971428D02*
X163386104Y-50933333D01*
X163386104Y-50933333D02*
X163424200Y-50895238D01*
X163424200Y-50895238D02*
X163462295Y-50819047D01*
X163462295Y-50819047D02*
X163462295Y-50742857D01*
X163462295Y-50742857D02*
X163424200Y-50666666D01*
X163424200Y-50666666D02*
X163386104Y-50628571D01*
X163386104Y-50628571D02*
X163309914Y-50590476D01*
X163309914Y-50590476D02*
X163157533Y-50552380D01*
X163157533Y-50552380D02*
X162967057Y-50552380D01*
X162967057Y-50552380D02*
X162814676Y-50590476D01*
X162814676Y-50590476D02*
X162738485Y-50628571D01*
X162738485Y-50628571D02*
X162700390Y-50666666D01*
X162700390Y-50666666D02*
X162662295Y-50742857D01*
X172032295Y-51678571D02*
X171232295Y-51678571D01*
X171232295Y-51678571D02*
X171232295Y-51869047D01*
X171232295Y-51869047D02*
X171270390Y-51983333D01*
X171270390Y-51983333D02*
X171346580Y-52059523D01*
X171346580Y-52059523D02*
X171422771Y-52097618D01*
X171422771Y-52097618D02*
X171575152Y-52135714D01*
X171575152Y-52135714D02*
X171689438Y-52135714D01*
X171689438Y-52135714D02*
X171841819Y-52097618D01*
X171841819Y-52097618D02*
X171918009Y-52059523D01*
X171918009Y-52059523D02*
X171994200Y-51983333D01*
X171994200Y-51983333D02*
X172032295Y-51869047D01*
X172032295Y-51869047D02*
X172032295Y-51678571D01*
X172032295Y-52897618D02*
X172032295Y-52440475D01*
X172032295Y-52669047D02*
X171232295Y-52669047D01*
X171232295Y-52669047D02*
X171346580Y-52592856D01*
X171346580Y-52592856D02*
X171422771Y-52516666D01*
X171422771Y-52516666D02*
X171460866Y-52440475D01*
X172032295Y-53659523D02*
X172032295Y-53202380D01*
X172032295Y-53430952D02*
X171232295Y-53430952D01*
X171232295Y-53430952D02*
X171346580Y-53354761D01*
X171346580Y-53354761D02*
X171422771Y-53278571D01*
X171422771Y-53278571D02*
X171460866Y-53202380D01*
X171462295Y-49485714D02*
X171081342Y-49219047D01*
X171462295Y-49028571D02*
X170662295Y-49028571D01*
X170662295Y-49028571D02*
X170662295Y-49333333D01*
X170662295Y-49333333D02*
X170700390Y-49409523D01*
X170700390Y-49409523D02*
X170738485Y-49447618D01*
X170738485Y-49447618D02*
X170814676Y-49485714D01*
X170814676Y-49485714D02*
X170928961Y-49485714D01*
X170928961Y-49485714D02*
X171005152Y-49447618D01*
X171005152Y-49447618D02*
X171043247Y-49409523D01*
X171043247Y-49409523D02*
X171081342Y-49333333D01*
X171081342Y-49333333D02*
X171081342Y-49028571D01*
X170662295Y-49752380D02*
X170662295Y-50247618D01*
X170662295Y-50247618D02*
X170967057Y-49980952D01*
X170967057Y-49980952D02*
X170967057Y-50095237D01*
X170967057Y-50095237D02*
X171005152Y-50171428D01*
X171005152Y-50171428D02*
X171043247Y-50209523D01*
X171043247Y-50209523D02*
X171119438Y-50247618D01*
X171119438Y-50247618D02*
X171309914Y-50247618D01*
X171309914Y-50247618D02*
X171386104Y-50209523D01*
X171386104Y-50209523D02*
X171424200Y-50171428D01*
X171424200Y-50171428D02*
X171462295Y-50095237D01*
X171462295Y-50095237D02*
X171462295Y-49866666D01*
X171462295Y-49866666D02*
X171424200Y-49790475D01*
X171424200Y-49790475D02*
X171386104Y-49752380D01*
X171462295Y-51009523D02*
X171462295Y-50552380D01*
X171462295Y-50780952D02*
X170662295Y-50780952D01*
X170662295Y-50780952D02*
X170776580Y-50704761D01*
X170776580Y-50704761D02*
X170852771Y-50628571D01*
X170852771Y-50628571D02*
X170890866Y-50552380D01*
X175714285Y-68162295D02*
X175980952Y-67781342D01*
X176171428Y-68162295D02*
X176171428Y-67362295D01*
X176171428Y-67362295D02*
X175866666Y-67362295D01*
X175866666Y-67362295D02*
X175790476Y-67400390D01*
X175790476Y-67400390D02*
X175752381Y-67438485D01*
X175752381Y-67438485D02*
X175714285Y-67514676D01*
X175714285Y-67514676D02*
X175714285Y-67628961D01*
X175714285Y-67628961D02*
X175752381Y-67705152D01*
X175752381Y-67705152D02*
X175790476Y-67743247D01*
X175790476Y-67743247D02*
X175866666Y-67781342D01*
X175866666Y-67781342D02*
X176171428Y-67781342D01*
X174952381Y-68162295D02*
X175409524Y-68162295D01*
X175180952Y-68162295D02*
X175180952Y-67362295D01*
X175180952Y-67362295D02*
X175257143Y-67476580D01*
X175257143Y-67476580D02*
X175333333Y-67552771D01*
X175333333Y-67552771D02*
X175409524Y-67590866D01*
X174685714Y-67362295D02*
X174152380Y-67362295D01*
X174152380Y-67362295D02*
X174495238Y-68162295D01*
X157614285Y-48086104D02*
X157652381Y-48124200D01*
X157652381Y-48124200D02*
X157766666Y-48162295D01*
X157766666Y-48162295D02*
X157842857Y-48162295D01*
X157842857Y-48162295D02*
X157957143Y-48124200D01*
X157957143Y-48124200D02*
X158033333Y-48048009D01*
X158033333Y-48048009D02*
X158071428Y-47971819D01*
X158071428Y-47971819D02*
X158109524Y-47819438D01*
X158109524Y-47819438D02*
X158109524Y-47705152D01*
X158109524Y-47705152D02*
X158071428Y-47552771D01*
X158071428Y-47552771D02*
X158033333Y-47476580D01*
X158033333Y-47476580D02*
X157957143Y-47400390D01*
X157957143Y-47400390D02*
X157842857Y-47362295D01*
X157842857Y-47362295D02*
X157766666Y-47362295D01*
X157766666Y-47362295D02*
X157652381Y-47400390D01*
X157652381Y-47400390D02*
X157614285Y-47438485D01*
X157347619Y-47362295D02*
X156852381Y-47362295D01*
X156852381Y-47362295D02*
X157119047Y-47667057D01*
X157119047Y-47667057D02*
X157004762Y-47667057D01*
X157004762Y-47667057D02*
X156928571Y-47705152D01*
X156928571Y-47705152D02*
X156890476Y-47743247D01*
X156890476Y-47743247D02*
X156852381Y-47819438D01*
X156852381Y-47819438D02*
X156852381Y-48009914D01*
X156852381Y-48009914D02*
X156890476Y-48086104D01*
X156890476Y-48086104D02*
X156928571Y-48124200D01*
X156928571Y-48124200D02*
X157004762Y-48162295D01*
X157004762Y-48162295D02*
X157233333Y-48162295D01*
X157233333Y-48162295D02*
X157309524Y-48124200D01*
X157309524Y-48124200D02*
X157347619Y-48086104D01*
X156166666Y-47362295D02*
X156319047Y-47362295D01*
X156319047Y-47362295D02*
X156395238Y-47400390D01*
X156395238Y-47400390D02*
X156433333Y-47438485D01*
X156433333Y-47438485D02*
X156509523Y-47552771D01*
X156509523Y-47552771D02*
X156547619Y-47705152D01*
X156547619Y-47705152D02*
X156547619Y-48009914D01*
X156547619Y-48009914D02*
X156509523Y-48086104D01*
X156509523Y-48086104D02*
X156471428Y-48124200D01*
X156471428Y-48124200D02*
X156395238Y-48162295D01*
X156395238Y-48162295D02*
X156242857Y-48162295D01*
X156242857Y-48162295D02*
X156166666Y-48124200D01*
X156166666Y-48124200D02*
X156128571Y-48086104D01*
X156128571Y-48086104D02*
X156090476Y-48009914D01*
X156090476Y-48009914D02*
X156090476Y-47819438D01*
X156090476Y-47819438D02*
X156128571Y-47743247D01*
X156128571Y-47743247D02*
X156166666Y-47705152D01*
X156166666Y-47705152D02*
X156242857Y-47667057D01*
X156242857Y-47667057D02*
X156395238Y-47667057D01*
X156395238Y-47667057D02*
X156471428Y-47705152D01*
X156471428Y-47705152D02*
X156509523Y-47743247D01*
X156509523Y-47743247D02*
X156547619Y-47819438D01*
X165462295Y-49485714D02*
X165081342Y-49219047D01*
X165462295Y-49028571D02*
X164662295Y-49028571D01*
X164662295Y-49028571D02*
X164662295Y-49333333D01*
X164662295Y-49333333D02*
X164700390Y-49409523D01*
X164700390Y-49409523D02*
X164738485Y-49447618D01*
X164738485Y-49447618D02*
X164814676Y-49485714D01*
X164814676Y-49485714D02*
X164928961Y-49485714D01*
X164928961Y-49485714D02*
X165005152Y-49447618D01*
X165005152Y-49447618D02*
X165043247Y-49409523D01*
X165043247Y-49409523D02*
X165081342Y-49333333D01*
X165081342Y-49333333D02*
X165081342Y-49028571D01*
X164662295Y-49752380D02*
X164662295Y-50247618D01*
X164662295Y-50247618D02*
X164967057Y-49980952D01*
X164967057Y-49980952D02*
X164967057Y-50095237D01*
X164967057Y-50095237D02*
X165005152Y-50171428D01*
X165005152Y-50171428D02*
X165043247Y-50209523D01*
X165043247Y-50209523D02*
X165119438Y-50247618D01*
X165119438Y-50247618D02*
X165309914Y-50247618D01*
X165309914Y-50247618D02*
X165386104Y-50209523D01*
X165386104Y-50209523D02*
X165424200Y-50171428D01*
X165424200Y-50171428D02*
X165462295Y-50095237D01*
X165462295Y-50095237D02*
X165462295Y-49866666D01*
X165462295Y-49866666D02*
X165424200Y-49790475D01*
X165424200Y-49790475D02*
X165386104Y-49752380D01*
X165462295Y-50628571D02*
X165462295Y-50780952D01*
X165462295Y-50780952D02*
X165424200Y-50857142D01*
X165424200Y-50857142D02*
X165386104Y-50895238D01*
X165386104Y-50895238D02*
X165271819Y-50971428D01*
X165271819Y-50971428D02*
X165119438Y-51009523D01*
X165119438Y-51009523D02*
X164814676Y-51009523D01*
X164814676Y-51009523D02*
X164738485Y-50971428D01*
X164738485Y-50971428D02*
X164700390Y-50933333D01*
X164700390Y-50933333D02*
X164662295Y-50857142D01*
X164662295Y-50857142D02*
X164662295Y-50704761D01*
X164662295Y-50704761D02*
X164700390Y-50628571D01*
X164700390Y-50628571D02*
X164738485Y-50590476D01*
X164738485Y-50590476D02*
X164814676Y-50552380D01*
X164814676Y-50552380D02*
X165005152Y-50552380D01*
X165005152Y-50552380D02*
X165081342Y-50590476D01*
X165081342Y-50590476D02*
X165119438Y-50628571D01*
X165119438Y-50628571D02*
X165157533Y-50704761D01*
X165157533Y-50704761D02*
X165157533Y-50857142D01*
X165157533Y-50857142D02*
X165119438Y-50933333D01*
X165119438Y-50933333D02*
X165081342Y-50971428D01*
X165081342Y-50971428D02*
X165005152Y-51009523D01*
X167362295Y-86227648D02*
X166981342Y-85960981D01*
X167362295Y-85770505D02*
X166562295Y-85770505D01*
X166562295Y-85770505D02*
X166562295Y-86075267D01*
X166562295Y-86075267D02*
X166600390Y-86151457D01*
X166600390Y-86151457D02*
X166638485Y-86189552D01*
X166638485Y-86189552D02*
X166714676Y-86227648D01*
X166714676Y-86227648D02*
X166828961Y-86227648D01*
X166828961Y-86227648D02*
X166905152Y-86189552D01*
X166905152Y-86189552D02*
X166943247Y-86151457D01*
X166943247Y-86151457D02*
X166981342Y-86075267D01*
X166981342Y-86075267D02*
X166981342Y-85770505D01*
X166638485Y-86532409D02*
X166600390Y-86570505D01*
X166600390Y-86570505D02*
X166562295Y-86646695D01*
X166562295Y-86646695D02*
X166562295Y-86837171D01*
X166562295Y-86837171D02*
X166600390Y-86913362D01*
X166600390Y-86913362D02*
X166638485Y-86951457D01*
X166638485Y-86951457D02*
X166714676Y-86989552D01*
X166714676Y-86989552D02*
X166790866Y-86989552D01*
X166790866Y-86989552D02*
X166905152Y-86951457D01*
X166905152Y-86951457D02*
X167362295Y-86494314D01*
X167362295Y-86494314D02*
X167362295Y-86989552D01*
X167362295Y-87751457D02*
X167362295Y-87294314D01*
X167362295Y-87522886D02*
X166562295Y-87522886D01*
X166562295Y-87522886D02*
X166676580Y-87446695D01*
X166676580Y-87446695D02*
X166752771Y-87370505D01*
X166752771Y-87370505D02*
X166790866Y-87294314D01*
X163462295Y-44735714D02*
X163081342Y-44469047D01*
X163462295Y-44278571D02*
X162662295Y-44278571D01*
X162662295Y-44278571D02*
X162662295Y-44583333D01*
X162662295Y-44583333D02*
X162700390Y-44659523D01*
X162700390Y-44659523D02*
X162738485Y-44697618D01*
X162738485Y-44697618D02*
X162814676Y-44735714D01*
X162814676Y-44735714D02*
X162928961Y-44735714D01*
X162928961Y-44735714D02*
X163005152Y-44697618D01*
X163005152Y-44697618D02*
X163043247Y-44659523D01*
X163043247Y-44659523D02*
X163081342Y-44583333D01*
X163081342Y-44583333D02*
X163081342Y-44278571D01*
X162928961Y-45421428D02*
X163462295Y-45421428D01*
X162624200Y-45230952D02*
X163195628Y-45040475D01*
X163195628Y-45040475D02*
X163195628Y-45535714D01*
X163462295Y-46259523D02*
X163462295Y-45802380D01*
X163462295Y-46030952D02*
X162662295Y-46030952D01*
X162662295Y-46030952D02*
X162776580Y-45954761D01*
X162776580Y-45954761D02*
X162852771Y-45878571D01*
X162852771Y-45878571D02*
X162890866Y-45802380D01*
X175714285Y-69162295D02*
X175980952Y-68781342D01*
X176171428Y-69162295D02*
X176171428Y-68362295D01*
X176171428Y-68362295D02*
X175866666Y-68362295D01*
X175866666Y-68362295D02*
X175790476Y-68400390D01*
X175790476Y-68400390D02*
X175752381Y-68438485D01*
X175752381Y-68438485D02*
X175714285Y-68514676D01*
X175714285Y-68514676D02*
X175714285Y-68628961D01*
X175714285Y-68628961D02*
X175752381Y-68705152D01*
X175752381Y-68705152D02*
X175790476Y-68743247D01*
X175790476Y-68743247D02*
X175866666Y-68781342D01*
X175866666Y-68781342D02*
X176171428Y-68781342D01*
X174952381Y-69162295D02*
X175409524Y-69162295D01*
X175180952Y-69162295D02*
X175180952Y-68362295D01*
X175180952Y-68362295D02*
X175257143Y-68476580D01*
X175257143Y-68476580D02*
X175333333Y-68552771D01*
X175333333Y-68552771D02*
X175409524Y-68590866D01*
X174266666Y-68362295D02*
X174419047Y-68362295D01*
X174419047Y-68362295D02*
X174495238Y-68400390D01*
X174495238Y-68400390D02*
X174533333Y-68438485D01*
X174533333Y-68438485D02*
X174609523Y-68552771D01*
X174609523Y-68552771D02*
X174647619Y-68705152D01*
X174647619Y-68705152D02*
X174647619Y-69009914D01*
X174647619Y-69009914D02*
X174609523Y-69086104D01*
X174609523Y-69086104D02*
X174571428Y-69124200D01*
X174571428Y-69124200D02*
X174495238Y-69162295D01*
X174495238Y-69162295D02*
X174342857Y-69162295D01*
X174342857Y-69162295D02*
X174266666Y-69124200D01*
X174266666Y-69124200D02*
X174228571Y-69086104D01*
X174228571Y-69086104D02*
X174190476Y-69009914D01*
X174190476Y-69009914D02*
X174190476Y-68819438D01*
X174190476Y-68819438D02*
X174228571Y-68743247D01*
X174228571Y-68743247D02*
X174266666Y-68705152D01*
X174266666Y-68705152D02*
X174342857Y-68667057D01*
X174342857Y-68667057D02*
X174495238Y-68667057D01*
X174495238Y-68667057D02*
X174571428Y-68705152D01*
X174571428Y-68705152D02*
X174609523Y-68743247D01*
X174609523Y-68743247D02*
X174647619Y-68819438D01*
X165662295Y-41090476D02*
X166309914Y-41090476D01*
X166309914Y-41090476D02*
X166386104Y-41128571D01*
X166386104Y-41128571D02*
X166424200Y-41166666D01*
X166424200Y-41166666D02*
X166462295Y-41242857D01*
X166462295Y-41242857D02*
X166462295Y-41395238D01*
X166462295Y-41395238D02*
X166424200Y-41471428D01*
X166424200Y-41471428D02*
X166386104Y-41509523D01*
X166386104Y-41509523D02*
X166309914Y-41547619D01*
X166309914Y-41547619D02*
X165662295Y-41547619D01*
X165662295Y-41852380D02*
X165662295Y-42347618D01*
X165662295Y-42347618D02*
X165967057Y-42080952D01*
X165967057Y-42080952D02*
X165967057Y-42195237D01*
X165967057Y-42195237D02*
X166005152Y-42271428D01*
X166005152Y-42271428D02*
X166043247Y-42309523D01*
X166043247Y-42309523D02*
X166119438Y-42347618D01*
X166119438Y-42347618D02*
X166309914Y-42347618D01*
X166309914Y-42347618D02*
X166386104Y-42309523D01*
X166386104Y-42309523D02*
X166424200Y-42271428D01*
X166424200Y-42271428D02*
X166462295Y-42195237D01*
X166462295Y-42195237D02*
X166462295Y-41966666D01*
X166462295Y-41966666D02*
X166424200Y-41890475D01*
X166424200Y-41890475D02*
X166386104Y-41852380D01*
X168052295Y-52059524D02*
X167252295Y-52059524D01*
X167252295Y-52059524D02*
X167252295Y-52250000D01*
X167252295Y-52250000D02*
X167290390Y-52364286D01*
X167290390Y-52364286D02*
X167366580Y-52440476D01*
X167366580Y-52440476D02*
X167442771Y-52478571D01*
X167442771Y-52478571D02*
X167595152Y-52516667D01*
X167595152Y-52516667D02*
X167709438Y-52516667D01*
X167709438Y-52516667D02*
X167861819Y-52478571D01*
X167861819Y-52478571D02*
X167938009Y-52440476D01*
X167938009Y-52440476D02*
X168014200Y-52364286D01*
X168014200Y-52364286D02*
X168052295Y-52250000D01*
X168052295Y-52250000D02*
X168052295Y-52059524D01*
X168052295Y-52897619D02*
X168052295Y-53050000D01*
X168052295Y-53050000D02*
X168014200Y-53126190D01*
X168014200Y-53126190D02*
X167976104Y-53164286D01*
X167976104Y-53164286D02*
X167861819Y-53240476D01*
X167861819Y-53240476D02*
X167709438Y-53278571D01*
X167709438Y-53278571D02*
X167404676Y-53278571D01*
X167404676Y-53278571D02*
X167328485Y-53240476D01*
X167328485Y-53240476D02*
X167290390Y-53202381D01*
X167290390Y-53202381D02*
X167252295Y-53126190D01*
X167252295Y-53126190D02*
X167252295Y-52973809D01*
X167252295Y-52973809D02*
X167290390Y-52897619D01*
X167290390Y-52897619D02*
X167328485Y-52859524D01*
X167328485Y-52859524D02*
X167404676Y-52821428D01*
X167404676Y-52821428D02*
X167595152Y-52821428D01*
X167595152Y-52821428D02*
X167671342Y-52859524D01*
X167671342Y-52859524D02*
X167709438Y-52897619D01*
X167709438Y-52897619D02*
X167747533Y-52973809D01*
X167747533Y-52973809D02*
X167747533Y-53126190D01*
X167747533Y-53126190D02*
X167709438Y-53202381D01*
X167709438Y-53202381D02*
X167671342Y-53240476D01*
X167671342Y-53240476D02*
X167595152Y-53278571D01*
X169276190Y-89138485D02*
X169352380Y-89100390D01*
X169352380Y-89100390D02*
X169428571Y-89024200D01*
X169428571Y-89024200D02*
X169542857Y-88909914D01*
X169542857Y-88909914D02*
X169619047Y-88871819D01*
X169619047Y-88871819D02*
X169695238Y-88871819D01*
X169657142Y-89062295D02*
X169733333Y-89024200D01*
X169733333Y-89024200D02*
X169809523Y-88948009D01*
X169809523Y-88948009D02*
X169847619Y-88795628D01*
X169847619Y-88795628D02*
X169847619Y-88528961D01*
X169847619Y-88528961D02*
X169809523Y-88376580D01*
X169809523Y-88376580D02*
X169733333Y-88300390D01*
X169733333Y-88300390D02*
X169657142Y-88262295D01*
X169657142Y-88262295D02*
X169504761Y-88262295D01*
X169504761Y-88262295D02*
X169428571Y-88300390D01*
X169428571Y-88300390D02*
X169352380Y-88376580D01*
X169352380Y-88376580D02*
X169314285Y-88528961D01*
X169314285Y-88528961D02*
X169314285Y-88795628D01*
X169314285Y-88795628D02*
X169352380Y-88948009D01*
X169352380Y-88948009D02*
X169428571Y-89024200D01*
X169428571Y-89024200D02*
X169504761Y-89062295D01*
X169504761Y-89062295D02*
X169657142Y-89062295D01*
X168552381Y-89062295D02*
X169009524Y-89062295D01*
X168780952Y-89062295D02*
X168780952Y-88262295D01*
X168780952Y-88262295D02*
X168857143Y-88376580D01*
X168857143Y-88376580D02*
X168933333Y-88452771D01*
X168933333Y-88452771D02*
X169009524Y-88490866D01*
X178162295Y-68590476D02*
X178809914Y-68590476D01*
X178809914Y-68590476D02*
X178886104Y-68628571D01*
X178886104Y-68628571D02*
X178924200Y-68666666D01*
X178924200Y-68666666D02*
X178962295Y-68742857D01*
X178962295Y-68742857D02*
X178962295Y-68895238D01*
X178962295Y-68895238D02*
X178924200Y-68971428D01*
X178924200Y-68971428D02*
X178886104Y-69009523D01*
X178886104Y-69009523D02*
X178809914Y-69047619D01*
X178809914Y-69047619D02*
X178162295Y-69047619D01*
X178162295Y-69809523D02*
X178162295Y-69428571D01*
X178162295Y-69428571D02*
X178543247Y-69390475D01*
X178543247Y-69390475D02*
X178505152Y-69428571D01*
X178505152Y-69428571D02*
X178467057Y-69504761D01*
X178467057Y-69504761D02*
X178467057Y-69695237D01*
X178467057Y-69695237D02*
X178505152Y-69771428D01*
X178505152Y-69771428D02*
X178543247Y-69809523D01*
X178543247Y-69809523D02*
X178619438Y-69847618D01*
X178619438Y-69847618D02*
X178809914Y-69847618D01*
X178809914Y-69847618D02*
X178886104Y-69809523D01*
X178886104Y-69809523D02*
X178924200Y-69771428D01*
X178924200Y-69771428D02*
X178962295Y-69695237D01*
X178962295Y-69695237D02*
X178962295Y-69504761D01*
X178962295Y-69504761D02*
X178924200Y-69428571D01*
X178924200Y-69428571D02*
X178886104Y-69390475D01*
X182514285Y-64086104D02*
X182552381Y-64124200D01*
X182552381Y-64124200D02*
X182666666Y-64162295D01*
X182666666Y-64162295D02*
X182742857Y-64162295D01*
X182742857Y-64162295D02*
X182857143Y-64124200D01*
X182857143Y-64124200D02*
X182933333Y-64048009D01*
X182933333Y-64048009D02*
X182971428Y-63971819D01*
X182971428Y-63971819D02*
X183009524Y-63819438D01*
X183009524Y-63819438D02*
X183009524Y-63705152D01*
X183009524Y-63705152D02*
X182971428Y-63552771D01*
X182971428Y-63552771D02*
X182933333Y-63476580D01*
X182933333Y-63476580D02*
X182857143Y-63400390D01*
X182857143Y-63400390D02*
X182742857Y-63362295D01*
X182742857Y-63362295D02*
X182666666Y-63362295D01*
X182666666Y-63362295D02*
X182552381Y-63400390D01*
X182552381Y-63400390D02*
X182514285Y-63438485D01*
X181752381Y-64162295D02*
X182209524Y-64162295D01*
X181980952Y-64162295D02*
X181980952Y-63362295D01*
X181980952Y-63362295D02*
X182057143Y-63476580D01*
X182057143Y-63476580D02*
X182133333Y-63552771D01*
X182133333Y-63552771D02*
X182209524Y-63590866D01*
X181485714Y-63362295D02*
X180952380Y-63362295D01*
X180952380Y-63362295D02*
X181295238Y-64162295D01*
X157514285Y-47062295D02*
X157780952Y-46681342D01*
X157971428Y-47062295D02*
X157971428Y-46262295D01*
X157971428Y-46262295D02*
X157666666Y-46262295D01*
X157666666Y-46262295D02*
X157590476Y-46300390D01*
X157590476Y-46300390D02*
X157552381Y-46338485D01*
X157552381Y-46338485D02*
X157514285Y-46414676D01*
X157514285Y-46414676D02*
X157514285Y-46528961D01*
X157514285Y-46528961D02*
X157552381Y-46605152D01*
X157552381Y-46605152D02*
X157590476Y-46643247D01*
X157590476Y-46643247D02*
X157666666Y-46681342D01*
X157666666Y-46681342D02*
X157971428Y-46681342D01*
X157247619Y-46262295D02*
X156752381Y-46262295D01*
X156752381Y-46262295D02*
X157019047Y-46567057D01*
X157019047Y-46567057D02*
X156904762Y-46567057D01*
X156904762Y-46567057D02*
X156828571Y-46605152D01*
X156828571Y-46605152D02*
X156790476Y-46643247D01*
X156790476Y-46643247D02*
X156752381Y-46719438D01*
X156752381Y-46719438D02*
X156752381Y-46909914D01*
X156752381Y-46909914D02*
X156790476Y-46986104D01*
X156790476Y-46986104D02*
X156828571Y-47024200D01*
X156828571Y-47024200D02*
X156904762Y-47062295D01*
X156904762Y-47062295D02*
X157133333Y-47062295D01*
X157133333Y-47062295D02*
X157209524Y-47024200D01*
X157209524Y-47024200D02*
X157247619Y-46986104D01*
X156485714Y-46262295D02*
X155952380Y-46262295D01*
X155952380Y-46262295D02*
X156295238Y-47062295D01*
X175714285Y-67136104D02*
X175752381Y-67174200D01*
X175752381Y-67174200D02*
X175866666Y-67212295D01*
X175866666Y-67212295D02*
X175942857Y-67212295D01*
X175942857Y-67212295D02*
X176057143Y-67174200D01*
X176057143Y-67174200D02*
X176133333Y-67098009D01*
X176133333Y-67098009D02*
X176171428Y-67021819D01*
X176171428Y-67021819D02*
X176209524Y-66869438D01*
X176209524Y-66869438D02*
X176209524Y-66755152D01*
X176209524Y-66755152D02*
X176171428Y-66602771D01*
X176171428Y-66602771D02*
X176133333Y-66526580D01*
X176133333Y-66526580D02*
X176057143Y-66450390D01*
X176057143Y-66450390D02*
X175942857Y-66412295D01*
X175942857Y-66412295D02*
X175866666Y-66412295D01*
X175866666Y-66412295D02*
X175752381Y-66450390D01*
X175752381Y-66450390D02*
X175714285Y-66488485D01*
X174952381Y-67212295D02*
X175409524Y-67212295D01*
X175180952Y-67212295D02*
X175180952Y-66412295D01*
X175180952Y-66412295D02*
X175257143Y-66526580D01*
X175257143Y-66526580D02*
X175333333Y-66602771D01*
X175333333Y-66602771D02*
X175409524Y-66640866D01*
X174266666Y-66412295D02*
X174419047Y-66412295D01*
X174419047Y-66412295D02*
X174495238Y-66450390D01*
X174495238Y-66450390D02*
X174533333Y-66488485D01*
X174533333Y-66488485D02*
X174609523Y-66602771D01*
X174609523Y-66602771D02*
X174647619Y-66755152D01*
X174647619Y-66755152D02*
X174647619Y-67059914D01*
X174647619Y-67059914D02*
X174609523Y-67136104D01*
X174609523Y-67136104D02*
X174571428Y-67174200D01*
X174571428Y-67174200D02*
X174495238Y-67212295D01*
X174495238Y-67212295D02*
X174342857Y-67212295D01*
X174342857Y-67212295D02*
X174266666Y-67174200D01*
X174266666Y-67174200D02*
X174228571Y-67136104D01*
X174228571Y-67136104D02*
X174190476Y-67059914D01*
X174190476Y-67059914D02*
X174190476Y-66869438D01*
X174190476Y-66869438D02*
X174228571Y-66793247D01*
X174228571Y-66793247D02*
X174266666Y-66755152D01*
X174266666Y-66755152D02*
X174342857Y-66717057D01*
X174342857Y-66717057D02*
X174495238Y-66717057D01*
X174495238Y-66717057D02*
X174571428Y-66755152D01*
X174571428Y-66755152D02*
X174609523Y-66793247D01*
X174609523Y-66793247D02*
X174647619Y-66869438D01*
X170042295Y-51678571D02*
X169242295Y-51678571D01*
X169242295Y-51678571D02*
X169242295Y-51869047D01*
X169242295Y-51869047D02*
X169280390Y-51983333D01*
X169280390Y-51983333D02*
X169356580Y-52059523D01*
X169356580Y-52059523D02*
X169432771Y-52097618D01*
X169432771Y-52097618D02*
X169585152Y-52135714D01*
X169585152Y-52135714D02*
X169699438Y-52135714D01*
X169699438Y-52135714D02*
X169851819Y-52097618D01*
X169851819Y-52097618D02*
X169928009Y-52059523D01*
X169928009Y-52059523D02*
X170004200Y-51983333D01*
X170004200Y-51983333D02*
X170042295Y-51869047D01*
X170042295Y-51869047D02*
X170042295Y-51678571D01*
X170042295Y-52897618D02*
X170042295Y-52440475D01*
X170042295Y-52669047D02*
X169242295Y-52669047D01*
X169242295Y-52669047D02*
X169356580Y-52592856D01*
X169356580Y-52592856D02*
X169432771Y-52516666D01*
X169432771Y-52516666D02*
X169470866Y-52440475D01*
X169242295Y-53392857D02*
X169242295Y-53469047D01*
X169242295Y-53469047D02*
X169280390Y-53545238D01*
X169280390Y-53545238D02*
X169318485Y-53583333D01*
X169318485Y-53583333D02*
X169394676Y-53621428D01*
X169394676Y-53621428D02*
X169547057Y-53659523D01*
X169547057Y-53659523D02*
X169737533Y-53659523D01*
X169737533Y-53659523D02*
X169889914Y-53621428D01*
X169889914Y-53621428D02*
X169966104Y-53583333D01*
X169966104Y-53583333D02*
X170004200Y-53545238D01*
X170004200Y-53545238D02*
X170042295Y-53469047D01*
X170042295Y-53469047D02*
X170042295Y-53392857D01*
X170042295Y-53392857D02*
X170004200Y-53316666D01*
X170004200Y-53316666D02*
X169966104Y-53278571D01*
X169966104Y-53278571D02*
X169889914Y-53240476D01*
X169889914Y-53240476D02*
X169737533Y-53202380D01*
X169737533Y-53202380D02*
X169547057Y-53202380D01*
X169547057Y-53202380D02*
X169394676Y-53240476D01*
X169394676Y-53240476D02*
X169318485Y-53278571D01*
X169318485Y-53278571D02*
X169280390Y-53316666D01*
X169280390Y-53316666D02*
X169242295Y-53392857D01*
X170913230Y-82225267D02*
X170913230Y-81958601D01*
X171332278Y-81958601D02*
X170532278Y-81958601D01*
X170532278Y-81958601D02*
X170532278Y-82339553D01*
X171332278Y-83063362D02*
X171332278Y-82606219D01*
X171332278Y-82834791D02*
X170532278Y-82834791D01*
X170532278Y-82834791D02*
X170646563Y-82758600D01*
X170646563Y-82758600D02*
X170722754Y-82682410D01*
X170722754Y-82682410D02*
X170760849Y-82606219D01*
X169462295Y-49485714D02*
X169081342Y-49219047D01*
X169462295Y-49028571D02*
X168662295Y-49028571D01*
X168662295Y-49028571D02*
X168662295Y-49333333D01*
X168662295Y-49333333D02*
X168700390Y-49409523D01*
X168700390Y-49409523D02*
X168738485Y-49447618D01*
X168738485Y-49447618D02*
X168814676Y-49485714D01*
X168814676Y-49485714D02*
X168928961Y-49485714D01*
X168928961Y-49485714D02*
X169005152Y-49447618D01*
X169005152Y-49447618D02*
X169043247Y-49409523D01*
X169043247Y-49409523D02*
X169081342Y-49333333D01*
X169081342Y-49333333D02*
X169081342Y-49028571D01*
X168662295Y-49752380D02*
X168662295Y-50247618D01*
X168662295Y-50247618D02*
X168967057Y-49980952D01*
X168967057Y-49980952D02*
X168967057Y-50095237D01*
X168967057Y-50095237D02*
X169005152Y-50171428D01*
X169005152Y-50171428D02*
X169043247Y-50209523D01*
X169043247Y-50209523D02*
X169119438Y-50247618D01*
X169119438Y-50247618D02*
X169309914Y-50247618D01*
X169309914Y-50247618D02*
X169386104Y-50209523D01*
X169386104Y-50209523D02*
X169424200Y-50171428D01*
X169424200Y-50171428D02*
X169462295Y-50095237D01*
X169462295Y-50095237D02*
X169462295Y-49866666D01*
X169462295Y-49866666D02*
X169424200Y-49790475D01*
X169424200Y-49790475D02*
X169386104Y-49752380D01*
X168738485Y-50552380D02*
X168700390Y-50590476D01*
X168700390Y-50590476D02*
X168662295Y-50666666D01*
X168662295Y-50666666D02*
X168662295Y-50857142D01*
X168662295Y-50857142D02*
X168700390Y-50933333D01*
X168700390Y-50933333D02*
X168738485Y-50971428D01*
X168738485Y-50971428D02*
X168814676Y-51009523D01*
X168814676Y-51009523D02*
X168890866Y-51009523D01*
X168890866Y-51009523D02*
X169005152Y-50971428D01*
X169005152Y-50971428D02*
X169462295Y-50514285D01*
X169462295Y-50514285D02*
X169462295Y-51009523D01*
X160774732Y-65132278D02*
X160774732Y-65703706D01*
X160774732Y-65703706D02*
X160812827Y-65817992D01*
X160812827Y-65817992D02*
X160889018Y-65894183D01*
X160889018Y-65894183D02*
X161003303Y-65932278D01*
X161003303Y-65932278D02*
X161079494Y-65932278D01*
X160012827Y-65132278D02*
X160393779Y-65132278D01*
X160393779Y-65132278D02*
X160431875Y-65513230D01*
X160431875Y-65513230D02*
X160393779Y-65475135D01*
X160393779Y-65475135D02*
X160317589Y-65437040D01*
X160317589Y-65437040D02*
X160127113Y-65437040D01*
X160127113Y-65437040D02*
X160050922Y-65475135D01*
X160050922Y-65475135D02*
X160012827Y-65513230D01*
X160012827Y-65513230D02*
X159974732Y-65589421D01*
X159974732Y-65589421D02*
X159974732Y-65779897D01*
X159974732Y-65779897D02*
X160012827Y-65856087D01*
X160012827Y-65856087D02*
X160050922Y-65894183D01*
X160050922Y-65894183D02*
X160127113Y-65932278D01*
X160127113Y-65932278D02*
X160317589Y-65932278D01*
X160317589Y-65932278D02*
X160393779Y-65894183D01*
X160393779Y-65894183D02*
X160431875Y-65856087D01*
X169447618Y-59162295D02*
X169447618Y-58362295D01*
X169447618Y-58362295D02*
X169180952Y-58933723D01*
X169180952Y-58933723D02*
X168914285Y-58362295D01*
X168914285Y-58362295D02*
X168914285Y-59162295D01*
X168533332Y-59162295D02*
X168533332Y-58362295D01*
X168076189Y-59162295D02*
X168419047Y-58705152D01*
X168076189Y-58362295D02*
X168533332Y-58819438D01*
X167314285Y-59162295D02*
X167771428Y-59162295D01*
X167542856Y-59162295D02*
X167542856Y-58362295D01*
X167542856Y-58362295D02*
X167619047Y-58476580D01*
X167619047Y-58476580D02*
X167695237Y-58552771D01*
X167695237Y-58552771D02*
X167771428Y-58590866D01*
X163462295Y-46985714D02*
X163081342Y-46719047D01*
X163462295Y-46528571D02*
X162662295Y-46528571D01*
X162662295Y-46528571D02*
X162662295Y-46833333D01*
X162662295Y-46833333D02*
X162700390Y-46909523D01*
X162700390Y-46909523D02*
X162738485Y-46947618D01*
X162738485Y-46947618D02*
X162814676Y-46985714D01*
X162814676Y-46985714D02*
X162928961Y-46985714D01*
X162928961Y-46985714D02*
X163005152Y-46947618D01*
X163005152Y-46947618D02*
X163043247Y-46909523D01*
X163043247Y-46909523D02*
X163081342Y-46833333D01*
X163081342Y-46833333D02*
X163081342Y-46528571D01*
X162928961Y-47671428D02*
X163462295Y-47671428D01*
X162624200Y-47480952D02*
X163195628Y-47290475D01*
X163195628Y-47290475D02*
X163195628Y-47785714D01*
X162738485Y-48052380D02*
X162700390Y-48090476D01*
X162700390Y-48090476D02*
X162662295Y-48166666D01*
X162662295Y-48166666D02*
X162662295Y-48357142D01*
X162662295Y-48357142D02*
X162700390Y-48433333D01*
X162700390Y-48433333D02*
X162738485Y-48471428D01*
X162738485Y-48471428D02*
X162814676Y-48509523D01*
X162814676Y-48509523D02*
X162890866Y-48509523D01*
X162890866Y-48509523D02*
X163005152Y-48471428D01*
X163005152Y-48471428D02*
X163462295Y-48014285D01*
X163462295Y-48014285D02*
X163462295Y-48509523D01*
X180114285Y-63862295D02*
X180380952Y-63481342D01*
X180571428Y-63862295D02*
X180571428Y-63062295D01*
X180571428Y-63062295D02*
X180266666Y-63062295D01*
X180266666Y-63062295D02*
X180190476Y-63100390D01*
X180190476Y-63100390D02*
X180152381Y-63138485D01*
X180152381Y-63138485D02*
X180114285Y-63214676D01*
X180114285Y-63214676D02*
X180114285Y-63328961D01*
X180114285Y-63328961D02*
X180152381Y-63405152D01*
X180152381Y-63405152D02*
X180190476Y-63443247D01*
X180190476Y-63443247D02*
X180266666Y-63481342D01*
X180266666Y-63481342D02*
X180571428Y-63481342D01*
X179352381Y-63862295D02*
X179809524Y-63862295D01*
X179580952Y-63862295D02*
X179580952Y-63062295D01*
X179580952Y-63062295D02*
X179657143Y-63176580D01*
X179657143Y-63176580D02*
X179733333Y-63252771D01*
X179733333Y-63252771D02*
X179809524Y-63290866D01*
X178628571Y-63062295D02*
X179009523Y-63062295D01*
X179009523Y-63062295D02*
X179047619Y-63443247D01*
X179047619Y-63443247D02*
X179009523Y-63405152D01*
X179009523Y-63405152D02*
X178933333Y-63367057D01*
X178933333Y-63367057D02*
X178742857Y-63367057D01*
X178742857Y-63367057D02*
X178666666Y-63405152D01*
X178666666Y-63405152D02*
X178628571Y-63443247D01*
X178628571Y-63443247D02*
X178590476Y-63519438D01*
X178590476Y-63519438D02*
X178590476Y-63709914D01*
X178590476Y-63709914D02*
X178628571Y-63786104D01*
X178628571Y-63786104D02*
X178666666Y-63824200D01*
X178666666Y-63824200D02*
X178742857Y-63862295D01*
X178742857Y-63862295D02*
X178933333Y-63862295D01*
X178933333Y-63862295D02*
X179009523Y-63824200D01*
X179009523Y-63824200D02*
X179047619Y-63786104D01*
X168914285Y-64986104D02*
X168952381Y-65024200D01*
X168952381Y-65024200D02*
X169066666Y-65062295D01*
X169066666Y-65062295D02*
X169142857Y-65062295D01*
X169142857Y-65062295D02*
X169257143Y-65024200D01*
X169257143Y-65024200D02*
X169333333Y-64948009D01*
X169333333Y-64948009D02*
X169371428Y-64871819D01*
X169371428Y-64871819D02*
X169409524Y-64719438D01*
X169409524Y-64719438D02*
X169409524Y-64605152D01*
X169409524Y-64605152D02*
X169371428Y-64452771D01*
X169371428Y-64452771D02*
X169333333Y-64376580D01*
X169333333Y-64376580D02*
X169257143Y-64300390D01*
X169257143Y-64300390D02*
X169142857Y-64262295D01*
X169142857Y-64262295D02*
X169066666Y-64262295D01*
X169066666Y-64262295D02*
X168952381Y-64300390D01*
X168952381Y-64300390D02*
X168914285Y-64338485D01*
X168609524Y-64338485D02*
X168571428Y-64300390D01*
X168571428Y-64300390D02*
X168495238Y-64262295D01*
X168495238Y-64262295D02*
X168304762Y-64262295D01*
X168304762Y-64262295D02*
X168228571Y-64300390D01*
X168228571Y-64300390D02*
X168190476Y-64338485D01*
X168190476Y-64338485D02*
X168152381Y-64414676D01*
X168152381Y-64414676D02*
X168152381Y-64490866D01*
X168152381Y-64490866D02*
X168190476Y-64605152D01*
X168190476Y-64605152D02*
X168647619Y-65062295D01*
X168647619Y-65062295D02*
X168152381Y-65062295D01*
X167428571Y-64262295D02*
X167809523Y-64262295D01*
X167809523Y-64262295D02*
X167847619Y-64643247D01*
X167847619Y-64643247D02*
X167809523Y-64605152D01*
X167809523Y-64605152D02*
X167733333Y-64567057D01*
X167733333Y-64567057D02*
X167542857Y-64567057D01*
X167542857Y-64567057D02*
X167466666Y-64605152D01*
X167466666Y-64605152D02*
X167428571Y-64643247D01*
X167428571Y-64643247D02*
X167390476Y-64719438D01*
X167390476Y-64719438D02*
X167390476Y-64909914D01*
X167390476Y-64909914D02*
X167428571Y-64986104D01*
X167428571Y-64986104D02*
X167466666Y-65024200D01*
X167466666Y-65024200D02*
X167542857Y-65062295D01*
X167542857Y-65062295D02*
X167733333Y-65062295D01*
X167733333Y-65062295D02*
X167809523Y-65024200D01*
X167809523Y-65024200D02*
X167847619Y-64986104D01*
X173462295Y-49485714D02*
X173081342Y-49219047D01*
X173462295Y-49028571D02*
X172662295Y-49028571D01*
X172662295Y-49028571D02*
X172662295Y-49333333D01*
X172662295Y-49333333D02*
X172700390Y-49409523D01*
X172700390Y-49409523D02*
X172738485Y-49447618D01*
X172738485Y-49447618D02*
X172814676Y-49485714D01*
X172814676Y-49485714D02*
X172928961Y-49485714D01*
X172928961Y-49485714D02*
X173005152Y-49447618D01*
X173005152Y-49447618D02*
X173043247Y-49409523D01*
X173043247Y-49409523D02*
X173081342Y-49333333D01*
X173081342Y-49333333D02*
X173081342Y-49028571D01*
X172662295Y-49752380D02*
X172662295Y-50247618D01*
X172662295Y-50247618D02*
X172967057Y-49980952D01*
X172967057Y-49980952D02*
X172967057Y-50095237D01*
X172967057Y-50095237D02*
X173005152Y-50171428D01*
X173005152Y-50171428D02*
X173043247Y-50209523D01*
X173043247Y-50209523D02*
X173119438Y-50247618D01*
X173119438Y-50247618D02*
X173309914Y-50247618D01*
X173309914Y-50247618D02*
X173386104Y-50209523D01*
X173386104Y-50209523D02*
X173424200Y-50171428D01*
X173424200Y-50171428D02*
X173462295Y-50095237D01*
X173462295Y-50095237D02*
X173462295Y-49866666D01*
X173462295Y-49866666D02*
X173424200Y-49790475D01*
X173424200Y-49790475D02*
X173386104Y-49752380D01*
X172662295Y-50742857D02*
X172662295Y-50819047D01*
X172662295Y-50819047D02*
X172700390Y-50895238D01*
X172700390Y-50895238D02*
X172738485Y-50933333D01*
X172738485Y-50933333D02*
X172814676Y-50971428D01*
X172814676Y-50971428D02*
X172967057Y-51009523D01*
X172967057Y-51009523D02*
X173157533Y-51009523D01*
X173157533Y-51009523D02*
X173309914Y-50971428D01*
X173309914Y-50971428D02*
X173386104Y-50933333D01*
X173386104Y-50933333D02*
X173424200Y-50895238D01*
X173424200Y-50895238D02*
X173462295Y-50819047D01*
X173462295Y-50819047D02*
X173462295Y-50742857D01*
X173462295Y-50742857D02*
X173424200Y-50666666D01*
X173424200Y-50666666D02*
X173386104Y-50628571D01*
X173386104Y-50628571D02*
X173309914Y-50590476D01*
X173309914Y-50590476D02*
X173157533Y-50552380D01*
X173157533Y-50552380D02*
X172967057Y-50552380D01*
X172967057Y-50552380D02*
X172814676Y-50590476D01*
X172814676Y-50590476D02*
X172738485Y-50628571D01*
X172738485Y-50628571D02*
X172700390Y-50666666D01*
X172700390Y-50666666D02*
X172662295Y-50742857D01*
%TO.C,SW7*%
D11*
X156760000Y-45550000D02*
X156760000Y-44750000D01*
X156800000Y-44750000D02*
X156760000Y-44750000D01*
X156800000Y-44750000D02*
X156800000Y-41250000D01*
%TO.C,R38*%
X167620000Y-49846359D02*
X167620000Y-50153641D01*
X168380000Y-49846359D02*
X168380000Y-50153641D01*
%TO.C,C37*%
X178640580Y-64643800D02*
X178359420Y-64643800D01*
X178640580Y-65663800D02*
X178359420Y-65663800D01*
%TO.C,C11*%
X180359420Y-68893800D02*
X180640580Y-68893800D01*
X180359420Y-69913800D02*
X180640580Y-69913800D01*
%TO.C,D12*%
D12*
X166570000Y-51527500D02*
G75*
G02*
X166470000Y-51527500I-50000J0D01*
G01*
X166470000Y-51527500D02*
G75*
G02*
X166570000Y-51527500I50000J0D01*
G01*
%TO.C,R40*%
D11*
X163620000Y-49846359D02*
X163620000Y-50153641D01*
X164380000Y-49846359D02*
X164380000Y-50153641D01*
%TO.C,SW1*%
X156835000Y-56050000D02*
X156835000Y-55250000D01*
X156875000Y-55250000D02*
X156835000Y-55250000D01*
X156875000Y-55250000D02*
X156875000Y-51750000D01*
%TO.C,SW6*%
X156835000Y-63550000D02*
X156835000Y-62750000D01*
X156875000Y-62750000D02*
X156835000Y-62750000D01*
X156875000Y-62750000D02*
X156875000Y-59250000D01*
%TO.C,D11*%
D12*
X172550000Y-51527500D02*
G75*
G02*
X172450000Y-51527500I-50000J0D01*
G01*
X172450000Y-51527500D02*
G75*
G02*
X172550000Y-51527500I50000J0D01*
G01*
%TO.C,J3*%
D11*
X174140000Y-85540000D02*
X175890000Y-85540000D01*
X174140000Y-86190000D02*
X174140000Y-85540000D01*
X174140000Y-89010000D02*
X174140000Y-89460000D01*
X174140000Y-89460000D02*
X181860000Y-89460000D01*
X175890000Y-85540000D02*
X175890000Y-83650000D01*
X181860000Y-85540000D02*
X180110000Y-85540000D01*
X181860000Y-86190000D02*
X181860000Y-85540000D01*
X181860000Y-89460000D02*
X181860000Y-89010000D01*
%TO.C,R31*%
X171620000Y-49846359D02*
X171620000Y-50153641D01*
X172380000Y-49846359D02*
X172380000Y-50153641D01*
%TO.C,R17*%
X177004759Y-67273800D02*
X177312041Y-67273800D01*
X177004759Y-68033800D02*
X177312041Y-68033800D01*
%TO.C,C36*%
X154892164Y-47390000D02*
X155107836Y-47390000D01*
X154892164Y-48110000D02*
X155107836Y-48110000D01*
%TO.C,R39*%
X165620000Y-49846359D02*
X165620000Y-50153641D01*
X166380000Y-49846359D02*
X166380000Y-50153641D01*
%TO.C,R21*%
X167620000Y-86596359D02*
X167620000Y-86903641D01*
X168380000Y-86596359D02*
X168380000Y-86903641D01*
%TO.C,R41*%
X163620000Y-45096359D02*
X163620000Y-45403641D01*
X164380000Y-45096359D02*
X164380000Y-45403641D01*
%TO.C,R16*%
X177312041Y-68273800D02*
X177004759Y-68273800D01*
X177312041Y-69033800D02*
X177004759Y-69033800D01*
%TO.C,U3*%
X166765000Y-41502500D02*
X166765000Y-46122500D01*
X172235000Y-46122500D02*
X172235000Y-41502500D01*
X171780000Y-47672500D02*
X171540000Y-48002500D01*
X172020000Y-48002500D01*
X171780000Y-47672500D01*
G36*
X172020000Y-48002500D02*
G01*
X171540000Y-48002500D01*
X171780000Y-47672500D01*
X172020000Y-48002500D01*
G37*
%TO.C,D9*%
D12*
X168570000Y-51527500D02*
G75*
G02*
X168470000Y-51527500I-50000J0D01*
G01*
X168470000Y-51527500D02*
G75*
G02*
X168570000Y-51527500I50000J0D01*
G01*
%TO.C,Q1*%
D11*
X168940000Y-86490000D02*
X168940000Y-88010000D01*
X168940000Y-88010000D02*
X169940000Y-88010000D01*
X168990000Y-86490000D02*
X168940000Y-86490000D01*
X170890000Y-86490000D02*
X170110000Y-86490000D01*
X171060000Y-88010000D02*
X172060000Y-88010000D01*
X172060000Y-86490000D02*
X172010000Y-86490000D01*
X172060000Y-88010000D02*
X172060000Y-86490000D01*
X170120000Y-85950000D02*
X170450000Y-86190000D01*
X170450000Y-85710000D01*
X170120000Y-85950000D01*
G36*
X170450000Y-86190000D02*
G01*
X170120000Y-85950000D01*
X170450000Y-85710000D01*
X170450000Y-86190000D01*
G37*
%TO.C,SW5*%
X180630700Y-56304491D02*
X180630700Y-59804491D01*
X180630700Y-56304491D02*
X180670700Y-56304491D01*
X180670700Y-55504491D02*
X180670700Y-56304491D01*
%TO.C,U5*%
X178443400Y-66583800D02*
X178443400Y-67883800D01*
X180763400Y-66583800D02*
X180763400Y-67633800D01*
X180763400Y-67993800D02*
X180763400Y-68273800D01*
X181043400Y-67993800D01*
X180763400Y-67993800D01*
G36*
X180763400Y-68273800D02*
G01*
X180763400Y-67993800D01*
X181043400Y-67993800D01*
X180763400Y-68273800D01*
G37*
%TO.C,C17*%
X181490000Y-66294380D02*
X181490000Y-66013220D01*
X182510000Y-66294380D02*
X182510000Y-66013220D01*
%TO.C,R37*%
X155153641Y-46370000D02*
X154846359Y-46370000D01*
X155153641Y-47130000D02*
X154846359Y-47130000D01*
%TO.C,C16*%
X177266236Y-66293800D02*
X177050564Y-66293800D01*
X177266236Y-67013800D02*
X177050564Y-67013800D01*
%TO.C,D10*%
D12*
X170560000Y-51527500D02*
G75*
G02*
X170460000Y-51527500I-50000J0D01*
G01*
X170460000Y-51527500D02*
G75*
G02*
X170560000Y-51527500I50000J0D01*
G01*
%TO.C,F1*%
D11*
X171590000Y-81897936D02*
X171590000Y-83102064D01*
X173410000Y-81897936D02*
X173410000Y-83102064D01*
%TO.C,SW4*%
X180730000Y-49450000D02*
X180730000Y-52950000D01*
X180730000Y-49450000D02*
X180770000Y-49450000D01*
X180770000Y-48650000D02*
X180770000Y-49450000D01*
%TO.C,R32*%
X169620000Y-49846359D02*
X169620000Y-50153641D01*
X170380000Y-49846359D02*
X170380000Y-50153641D01*
%TO.C,J5*%
X154390000Y-72575000D02*
X154390000Y-73685000D01*
X154390000Y-73685000D02*
X166610000Y-73685000D01*
X154740000Y-71075000D02*
X154390000Y-72575000D01*
X157940000Y-68165000D02*
X157710000Y-68165000D01*
X166610000Y-72575000D02*
X166260000Y-71075000D01*
X166610000Y-73685000D02*
X166610000Y-72575000D01*
X163190000Y-67345000D02*
X163520000Y-67585000D01*
X163520000Y-67105000D01*
X163190000Y-67345000D01*
G36*
X163520000Y-67585000D02*
G01*
X163190000Y-67345000D01*
X163520000Y-67105000D01*
X163520000Y-67585000D01*
G37*
%TO.C,MK1*%
X166972500Y-59336000D02*
X166972500Y-62756000D01*
X167272500Y-63056000D02*
X169852500Y-63056000D01*
X169852500Y-59336000D02*
X166972500Y-59336000D01*
X169852500Y-63056000D02*
X169852500Y-59336000D01*
X166972500Y-63056000D02*
X166692500Y-63056000D01*
X166972500Y-63336000D01*
X166972500Y-63056000D01*
G36*
X166972500Y-63336000D02*
G01*
X166692500Y-63056000D01*
X166972500Y-63056000D01*
X166972500Y-63336000D01*
G37*
%TO.C,R42*%
X163620000Y-47346359D02*
X163620000Y-47653641D01*
X164380000Y-47346359D02*
X164380000Y-47653641D01*
%TO.C,R15*%
X180120000Y-65057441D02*
X180120000Y-64750159D01*
X180880000Y-65057441D02*
X180880000Y-64750159D01*
%TO.C,C25*%
X168304664Y-63403500D02*
X168520336Y-63403500D01*
X168304664Y-64123500D02*
X168520336Y-64123500D01*
%TO.C,R30*%
X173620000Y-49846359D02*
X173620000Y-50153641D01*
X174380000Y-49846359D02*
X174380000Y-50153641D01*
%TD*%
%LPC*%
D13*
%TO.C,J1*%
X181491004Y-46020000D03*
D14*
X181491004Y-44750000D03*
X181491004Y-43480000D03*
%TD*%
D15*
%TO.C,H2*%
X155750000Y-87750000D03*
%TD*%
D16*
%TO.C,P1*%
X176896800Y-69641200D03*
X176896800Y-63861200D03*
D17*
X176376800Y-71071200D03*
D18*
X180576800Y-71071200D03*
D17*
X176376800Y-62431200D03*
D18*
X180576800Y-62431200D03*
%TD*%
D15*
%TO.C,H1*%
X182000000Y-39750000D03*
%TD*%
D19*
%TO.C,SW7*%
X155970000Y-44800000D03*
X155970000Y-41200000D03*
X154530000Y-44800000D03*
X154530000Y-41200000D03*
%TD*%
D20*
%TO.C,R38*%
X168000000Y-49490000D03*
X168000000Y-50510000D03*
%TD*%
D21*
%TO.C,C37*%
X179275000Y-65153800D03*
X177725000Y-65153800D03*
%TD*%
D22*
%TO.C,C11*%
X179725000Y-69403800D03*
X181275000Y-69403800D03*
%TD*%
D23*
%TO.C,D12*%
X166520000Y-52132500D03*
X166520000Y-53102500D03*
%TD*%
D20*
%TO.C,R40*%
X164000000Y-49490000D03*
X164000000Y-50510000D03*
%TD*%
D19*
%TO.C,SW1*%
X156045000Y-55300000D03*
X156045000Y-51700000D03*
X154605000Y-55300000D03*
X154605000Y-51700000D03*
%TD*%
%TO.C,SW6*%
X156045000Y-62800000D03*
X156045000Y-59200000D03*
X154605000Y-62800000D03*
X154605000Y-59200000D03*
%TD*%
D23*
%TO.C,D11*%
X172500000Y-52132500D03*
X172500000Y-53102500D03*
%TD*%
D24*
%TO.C,J3*%
X176500000Y-85500000D03*
X178000000Y-85500000D03*
X179500000Y-85500000D03*
D25*
X174450000Y-87600000D03*
X181550000Y-87600000D03*
%TD*%
D20*
%TO.C,R31*%
X172000000Y-49490000D03*
X172000000Y-50510000D03*
%TD*%
D26*
%TO.C,R17*%
X176648400Y-67653800D03*
X177668400Y-67653800D03*
%TD*%
D27*
%TO.C,C36*%
X154520000Y-47750000D03*
X155480000Y-47750000D03*
%TD*%
D20*
%TO.C,R39*%
X166000000Y-49490000D03*
X166000000Y-50510000D03*
%TD*%
%TO.C,R21*%
X168000000Y-86240000D03*
X168000000Y-87260000D03*
%TD*%
%TO.C,R41*%
X164000000Y-44740000D03*
X164000000Y-45760000D03*
%TD*%
D28*
%TO.C,R16*%
X177668400Y-68653800D03*
X176648400Y-68653800D03*
%TD*%
D29*
%TO.C,U3*%
X171775000Y-46675000D03*
X171125000Y-46675000D03*
X170475000Y-46675000D03*
X169825000Y-46675000D03*
X169175000Y-46675000D03*
X168525000Y-46675000D03*
X167875000Y-46675000D03*
X167225000Y-46675000D03*
X167225000Y-40950000D03*
X167875000Y-40950000D03*
X168525000Y-40950000D03*
X169175000Y-40950000D03*
X169825000Y-40950000D03*
X170475000Y-40950000D03*
X171125000Y-40950000D03*
X171775000Y-40950000D03*
%TD*%
D23*
%TO.C,D9*%
X168520000Y-52132500D03*
X168520000Y-53102500D03*
%TD*%
D30*
%TO.C,Q1*%
X169550000Y-86312500D03*
X171450000Y-86312500D03*
X170500000Y-88187500D03*
%TD*%
D31*
%TO.C,SW5*%
X181460700Y-56254491D03*
X181460700Y-59854491D03*
X182900700Y-56254491D03*
X182900700Y-59854491D03*
%TD*%
D32*
%TO.C,U5*%
X180353400Y-67973800D03*
X179853400Y-67973800D03*
X179353400Y-67973800D03*
X178853400Y-67973800D03*
X178853400Y-66493800D03*
X179353400Y-66493800D03*
X179853400Y-66493800D03*
X180353400Y-66493800D03*
%TD*%
D33*
%TO.C,C17*%
X182000000Y-66928800D03*
X182000000Y-65378800D03*
%TD*%
D28*
%TO.C,R37*%
X155510000Y-46750000D03*
X154490000Y-46750000D03*
%TD*%
D34*
%TO.C,C16*%
X177638400Y-66653800D03*
X176678400Y-66653800D03*
%TD*%
D23*
%TO.C,D10*%
X170510000Y-52132500D03*
X170510000Y-53102500D03*
%TD*%
D35*
%TO.C,F1*%
X172500000Y-81100000D03*
X172500000Y-83900000D03*
%TD*%
D31*
%TO.C,SW4*%
X181560000Y-49400000D03*
X181560000Y-53000000D03*
X183000000Y-49400000D03*
X183000000Y-53000000D03*
%TD*%
D20*
%TO.C,R32*%
X170000000Y-49490000D03*
X170000000Y-50510000D03*
%TD*%
D36*
%TO.C,J5*%
X162500000Y-67375000D03*
X161500000Y-67375000D03*
X160500000Y-67375000D03*
X159500000Y-67375000D03*
X158500000Y-67375000D03*
D37*
X164850000Y-69545000D03*
X156150000Y-69545000D03*
%TD*%
D38*
%TO.C,MK1*%
X168412500Y-60426000D03*
D39*
X167575000Y-62500000D03*
X167575000Y-61678000D03*
D40*
X168412500Y-59763500D03*
D39*
X169250000Y-61678000D03*
X169250000Y-62500000D03*
%TD*%
D20*
%TO.C,R42*%
X164000000Y-46990000D03*
X164000000Y-48010000D03*
%TD*%
D41*
%TO.C,R15*%
X180500000Y-65413800D03*
X180500000Y-64393800D03*
%TD*%
D27*
%TO.C,C25*%
X167932500Y-63763500D03*
X168892500Y-63763500D03*
%TD*%
D20*
%TO.C,R30*%
X174000000Y-49490000D03*
X174000000Y-50510000D03*
%TD*%
%LPD*%
M02*
