%TF.GenerationSoftware,KiCad,Pcbnew,10.0.3*%
%TF.CreationDate,2026-08-01T11:59:26+03:00*%
%TF.ProjectId,Conversational AI audio guide handset,436f6e76-6572-4736-9174-696f6e616c20,rev?*%
%TF.SameCoordinates,Original*%
%TF.FileFunction,Soldermask,Bot*%
%TF.FilePolarity,Negative*%
%FSLAX46Y46*%
G04 Gerber Fmt 4.6, Leading zero omitted, Abs format (unit mm)*
G04 Created by KiCad (PCBNEW 10.0.3) date 2026-08-01 11:59:26*
%MOMM*%
%LPD*%
G01*
G04 APERTURE LIST*
G04 Aperture macros list*
%AMRoundRect*
0 Rectangle with rounded corners*
0 $1 Rounding radius*
0 $2 $3 $4 $5 $6 $7 $8 $9 X,Y pos of 4 corners*
0 Add a 4 corners polygon primitive as box body*
4,1,4,$2,$3,$4,$5,$6,$7,$8,$9,$2,$3,0*
0 Add four circle primitives for the rounded corners*
1,1,$1+$1,$2,$3*
1,1,$1+$1,$4,$5*
1,1,$1+$1,$6,$7*
1,1,$1+$1,$8,$9*
0 Add four rect primitives between the rounded corners*
20,1,$1+$1,$2,$3,$4,$5,0*
20,1,$1+$1,$4,$5,$6,$7,0*
20,1,$1+$1,$6,$7,$8,$9,0*
20,1,$1+$1,$8,$9,$2,$3,0*%
%AMFreePoly0*
4,1,64,0.031751,0.146088,0.079639,0.146088,0.235856,0.115014,0.383010,0.054061,0.515445,-0.034429,0.628071,-0.147055,0.716561,-0.279490,0.777514,-0.426644,0.808588,-0.582861,0.808588,-0.742139,0.777514,-0.898356,0.716561,-1.045510,0.628071,-1.177945,0.515445,-1.290571,0.383010,-1.379061,0.235856,-1.440014,0.079639,-1.471088,-0.079639,-1.471088,-0.235856,-1.440014,-0.383010,-1.379061,
-0.515445,-1.290571,-0.628071,-1.177945,-0.716561,-1.045510,-0.777514,-0.898356,-0.808588,-0.742139,-0.808588,-0.595028,-0.512500,-0.595028,-0.512500,-0.729972,-0.477574,-0.860317,-0.410102,-0.977182,-0.314682,-1.072602,-0.197817,-1.140074,-0.067472,-1.175000,0.067472,-1.175000,0.197817,-1.140074,0.314682,-1.072602,0.410102,-0.977182,0.477574,-0.860317,0.512500,-0.729972,0.512500,-0.595028,
0.477574,-0.464683,0.410102,-0.347818,0.314682,-0.252398,0.197817,-0.184926,0.067472,-0.150000,-0.067472,-0.150000,-0.197817,-0.184926,-0.314682,-0.252398,-0.410102,-0.347818,-0.477574,-0.464683,-0.512500,-0.595028,-0.808588,-0.595028,-0.808588,-0.582861,-0.777514,-0.426644,-0.716561,-0.279490,-0.628071,-0.147055,-0.515445,-0.034429,-0.383010,0.054061,-0.235856,0.115014,-0.079639,0.146088,
-0.031751,0.146088,-0.029264,0.147118,0.029264,0.147118,0.031751,0.146088,0.031751,0.146088,$1*%
G04 Aperture macros list end*
%ADD10R,1.000000X1.000000*%
%ADD11C,1.000000*%
%ADD12C,3.800000*%
%ADD13C,0.650000*%
%ADD14O,2.100000X1.000000*%
%ADD15O,1.800000X1.000000*%
%ADD16RoundRect,0.250000X0.275000X-0.450000X0.275000X0.450000X-0.275000X0.450000X-0.275000X-0.450000X0*%
%ADD17RoundRect,0.135000X-0.185000X0.135000X-0.185000X-0.135000X0.185000X-0.135000X0.185000X0.135000X0*%
%ADD18RoundRect,0.225000X0.225000X0.250000X-0.225000X0.250000X-0.225000X-0.250000X0.225000X-0.250000X0*%
%ADD19RoundRect,0.225000X-0.225000X-0.250000X0.225000X-0.250000X0.225000X0.250000X-0.225000X0.250000X0*%
%ADD20RoundRect,0.147500X-0.172500X0.147500X-0.172500X-0.147500X0.172500X-0.147500X0.172500X0.147500X0*%
%ADD21RoundRect,0.175000X-0.175000X-1.675000X0.175000X-1.675000X0.175000X1.675000X-0.175000X1.675000X0*%
%ADD22RoundRect,0.250001X-0.499999X-0.899999X0.499999X-0.899999X0.499999X0.899999X-0.499999X0.899999X0*%
%ADD23RoundRect,0.135000X-0.135000X-0.185000X0.135000X-0.185000X0.135000X0.185000X-0.135000X0.185000X0*%
%ADD24RoundRect,0.140000X-0.140000X-0.170000X0.140000X-0.170000X0.140000X0.170000X-0.140000X0.170000X0*%
%ADD25RoundRect,0.135000X0.135000X0.185000X-0.135000X0.185000X-0.135000X-0.185000X0.135000X-0.185000X0*%
%ADD26RoundRect,0.100000X0.100000X-0.637500X0.100000X0.637500X-0.100000X0.637500X-0.100000X-0.637500X0*%
%ADD27RoundRect,0.150000X-0.150000X0.587500X-0.150000X-0.587500X0.150000X-0.587500X0.150000X0.587500X0*%
%ADD28RoundRect,0.250000X-0.275000X0.450000X-0.275000X-0.450000X0.275000X-0.450000X0.275000X0.450000X0*%
%ADD29RoundRect,0.050000X0.100000X-0.285000X0.100000X0.285000X-0.100000X0.285000X-0.100000X-0.285000X0*%
%ADD30RoundRect,0.225000X0.250000X-0.225000X0.250000X0.225000X-0.250000X0.225000X-0.250000X-0.225000X0*%
%ADD31RoundRect,0.140000X0.140000X0.170000X-0.140000X0.170000X-0.140000X-0.170000X0.140000X-0.170000X0*%
%ADD32RoundRect,0.250000X-0.625000X0.375000X-0.625000X-0.375000X0.625000X-0.375000X0.625000X0.375000X0*%
%ADD33RoundRect,0.150000X0.150000X0.750000X-0.150000X0.750000X-0.150000X-0.750000X0.150000X-0.750000X0*%
%ADD34RoundRect,0.250000X1.050000X1.250000X-1.050000X1.250000X-1.050000X-1.250000X1.050000X-1.250000X0*%
%ADD35C,0.500000*%
%ADD36R,0.725000X0.522000*%
%ADD37FreePoly0,0.000000*%
%ADD38RoundRect,0.135000X0.185000X-0.135000X0.185000X0.135000X-0.185000X0.135000X-0.185000X-0.135000X0*%
G04 APERTURE END LIST*
D10*
%TO.C,J1*%
X181491004Y-46020000D03*
D11*
X181491004Y-44750000D03*
X181491004Y-43480000D03*
%TD*%
D12*
%TO.C,H2*%
X155750000Y-87750000D03*
%TD*%
D13*
%TO.C,P1*%
X176896800Y-69641200D03*
X176896800Y-63861200D03*
D14*
X176376800Y-71071200D03*
D15*
X180576800Y-71071200D03*
D14*
X176376800Y-62431200D03*
D15*
X180576800Y-62431200D03*
%TD*%
D12*
%TO.C,H1*%
X182000000Y-39750000D03*
%TD*%
D16*
%TO.C,SW7*%
X155970000Y-44800000D03*
X155970000Y-41200000D03*
X154530000Y-44800000D03*
X154530000Y-41200000D03*
%TD*%
D17*
%TO.C,R38*%
X168000000Y-49490000D03*
X168000000Y-50510000D03*
%TD*%
D18*
%TO.C,C37*%
X179275000Y-65153800D03*
X177725000Y-65153800D03*
%TD*%
D19*
%TO.C,C11*%
X179725000Y-69403800D03*
X181275000Y-69403800D03*
%TD*%
D20*
%TO.C,D12*%
X166520000Y-52132500D03*
X166520000Y-53102500D03*
%TD*%
D17*
%TO.C,R40*%
X164000000Y-49490000D03*
X164000000Y-50510000D03*
%TD*%
D16*
%TO.C,SW1*%
X156045000Y-55300000D03*
X156045000Y-51700000D03*
X154605000Y-55300000D03*
X154605000Y-51700000D03*
%TD*%
%TO.C,SW6*%
X156045000Y-62800000D03*
X156045000Y-59200000D03*
X154605000Y-62800000D03*
X154605000Y-59200000D03*
%TD*%
D20*
%TO.C,D11*%
X172500000Y-52132500D03*
X172500000Y-53102500D03*
%TD*%
D21*
%TO.C,J3*%
X176500000Y-85500000D03*
X178000000Y-85500000D03*
X179500000Y-85500000D03*
D22*
X174450000Y-87600000D03*
X181550000Y-87600000D03*
%TD*%
D17*
%TO.C,R31*%
X172000000Y-49490000D03*
X172000000Y-50510000D03*
%TD*%
D23*
%TO.C,R17*%
X176648400Y-67653800D03*
X177668400Y-67653800D03*
%TD*%
D24*
%TO.C,C36*%
X154520000Y-47750000D03*
X155480000Y-47750000D03*
%TD*%
D17*
%TO.C,R39*%
X166000000Y-49490000D03*
X166000000Y-50510000D03*
%TD*%
%TO.C,R21*%
X168000000Y-86240000D03*
X168000000Y-87260000D03*
%TD*%
%TO.C,R41*%
X164000000Y-44740000D03*
X164000000Y-45760000D03*
%TD*%
D25*
%TO.C,R16*%
X177668400Y-68653800D03*
X176648400Y-68653800D03*
%TD*%
D26*
%TO.C,U3*%
X171775000Y-46675000D03*
X171125000Y-46675000D03*
X170475000Y-46675000D03*
X169825000Y-46675000D03*
X169175000Y-46675000D03*
X168525000Y-46675000D03*
X167875000Y-46675000D03*
X167225000Y-46675000D03*
X167225000Y-40950000D03*
X167875000Y-40950000D03*
X168525000Y-40950000D03*
X169175000Y-40950000D03*
X169825000Y-40950000D03*
X170475000Y-40950000D03*
X171125000Y-40950000D03*
X171775000Y-40950000D03*
%TD*%
D20*
%TO.C,D9*%
X168520000Y-52132500D03*
X168520000Y-53102500D03*
%TD*%
D27*
%TO.C,Q1*%
X169550000Y-86312500D03*
X171450000Y-86312500D03*
X170500000Y-88187500D03*
%TD*%
D28*
%TO.C,SW5*%
X181460700Y-56254491D03*
X181460700Y-59854491D03*
X182900700Y-56254491D03*
X182900700Y-59854491D03*
%TD*%
D29*
%TO.C,U5*%
X180353400Y-67973800D03*
X179853400Y-67973800D03*
X179353400Y-67973800D03*
X178853400Y-67973800D03*
X178853400Y-66493800D03*
X179353400Y-66493800D03*
X179853400Y-66493800D03*
X180353400Y-66493800D03*
%TD*%
D30*
%TO.C,C17*%
X182000000Y-66928800D03*
X182000000Y-65378800D03*
%TD*%
D25*
%TO.C,R37*%
X155510000Y-46750000D03*
X154490000Y-46750000D03*
%TD*%
D31*
%TO.C,C16*%
X177638400Y-66653800D03*
X176678400Y-66653800D03*
%TD*%
D20*
%TO.C,D10*%
X170510000Y-52132500D03*
X170510000Y-53102500D03*
%TD*%
D32*
%TO.C,F1*%
X172500000Y-81100000D03*
X172500000Y-83900000D03*
%TD*%
D28*
%TO.C,SW4*%
X181560000Y-49400000D03*
X181560000Y-53000000D03*
X183000000Y-49400000D03*
X183000000Y-53000000D03*
%TD*%
D17*
%TO.C,R32*%
X170000000Y-49490000D03*
X170000000Y-50510000D03*
%TD*%
D33*
%TO.C,J5*%
X162500000Y-67375000D03*
X161500000Y-67375000D03*
X160500000Y-67375000D03*
X159500000Y-67375000D03*
X158500000Y-67375000D03*
D34*
X164850000Y-69545000D03*
X156150000Y-69545000D03*
%TD*%
D35*
%TO.C,MK1*%
X168412500Y-60426000D03*
D36*
X167575000Y-62500000D03*
X167575000Y-61678000D03*
D37*
X168412500Y-59763500D03*
D36*
X169250000Y-61678000D03*
X169250000Y-62500000D03*
%TD*%
D17*
%TO.C,R42*%
X164000000Y-46990000D03*
X164000000Y-48010000D03*
%TD*%
D38*
%TO.C,R15*%
X180500000Y-65413800D03*
X180500000Y-64393800D03*
%TD*%
D24*
%TO.C,C25*%
X167932500Y-63763500D03*
X168892500Y-63763500D03*
%TD*%
D17*
%TO.C,R30*%
X174000000Y-49490000D03*
X174000000Y-50510000D03*
%TD*%
M02*
