%TF.GenerationSoftware,KiCad,Pcbnew,10.0.3*%
%TF.CreationDate,2026-08-01T14:18:51+03:00*%
%TF.ProjectId,Conversational AI audio guide handset,436f6e76-6572-4736-9174-696f6e616c20,rev?*%
%TF.SameCoordinates,Original*%
%TF.FileFunction,Legend,Top*%
%TF.FilePolarity,Positive*%
%FSLAX46Y46*%
G04 Gerber Fmt 4.6, Leading zero omitted, Abs format (unit mm)*
G04 Created by KiCad (PCBNEW 10.0.3) date 2026-08-01 14:18:51*
%MOMM*%
%LPD*%
G01*
G04 APERTURE LIST*
%ADD10C,0.150000*%
%ADD11C,0.120000*%
%ADD12C,0.100000*%
%ADD13C,0.127000*%
%ADD14C,0.200000*%
G04 APERTURE END LIST*
D10*
X155385713Y-82824200D02*
X155499999Y-82862295D01*
X155499999Y-82862295D02*
X155690475Y-82862295D01*
X155690475Y-82862295D02*
X155766666Y-82824200D01*
X155766666Y-82824200D02*
X155804761Y-82786104D01*
X155804761Y-82786104D02*
X155842856Y-82709914D01*
X155842856Y-82709914D02*
X155842856Y-82633723D01*
X155842856Y-82633723D02*
X155804761Y-82557533D01*
X155804761Y-82557533D02*
X155766666Y-82519438D01*
X155766666Y-82519438D02*
X155690475Y-82481342D01*
X155690475Y-82481342D02*
X155538094Y-82443247D01*
X155538094Y-82443247D02*
X155461904Y-82405152D01*
X155461904Y-82405152D02*
X155423809Y-82367057D01*
X155423809Y-82367057D02*
X155385713Y-82290866D01*
X155385713Y-82290866D02*
X155385713Y-82214676D01*
X155385713Y-82214676D02*
X155423809Y-82138485D01*
X155423809Y-82138485D02*
X155461904Y-82100390D01*
X155461904Y-82100390D02*
X155538094Y-82062295D01*
X155538094Y-82062295D02*
X155728571Y-82062295D01*
X155728571Y-82062295D02*
X155842856Y-82100390D01*
X156185714Y-82328961D02*
X156185714Y-83128961D01*
X156185714Y-82367057D02*
X156261904Y-82328961D01*
X156261904Y-82328961D02*
X156414285Y-82328961D01*
X156414285Y-82328961D02*
X156490476Y-82367057D01*
X156490476Y-82367057D02*
X156528571Y-82405152D01*
X156528571Y-82405152D02*
X156566666Y-82481342D01*
X156566666Y-82481342D02*
X156566666Y-82709914D01*
X156566666Y-82709914D02*
X156528571Y-82786104D01*
X156528571Y-82786104D02*
X156490476Y-82824200D01*
X156490476Y-82824200D02*
X156414285Y-82862295D01*
X156414285Y-82862295D02*
X156261904Y-82862295D01*
X156261904Y-82862295D02*
X156185714Y-82824200D01*
X157214286Y-82824200D02*
X157138095Y-82862295D01*
X157138095Y-82862295D02*
X156985714Y-82862295D01*
X156985714Y-82862295D02*
X156909524Y-82824200D01*
X156909524Y-82824200D02*
X156871428Y-82748009D01*
X156871428Y-82748009D02*
X156871428Y-82443247D01*
X156871428Y-82443247D02*
X156909524Y-82367057D01*
X156909524Y-82367057D02*
X156985714Y-82328961D01*
X156985714Y-82328961D02*
X157138095Y-82328961D01*
X157138095Y-82328961D02*
X157214286Y-82367057D01*
X157214286Y-82367057D02*
X157252381Y-82443247D01*
X157252381Y-82443247D02*
X157252381Y-82519438D01*
X157252381Y-82519438D02*
X156871428Y-82595628D01*
X157938095Y-82862295D02*
X157938095Y-82443247D01*
X157938095Y-82443247D02*
X157900000Y-82367057D01*
X157900000Y-82367057D02*
X157823809Y-82328961D01*
X157823809Y-82328961D02*
X157671428Y-82328961D01*
X157671428Y-82328961D02*
X157595238Y-82367057D01*
X157938095Y-82824200D02*
X157861904Y-82862295D01*
X157861904Y-82862295D02*
X157671428Y-82862295D01*
X157671428Y-82862295D02*
X157595238Y-82824200D01*
X157595238Y-82824200D02*
X157557142Y-82748009D01*
X157557142Y-82748009D02*
X157557142Y-82671819D01*
X157557142Y-82671819D02*
X157595238Y-82595628D01*
X157595238Y-82595628D02*
X157671428Y-82557533D01*
X157671428Y-82557533D02*
X157861904Y-82557533D01*
X157861904Y-82557533D02*
X157938095Y-82519438D01*
X158319048Y-82862295D02*
X158319048Y-82062295D01*
X158395238Y-82557533D02*
X158623810Y-82862295D01*
X158623810Y-82328961D02*
X158319048Y-82633723D01*
X159271429Y-82824200D02*
X159195238Y-82862295D01*
X159195238Y-82862295D02*
X159042857Y-82862295D01*
X159042857Y-82862295D02*
X158966667Y-82824200D01*
X158966667Y-82824200D02*
X158928571Y-82748009D01*
X158928571Y-82748009D02*
X158928571Y-82443247D01*
X158928571Y-82443247D02*
X158966667Y-82367057D01*
X158966667Y-82367057D02*
X159042857Y-82328961D01*
X159042857Y-82328961D02*
X159195238Y-82328961D01*
X159195238Y-82328961D02*
X159271429Y-82367057D01*
X159271429Y-82367057D02*
X159309524Y-82443247D01*
X159309524Y-82443247D02*
X159309524Y-82519438D01*
X159309524Y-82519438D02*
X158928571Y-82595628D01*
X159652381Y-82862295D02*
X159652381Y-82328961D01*
X159652381Y-82481342D02*
X159690476Y-82405152D01*
X159690476Y-82405152D02*
X159728571Y-82367057D01*
X159728571Y-82367057D02*
X159804762Y-82328961D01*
X159804762Y-82328961D02*
X159880952Y-82328961D01*
X182862295Y-43609523D02*
X182862295Y-43152380D01*
X183662295Y-43380952D02*
X182862295Y-43380952D01*
X182862295Y-42961904D02*
X183662295Y-42428570D01*
X182862295Y-42428570D02*
X183662295Y-42961904D01*
X183662295Y-44833332D02*
X183281342Y-45099999D01*
X183662295Y-45290475D02*
X182862295Y-45290475D01*
X182862295Y-45290475D02*
X182862295Y-44985713D01*
X182862295Y-44985713D02*
X182900390Y-44909523D01*
X182900390Y-44909523D02*
X182938485Y-44871428D01*
X182938485Y-44871428D02*
X183014676Y-44833332D01*
X183014676Y-44833332D02*
X183128961Y-44833332D01*
X183128961Y-44833332D02*
X183205152Y-44871428D01*
X183205152Y-44871428D02*
X183243247Y-44909523D01*
X183243247Y-44909523D02*
X183281342Y-44985713D01*
X183281342Y-44985713D02*
X183281342Y-45290475D01*
X182862295Y-44566666D02*
X183662295Y-44033332D01*
X182862295Y-44033332D02*
X183662295Y-44566666D01*
X182900390Y-45890476D02*
X182862295Y-45966666D01*
X182862295Y-45966666D02*
X182862295Y-46080952D01*
X182862295Y-46080952D02*
X182900390Y-46195238D01*
X182900390Y-46195238D02*
X182976580Y-46271428D01*
X182976580Y-46271428D02*
X183052771Y-46309523D01*
X183052771Y-46309523D02*
X183205152Y-46347619D01*
X183205152Y-46347619D02*
X183319438Y-46347619D01*
X183319438Y-46347619D02*
X183471819Y-46309523D01*
X183471819Y-46309523D02*
X183548009Y-46271428D01*
X183548009Y-46271428D02*
X183624200Y-46195238D01*
X183624200Y-46195238D02*
X183662295Y-46080952D01*
X183662295Y-46080952D02*
X183662295Y-46004761D01*
X183662295Y-46004761D02*
X183624200Y-45890476D01*
X183624200Y-45890476D02*
X183586104Y-45852380D01*
X183586104Y-45852380D02*
X183319438Y-45852380D01*
X183319438Y-45852380D02*
X183319438Y-46004761D01*
X183128961Y-89400000D02*
X183928961Y-89400000D01*
X183167057Y-89400000D02*
X183128961Y-89323810D01*
X183128961Y-89323810D02*
X183128961Y-89171429D01*
X183128961Y-89171429D02*
X183167057Y-89095238D01*
X183167057Y-89095238D02*
X183205152Y-89057143D01*
X183205152Y-89057143D02*
X183281342Y-89019048D01*
X183281342Y-89019048D02*
X183509914Y-89019048D01*
X183509914Y-89019048D02*
X183586104Y-89057143D01*
X183586104Y-89057143D02*
X183624200Y-89095238D01*
X183624200Y-89095238D02*
X183662295Y-89171429D01*
X183662295Y-89171429D02*
X183662295Y-89323810D01*
X183662295Y-89323810D02*
X183624200Y-89400000D01*
X183662295Y-88561905D02*
X183624200Y-88638095D01*
X183624200Y-88638095D02*
X183586104Y-88676190D01*
X183586104Y-88676190D02*
X183509914Y-88714286D01*
X183509914Y-88714286D02*
X183281342Y-88714286D01*
X183281342Y-88714286D02*
X183205152Y-88676190D01*
X183205152Y-88676190D02*
X183167057Y-88638095D01*
X183167057Y-88638095D02*
X183128961Y-88561905D01*
X183128961Y-88561905D02*
X183128961Y-88447619D01*
X183128961Y-88447619D02*
X183167057Y-88371428D01*
X183167057Y-88371428D02*
X183205152Y-88333333D01*
X183205152Y-88333333D02*
X183281342Y-88295238D01*
X183281342Y-88295238D02*
X183509914Y-88295238D01*
X183509914Y-88295238D02*
X183586104Y-88333333D01*
X183586104Y-88333333D02*
X183624200Y-88371428D01*
X183624200Y-88371428D02*
X183662295Y-88447619D01*
X183662295Y-88447619D02*
X183662295Y-88561905D01*
X183128961Y-87609523D02*
X183776580Y-87609523D01*
X183776580Y-87609523D02*
X183852771Y-87647618D01*
X183852771Y-87647618D02*
X183890866Y-87685714D01*
X183890866Y-87685714D02*
X183928961Y-87761904D01*
X183928961Y-87761904D02*
X183928961Y-87876190D01*
X183928961Y-87876190D02*
X183890866Y-87952380D01*
X183624200Y-87609523D02*
X183662295Y-87685714D01*
X183662295Y-87685714D02*
X183662295Y-87838095D01*
X183662295Y-87838095D02*
X183624200Y-87914285D01*
X183624200Y-87914285D02*
X183586104Y-87952380D01*
X183586104Y-87952380D02*
X183509914Y-87990476D01*
X183509914Y-87990476D02*
X183281342Y-87990476D01*
X183281342Y-87990476D02*
X183205152Y-87952380D01*
X183205152Y-87952380D02*
X183167057Y-87914285D01*
X183167057Y-87914285D02*
X183128961Y-87838095D01*
X183128961Y-87838095D02*
X183128961Y-87685714D01*
X183128961Y-87685714D02*
X183167057Y-87609523D01*
X183662295Y-87114285D02*
X183624200Y-87190475D01*
X183624200Y-87190475D02*
X183586104Y-87228570D01*
X183586104Y-87228570D02*
X183509914Y-87266666D01*
X183509914Y-87266666D02*
X183281342Y-87266666D01*
X183281342Y-87266666D02*
X183205152Y-87228570D01*
X183205152Y-87228570D02*
X183167057Y-87190475D01*
X183167057Y-87190475D02*
X183128961Y-87114285D01*
X183128961Y-87114285D02*
X183128961Y-86999999D01*
X183128961Y-86999999D02*
X183167057Y-86923808D01*
X183167057Y-86923808D02*
X183205152Y-86885713D01*
X183205152Y-86885713D02*
X183281342Y-86847618D01*
X183281342Y-86847618D02*
X183509914Y-86847618D01*
X183509914Y-86847618D02*
X183586104Y-86885713D01*
X183586104Y-86885713D02*
X183624200Y-86923808D01*
X183624200Y-86923808D02*
X183662295Y-86999999D01*
X183662295Y-86999999D02*
X183662295Y-87114285D01*
X183128961Y-85895236D02*
X183928961Y-85895236D01*
X183167057Y-85895236D02*
X183128961Y-85819046D01*
X183128961Y-85819046D02*
X183128961Y-85666665D01*
X183128961Y-85666665D02*
X183167057Y-85590474D01*
X183167057Y-85590474D02*
X183205152Y-85552379D01*
X183205152Y-85552379D02*
X183281342Y-85514284D01*
X183281342Y-85514284D02*
X183509914Y-85514284D01*
X183509914Y-85514284D02*
X183586104Y-85552379D01*
X183586104Y-85552379D02*
X183624200Y-85590474D01*
X183624200Y-85590474D02*
X183662295Y-85666665D01*
X183662295Y-85666665D02*
X183662295Y-85819046D01*
X183662295Y-85819046D02*
X183624200Y-85895236D01*
X183662295Y-85171426D02*
X183128961Y-85171426D01*
X182862295Y-85171426D02*
X182900390Y-85209522D01*
X182900390Y-85209522D02*
X182938485Y-85171426D01*
X182938485Y-85171426D02*
X182900390Y-85133331D01*
X182900390Y-85133331D02*
X182862295Y-85171426D01*
X182862295Y-85171426D02*
X182938485Y-85171426D01*
X183128961Y-84790474D02*
X183662295Y-84790474D01*
X183205152Y-84790474D02*
X183167057Y-84752379D01*
X183167057Y-84752379D02*
X183128961Y-84676189D01*
X183128961Y-84676189D02*
X183128961Y-84561903D01*
X183128961Y-84561903D02*
X183167057Y-84485712D01*
X183167057Y-84485712D02*
X183243247Y-84447617D01*
X183243247Y-84447617D02*
X183662295Y-84447617D01*
X183624200Y-84104760D02*
X183662295Y-84028569D01*
X183662295Y-84028569D02*
X183662295Y-83876188D01*
X183662295Y-83876188D02*
X183624200Y-83799998D01*
X183624200Y-83799998D02*
X183548009Y-83761902D01*
X183548009Y-83761902D02*
X183509914Y-83761902D01*
X183509914Y-83761902D02*
X183433723Y-83799998D01*
X183433723Y-83799998D02*
X183395628Y-83876188D01*
X183395628Y-83876188D02*
X183395628Y-83990474D01*
X183395628Y-83990474D02*
X183357533Y-84066664D01*
X183357533Y-84066664D02*
X183281342Y-84104760D01*
X183281342Y-84104760D02*
X183243247Y-84104760D01*
X183243247Y-84104760D02*
X183167057Y-84066664D01*
X183167057Y-84066664D02*
X183128961Y-83990474D01*
X183128961Y-83990474D02*
X183128961Y-83876188D01*
X183128961Y-83876188D02*
X183167057Y-83799998D01*
X167062295Y-76814285D02*
X166681342Y-77080952D01*
X167062295Y-77271428D02*
X166262295Y-77271428D01*
X166262295Y-77271428D02*
X166262295Y-76966666D01*
X166262295Y-76966666D02*
X166300390Y-76890476D01*
X166300390Y-76890476D02*
X166338485Y-76852381D01*
X166338485Y-76852381D02*
X166414676Y-76814285D01*
X166414676Y-76814285D02*
X166528961Y-76814285D01*
X166528961Y-76814285D02*
X166605152Y-76852381D01*
X166605152Y-76852381D02*
X166643247Y-76890476D01*
X166643247Y-76890476D02*
X166681342Y-76966666D01*
X166681342Y-76966666D02*
X166681342Y-77271428D01*
X166338485Y-76509524D02*
X166300390Y-76471428D01*
X166300390Y-76471428D02*
X166262295Y-76395238D01*
X166262295Y-76395238D02*
X166262295Y-76204762D01*
X166262295Y-76204762D02*
X166300390Y-76128571D01*
X166300390Y-76128571D02*
X166338485Y-76090476D01*
X166338485Y-76090476D02*
X166414676Y-76052381D01*
X166414676Y-76052381D02*
X166490866Y-76052381D01*
X166490866Y-76052381D02*
X166605152Y-76090476D01*
X166605152Y-76090476D02*
X167062295Y-76547619D01*
X167062295Y-76547619D02*
X167062295Y-76052381D01*
X167062295Y-75671428D02*
X167062295Y-75519047D01*
X167062295Y-75519047D02*
X167024200Y-75442857D01*
X167024200Y-75442857D02*
X166986104Y-75404761D01*
X166986104Y-75404761D02*
X166871819Y-75328571D01*
X166871819Y-75328571D02*
X166719438Y-75290476D01*
X166719438Y-75290476D02*
X166414676Y-75290476D01*
X166414676Y-75290476D02*
X166338485Y-75328571D01*
X166338485Y-75328571D02*
X166300390Y-75366666D01*
X166300390Y-75366666D02*
X166262295Y-75442857D01*
X166262295Y-75442857D02*
X166262295Y-75595238D01*
X166262295Y-75595238D02*
X166300390Y-75671428D01*
X166300390Y-75671428D02*
X166338485Y-75709523D01*
X166338485Y-75709523D02*
X166414676Y-75747619D01*
X166414676Y-75747619D02*
X166605152Y-75747619D01*
X166605152Y-75747619D02*
X166681342Y-75709523D01*
X166681342Y-75709523D02*
X166719438Y-75671428D01*
X166719438Y-75671428D02*
X166757533Y-75595238D01*
X166757533Y-75595238D02*
X166757533Y-75442857D01*
X166757533Y-75442857D02*
X166719438Y-75366666D01*
X166719438Y-75366666D02*
X166681342Y-75328571D01*
X166681342Y-75328571D02*
X166605152Y-75290476D01*
X169262295Y-69771428D02*
X168462295Y-69771428D01*
X168462295Y-69771428D02*
X168462295Y-69580952D01*
X168462295Y-69580952D02*
X168500390Y-69466666D01*
X168500390Y-69466666D02*
X168576580Y-69390476D01*
X168576580Y-69390476D02*
X168652771Y-69352381D01*
X168652771Y-69352381D02*
X168805152Y-69314285D01*
X168805152Y-69314285D02*
X168919438Y-69314285D01*
X168919438Y-69314285D02*
X169071819Y-69352381D01*
X169071819Y-69352381D02*
X169148009Y-69390476D01*
X169148009Y-69390476D02*
X169224200Y-69466666D01*
X169224200Y-69466666D02*
X169262295Y-69580952D01*
X169262295Y-69580952D02*
X169262295Y-69771428D01*
X169262295Y-68552381D02*
X169262295Y-69009524D01*
X169262295Y-68780952D02*
X168462295Y-68780952D01*
X168462295Y-68780952D02*
X168576580Y-68857143D01*
X168576580Y-68857143D02*
X168652771Y-68933333D01*
X168652771Y-68933333D02*
X168690866Y-69009524D01*
X168462295Y-67828571D02*
X168462295Y-68209523D01*
X168462295Y-68209523D02*
X168843247Y-68247619D01*
X168843247Y-68247619D02*
X168805152Y-68209523D01*
X168805152Y-68209523D02*
X168767057Y-68133333D01*
X168767057Y-68133333D02*
X168767057Y-67942857D01*
X168767057Y-67942857D02*
X168805152Y-67866666D01*
X168805152Y-67866666D02*
X168843247Y-67828571D01*
X168843247Y-67828571D02*
X168919438Y-67790476D01*
X168919438Y-67790476D02*
X169109914Y-67790476D01*
X169109914Y-67790476D02*
X169186104Y-67828571D01*
X169186104Y-67828571D02*
X169224200Y-67866666D01*
X169224200Y-67866666D02*
X169262295Y-67942857D01*
X169262295Y-67942857D02*
X169262295Y-68133333D01*
X169262295Y-68133333D02*
X169224200Y-68209523D01*
X169224200Y-68209523D02*
X169186104Y-68247619D01*
X157785714Y-50862295D02*
X157519047Y-50481342D01*
X157328571Y-50862295D02*
X157328571Y-50062295D01*
X157328571Y-50062295D02*
X157633333Y-50062295D01*
X157633333Y-50062295D02*
X157709523Y-50100390D01*
X157709523Y-50100390D02*
X157747618Y-50138485D01*
X157747618Y-50138485D02*
X157785714Y-50214676D01*
X157785714Y-50214676D02*
X157785714Y-50328961D01*
X157785714Y-50328961D02*
X157747618Y-50405152D01*
X157747618Y-50405152D02*
X157709523Y-50443247D01*
X157709523Y-50443247D02*
X157633333Y-50481342D01*
X157633333Y-50481342D02*
X157328571Y-50481342D01*
X158547618Y-50862295D02*
X158090475Y-50862295D01*
X158319047Y-50862295D02*
X158319047Y-50062295D01*
X158319047Y-50062295D02*
X158242856Y-50176580D01*
X158242856Y-50176580D02*
X158166666Y-50252771D01*
X158166666Y-50252771D02*
X158090475Y-50290866D01*
X159309523Y-50862295D02*
X158852380Y-50862295D01*
X159080952Y-50862295D02*
X159080952Y-50062295D01*
X159080952Y-50062295D02*
X159004761Y-50176580D01*
X159004761Y-50176580D02*
X158928571Y-50252771D01*
X158928571Y-50252771D02*
X158852380Y-50290866D01*
X179662295Y-81875266D02*
X179281342Y-82141933D01*
X179662295Y-82332409D02*
X178862295Y-82332409D01*
X178862295Y-82332409D02*
X178862295Y-82027647D01*
X178862295Y-82027647D02*
X178900390Y-81951457D01*
X178900390Y-81951457D02*
X178938485Y-81913362D01*
X178938485Y-81913362D02*
X179014676Y-81875266D01*
X179014676Y-81875266D02*
X179128961Y-81875266D01*
X179128961Y-81875266D02*
X179205152Y-81913362D01*
X179205152Y-81913362D02*
X179243247Y-81951457D01*
X179243247Y-81951457D02*
X179281342Y-82027647D01*
X179281342Y-82027647D02*
X179281342Y-82332409D01*
X179128961Y-81189552D02*
X179662295Y-81189552D01*
X178824200Y-81380028D02*
X179395628Y-81570505D01*
X179395628Y-81570505D02*
X179395628Y-81075266D01*
X161659580Y-104342857D02*
X161707200Y-104390476D01*
X161707200Y-104390476D02*
X161754819Y-104533333D01*
X161754819Y-104533333D02*
X161754819Y-104628571D01*
X161754819Y-104628571D02*
X161707200Y-104771428D01*
X161707200Y-104771428D02*
X161611961Y-104866666D01*
X161611961Y-104866666D02*
X161516723Y-104914285D01*
X161516723Y-104914285D02*
X161326247Y-104961904D01*
X161326247Y-104961904D02*
X161183390Y-104961904D01*
X161183390Y-104961904D02*
X160992914Y-104914285D01*
X160992914Y-104914285D02*
X160897676Y-104866666D01*
X160897676Y-104866666D02*
X160802438Y-104771428D01*
X160802438Y-104771428D02*
X160754819Y-104628571D01*
X160754819Y-104628571D02*
X160754819Y-104533333D01*
X160754819Y-104533333D02*
X160802438Y-104390476D01*
X160802438Y-104390476D02*
X160850057Y-104342857D01*
X161088152Y-103485714D02*
X161754819Y-103485714D01*
X160707200Y-103723809D02*
X161421485Y-103961904D01*
X161421485Y-103961904D02*
X161421485Y-103342857D01*
X161754819Y-102438095D02*
X161754819Y-103009523D01*
X161754819Y-102723809D02*
X160754819Y-102723809D01*
X160754819Y-102723809D02*
X160897676Y-102819047D01*
X160897676Y-102819047D02*
X160992914Y-102914285D01*
X160992914Y-102914285D02*
X161040533Y-103009523D01*
X162562295Y-84209523D02*
X163209914Y-84209523D01*
X163209914Y-84209523D02*
X163286104Y-84171428D01*
X163286104Y-84171428D02*
X163324200Y-84133333D01*
X163324200Y-84133333D02*
X163362295Y-84057142D01*
X163362295Y-84057142D02*
X163362295Y-83904761D01*
X163362295Y-83904761D02*
X163324200Y-83828571D01*
X163324200Y-83828571D02*
X163286104Y-83790476D01*
X163286104Y-83790476D02*
X163209914Y-83752380D01*
X163209914Y-83752380D02*
X162562295Y-83752380D01*
X162638485Y-83409524D02*
X162600390Y-83371428D01*
X162600390Y-83371428D02*
X162562295Y-83295238D01*
X162562295Y-83295238D02*
X162562295Y-83104762D01*
X162562295Y-83104762D02*
X162600390Y-83028571D01*
X162600390Y-83028571D02*
X162638485Y-82990476D01*
X162638485Y-82990476D02*
X162714676Y-82952381D01*
X162714676Y-82952381D02*
X162790866Y-82952381D01*
X162790866Y-82952381D02*
X162905152Y-82990476D01*
X162905152Y-82990476D02*
X163362295Y-83447619D01*
X163362295Y-83447619D02*
X163362295Y-82952381D01*
X170437704Y-82666666D02*
X170437704Y-82285714D01*
X170437704Y-82285714D02*
X171237704Y-82285714D01*
X171161514Y-82895237D02*
X171199609Y-82933333D01*
X171199609Y-82933333D02*
X171237704Y-83009523D01*
X171237704Y-83009523D02*
X171237704Y-83199999D01*
X171237704Y-83199999D02*
X171199609Y-83276190D01*
X171199609Y-83276190D02*
X171161514Y-83314285D01*
X171161514Y-83314285D02*
X171085323Y-83352380D01*
X171085323Y-83352380D02*
X171009133Y-83352380D01*
X171009133Y-83352380D02*
X170894847Y-83314285D01*
X170894847Y-83314285D02*
X170437704Y-82857142D01*
X170437704Y-82857142D02*
X170437704Y-83352380D01*
X172585714Y-63162295D02*
X172319047Y-62781342D01*
X172128571Y-63162295D02*
X172128571Y-62362295D01*
X172128571Y-62362295D02*
X172433333Y-62362295D01*
X172433333Y-62362295D02*
X172509523Y-62400390D01*
X172509523Y-62400390D02*
X172547618Y-62438485D01*
X172547618Y-62438485D02*
X172585714Y-62514676D01*
X172585714Y-62514676D02*
X172585714Y-62628961D01*
X172585714Y-62628961D02*
X172547618Y-62705152D01*
X172547618Y-62705152D02*
X172509523Y-62743247D01*
X172509523Y-62743247D02*
X172433333Y-62781342D01*
X172433333Y-62781342D02*
X172128571Y-62781342D01*
X173347618Y-63162295D02*
X172890475Y-63162295D01*
X173119047Y-63162295D02*
X173119047Y-62362295D01*
X173119047Y-62362295D02*
X173042856Y-62476580D01*
X173042856Y-62476580D02*
X172966666Y-62552771D01*
X172966666Y-62552771D02*
X172890475Y-62590866D01*
X174033333Y-62628961D02*
X174033333Y-63162295D01*
X173842857Y-62324200D02*
X173652380Y-62895628D01*
X173652380Y-62895628D02*
X174147619Y-62895628D01*
X155533332Y-43624200D02*
X155647618Y-43662295D01*
X155647618Y-43662295D02*
X155838094Y-43662295D01*
X155838094Y-43662295D02*
X155914285Y-43624200D01*
X155914285Y-43624200D02*
X155952380Y-43586104D01*
X155952380Y-43586104D02*
X155990475Y-43509914D01*
X155990475Y-43509914D02*
X155990475Y-43433723D01*
X155990475Y-43433723D02*
X155952380Y-43357533D01*
X155952380Y-43357533D02*
X155914285Y-43319438D01*
X155914285Y-43319438D02*
X155838094Y-43281342D01*
X155838094Y-43281342D02*
X155685713Y-43243247D01*
X155685713Y-43243247D02*
X155609523Y-43205152D01*
X155609523Y-43205152D02*
X155571428Y-43167057D01*
X155571428Y-43167057D02*
X155533332Y-43090866D01*
X155533332Y-43090866D02*
X155533332Y-43014676D01*
X155533332Y-43014676D02*
X155571428Y-42938485D01*
X155571428Y-42938485D02*
X155609523Y-42900390D01*
X155609523Y-42900390D02*
X155685713Y-42862295D01*
X155685713Y-42862295D02*
X155876190Y-42862295D01*
X155876190Y-42862295D02*
X155990475Y-42900390D01*
X156257142Y-42862295D02*
X156447618Y-43662295D01*
X156447618Y-43662295D02*
X156599999Y-43090866D01*
X156599999Y-43090866D02*
X156752380Y-43662295D01*
X156752380Y-43662295D02*
X156942857Y-42862295D01*
X157171428Y-42862295D02*
X157666666Y-42862295D01*
X157666666Y-42862295D02*
X157400000Y-43167057D01*
X157400000Y-43167057D02*
X157514285Y-43167057D01*
X157514285Y-43167057D02*
X157590476Y-43205152D01*
X157590476Y-43205152D02*
X157628571Y-43243247D01*
X157628571Y-43243247D02*
X157666666Y-43319438D01*
X157666666Y-43319438D02*
X157666666Y-43509914D01*
X157666666Y-43509914D02*
X157628571Y-43586104D01*
X157628571Y-43586104D02*
X157590476Y-43624200D01*
X157590476Y-43624200D02*
X157514285Y-43662295D01*
X157514285Y-43662295D02*
X157285714Y-43662295D01*
X157285714Y-43662295D02*
X157209523Y-43624200D01*
X157209523Y-43624200D02*
X157171428Y-43586104D01*
X158086104Y-65814285D02*
X158124200Y-65852381D01*
X158124200Y-65852381D02*
X158162295Y-65966666D01*
X158162295Y-65966666D02*
X158162295Y-66042857D01*
X158162295Y-66042857D02*
X158124200Y-66157143D01*
X158124200Y-66157143D02*
X158048009Y-66233333D01*
X158048009Y-66233333D02*
X157971819Y-66271428D01*
X157971819Y-66271428D02*
X157819438Y-66309524D01*
X157819438Y-66309524D02*
X157705152Y-66309524D01*
X157705152Y-66309524D02*
X157552771Y-66271428D01*
X157552771Y-66271428D02*
X157476580Y-66233333D01*
X157476580Y-66233333D02*
X157400390Y-66157143D01*
X157400390Y-66157143D02*
X157362295Y-66042857D01*
X157362295Y-66042857D02*
X157362295Y-65966666D01*
X157362295Y-65966666D02*
X157400390Y-65852381D01*
X157400390Y-65852381D02*
X157438485Y-65814285D01*
X157438485Y-65509524D02*
X157400390Y-65471428D01*
X157400390Y-65471428D02*
X157362295Y-65395238D01*
X157362295Y-65395238D02*
X157362295Y-65204762D01*
X157362295Y-65204762D02*
X157400390Y-65128571D01*
X157400390Y-65128571D02*
X157438485Y-65090476D01*
X157438485Y-65090476D02*
X157514676Y-65052381D01*
X157514676Y-65052381D02*
X157590866Y-65052381D01*
X157590866Y-65052381D02*
X157705152Y-65090476D01*
X157705152Y-65090476D02*
X158162295Y-65547619D01*
X158162295Y-65547619D02*
X158162295Y-65052381D01*
X157362295Y-64785714D02*
X157362295Y-64290476D01*
X157362295Y-64290476D02*
X157667057Y-64557142D01*
X157667057Y-64557142D02*
X157667057Y-64442857D01*
X157667057Y-64442857D02*
X157705152Y-64366666D01*
X157705152Y-64366666D02*
X157743247Y-64328571D01*
X157743247Y-64328571D02*
X157819438Y-64290476D01*
X157819438Y-64290476D02*
X158009914Y-64290476D01*
X158009914Y-64290476D02*
X158086104Y-64328571D01*
X158086104Y-64328571D02*
X158124200Y-64366666D01*
X158124200Y-64366666D02*
X158162295Y-64442857D01*
X158162295Y-64442857D02*
X158162295Y-64671428D01*
X158162295Y-64671428D02*
X158124200Y-64747619D01*
X158124200Y-64747619D02*
X158086104Y-64785714D01*
X165575714Y-71252904D02*
X165537618Y-71291000D01*
X165537618Y-71291000D02*
X165423333Y-71329095D01*
X165423333Y-71329095D02*
X165347142Y-71329095D01*
X165347142Y-71329095D02*
X165232856Y-71291000D01*
X165232856Y-71291000D02*
X165156666Y-71214809D01*
X165156666Y-71214809D02*
X165118571Y-71138619D01*
X165118571Y-71138619D02*
X165080475Y-70986238D01*
X165080475Y-70986238D02*
X165080475Y-70871952D01*
X165080475Y-70871952D02*
X165118571Y-70719571D01*
X165118571Y-70719571D02*
X165156666Y-70643380D01*
X165156666Y-70643380D02*
X165232856Y-70567190D01*
X165232856Y-70567190D02*
X165347142Y-70529095D01*
X165347142Y-70529095D02*
X165423333Y-70529095D01*
X165423333Y-70529095D02*
X165537618Y-70567190D01*
X165537618Y-70567190D02*
X165575714Y-70605285D01*
X165842380Y-70529095D02*
X166337618Y-70529095D01*
X166337618Y-70529095D02*
X166070952Y-70833857D01*
X166070952Y-70833857D02*
X166185237Y-70833857D01*
X166185237Y-70833857D02*
X166261428Y-70871952D01*
X166261428Y-70871952D02*
X166299523Y-70910047D01*
X166299523Y-70910047D02*
X166337618Y-70986238D01*
X166337618Y-70986238D02*
X166337618Y-71176714D01*
X166337618Y-71176714D02*
X166299523Y-71252904D01*
X166299523Y-71252904D02*
X166261428Y-71291000D01*
X166261428Y-71291000D02*
X166185237Y-71329095D01*
X166185237Y-71329095D02*
X165956666Y-71329095D01*
X165956666Y-71329095D02*
X165880475Y-71291000D01*
X165880475Y-71291000D02*
X165842380Y-71252904D01*
X166604285Y-70529095D02*
X167099523Y-70529095D01*
X167099523Y-70529095D02*
X166832857Y-70833857D01*
X166832857Y-70833857D02*
X166947142Y-70833857D01*
X166947142Y-70833857D02*
X167023333Y-70871952D01*
X167023333Y-70871952D02*
X167061428Y-70910047D01*
X167061428Y-70910047D02*
X167099523Y-70986238D01*
X167099523Y-70986238D02*
X167099523Y-71176714D01*
X167099523Y-71176714D02*
X167061428Y-71252904D01*
X167061428Y-71252904D02*
X167023333Y-71291000D01*
X167023333Y-71291000D02*
X166947142Y-71329095D01*
X166947142Y-71329095D02*
X166718571Y-71329095D01*
X166718571Y-71329095D02*
X166642380Y-71291000D01*
X166642380Y-71291000D02*
X166604285Y-71252904D01*
X163602976Y-106767319D02*
X163602976Y-105767319D01*
X163602976Y-105767319D02*
X163936309Y-106481604D01*
X163936309Y-106481604D02*
X164269642Y-105767319D01*
X164269642Y-105767319D02*
X164269642Y-106767319D01*
X164745833Y-106767319D02*
X164745833Y-105767319D01*
X165317261Y-106767319D02*
X164888690Y-106195890D01*
X165317261Y-105767319D02*
X164745833Y-106338747D01*
X165698214Y-105862557D02*
X165745833Y-105814938D01*
X165745833Y-105814938D02*
X165841071Y-105767319D01*
X165841071Y-105767319D02*
X166079166Y-105767319D01*
X166079166Y-105767319D02*
X166174404Y-105814938D01*
X166174404Y-105814938D02*
X166222023Y-105862557D01*
X166222023Y-105862557D02*
X166269642Y-105957795D01*
X166269642Y-105957795D02*
X166269642Y-106053033D01*
X166269642Y-106053033D02*
X166222023Y-106195890D01*
X166222023Y-106195890D02*
X165650595Y-106767319D01*
X165650595Y-106767319D02*
X166269642Y-106767319D01*
X164124895Y-60395523D02*
X164772514Y-60395523D01*
X164772514Y-60395523D02*
X164848704Y-60357428D01*
X164848704Y-60357428D02*
X164886800Y-60319333D01*
X164886800Y-60319333D02*
X164924895Y-60243142D01*
X164924895Y-60243142D02*
X164924895Y-60090761D01*
X164924895Y-60090761D02*
X164886800Y-60014571D01*
X164886800Y-60014571D02*
X164848704Y-59976476D01*
X164848704Y-59976476D02*
X164772514Y-59938380D01*
X164772514Y-59938380D02*
X164124895Y-59938380D01*
X164124895Y-59214571D02*
X164124895Y-59366952D01*
X164124895Y-59366952D02*
X164162990Y-59443143D01*
X164162990Y-59443143D02*
X164201085Y-59481238D01*
X164201085Y-59481238D02*
X164315371Y-59557428D01*
X164315371Y-59557428D02*
X164467752Y-59595524D01*
X164467752Y-59595524D02*
X164772514Y-59595524D01*
X164772514Y-59595524D02*
X164848704Y-59557428D01*
X164848704Y-59557428D02*
X164886800Y-59519333D01*
X164886800Y-59519333D02*
X164924895Y-59443143D01*
X164924895Y-59443143D02*
X164924895Y-59290762D01*
X164924895Y-59290762D02*
X164886800Y-59214571D01*
X164886800Y-59214571D02*
X164848704Y-59176476D01*
X164848704Y-59176476D02*
X164772514Y-59138381D01*
X164772514Y-59138381D02*
X164582038Y-59138381D01*
X164582038Y-59138381D02*
X164505847Y-59176476D01*
X164505847Y-59176476D02*
X164467752Y-59214571D01*
X164467752Y-59214571D02*
X164429657Y-59290762D01*
X164429657Y-59290762D02*
X164429657Y-59443143D01*
X164429657Y-59443143D02*
X164467752Y-59519333D01*
X164467752Y-59519333D02*
X164505847Y-59557428D01*
X164505847Y-59557428D02*
X164582038Y-59595524D01*
X180985714Y-59662295D02*
X180719047Y-59281342D01*
X180528571Y-59662295D02*
X180528571Y-58862295D01*
X180528571Y-58862295D02*
X180833333Y-58862295D01*
X180833333Y-58862295D02*
X180909523Y-58900390D01*
X180909523Y-58900390D02*
X180947618Y-58938485D01*
X180947618Y-58938485D02*
X180985714Y-59014676D01*
X180985714Y-59014676D02*
X180985714Y-59128961D01*
X180985714Y-59128961D02*
X180947618Y-59205152D01*
X180947618Y-59205152D02*
X180909523Y-59243247D01*
X180909523Y-59243247D02*
X180833333Y-59281342D01*
X180833333Y-59281342D02*
X180528571Y-59281342D01*
X181252380Y-58862295D02*
X181747618Y-58862295D01*
X181747618Y-58862295D02*
X181480952Y-59167057D01*
X181480952Y-59167057D02*
X181595237Y-59167057D01*
X181595237Y-59167057D02*
X181671428Y-59205152D01*
X181671428Y-59205152D02*
X181709523Y-59243247D01*
X181709523Y-59243247D02*
X181747618Y-59319438D01*
X181747618Y-59319438D02*
X181747618Y-59509914D01*
X181747618Y-59509914D02*
X181709523Y-59586104D01*
X181709523Y-59586104D02*
X181671428Y-59624200D01*
X181671428Y-59624200D02*
X181595237Y-59662295D01*
X181595237Y-59662295D02*
X181366666Y-59662295D01*
X181366666Y-59662295D02*
X181290475Y-59624200D01*
X181290475Y-59624200D02*
X181252380Y-59586104D01*
X182471428Y-58862295D02*
X182090476Y-58862295D01*
X182090476Y-58862295D02*
X182052380Y-59243247D01*
X182052380Y-59243247D02*
X182090476Y-59205152D01*
X182090476Y-59205152D02*
X182166666Y-59167057D01*
X182166666Y-59167057D02*
X182357142Y-59167057D01*
X182357142Y-59167057D02*
X182433333Y-59205152D01*
X182433333Y-59205152D02*
X182471428Y-59243247D01*
X182471428Y-59243247D02*
X182509523Y-59319438D01*
X182509523Y-59319438D02*
X182509523Y-59509914D01*
X182509523Y-59509914D02*
X182471428Y-59586104D01*
X182471428Y-59586104D02*
X182433333Y-59624200D01*
X182433333Y-59624200D02*
X182357142Y-59662295D01*
X182357142Y-59662295D02*
X182166666Y-59662295D01*
X182166666Y-59662295D02*
X182090476Y-59624200D01*
X182090476Y-59624200D02*
X182052380Y-59586104D01*
X157885714Y-67186104D02*
X157847618Y-67224200D01*
X157847618Y-67224200D02*
X157733333Y-67262295D01*
X157733333Y-67262295D02*
X157657142Y-67262295D01*
X157657142Y-67262295D02*
X157542856Y-67224200D01*
X157542856Y-67224200D02*
X157466666Y-67148009D01*
X157466666Y-67148009D02*
X157428571Y-67071819D01*
X157428571Y-67071819D02*
X157390475Y-66919438D01*
X157390475Y-66919438D02*
X157390475Y-66805152D01*
X157390475Y-66805152D02*
X157428571Y-66652771D01*
X157428571Y-66652771D02*
X157466666Y-66576580D01*
X157466666Y-66576580D02*
X157542856Y-66500390D01*
X157542856Y-66500390D02*
X157657142Y-66462295D01*
X157657142Y-66462295D02*
X157733333Y-66462295D01*
X157733333Y-66462295D02*
X157847618Y-66500390D01*
X157847618Y-66500390D02*
X157885714Y-66538485D01*
X158190475Y-66538485D02*
X158228571Y-66500390D01*
X158228571Y-66500390D02*
X158304761Y-66462295D01*
X158304761Y-66462295D02*
X158495237Y-66462295D01*
X158495237Y-66462295D02*
X158571428Y-66500390D01*
X158571428Y-66500390D02*
X158609523Y-66538485D01*
X158609523Y-66538485D02*
X158647618Y-66614676D01*
X158647618Y-66614676D02*
X158647618Y-66690866D01*
X158647618Y-66690866D02*
X158609523Y-66805152D01*
X158609523Y-66805152D02*
X158152380Y-67262295D01*
X158152380Y-67262295D02*
X158647618Y-67262295D01*
X159409523Y-67262295D02*
X158952380Y-67262295D01*
X159180952Y-67262295D02*
X159180952Y-66462295D01*
X159180952Y-66462295D02*
X159104761Y-66576580D01*
X159104761Y-66576580D02*
X159028571Y-66652771D01*
X159028571Y-66652771D02*
X158952380Y-66690866D01*
X173285714Y-78562295D02*
X173019047Y-78181342D01*
X172828571Y-78562295D02*
X172828571Y-77762295D01*
X172828571Y-77762295D02*
X173133333Y-77762295D01*
X173133333Y-77762295D02*
X173209523Y-77800390D01*
X173209523Y-77800390D02*
X173247618Y-77838485D01*
X173247618Y-77838485D02*
X173285714Y-77914676D01*
X173285714Y-77914676D02*
X173285714Y-78028961D01*
X173285714Y-78028961D02*
X173247618Y-78105152D01*
X173247618Y-78105152D02*
X173209523Y-78143247D01*
X173209523Y-78143247D02*
X173133333Y-78181342D01*
X173133333Y-78181342D02*
X172828571Y-78181342D01*
X174047618Y-78562295D02*
X173590475Y-78562295D01*
X173819047Y-78562295D02*
X173819047Y-77762295D01*
X173819047Y-77762295D02*
X173742856Y-77876580D01*
X173742856Y-77876580D02*
X173666666Y-77952771D01*
X173666666Y-77952771D02*
X173590475Y-77990866D01*
X174428571Y-78562295D02*
X174580952Y-78562295D01*
X174580952Y-78562295D02*
X174657142Y-78524200D01*
X174657142Y-78524200D02*
X174695238Y-78486104D01*
X174695238Y-78486104D02*
X174771428Y-78371819D01*
X174771428Y-78371819D02*
X174809523Y-78219438D01*
X174809523Y-78219438D02*
X174809523Y-77914676D01*
X174809523Y-77914676D02*
X174771428Y-77838485D01*
X174771428Y-77838485D02*
X174733333Y-77800390D01*
X174733333Y-77800390D02*
X174657142Y-77762295D01*
X174657142Y-77762295D02*
X174504761Y-77762295D01*
X174504761Y-77762295D02*
X174428571Y-77800390D01*
X174428571Y-77800390D02*
X174390476Y-77838485D01*
X174390476Y-77838485D02*
X174352380Y-77914676D01*
X174352380Y-77914676D02*
X174352380Y-78105152D01*
X174352380Y-78105152D02*
X174390476Y-78181342D01*
X174390476Y-78181342D02*
X174428571Y-78219438D01*
X174428571Y-78219438D02*
X174504761Y-78257533D01*
X174504761Y-78257533D02*
X174657142Y-78257533D01*
X174657142Y-78257533D02*
X174733333Y-78219438D01*
X174733333Y-78219438D02*
X174771428Y-78181342D01*
X174771428Y-78181342D02*
X174809523Y-78105152D01*
X164066667Y-89336104D02*
X164028571Y-89374200D01*
X164028571Y-89374200D02*
X163914286Y-89412295D01*
X163914286Y-89412295D02*
X163838095Y-89412295D01*
X163838095Y-89412295D02*
X163723809Y-89374200D01*
X163723809Y-89374200D02*
X163647619Y-89298009D01*
X163647619Y-89298009D02*
X163609524Y-89221819D01*
X163609524Y-89221819D02*
X163571428Y-89069438D01*
X163571428Y-89069438D02*
X163571428Y-88955152D01*
X163571428Y-88955152D02*
X163609524Y-88802771D01*
X163609524Y-88802771D02*
X163647619Y-88726580D01*
X163647619Y-88726580D02*
X163723809Y-88650390D01*
X163723809Y-88650390D02*
X163838095Y-88612295D01*
X163838095Y-88612295D02*
X163914286Y-88612295D01*
X163914286Y-88612295D02*
X164028571Y-88650390D01*
X164028571Y-88650390D02*
X164066667Y-88688485D01*
X164447619Y-89412295D02*
X164600000Y-89412295D01*
X164600000Y-89412295D02*
X164676190Y-89374200D01*
X164676190Y-89374200D02*
X164714286Y-89336104D01*
X164714286Y-89336104D02*
X164790476Y-89221819D01*
X164790476Y-89221819D02*
X164828571Y-89069438D01*
X164828571Y-89069438D02*
X164828571Y-88764676D01*
X164828571Y-88764676D02*
X164790476Y-88688485D01*
X164790476Y-88688485D02*
X164752381Y-88650390D01*
X164752381Y-88650390D02*
X164676190Y-88612295D01*
X164676190Y-88612295D02*
X164523809Y-88612295D01*
X164523809Y-88612295D02*
X164447619Y-88650390D01*
X164447619Y-88650390D02*
X164409524Y-88688485D01*
X164409524Y-88688485D02*
X164371428Y-88764676D01*
X164371428Y-88764676D02*
X164371428Y-88955152D01*
X164371428Y-88955152D02*
X164409524Y-89031342D01*
X164409524Y-89031342D02*
X164447619Y-89069438D01*
X164447619Y-89069438D02*
X164523809Y-89107533D01*
X164523809Y-89107533D02*
X164676190Y-89107533D01*
X164676190Y-89107533D02*
X164752381Y-89069438D01*
X164752381Y-89069438D02*
X164790476Y-89031342D01*
X164790476Y-89031342D02*
X164828571Y-88955152D01*
X156186104Y-71931085D02*
X156224200Y-71969181D01*
X156224200Y-71969181D02*
X156262295Y-72083466D01*
X156262295Y-72083466D02*
X156262295Y-72159657D01*
X156262295Y-72159657D02*
X156224200Y-72273943D01*
X156224200Y-72273943D02*
X156148009Y-72350133D01*
X156148009Y-72350133D02*
X156071819Y-72388228D01*
X156071819Y-72388228D02*
X155919438Y-72426324D01*
X155919438Y-72426324D02*
X155805152Y-72426324D01*
X155805152Y-72426324D02*
X155652771Y-72388228D01*
X155652771Y-72388228D02*
X155576580Y-72350133D01*
X155576580Y-72350133D02*
X155500390Y-72273943D01*
X155500390Y-72273943D02*
X155462295Y-72159657D01*
X155462295Y-72159657D02*
X155462295Y-72083466D01*
X155462295Y-72083466D02*
X155500390Y-71969181D01*
X155500390Y-71969181D02*
X155538485Y-71931085D01*
X155462295Y-71664419D02*
X155462295Y-71169181D01*
X155462295Y-71169181D02*
X155767057Y-71435847D01*
X155767057Y-71435847D02*
X155767057Y-71321562D01*
X155767057Y-71321562D02*
X155805152Y-71245371D01*
X155805152Y-71245371D02*
X155843247Y-71207276D01*
X155843247Y-71207276D02*
X155919438Y-71169181D01*
X155919438Y-71169181D02*
X156109914Y-71169181D01*
X156109914Y-71169181D02*
X156186104Y-71207276D01*
X156186104Y-71207276D02*
X156224200Y-71245371D01*
X156224200Y-71245371D02*
X156262295Y-71321562D01*
X156262295Y-71321562D02*
X156262295Y-71550133D01*
X156262295Y-71550133D02*
X156224200Y-71626324D01*
X156224200Y-71626324D02*
X156186104Y-71664419D01*
X155538485Y-70864419D02*
X155500390Y-70826323D01*
X155500390Y-70826323D02*
X155462295Y-70750133D01*
X155462295Y-70750133D02*
X155462295Y-70559657D01*
X155462295Y-70559657D02*
X155500390Y-70483466D01*
X155500390Y-70483466D02*
X155538485Y-70445371D01*
X155538485Y-70445371D02*
X155614676Y-70407276D01*
X155614676Y-70407276D02*
X155690866Y-70407276D01*
X155690866Y-70407276D02*
X155805152Y-70445371D01*
X155805152Y-70445371D02*
X156262295Y-70902514D01*
X156262295Y-70902514D02*
X156262295Y-70407276D01*
X155106104Y-69314285D02*
X155144200Y-69352381D01*
X155144200Y-69352381D02*
X155182295Y-69466666D01*
X155182295Y-69466666D02*
X155182295Y-69542857D01*
X155182295Y-69542857D02*
X155144200Y-69657143D01*
X155144200Y-69657143D02*
X155068009Y-69733333D01*
X155068009Y-69733333D02*
X154991819Y-69771428D01*
X154991819Y-69771428D02*
X154839438Y-69809524D01*
X154839438Y-69809524D02*
X154725152Y-69809524D01*
X154725152Y-69809524D02*
X154572771Y-69771428D01*
X154572771Y-69771428D02*
X154496580Y-69733333D01*
X154496580Y-69733333D02*
X154420390Y-69657143D01*
X154420390Y-69657143D02*
X154382295Y-69542857D01*
X154382295Y-69542857D02*
X154382295Y-69466666D01*
X154382295Y-69466666D02*
X154420390Y-69352381D01*
X154420390Y-69352381D02*
X154458485Y-69314285D01*
X154382295Y-69047619D02*
X154382295Y-68552381D01*
X154382295Y-68552381D02*
X154687057Y-68819047D01*
X154687057Y-68819047D02*
X154687057Y-68704762D01*
X154687057Y-68704762D02*
X154725152Y-68628571D01*
X154725152Y-68628571D02*
X154763247Y-68590476D01*
X154763247Y-68590476D02*
X154839438Y-68552381D01*
X154839438Y-68552381D02*
X155029914Y-68552381D01*
X155029914Y-68552381D02*
X155106104Y-68590476D01*
X155106104Y-68590476D02*
X155144200Y-68628571D01*
X155144200Y-68628571D02*
X155182295Y-68704762D01*
X155182295Y-68704762D02*
X155182295Y-68933333D01*
X155182295Y-68933333D02*
X155144200Y-69009524D01*
X155144200Y-69009524D02*
X155106104Y-69047619D01*
X155182295Y-68171428D02*
X155182295Y-68019047D01*
X155182295Y-68019047D02*
X155144200Y-67942857D01*
X155144200Y-67942857D02*
X155106104Y-67904761D01*
X155106104Y-67904761D02*
X154991819Y-67828571D01*
X154991819Y-67828571D02*
X154839438Y-67790476D01*
X154839438Y-67790476D02*
X154534676Y-67790476D01*
X154534676Y-67790476D02*
X154458485Y-67828571D01*
X154458485Y-67828571D02*
X154420390Y-67866666D01*
X154420390Y-67866666D02*
X154382295Y-67942857D01*
X154382295Y-67942857D02*
X154382295Y-68095238D01*
X154382295Y-68095238D02*
X154420390Y-68171428D01*
X154420390Y-68171428D02*
X154458485Y-68209523D01*
X154458485Y-68209523D02*
X154534676Y-68247619D01*
X154534676Y-68247619D02*
X154725152Y-68247619D01*
X154725152Y-68247619D02*
X154801342Y-68209523D01*
X154801342Y-68209523D02*
X154839438Y-68171428D01*
X154839438Y-68171428D02*
X154877533Y-68095238D01*
X154877533Y-68095238D02*
X154877533Y-67942857D01*
X154877533Y-67942857D02*
X154839438Y-67866666D01*
X154839438Y-67866666D02*
X154801342Y-67828571D01*
X154801342Y-67828571D02*
X154725152Y-67790476D01*
X155962295Y-39014285D02*
X155581342Y-39280952D01*
X155962295Y-39471428D02*
X155162295Y-39471428D01*
X155162295Y-39471428D02*
X155162295Y-39166666D01*
X155162295Y-39166666D02*
X155200390Y-39090476D01*
X155200390Y-39090476D02*
X155238485Y-39052381D01*
X155238485Y-39052381D02*
X155314676Y-39014285D01*
X155314676Y-39014285D02*
X155428961Y-39014285D01*
X155428961Y-39014285D02*
X155505152Y-39052381D01*
X155505152Y-39052381D02*
X155543247Y-39090476D01*
X155543247Y-39090476D02*
X155581342Y-39166666D01*
X155581342Y-39166666D02*
X155581342Y-39471428D01*
X155962295Y-38252381D02*
X155962295Y-38709524D01*
X155962295Y-38480952D02*
X155162295Y-38480952D01*
X155162295Y-38480952D02*
X155276580Y-38557143D01*
X155276580Y-38557143D02*
X155352771Y-38633333D01*
X155352771Y-38633333D02*
X155390866Y-38709524D01*
X155238485Y-37947619D02*
X155200390Y-37909523D01*
X155200390Y-37909523D02*
X155162295Y-37833333D01*
X155162295Y-37833333D02*
X155162295Y-37642857D01*
X155162295Y-37642857D02*
X155200390Y-37566666D01*
X155200390Y-37566666D02*
X155238485Y-37528571D01*
X155238485Y-37528571D02*
X155314676Y-37490476D01*
X155314676Y-37490476D02*
X155390866Y-37490476D01*
X155390866Y-37490476D02*
X155505152Y-37528571D01*
X155505152Y-37528571D02*
X155962295Y-37985714D01*
X155962295Y-37985714D02*
X155962295Y-37490476D01*
X176466667Y-72586104D02*
X176428571Y-72624200D01*
X176428571Y-72624200D02*
X176314286Y-72662295D01*
X176314286Y-72662295D02*
X176238095Y-72662295D01*
X176238095Y-72662295D02*
X176123809Y-72624200D01*
X176123809Y-72624200D02*
X176047619Y-72548009D01*
X176047619Y-72548009D02*
X176009524Y-72471819D01*
X176009524Y-72471819D02*
X175971428Y-72319438D01*
X175971428Y-72319438D02*
X175971428Y-72205152D01*
X175971428Y-72205152D02*
X176009524Y-72052771D01*
X176009524Y-72052771D02*
X176047619Y-71976580D01*
X176047619Y-71976580D02*
X176123809Y-71900390D01*
X176123809Y-71900390D02*
X176238095Y-71862295D01*
X176238095Y-71862295D02*
X176314286Y-71862295D01*
X176314286Y-71862295D02*
X176428571Y-71900390D01*
X176428571Y-71900390D02*
X176466667Y-71938485D01*
X177190476Y-71862295D02*
X176809524Y-71862295D01*
X176809524Y-71862295D02*
X176771428Y-72243247D01*
X176771428Y-72243247D02*
X176809524Y-72205152D01*
X176809524Y-72205152D02*
X176885714Y-72167057D01*
X176885714Y-72167057D02*
X177076190Y-72167057D01*
X177076190Y-72167057D02*
X177152381Y-72205152D01*
X177152381Y-72205152D02*
X177190476Y-72243247D01*
X177190476Y-72243247D02*
X177228571Y-72319438D01*
X177228571Y-72319438D02*
X177228571Y-72509914D01*
X177228571Y-72509914D02*
X177190476Y-72586104D01*
X177190476Y-72586104D02*
X177152381Y-72624200D01*
X177152381Y-72624200D02*
X177076190Y-72662295D01*
X177076190Y-72662295D02*
X176885714Y-72662295D01*
X176885714Y-72662295D02*
X176809524Y-72624200D01*
X176809524Y-72624200D02*
X176771428Y-72586104D01*
X170685714Y-66625965D02*
X170419047Y-66245012D01*
X170228571Y-66625965D02*
X170228571Y-65825965D01*
X170228571Y-65825965D02*
X170533333Y-65825965D01*
X170533333Y-65825965D02*
X170609523Y-65864060D01*
X170609523Y-65864060D02*
X170647618Y-65902155D01*
X170647618Y-65902155D02*
X170685714Y-65978346D01*
X170685714Y-65978346D02*
X170685714Y-66092631D01*
X170685714Y-66092631D02*
X170647618Y-66168822D01*
X170647618Y-66168822D02*
X170609523Y-66206917D01*
X170609523Y-66206917D02*
X170533333Y-66245012D01*
X170533333Y-66245012D02*
X170228571Y-66245012D01*
X170990475Y-65902155D02*
X171028571Y-65864060D01*
X171028571Y-65864060D02*
X171104761Y-65825965D01*
X171104761Y-65825965D02*
X171295237Y-65825965D01*
X171295237Y-65825965D02*
X171371428Y-65864060D01*
X171371428Y-65864060D02*
X171409523Y-65902155D01*
X171409523Y-65902155D02*
X171447618Y-65978346D01*
X171447618Y-65978346D02*
X171447618Y-66054536D01*
X171447618Y-66054536D02*
X171409523Y-66168822D01*
X171409523Y-66168822D02*
X170952380Y-66625965D01*
X170952380Y-66625965D02*
X171447618Y-66625965D01*
X171752380Y-65902155D02*
X171790476Y-65864060D01*
X171790476Y-65864060D02*
X171866666Y-65825965D01*
X171866666Y-65825965D02*
X172057142Y-65825965D01*
X172057142Y-65825965D02*
X172133333Y-65864060D01*
X172133333Y-65864060D02*
X172171428Y-65902155D01*
X172171428Y-65902155D02*
X172209523Y-65978346D01*
X172209523Y-65978346D02*
X172209523Y-66054536D01*
X172209523Y-66054536D02*
X172171428Y-66168822D01*
X172171428Y-66168822D02*
X171714285Y-66625965D01*
X171714285Y-66625965D02*
X172209523Y-66625965D01*
X171762295Y-70790475D02*
X170962295Y-70790475D01*
X170962295Y-70790475D02*
X170962295Y-70599999D01*
X170962295Y-70599999D02*
X171000390Y-70485713D01*
X171000390Y-70485713D02*
X171076580Y-70409523D01*
X171076580Y-70409523D02*
X171152771Y-70371428D01*
X171152771Y-70371428D02*
X171305152Y-70333332D01*
X171305152Y-70333332D02*
X171419438Y-70333332D01*
X171419438Y-70333332D02*
X171571819Y-70371428D01*
X171571819Y-70371428D02*
X171648009Y-70409523D01*
X171648009Y-70409523D02*
X171724200Y-70485713D01*
X171724200Y-70485713D02*
X171762295Y-70599999D01*
X171762295Y-70599999D02*
X171762295Y-70790475D01*
X170962295Y-69609523D02*
X170962295Y-69990475D01*
X170962295Y-69990475D02*
X171343247Y-70028571D01*
X171343247Y-70028571D02*
X171305152Y-69990475D01*
X171305152Y-69990475D02*
X171267057Y-69914285D01*
X171267057Y-69914285D02*
X171267057Y-69723809D01*
X171267057Y-69723809D02*
X171305152Y-69647618D01*
X171305152Y-69647618D02*
X171343247Y-69609523D01*
X171343247Y-69609523D02*
X171419438Y-69571428D01*
X171419438Y-69571428D02*
X171609914Y-69571428D01*
X171609914Y-69571428D02*
X171686104Y-69609523D01*
X171686104Y-69609523D02*
X171724200Y-69647618D01*
X171724200Y-69647618D02*
X171762295Y-69723809D01*
X171762295Y-69723809D02*
X171762295Y-69914285D01*
X171762295Y-69914285D02*
X171724200Y-69990475D01*
X171724200Y-69990475D02*
X171686104Y-70028571D01*
X181243780Y-56362295D02*
X180977113Y-55981342D01*
X180786637Y-56362295D02*
X180786637Y-55562295D01*
X180786637Y-55562295D02*
X181091399Y-55562295D01*
X181091399Y-55562295D02*
X181167589Y-55600390D01*
X181167589Y-55600390D02*
X181205684Y-55638485D01*
X181205684Y-55638485D02*
X181243780Y-55714676D01*
X181243780Y-55714676D02*
X181243780Y-55828961D01*
X181243780Y-55828961D02*
X181205684Y-55905152D01*
X181205684Y-55905152D02*
X181167589Y-55943247D01*
X181167589Y-55943247D02*
X181091399Y-55981342D01*
X181091399Y-55981342D02*
X180786637Y-55981342D01*
X181510446Y-55562295D02*
X182005684Y-55562295D01*
X182005684Y-55562295D02*
X181739018Y-55867057D01*
X181739018Y-55867057D02*
X181853303Y-55867057D01*
X181853303Y-55867057D02*
X181929494Y-55905152D01*
X181929494Y-55905152D02*
X181967589Y-55943247D01*
X181967589Y-55943247D02*
X182005684Y-56019438D01*
X182005684Y-56019438D02*
X182005684Y-56209914D01*
X182005684Y-56209914D02*
X181967589Y-56286104D01*
X181967589Y-56286104D02*
X181929494Y-56324200D01*
X181929494Y-56324200D02*
X181853303Y-56362295D01*
X181853303Y-56362295D02*
X181624732Y-56362295D01*
X181624732Y-56362295D02*
X181548541Y-56324200D01*
X181548541Y-56324200D02*
X181510446Y-56286104D01*
X182272351Y-55562295D02*
X182767589Y-55562295D01*
X182767589Y-55562295D02*
X182500923Y-55867057D01*
X182500923Y-55867057D02*
X182615208Y-55867057D01*
X182615208Y-55867057D02*
X182691399Y-55905152D01*
X182691399Y-55905152D02*
X182729494Y-55943247D01*
X182729494Y-55943247D02*
X182767589Y-56019438D01*
X182767589Y-56019438D02*
X182767589Y-56209914D01*
X182767589Y-56209914D02*
X182729494Y-56286104D01*
X182729494Y-56286104D02*
X182691399Y-56324200D01*
X182691399Y-56324200D02*
X182615208Y-56362295D01*
X182615208Y-56362295D02*
X182386637Y-56362295D01*
X182386637Y-56362295D02*
X182310446Y-56324200D01*
X182310446Y-56324200D02*
X182272351Y-56286104D01*
X155085714Y-59686104D02*
X155047618Y-59724200D01*
X155047618Y-59724200D02*
X154933333Y-59762295D01*
X154933333Y-59762295D02*
X154857142Y-59762295D01*
X154857142Y-59762295D02*
X154742856Y-59724200D01*
X154742856Y-59724200D02*
X154666666Y-59648009D01*
X154666666Y-59648009D02*
X154628571Y-59571819D01*
X154628571Y-59571819D02*
X154590475Y-59419438D01*
X154590475Y-59419438D02*
X154590475Y-59305152D01*
X154590475Y-59305152D02*
X154628571Y-59152771D01*
X154628571Y-59152771D02*
X154666666Y-59076580D01*
X154666666Y-59076580D02*
X154742856Y-59000390D01*
X154742856Y-59000390D02*
X154857142Y-58962295D01*
X154857142Y-58962295D02*
X154933333Y-58962295D01*
X154933333Y-58962295D02*
X155047618Y-59000390D01*
X155047618Y-59000390D02*
X155085714Y-59038485D01*
X155352380Y-58962295D02*
X155847618Y-58962295D01*
X155847618Y-58962295D02*
X155580952Y-59267057D01*
X155580952Y-59267057D02*
X155695237Y-59267057D01*
X155695237Y-59267057D02*
X155771428Y-59305152D01*
X155771428Y-59305152D02*
X155809523Y-59343247D01*
X155809523Y-59343247D02*
X155847618Y-59419438D01*
X155847618Y-59419438D02*
X155847618Y-59609914D01*
X155847618Y-59609914D02*
X155809523Y-59686104D01*
X155809523Y-59686104D02*
X155771428Y-59724200D01*
X155771428Y-59724200D02*
X155695237Y-59762295D01*
X155695237Y-59762295D02*
X155466666Y-59762295D01*
X155466666Y-59762295D02*
X155390475Y-59724200D01*
X155390475Y-59724200D02*
X155352380Y-59686104D01*
X156571428Y-58962295D02*
X156190476Y-58962295D01*
X156190476Y-58962295D02*
X156152380Y-59343247D01*
X156152380Y-59343247D02*
X156190476Y-59305152D01*
X156190476Y-59305152D02*
X156266666Y-59267057D01*
X156266666Y-59267057D02*
X156457142Y-59267057D01*
X156457142Y-59267057D02*
X156533333Y-59305152D01*
X156533333Y-59305152D02*
X156571428Y-59343247D01*
X156571428Y-59343247D02*
X156609523Y-59419438D01*
X156609523Y-59419438D02*
X156609523Y-59609914D01*
X156609523Y-59609914D02*
X156571428Y-59686104D01*
X156571428Y-59686104D02*
X156533333Y-59724200D01*
X156533333Y-59724200D02*
X156457142Y-59762295D01*
X156457142Y-59762295D02*
X156266666Y-59762295D01*
X156266666Y-59762295D02*
X156190476Y-59724200D01*
X156190476Y-59724200D02*
X156152380Y-59686104D01*
X165433333Y-74143247D02*
X165166667Y-74143247D01*
X165166667Y-74562295D02*
X165166667Y-73762295D01*
X165166667Y-73762295D02*
X165547619Y-73762295D01*
X166119047Y-74143247D02*
X166233333Y-74181342D01*
X166233333Y-74181342D02*
X166271428Y-74219438D01*
X166271428Y-74219438D02*
X166309524Y-74295628D01*
X166309524Y-74295628D02*
X166309524Y-74409914D01*
X166309524Y-74409914D02*
X166271428Y-74486104D01*
X166271428Y-74486104D02*
X166233333Y-74524200D01*
X166233333Y-74524200D02*
X166157143Y-74562295D01*
X166157143Y-74562295D02*
X165852381Y-74562295D01*
X165852381Y-74562295D02*
X165852381Y-73762295D01*
X165852381Y-73762295D02*
X166119047Y-73762295D01*
X166119047Y-73762295D02*
X166195238Y-73800390D01*
X166195238Y-73800390D02*
X166233333Y-73838485D01*
X166233333Y-73838485D02*
X166271428Y-73914676D01*
X166271428Y-73914676D02*
X166271428Y-73990866D01*
X166271428Y-73990866D02*
X166233333Y-74067057D01*
X166233333Y-74067057D02*
X166195238Y-74105152D01*
X166195238Y-74105152D02*
X166119047Y-74143247D01*
X166119047Y-74143247D02*
X165852381Y-74143247D01*
X166614285Y-73838485D02*
X166652381Y-73800390D01*
X166652381Y-73800390D02*
X166728571Y-73762295D01*
X166728571Y-73762295D02*
X166919047Y-73762295D01*
X166919047Y-73762295D02*
X166995238Y-73800390D01*
X166995238Y-73800390D02*
X167033333Y-73838485D01*
X167033333Y-73838485D02*
X167071428Y-73914676D01*
X167071428Y-73914676D02*
X167071428Y-73990866D01*
X167071428Y-73990866D02*
X167033333Y-74105152D01*
X167033333Y-74105152D02*
X166576190Y-74562295D01*
X166576190Y-74562295D02*
X167071428Y-74562295D01*
X176766667Y-83462295D02*
X176500000Y-83081342D01*
X176309524Y-83462295D02*
X176309524Y-82662295D01*
X176309524Y-82662295D02*
X176614286Y-82662295D01*
X176614286Y-82662295D02*
X176690476Y-82700390D01*
X176690476Y-82700390D02*
X176728571Y-82738485D01*
X176728571Y-82738485D02*
X176766667Y-82814676D01*
X176766667Y-82814676D02*
X176766667Y-82928961D01*
X176766667Y-82928961D02*
X176728571Y-83005152D01*
X176728571Y-83005152D02*
X176690476Y-83043247D01*
X176690476Y-83043247D02*
X176614286Y-83081342D01*
X176614286Y-83081342D02*
X176309524Y-83081342D01*
X177452381Y-82662295D02*
X177300000Y-82662295D01*
X177300000Y-82662295D02*
X177223809Y-82700390D01*
X177223809Y-82700390D02*
X177185714Y-82738485D01*
X177185714Y-82738485D02*
X177109524Y-82852771D01*
X177109524Y-82852771D02*
X177071428Y-83005152D01*
X177071428Y-83005152D02*
X177071428Y-83309914D01*
X177071428Y-83309914D02*
X177109524Y-83386104D01*
X177109524Y-83386104D02*
X177147619Y-83424200D01*
X177147619Y-83424200D02*
X177223809Y-83462295D01*
X177223809Y-83462295D02*
X177376190Y-83462295D01*
X177376190Y-83462295D02*
X177452381Y-83424200D01*
X177452381Y-83424200D02*
X177490476Y-83386104D01*
X177490476Y-83386104D02*
X177528571Y-83309914D01*
X177528571Y-83309914D02*
X177528571Y-83119438D01*
X177528571Y-83119438D02*
X177490476Y-83043247D01*
X177490476Y-83043247D02*
X177452381Y-83005152D01*
X177452381Y-83005152D02*
X177376190Y-82967057D01*
X177376190Y-82967057D02*
X177223809Y-82967057D01*
X177223809Y-82967057D02*
X177147619Y-83005152D01*
X177147619Y-83005152D02*
X177109524Y-83043247D01*
X177109524Y-83043247D02*
X177071428Y-83119438D01*
X166062295Y-78114285D02*
X165681342Y-78380952D01*
X166062295Y-78571428D02*
X165262295Y-78571428D01*
X165262295Y-78571428D02*
X165262295Y-78266666D01*
X165262295Y-78266666D02*
X165300390Y-78190476D01*
X165300390Y-78190476D02*
X165338485Y-78152381D01*
X165338485Y-78152381D02*
X165414676Y-78114285D01*
X165414676Y-78114285D02*
X165528961Y-78114285D01*
X165528961Y-78114285D02*
X165605152Y-78152381D01*
X165605152Y-78152381D02*
X165643247Y-78190476D01*
X165643247Y-78190476D02*
X165681342Y-78266666D01*
X165681342Y-78266666D02*
X165681342Y-78571428D01*
X165338485Y-77809524D02*
X165300390Y-77771428D01*
X165300390Y-77771428D02*
X165262295Y-77695238D01*
X165262295Y-77695238D02*
X165262295Y-77504762D01*
X165262295Y-77504762D02*
X165300390Y-77428571D01*
X165300390Y-77428571D02*
X165338485Y-77390476D01*
X165338485Y-77390476D02*
X165414676Y-77352381D01*
X165414676Y-77352381D02*
X165490866Y-77352381D01*
X165490866Y-77352381D02*
X165605152Y-77390476D01*
X165605152Y-77390476D02*
X166062295Y-77847619D01*
X166062295Y-77847619D02*
X166062295Y-77352381D01*
X165262295Y-77085714D02*
X165262295Y-76552380D01*
X165262295Y-76552380D02*
X166062295Y-76895238D01*
X171505704Y-76668332D02*
X171543800Y-76706428D01*
X171543800Y-76706428D02*
X171581895Y-76820713D01*
X171581895Y-76820713D02*
X171581895Y-76896904D01*
X171581895Y-76896904D02*
X171543800Y-77011190D01*
X171543800Y-77011190D02*
X171467609Y-77087380D01*
X171467609Y-77087380D02*
X171391419Y-77125475D01*
X171391419Y-77125475D02*
X171239038Y-77163571D01*
X171239038Y-77163571D02*
X171124752Y-77163571D01*
X171124752Y-77163571D02*
X170972371Y-77125475D01*
X170972371Y-77125475D02*
X170896180Y-77087380D01*
X170896180Y-77087380D02*
X170819990Y-77011190D01*
X170819990Y-77011190D02*
X170781895Y-76896904D01*
X170781895Y-76896904D02*
X170781895Y-76820713D01*
X170781895Y-76820713D02*
X170819990Y-76706428D01*
X170819990Y-76706428D02*
X170858085Y-76668332D01*
X171581895Y-75906428D02*
X171581895Y-76363571D01*
X171581895Y-76134999D02*
X170781895Y-76134999D01*
X170781895Y-76134999D02*
X170896180Y-76211190D01*
X170896180Y-76211190D02*
X170972371Y-76287380D01*
X170972371Y-76287380D02*
X171010466Y-76363571D01*
X168262295Y-69771428D02*
X167462295Y-69771428D01*
X167462295Y-69771428D02*
X167462295Y-69580952D01*
X167462295Y-69580952D02*
X167500390Y-69466666D01*
X167500390Y-69466666D02*
X167576580Y-69390476D01*
X167576580Y-69390476D02*
X167652771Y-69352381D01*
X167652771Y-69352381D02*
X167805152Y-69314285D01*
X167805152Y-69314285D02*
X167919438Y-69314285D01*
X167919438Y-69314285D02*
X168071819Y-69352381D01*
X168071819Y-69352381D02*
X168148009Y-69390476D01*
X168148009Y-69390476D02*
X168224200Y-69466666D01*
X168224200Y-69466666D02*
X168262295Y-69580952D01*
X168262295Y-69580952D02*
X168262295Y-69771428D01*
X168262295Y-68552381D02*
X168262295Y-69009524D01*
X168262295Y-68780952D02*
X167462295Y-68780952D01*
X167462295Y-68780952D02*
X167576580Y-68857143D01*
X167576580Y-68857143D02*
X167652771Y-68933333D01*
X167652771Y-68933333D02*
X167690866Y-69009524D01*
X167462295Y-68285714D02*
X167462295Y-67790476D01*
X167462295Y-67790476D02*
X167767057Y-68057142D01*
X167767057Y-68057142D02*
X167767057Y-67942857D01*
X167767057Y-67942857D02*
X167805152Y-67866666D01*
X167805152Y-67866666D02*
X167843247Y-67828571D01*
X167843247Y-67828571D02*
X167919438Y-67790476D01*
X167919438Y-67790476D02*
X168109914Y-67790476D01*
X168109914Y-67790476D02*
X168186104Y-67828571D01*
X168186104Y-67828571D02*
X168224200Y-67866666D01*
X168224200Y-67866666D02*
X168262295Y-67942857D01*
X168262295Y-67942857D02*
X168262295Y-68171428D01*
X168262295Y-68171428D02*
X168224200Y-68247619D01*
X168224200Y-68247619D02*
X168186104Y-68285714D01*
X160885714Y-77566104D02*
X160847618Y-77604200D01*
X160847618Y-77604200D02*
X160733333Y-77642295D01*
X160733333Y-77642295D02*
X160657142Y-77642295D01*
X160657142Y-77642295D02*
X160542856Y-77604200D01*
X160542856Y-77604200D02*
X160466666Y-77528009D01*
X160466666Y-77528009D02*
X160428571Y-77451819D01*
X160428571Y-77451819D02*
X160390475Y-77299438D01*
X160390475Y-77299438D02*
X160390475Y-77185152D01*
X160390475Y-77185152D02*
X160428571Y-77032771D01*
X160428571Y-77032771D02*
X160466666Y-76956580D01*
X160466666Y-76956580D02*
X160542856Y-76880390D01*
X160542856Y-76880390D02*
X160657142Y-76842295D01*
X160657142Y-76842295D02*
X160733333Y-76842295D01*
X160733333Y-76842295D02*
X160847618Y-76880390D01*
X160847618Y-76880390D02*
X160885714Y-76918485D01*
X161190475Y-76918485D02*
X161228571Y-76880390D01*
X161228571Y-76880390D02*
X161304761Y-76842295D01*
X161304761Y-76842295D02*
X161495237Y-76842295D01*
X161495237Y-76842295D02*
X161571428Y-76880390D01*
X161571428Y-76880390D02*
X161609523Y-76918485D01*
X161609523Y-76918485D02*
X161647618Y-76994676D01*
X161647618Y-76994676D02*
X161647618Y-77070866D01*
X161647618Y-77070866D02*
X161609523Y-77185152D01*
X161609523Y-77185152D02*
X161152380Y-77642295D01*
X161152380Y-77642295D02*
X161647618Y-77642295D01*
X162028571Y-77642295D02*
X162180952Y-77642295D01*
X162180952Y-77642295D02*
X162257142Y-77604200D01*
X162257142Y-77604200D02*
X162295238Y-77566104D01*
X162295238Y-77566104D02*
X162371428Y-77451819D01*
X162371428Y-77451819D02*
X162409523Y-77299438D01*
X162409523Y-77299438D02*
X162409523Y-76994676D01*
X162409523Y-76994676D02*
X162371428Y-76918485D01*
X162371428Y-76918485D02*
X162333333Y-76880390D01*
X162333333Y-76880390D02*
X162257142Y-76842295D01*
X162257142Y-76842295D02*
X162104761Y-76842295D01*
X162104761Y-76842295D02*
X162028571Y-76880390D01*
X162028571Y-76880390D02*
X161990476Y-76918485D01*
X161990476Y-76918485D02*
X161952380Y-76994676D01*
X161952380Y-76994676D02*
X161952380Y-77185152D01*
X161952380Y-77185152D02*
X161990476Y-77261342D01*
X161990476Y-77261342D02*
X162028571Y-77299438D01*
X162028571Y-77299438D02*
X162104761Y-77337533D01*
X162104761Y-77337533D02*
X162257142Y-77337533D01*
X162257142Y-77337533D02*
X162333333Y-77299438D01*
X162333333Y-77299438D02*
X162371428Y-77261342D01*
X162371428Y-77261342D02*
X162409523Y-77185152D01*
X175462295Y-81833332D02*
X175081342Y-82099999D01*
X175462295Y-82290475D02*
X174662295Y-82290475D01*
X174662295Y-82290475D02*
X174662295Y-81985713D01*
X174662295Y-81985713D02*
X174700390Y-81909523D01*
X174700390Y-81909523D02*
X174738485Y-81871428D01*
X174738485Y-81871428D02*
X174814676Y-81833332D01*
X174814676Y-81833332D02*
X174928961Y-81833332D01*
X174928961Y-81833332D02*
X175005152Y-81871428D01*
X175005152Y-81871428D02*
X175043247Y-81909523D01*
X175043247Y-81909523D02*
X175081342Y-81985713D01*
X175081342Y-81985713D02*
X175081342Y-82290475D01*
X174662295Y-81566666D02*
X174662295Y-81071428D01*
X174662295Y-81071428D02*
X174967057Y-81338094D01*
X174967057Y-81338094D02*
X174967057Y-81223809D01*
X174967057Y-81223809D02*
X175005152Y-81147618D01*
X175005152Y-81147618D02*
X175043247Y-81109523D01*
X175043247Y-81109523D02*
X175119438Y-81071428D01*
X175119438Y-81071428D02*
X175309914Y-81071428D01*
X175309914Y-81071428D02*
X175386104Y-81109523D01*
X175386104Y-81109523D02*
X175424200Y-81147618D01*
X175424200Y-81147618D02*
X175462295Y-81223809D01*
X175462295Y-81223809D02*
X175462295Y-81452380D01*
X175462295Y-81452380D02*
X175424200Y-81528571D01*
X175424200Y-81528571D02*
X175386104Y-81566666D01*
X161386104Y-83514285D02*
X161424200Y-83552381D01*
X161424200Y-83552381D02*
X161462295Y-83666666D01*
X161462295Y-83666666D02*
X161462295Y-83742857D01*
X161462295Y-83742857D02*
X161424200Y-83857143D01*
X161424200Y-83857143D02*
X161348009Y-83933333D01*
X161348009Y-83933333D02*
X161271819Y-83971428D01*
X161271819Y-83971428D02*
X161119438Y-84009524D01*
X161119438Y-84009524D02*
X161005152Y-84009524D01*
X161005152Y-84009524D02*
X160852771Y-83971428D01*
X160852771Y-83971428D02*
X160776580Y-83933333D01*
X160776580Y-83933333D02*
X160700390Y-83857143D01*
X160700390Y-83857143D02*
X160662295Y-83742857D01*
X160662295Y-83742857D02*
X160662295Y-83666666D01*
X160662295Y-83666666D02*
X160700390Y-83552381D01*
X160700390Y-83552381D02*
X160738485Y-83514285D01*
X161462295Y-82752381D02*
X161462295Y-83209524D01*
X161462295Y-82980952D02*
X160662295Y-82980952D01*
X160662295Y-82980952D02*
X160776580Y-83057143D01*
X160776580Y-83057143D02*
X160852771Y-83133333D01*
X160852771Y-83133333D02*
X160890866Y-83209524D01*
X160662295Y-82257142D02*
X160662295Y-82180952D01*
X160662295Y-82180952D02*
X160700390Y-82104761D01*
X160700390Y-82104761D02*
X160738485Y-82066666D01*
X160738485Y-82066666D02*
X160814676Y-82028571D01*
X160814676Y-82028571D02*
X160967057Y-81990476D01*
X160967057Y-81990476D02*
X161157533Y-81990476D01*
X161157533Y-81990476D02*
X161309914Y-82028571D01*
X161309914Y-82028571D02*
X161386104Y-82066666D01*
X161386104Y-82066666D02*
X161424200Y-82104761D01*
X161424200Y-82104761D02*
X161462295Y-82180952D01*
X161462295Y-82180952D02*
X161462295Y-82257142D01*
X161462295Y-82257142D02*
X161424200Y-82333333D01*
X161424200Y-82333333D02*
X161386104Y-82371428D01*
X161386104Y-82371428D02*
X161309914Y-82409523D01*
X161309914Y-82409523D02*
X161157533Y-82447619D01*
X161157533Y-82447619D02*
X160967057Y-82447619D01*
X160967057Y-82447619D02*
X160814676Y-82409523D01*
X160814676Y-82409523D02*
X160738485Y-82371428D01*
X160738485Y-82371428D02*
X160700390Y-82333333D01*
X160700390Y-82333333D02*
X160662295Y-82257142D01*
X157790476Y-67962295D02*
X157790476Y-68609914D01*
X157790476Y-68609914D02*
X157828571Y-68686104D01*
X157828571Y-68686104D02*
X157866666Y-68724200D01*
X157866666Y-68724200D02*
X157942857Y-68762295D01*
X157942857Y-68762295D02*
X158095238Y-68762295D01*
X158095238Y-68762295D02*
X158171428Y-68724200D01*
X158171428Y-68724200D02*
X158209523Y-68686104D01*
X158209523Y-68686104D02*
X158247619Y-68609914D01*
X158247619Y-68609914D02*
X158247619Y-67962295D01*
X158552380Y-67962295D02*
X159085714Y-67962295D01*
X159085714Y-67962295D02*
X158742856Y-68762295D01*
X158285714Y-57986104D02*
X158247618Y-58024200D01*
X158247618Y-58024200D02*
X158133333Y-58062295D01*
X158133333Y-58062295D02*
X158057142Y-58062295D01*
X158057142Y-58062295D02*
X157942856Y-58024200D01*
X157942856Y-58024200D02*
X157866666Y-57948009D01*
X157866666Y-57948009D02*
X157828571Y-57871819D01*
X157828571Y-57871819D02*
X157790475Y-57719438D01*
X157790475Y-57719438D02*
X157790475Y-57605152D01*
X157790475Y-57605152D02*
X157828571Y-57452771D01*
X157828571Y-57452771D02*
X157866666Y-57376580D01*
X157866666Y-57376580D02*
X157942856Y-57300390D01*
X157942856Y-57300390D02*
X158057142Y-57262295D01*
X158057142Y-57262295D02*
X158133333Y-57262295D01*
X158133333Y-57262295D02*
X158247618Y-57300390D01*
X158247618Y-57300390D02*
X158285714Y-57338485D01*
X158590475Y-57338485D02*
X158628571Y-57300390D01*
X158628571Y-57300390D02*
X158704761Y-57262295D01*
X158704761Y-57262295D02*
X158895237Y-57262295D01*
X158895237Y-57262295D02*
X158971428Y-57300390D01*
X158971428Y-57300390D02*
X159009523Y-57338485D01*
X159009523Y-57338485D02*
X159047618Y-57414676D01*
X159047618Y-57414676D02*
X159047618Y-57490866D01*
X159047618Y-57490866D02*
X159009523Y-57605152D01*
X159009523Y-57605152D02*
X158552380Y-58062295D01*
X158552380Y-58062295D02*
X159047618Y-58062295D01*
X159314285Y-57262295D02*
X159847619Y-57262295D01*
X159847619Y-57262295D02*
X159504761Y-58062295D01*
X170462295Y-75271428D02*
X169662295Y-75271428D01*
X169662295Y-75271428D02*
X169662295Y-75080952D01*
X169662295Y-75080952D02*
X169700390Y-74966666D01*
X169700390Y-74966666D02*
X169776580Y-74890476D01*
X169776580Y-74890476D02*
X169852771Y-74852381D01*
X169852771Y-74852381D02*
X170005152Y-74814285D01*
X170005152Y-74814285D02*
X170119438Y-74814285D01*
X170119438Y-74814285D02*
X170271819Y-74852381D01*
X170271819Y-74852381D02*
X170348009Y-74890476D01*
X170348009Y-74890476D02*
X170424200Y-74966666D01*
X170424200Y-74966666D02*
X170462295Y-75080952D01*
X170462295Y-75080952D02*
X170462295Y-75271428D01*
X170462295Y-74052381D02*
X170462295Y-74509524D01*
X170462295Y-74280952D02*
X169662295Y-74280952D01*
X169662295Y-74280952D02*
X169776580Y-74357143D01*
X169776580Y-74357143D02*
X169852771Y-74433333D01*
X169852771Y-74433333D02*
X169890866Y-74509524D01*
X169662295Y-73366666D02*
X169662295Y-73519047D01*
X169662295Y-73519047D02*
X169700390Y-73595238D01*
X169700390Y-73595238D02*
X169738485Y-73633333D01*
X169738485Y-73633333D02*
X169852771Y-73709523D01*
X169852771Y-73709523D02*
X170005152Y-73747619D01*
X170005152Y-73747619D02*
X170309914Y-73747619D01*
X170309914Y-73747619D02*
X170386104Y-73709523D01*
X170386104Y-73709523D02*
X170424200Y-73671428D01*
X170424200Y-73671428D02*
X170462295Y-73595238D01*
X170462295Y-73595238D02*
X170462295Y-73442857D01*
X170462295Y-73442857D02*
X170424200Y-73366666D01*
X170424200Y-73366666D02*
X170386104Y-73328571D01*
X170386104Y-73328571D02*
X170309914Y-73290476D01*
X170309914Y-73290476D02*
X170119438Y-73290476D01*
X170119438Y-73290476D02*
X170043247Y-73328571D01*
X170043247Y-73328571D02*
X170005152Y-73366666D01*
X170005152Y-73366666D02*
X169967057Y-73442857D01*
X169967057Y-73442857D02*
X169967057Y-73595238D01*
X169967057Y-73595238D02*
X170005152Y-73671428D01*
X170005152Y-73671428D02*
X170043247Y-73709523D01*
X170043247Y-73709523D02*
X170119438Y-73747619D01*
X154785714Y-63162295D02*
X154519047Y-62781342D01*
X154328571Y-63162295D02*
X154328571Y-62362295D01*
X154328571Y-62362295D02*
X154633333Y-62362295D01*
X154633333Y-62362295D02*
X154709523Y-62400390D01*
X154709523Y-62400390D02*
X154747618Y-62438485D01*
X154747618Y-62438485D02*
X154785714Y-62514676D01*
X154785714Y-62514676D02*
X154785714Y-62628961D01*
X154785714Y-62628961D02*
X154747618Y-62705152D01*
X154747618Y-62705152D02*
X154709523Y-62743247D01*
X154709523Y-62743247D02*
X154633333Y-62781342D01*
X154633333Y-62781342D02*
X154328571Y-62781342D01*
X155052380Y-62362295D02*
X155547618Y-62362295D01*
X155547618Y-62362295D02*
X155280952Y-62667057D01*
X155280952Y-62667057D02*
X155395237Y-62667057D01*
X155395237Y-62667057D02*
X155471428Y-62705152D01*
X155471428Y-62705152D02*
X155509523Y-62743247D01*
X155509523Y-62743247D02*
X155547618Y-62819438D01*
X155547618Y-62819438D02*
X155547618Y-63009914D01*
X155547618Y-63009914D02*
X155509523Y-63086104D01*
X155509523Y-63086104D02*
X155471428Y-63124200D01*
X155471428Y-63124200D02*
X155395237Y-63162295D01*
X155395237Y-63162295D02*
X155166666Y-63162295D01*
X155166666Y-63162295D02*
X155090475Y-63124200D01*
X155090475Y-63124200D02*
X155052380Y-63086104D01*
X156233333Y-62362295D02*
X156080952Y-62362295D01*
X156080952Y-62362295D02*
X156004761Y-62400390D01*
X156004761Y-62400390D02*
X155966666Y-62438485D01*
X155966666Y-62438485D02*
X155890476Y-62552771D01*
X155890476Y-62552771D02*
X155852380Y-62705152D01*
X155852380Y-62705152D02*
X155852380Y-63009914D01*
X155852380Y-63009914D02*
X155890476Y-63086104D01*
X155890476Y-63086104D02*
X155928571Y-63124200D01*
X155928571Y-63124200D02*
X156004761Y-63162295D01*
X156004761Y-63162295D02*
X156157142Y-63162295D01*
X156157142Y-63162295D02*
X156233333Y-63124200D01*
X156233333Y-63124200D02*
X156271428Y-63086104D01*
X156271428Y-63086104D02*
X156309523Y-63009914D01*
X156309523Y-63009914D02*
X156309523Y-62819438D01*
X156309523Y-62819438D02*
X156271428Y-62743247D01*
X156271428Y-62743247D02*
X156233333Y-62705152D01*
X156233333Y-62705152D02*
X156157142Y-62667057D01*
X156157142Y-62667057D02*
X156004761Y-62667057D01*
X156004761Y-62667057D02*
X155928571Y-62705152D01*
X155928571Y-62705152D02*
X155890476Y-62743247D01*
X155890476Y-62743247D02*
X155852380Y-62819438D01*
X163862295Y-78414285D02*
X163481342Y-78680952D01*
X163862295Y-78871428D02*
X163062295Y-78871428D01*
X163062295Y-78871428D02*
X163062295Y-78566666D01*
X163062295Y-78566666D02*
X163100390Y-78490476D01*
X163100390Y-78490476D02*
X163138485Y-78452381D01*
X163138485Y-78452381D02*
X163214676Y-78414285D01*
X163214676Y-78414285D02*
X163328961Y-78414285D01*
X163328961Y-78414285D02*
X163405152Y-78452381D01*
X163405152Y-78452381D02*
X163443247Y-78490476D01*
X163443247Y-78490476D02*
X163481342Y-78566666D01*
X163481342Y-78566666D02*
X163481342Y-78871428D01*
X163862295Y-77652381D02*
X163862295Y-78109524D01*
X163862295Y-77880952D02*
X163062295Y-77880952D01*
X163062295Y-77880952D02*
X163176580Y-77957143D01*
X163176580Y-77957143D02*
X163252771Y-78033333D01*
X163252771Y-78033333D02*
X163290866Y-78109524D01*
X163062295Y-77157142D02*
X163062295Y-77080952D01*
X163062295Y-77080952D02*
X163100390Y-77004761D01*
X163100390Y-77004761D02*
X163138485Y-76966666D01*
X163138485Y-76966666D02*
X163214676Y-76928571D01*
X163214676Y-76928571D02*
X163367057Y-76890476D01*
X163367057Y-76890476D02*
X163557533Y-76890476D01*
X163557533Y-76890476D02*
X163709914Y-76928571D01*
X163709914Y-76928571D02*
X163786104Y-76966666D01*
X163786104Y-76966666D02*
X163824200Y-77004761D01*
X163824200Y-77004761D02*
X163862295Y-77080952D01*
X163862295Y-77080952D02*
X163862295Y-77157142D01*
X163862295Y-77157142D02*
X163824200Y-77233333D01*
X163824200Y-77233333D02*
X163786104Y-77271428D01*
X163786104Y-77271428D02*
X163709914Y-77309523D01*
X163709914Y-77309523D02*
X163557533Y-77347619D01*
X163557533Y-77347619D02*
X163367057Y-77347619D01*
X163367057Y-77347619D02*
X163214676Y-77309523D01*
X163214676Y-77309523D02*
X163138485Y-77271428D01*
X163138485Y-77271428D02*
X163100390Y-77233333D01*
X163100390Y-77233333D02*
X163062295Y-77157142D01*
X183562295Y-51714285D02*
X183181342Y-51980952D01*
X183562295Y-52171428D02*
X182762295Y-52171428D01*
X182762295Y-52171428D02*
X182762295Y-51866666D01*
X182762295Y-51866666D02*
X182800390Y-51790476D01*
X182800390Y-51790476D02*
X182838485Y-51752381D01*
X182838485Y-51752381D02*
X182914676Y-51714285D01*
X182914676Y-51714285D02*
X183028961Y-51714285D01*
X183028961Y-51714285D02*
X183105152Y-51752381D01*
X183105152Y-51752381D02*
X183143247Y-51790476D01*
X183143247Y-51790476D02*
X183181342Y-51866666D01*
X183181342Y-51866666D02*
X183181342Y-52171428D01*
X182762295Y-51447619D02*
X182762295Y-50952381D01*
X182762295Y-50952381D02*
X183067057Y-51219047D01*
X183067057Y-51219047D02*
X183067057Y-51104762D01*
X183067057Y-51104762D02*
X183105152Y-51028571D01*
X183105152Y-51028571D02*
X183143247Y-50990476D01*
X183143247Y-50990476D02*
X183219438Y-50952381D01*
X183219438Y-50952381D02*
X183409914Y-50952381D01*
X183409914Y-50952381D02*
X183486104Y-50990476D01*
X183486104Y-50990476D02*
X183524200Y-51028571D01*
X183524200Y-51028571D02*
X183562295Y-51104762D01*
X183562295Y-51104762D02*
X183562295Y-51333333D01*
X183562295Y-51333333D02*
X183524200Y-51409524D01*
X183524200Y-51409524D02*
X183486104Y-51447619D01*
X183028961Y-50266666D02*
X183562295Y-50266666D01*
X182724200Y-50457142D02*
X183295628Y-50647619D01*
X183295628Y-50647619D02*
X183295628Y-50152380D01*
X165433333Y-69910047D02*
X165166667Y-69910047D01*
X165166667Y-70329095D02*
X165166667Y-69529095D01*
X165166667Y-69529095D02*
X165547619Y-69529095D01*
X166119047Y-69910047D02*
X166233333Y-69948142D01*
X166233333Y-69948142D02*
X166271428Y-69986238D01*
X166271428Y-69986238D02*
X166309524Y-70062428D01*
X166309524Y-70062428D02*
X166309524Y-70176714D01*
X166309524Y-70176714D02*
X166271428Y-70252904D01*
X166271428Y-70252904D02*
X166233333Y-70291000D01*
X166233333Y-70291000D02*
X166157143Y-70329095D01*
X166157143Y-70329095D02*
X165852381Y-70329095D01*
X165852381Y-70329095D02*
X165852381Y-69529095D01*
X165852381Y-69529095D02*
X166119047Y-69529095D01*
X166119047Y-69529095D02*
X166195238Y-69567190D01*
X166195238Y-69567190D02*
X166233333Y-69605285D01*
X166233333Y-69605285D02*
X166271428Y-69681476D01*
X166271428Y-69681476D02*
X166271428Y-69757666D01*
X166271428Y-69757666D02*
X166233333Y-69833857D01*
X166233333Y-69833857D02*
X166195238Y-69871952D01*
X166195238Y-69871952D02*
X166119047Y-69910047D01*
X166119047Y-69910047D02*
X165852381Y-69910047D01*
X167071428Y-70329095D02*
X166614285Y-70329095D01*
X166842857Y-70329095D02*
X166842857Y-69529095D01*
X166842857Y-69529095D02*
X166766666Y-69643380D01*
X166766666Y-69643380D02*
X166690476Y-69719571D01*
X166690476Y-69719571D02*
X166614285Y-69757666D01*
X171833333Y-73743247D02*
X171566667Y-73743247D01*
X171566667Y-74162295D02*
X171566667Y-73362295D01*
X171566667Y-73362295D02*
X171947619Y-73362295D01*
X172214285Y-73438485D02*
X172252381Y-73400390D01*
X172252381Y-73400390D02*
X172328571Y-73362295D01*
X172328571Y-73362295D02*
X172519047Y-73362295D01*
X172519047Y-73362295D02*
X172595238Y-73400390D01*
X172595238Y-73400390D02*
X172633333Y-73438485D01*
X172633333Y-73438485D02*
X172671428Y-73514676D01*
X172671428Y-73514676D02*
X172671428Y-73590866D01*
X172671428Y-73590866D02*
X172633333Y-73705152D01*
X172633333Y-73705152D02*
X172176190Y-74162295D01*
X172176190Y-74162295D02*
X172671428Y-74162295D01*
X166066667Y-89286104D02*
X166028571Y-89324200D01*
X166028571Y-89324200D02*
X165914286Y-89362295D01*
X165914286Y-89362295D02*
X165838095Y-89362295D01*
X165838095Y-89362295D02*
X165723809Y-89324200D01*
X165723809Y-89324200D02*
X165647619Y-89248009D01*
X165647619Y-89248009D02*
X165609524Y-89171819D01*
X165609524Y-89171819D02*
X165571428Y-89019438D01*
X165571428Y-89019438D02*
X165571428Y-88905152D01*
X165571428Y-88905152D02*
X165609524Y-88752771D01*
X165609524Y-88752771D02*
X165647619Y-88676580D01*
X165647619Y-88676580D02*
X165723809Y-88600390D01*
X165723809Y-88600390D02*
X165838095Y-88562295D01*
X165838095Y-88562295D02*
X165914286Y-88562295D01*
X165914286Y-88562295D02*
X166028571Y-88600390D01*
X166028571Y-88600390D02*
X166066667Y-88638485D01*
X166523809Y-88905152D02*
X166447619Y-88867057D01*
X166447619Y-88867057D02*
X166409524Y-88828961D01*
X166409524Y-88828961D02*
X166371428Y-88752771D01*
X166371428Y-88752771D02*
X166371428Y-88714676D01*
X166371428Y-88714676D02*
X166409524Y-88638485D01*
X166409524Y-88638485D02*
X166447619Y-88600390D01*
X166447619Y-88600390D02*
X166523809Y-88562295D01*
X166523809Y-88562295D02*
X166676190Y-88562295D01*
X166676190Y-88562295D02*
X166752381Y-88600390D01*
X166752381Y-88600390D02*
X166790476Y-88638485D01*
X166790476Y-88638485D02*
X166828571Y-88714676D01*
X166828571Y-88714676D02*
X166828571Y-88752771D01*
X166828571Y-88752771D02*
X166790476Y-88828961D01*
X166790476Y-88828961D02*
X166752381Y-88867057D01*
X166752381Y-88867057D02*
X166676190Y-88905152D01*
X166676190Y-88905152D02*
X166523809Y-88905152D01*
X166523809Y-88905152D02*
X166447619Y-88943247D01*
X166447619Y-88943247D02*
X166409524Y-88981342D01*
X166409524Y-88981342D02*
X166371428Y-89057533D01*
X166371428Y-89057533D02*
X166371428Y-89209914D01*
X166371428Y-89209914D02*
X166409524Y-89286104D01*
X166409524Y-89286104D02*
X166447619Y-89324200D01*
X166447619Y-89324200D02*
X166523809Y-89362295D01*
X166523809Y-89362295D02*
X166676190Y-89362295D01*
X166676190Y-89362295D02*
X166752381Y-89324200D01*
X166752381Y-89324200D02*
X166790476Y-89286104D01*
X166790476Y-89286104D02*
X166828571Y-89209914D01*
X166828571Y-89209914D02*
X166828571Y-89057533D01*
X166828571Y-89057533D02*
X166790476Y-88981342D01*
X166790476Y-88981342D02*
X166752381Y-88943247D01*
X166752381Y-88943247D02*
X166676190Y-88905152D01*
X166785714Y-62286104D02*
X166747618Y-62324200D01*
X166747618Y-62324200D02*
X166633333Y-62362295D01*
X166633333Y-62362295D02*
X166557142Y-62362295D01*
X166557142Y-62362295D02*
X166442856Y-62324200D01*
X166442856Y-62324200D02*
X166366666Y-62248009D01*
X166366666Y-62248009D02*
X166328571Y-62171819D01*
X166328571Y-62171819D02*
X166290475Y-62019438D01*
X166290475Y-62019438D02*
X166290475Y-61905152D01*
X166290475Y-61905152D02*
X166328571Y-61752771D01*
X166328571Y-61752771D02*
X166366666Y-61676580D01*
X166366666Y-61676580D02*
X166442856Y-61600390D01*
X166442856Y-61600390D02*
X166557142Y-61562295D01*
X166557142Y-61562295D02*
X166633333Y-61562295D01*
X166633333Y-61562295D02*
X166747618Y-61600390D01*
X166747618Y-61600390D02*
X166785714Y-61638485D01*
X167547618Y-62362295D02*
X167090475Y-62362295D01*
X167319047Y-62362295D02*
X167319047Y-61562295D01*
X167319047Y-61562295D02*
X167242856Y-61676580D01*
X167242856Y-61676580D02*
X167166666Y-61752771D01*
X167166666Y-61752771D02*
X167090475Y-61790866D01*
X167928571Y-62362295D02*
X168080952Y-62362295D01*
X168080952Y-62362295D02*
X168157142Y-62324200D01*
X168157142Y-62324200D02*
X168195238Y-62286104D01*
X168195238Y-62286104D02*
X168271428Y-62171819D01*
X168271428Y-62171819D02*
X168309523Y-62019438D01*
X168309523Y-62019438D02*
X168309523Y-61714676D01*
X168309523Y-61714676D02*
X168271428Y-61638485D01*
X168271428Y-61638485D02*
X168233333Y-61600390D01*
X168233333Y-61600390D02*
X168157142Y-61562295D01*
X168157142Y-61562295D02*
X168004761Y-61562295D01*
X168004761Y-61562295D02*
X167928571Y-61600390D01*
X167928571Y-61600390D02*
X167890476Y-61638485D01*
X167890476Y-61638485D02*
X167852380Y-61714676D01*
X167852380Y-61714676D02*
X167852380Y-61905152D01*
X167852380Y-61905152D02*
X167890476Y-61981342D01*
X167890476Y-61981342D02*
X167928571Y-62019438D01*
X167928571Y-62019438D02*
X168004761Y-62057533D01*
X168004761Y-62057533D02*
X168157142Y-62057533D01*
X168157142Y-62057533D02*
X168233333Y-62019438D01*
X168233333Y-62019438D02*
X168271428Y-61981342D01*
X168271428Y-61981342D02*
X168309523Y-61905152D01*
X163885714Y-68086104D02*
X163847618Y-68124200D01*
X163847618Y-68124200D02*
X163733333Y-68162295D01*
X163733333Y-68162295D02*
X163657142Y-68162295D01*
X163657142Y-68162295D02*
X163542856Y-68124200D01*
X163542856Y-68124200D02*
X163466666Y-68048009D01*
X163466666Y-68048009D02*
X163428571Y-67971819D01*
X163428571Y-67971819D02*
X163390475Y-67819438D01*
X163390475Y-67819438D02*
X163390475Y-67705152D01*
X163390475Y-67705152D02*
X163428571Y-67552771D01*
X163428571Y-67552771D02*
X163466666Y-67476580D01*
X163466666Y-67476580D02*
X163542856Y-67400390D01*
X163542856Y-67400390D02*
X163657142Y-67362295D01*
X163657142Y-67362295D02*
X163733333Y-67362295D01*
X163733333Y-67362295D02*
X163847618Y-67400390D01*
X163847618Y-67400390D02*
X163885714Y-67438485D01*
X164152380Y-67362295D02*
X164647618Y-67362295D01*
X164647618Y-67362295D02*
X164380952Y-67667057D01*
X164380952Y-67667057D02*
X164495237Y-67667057D01*
X164495237Y-67667057D02*
X164571428Y-67705152D01*
X164571428Y-67705152D02*
X164609523Y-67743247D01*
X164609523Y-67743247D02*
X164647618Y-67819438D01*
X164647618Y-67819438D02*
X164647618Y-68009914D01*
X164647618Y-68009914D02*
X164609523Y-68086104D01*
X164609523Y-68086104D02*
X164571428Y-68124200D01*
X164571428Y-68124200D02*
X164495237Y-68162295D01*
X164495237Y-68162295D02*
X164266666Y-68162295D01*
X164266666Y-68162295D02*
X164190475Y-68124200D01*
X164190475Y-68124200D02*
X164152380Y-68086104D01*
X165409523Y-68162295D02*
X164952380Y-68162295D01*
X165180952Y-68162295D02*
X165180952Y-67362295D01*
X165180952Y-67362295D02*
X165104761Y-67476580D01*
X165104761Y-67476580D02*
X165028571Y-67552771D01*
X165028571Y-67552771D02*
X164952380Y-67590866D01*
X166685714Y-63686104D02*
X166647618Y-63724200D01*
X166647618Y-63724200D02*
X166533333Y-63762295D01*
X166533333Y-63762295D02*
X166457142Y-63762295D01*
X166457142Y-63762295D02*
X166342856Y-63724200D01*
X166342856Y-63724200D02*
X166266666Y-63648009D01*
X166266666Y-63648009D02*
X166228571Y-63571819D01*
X166228571Y-63571819D02*
X166190475Y-63419438D01*
X166190475Y-63419438D02*
X166190475Y-63305152D01*
X166190475Y-63305152D02*
X166228571Y-63152771D01*
X166228571Y-63152771D02*
X166266666Y-63076580D01*
X166266666Y-63076580D02*
X166342856Y-63000390D01*
X166342856Y-63000390D02*
X166457142Y-62962295D01*
X166457142Y-62962295D02*
X166533333Y-62962295D01*
X166533333Y-62962295D02*
X166647618Y-63000390D01*
X166647618Y-63000390D02*
X166685714Y-63038485D01*
X166990475Y-63038485D02*
X167028571Y-63000390D01*
X167028571Y-63000390D02*
X167104761Y-62962295D01*
X167104761Y-62962295D02*
X167295237Y-62962295D01*
X167295237Y-62962295D02*
X167371428Y-63000390D01*
X167371428Y-63000390D02*
X167409523Y-63038485D01*
X167409523Y-63038485D02*
X167447618Y-63114676D01*
X167447618Y-63114676D02*
X167447618Y-63190866D01*
X167447618Y-63190866D02*
X167409523Y-63305152D01*
X167409523Y-63305152D02*
X166952380Y-63762295D01*
X166952380Y-63762295D02*
X167447618Y-63762295D01*
X167752380Y-63038485D02*
X167790476Y-63000390D01*
X167790476Y-63000390D02*
X167866666Y-62962295D01*
X167866666Y-62962295D02*
X168057142Y-62962295D01*
X168057142Y-62962295D02*
X168133333Y-63000390D01*
X168133333Y-63000390D02*
X168171428Y-63038485D01*
X168171428Y-63038485D02*
X168209523Y-63114676D01*
X168209523Y-63114676D02*
X168209523Y-63190866D01*
X168209523Y-63190866D02*
X168171428Y-63305152D01*
X168171428Y-63305152D02*
X167714285Y-63762295D01*
X167714285Y-63762295D02*
X168209523Y-63762295D01*
X171662295Y-65390475D02*
X170862295Y-65390475D01*
X170862295Y-65390475D02*
X170862295Y-65199999D01*
X170862295Y-65199999D02*
X170900390Y-65085713D01*
X170900390Y-65085713D02*
X170976580Y-65009523D01*
X170976580Y-65009523D02*
X171052771Y-64971428D01*
X171052771Y-64971428D02*
X171205152Y-64933332D01*
X171205152Y-64933332D02*
X171319438Y-64933332D01*
X171319438Y-64933332D02*
X171471819Y-64971428D01*
X171471819Y-64971428D02*
X171548009Y-65009523D01*
X171548009Y-65009523D02*
X171624200Y-65085713D01*
X171624200Y-65085713D02*
X171662295Y-65199999D01*
X171662295Y-65199999D02*
X171662295Y-65390475D01*
X171128961Y-64247618D02*
X171662295Y-64247618D01*
X170824200Y-64438094D02*
X171395628Y-64628571D01*
X171395628Y-64628571D02*
X171395628Y-64133332D01*
X158285714Y-40986104D02*
X158247618Y-41024200D01*
X158247618Y-41024200D02*
X158133333Y-41062295D01*
X158133333Y-41062295D02*
X158057142Y-41062295D01*
X158057142Y-41062295D02*
X157942856Y-41024200D01*
X157942856Y-41024200D02*
X157866666Y-40948009D01*
X157866666Y-40948009D02*
X157828571Y-40871819D01*
X157828571Y-40871819D02*
X157790475Y-40719438D01*
X157790475Y-40719438D02*
X157790475Y-40605152D01*
X157790475Y-40605152D02*
X157828571Y-40452771D01*
X157828571Y-40452771D02*
X157866666Y-40376580D01*
X157866666Y-40376580D02*
X157942856Y-40300390D01*
X157942856Y-40300390D02*
X158057142Y-40262295D01*
X158057142Y-40262295D02*
X158133333Y-40262295D01*
X158133333Y-40262295D02*
X158247618Y-40300390D01*
X158247618Y-40300390D02*
X158285714Y-40338485D01*
X159047618Y-41062295D02*
X158590475Y-41062295D01*
X158819047Y-41062295D02*
X158819047Y-40262295D01*
X158819047Y-40262295D02*
X158742856Y-40376580D01*
X158742856Y-40376580D02*
X158666666Y-40452771D01*
X158666666Y-40452771D02*
X158590475Y-40490866D01*
X159314285Y-40262295D02*
X159809523Y-40262295D01*
X159809523Y-40262295D02*
X159542857Y-40567057D01*
X159542857Y-40567057D02*
X159657142Y-40567057D01*
X159657142Y-40567057D02*
X159733333Y-40605152D01*
X159733333Y-40605152D02*
X159771428Y-40643247D01*
X159771428Y-40643247D02*
X159809523Y-40719438D01*
X159809523Y-40719438D02*
X159809523Y-40909914D01*
X159809523Y-40909914D02*
X159771428Y-40986104D01*
X159771428Y-40986104D02*
X159733333Y-41024200D01*
X159733333Y-41024200D02*
X159657142Y-41062295D01*
X159657142Y-41062295D02*
X159428571Y-41062295D01*
X159428571Y-41062295D02*
X159352380Y-41024200D01*
X159352380Y-41024200D02*
X159314285Y-40986104D01*
X170685714Y-67731613D02*
X170419047Y-67350660D01*
X170228571Y-67731613D02*
X170228571Y-66931613D01*
X170228571Y-66931613D02*
X170533333Y-66931613D01*
X170533333Y-66931613D02*
X170609523Y-66969708D01*
X170609523Y-66969708D02*
X170647618Y-67007803D01*
X170647618Y-67007803D02*
X170685714Y-67083994D01*
X170685714Y-67083994D02*
X170685714Y-67198279D01*
X170685714Y-67198279D02*
X170647618Y-67274470D01*
X170647618Y-67274470D02*
X170609523Y-67312565D01*
X170609523Y-67312565D02*
X170533333Y-67350660D01*
X170533333Y-67350660D02*
X170228571Y-67350660D01*
X170990475Y-67007803D02*
X171028571Y-66969708D01*
X171028571Y-66969708D02*
X171104761Y-66931613D01*
X171104761Y-66931613D02*
X171295237Y-66931613D01*
X171295237Y-66931613D02*
X171371428Y-66969708D01*
X171371428Y-66969708D02*
X171409523Y-67007803D01*
X171409523Y-67007803D02*
X171447618Y-67083994D01*
X171447618Y-67083994D02*
X171447618Y-67160184D01*
X171447618Y-67160184D02*
X171409523Y-67274470D01*
X171409523Y-67274470D02*
X170952380Y-67731613D01*
X170952380Y-67731613D02*
X171447618Y-67731613D01*
X171714285Y-66931613D02*
X172209523Y-66931613D01*
X172209523Y-66931613D02*
X171942857Y-67236375D01*
X171942857Y-67236375D02*
X172057142Y-67236375D01*
X172057142Y-67236375D02*
X172133333Y-67274470D01*
X172133333Y-67274470D02*
X172171428Y-67312565D01*
X172171428Y-67312565D02*
X172209523Y-67388756D01*
X172209523Y-67388756D02*
X172209523Y-67579232D01*
X172209523Y-67579232D02*
X172171428Y-67655422D01*
X172171428Y-67655422D02*
X172133333Y-67693518D01*
X172133333Y-67693518D02*
X172057142Y-67731613D01*
X172057142Y-67731613D02*
X171828571Y-67731613D01*
X171828571Y-67731613D02*
X171752380Y-67693518D01*
X171752380Y-67693518D02*
X171714285Y-67655422D01*
X154786104Y-39014285D02*
X154824200Y-39052381D01*
X154824200Y-39052381D02*
X154862295Y-39166666D01*
X154862295Y-39166666D02*
X154862295Y-39242857D01*
X154862295Y-39242857D02*
X154824200Y-39357143D01*
X154824200Y-39357143D02*
X154748009Y-39433333D01*
X154748009Y-39433333D02*
X154671819Y-39471428D01*
X154671819Y-39471428D02*
X154519438Y-39509524D01*
X154519438Y-39509524D02*
X154405152Y-39509524D01*
X154405152Y-39509524D02*
X154252771Y-39471428D01*
X154252771Y-39471428D02*
X154176580Y-39433333D01*
X154176580Y-39433333D02*
X154100390Y-39357143D01*
X154100390Y-39357143D02*
X154062295Y-39242857D01*
X154062295Y-39242857D02*
X154062295Y-39166666D01*
X154062295Y-39166666D02*
X154100390Y-39052381D01*
X154100390Y-39052381D02*
X154138485Y-39014285D01*
X154862295Y-38252381D02*
X154862295Y-38709524D01*
X154862295Y-38480952D02*
X154062295Y-38480952D01*
X154062295Y-38480952D02*
X154176580Y-38557143D01*
X154176580Y-38557143D02*
X154252771Y-38633333D01*
X154252771Y-38633333D02*
X154290866Y-38709524D01*
X154062295Y-37528571D02*
X154062295Y-37909523D01*
X154062295Y-37909523D02*
X154443247Y-37947619D01*
X154443247Y-37947619D02*
X154405152Y-37909523D01*
X154405152Y-37909523D02*
X154367057Y-37833333D01*
X154367057Y-37833333D02*
X154367057Y-37642857D01*
X154367057Y-37642857D02*
X154405152Y-37566666D01*
X154405152Y-37566666D02*
X154443247Y-37528571D01*
X154443247Y-37528571D02*
X154519438Y-37490476D01*
X154519438Y-37490476D02*
X154709914Y-37490476D01*
X154709914Y-37490476D02*
X154786104Y-37528571D01*
X154786104Y-37528571D02*
X154824200Y-37566666D01*
X154824200Y-37566666D02*
X154862295Y-37642857D01*
X154862295Y-37642857D02*
X154862295Y-37833333D01*
X154862295Y-37833333D02*
X154824200Y-37909523D01*
X154824200Y-37909523D02*
X154786104Y-37947619D01*
X164885714Y-66986104D02*
X164847618Y-67024200D01*
X164847618Y-67024200D02*
X164733333Y-67062295D01*
X164733333Y-67062295D02*
X164657142Y-67062295D01*
X164657142Y-67062295D02*
X164542856Y-67024200D01*
X164542856Y-67024200D02*
X164466666Y-66948009D01*
X164466666Y-66948009D02*
X164428571Y-66871819D01*
X164428571Y-66871819D02*
X164390475Y-66719438D01*
X164390475Y-66719438D02*
X164390475Y-66605152D01*
X164390475Y-66605152D02*
X164428571Y-66452771D01*
X164428571Y-66452771D02*
X164466666Y-66376580D01*
X164466666Y-66376580D02*
X164542856Y-66300390D01*
X164542856Y-66300390D02*
X164657142Y-66262295D01*
X164657142Y-66262295D02*
X164733333Y-66262295D01*
X164733333Y-66262295D02*
X164847618Y-66300390D01*
X164847618Y-66300390D02*
X164885714Y-66338485D01*
X165190475Y-66338485D02*
X165228571Y-66300390D01*
X165228571Y-66300390D02*
X165304761Y-66262295D01*
X165304761Y-66262295D02*
X165495237Y-66262295D01*
X165495237Y-66262295D02*
X165571428Y-66300390D01*
X165571428Y-66300390D02*
X165609523Y-66338485D01*
X165609523Y-66338485D02*
X165647618Y-66414676D01*
X165647618Y-66414676D02*
X165647618Y-66490866D01*
X165647618Y-66490866D02*
X165609523Y-66605152D01*
X165609523Y-66605152D02*
X165152380Y-67062295D01*
X165152380Y-67062295D02*
X165647618Y-67062295D01*
X166142857Y-66262295D02*
X166219047Y-66262295D01*
X166219047Y-66262295D02*
X166295238Y-66300390D01*
X166295238Y-66300390D02*
X166333333Y-66338485D01*
X166333333Y-66338485D02*
X166371428Y-66414676D01*
X166371428Y-66414676D02*
X166409523Y-66567057D01*
X166409523Y-66567057D02*
X166409523Y-66757533D01*
X166409523Y-66757533D02*
X166371428Y-66909914D01*
X166371428Y-66909914D02*
X166333333Y-66986104D01*
X166333333Y-66986104D02*
X166295238Y-67024200D01*
X166295238Y-67024200D02*
X166219047Y-67062295D01*
X166219047Y-67062295D02*
X166142857Y-67062295D01*
X166142857Y-67062295D02*
X166066666Y-67024200D01*
X166066666Y-67024200D02*
X166028571Y-66986104D01*
X166028571Y-66986104D02*
X165990476Y-66909914D01*
X165990476Y-66909914D02*
X165952380Y-66757533D01*
X165952380Y-66757533D02*
X165952380Y-66567057D01*
X165952380Y-66567057D02*
X165990476Y-66414676D01*
X165990476Y-66414676D02*
X166028571Y-66338485D01*
X166028571Y-66338485D02*
X166066666Y-66300390D01*
X166066666Y-66300390D02*
X166142857Y-66262295D01*
X162590476Y-37762295D02*
X162590476Y-38409914D01*
X162590476Y-38409914D02*
X162628571Y-38486104D01*
X162628571Y-38486104D02*
X162666666Y-38524200D01*
X162666666Y-38524200D02*
X162742857Y-38562295D01*
X162742857Y-38562295D02*
X162895238Y-38562295D01*
X162895238Y-38562295D02*
X162971428Y-38524200D01*
X162971428Y-38524200D02*
X163009523Y-38486104D01*
X163009523Y-38486104D02*
X163047619Y-38409914D01*
X163047619Y-38409914D02*
X163047619Y-37762295D01*
X163771428Y-38028961D02*
X163771428Y-38562295D01*
X163580952Y-37724200D02*
X163390475Y-38295628D01*
X163390475Y-38295628D02*
X163885714Y-38295628D01*
X164984901Y-33913273D02*
X165461091Y-33913273D01*
X164889663Y-34198988D02*
X165222996Y-33198988D01*
X165222996Y-33198988D02*
X165556329Y-34198988D01*
X165889663Y-33532321D02*
X165889663Y-34198988D01*
X165889663Y-33627559D02*
X165937282Y-33579940D01*
X165937282Y-33579940D02*
X166032520Y-33532321D01*
X166032520Y-33532321D02*
X166175377Y-33532321D01*
X166175377Y-33532321D02*
X166270615Y-33579940D01*
X166270615Y-33579940D02*
X166318234Y-33675178D01*
X166318234Y-33675178D02*
X166318234Y-34198988D01*
X166651568Y-33532321D02*
X167032520Y-33532321D01*
X166794425Y-33198988D02*
X166794425Y-34056130D01*
X166794425Y-34056130D02*
X166842044Y-34151369D01*
X166842044Y-34151369D02*
X166937282Y-34198988D01*
X166937282Y-34198988D02*
X167032520Y-34198988D01*
X167746806Y-34151369D02*
X167651568Y-34198988D01*
X167651568Y-34198988D02*
X167461092Y-34198988D01*
X167461092Y-34198988D02*
X167365854Y-34151369D01*
X167365854Y-34151369D02*
X167318235Y-34056130D01*
X167318235Y-34056130D02*
X167318235Y-33675178D01*
X167318235Y-33675178D02*
X167365854Y-33579940D01*
X167365854Y-33579940D02*
X167461092Y-33532321D01*
X167461092Y-33532321D02*
X167651568Y-33532321D01*
X167651568Y-33532321D02*
X167746806Y-33579940D01*
X167746806Y-33579940D02*
X167794425Y-33675178D01*
X167794425Y-33675178D02*
X167794425Y-33770416D01*
X167794425Y-33770416D02*
X167318235Y-33865654D01*
X168222997Y-33532321D02*
X168222997Y-34198988D01*
X168222997Y-33627559D02*
X168270616Y-33579940D01*
X168270616Y-33579940D02*
X168365854Y-33532321D01*
X168365854Y-33532321D02*
X168508711Y-33532321D01*
X168508711Y-33532321D02*
X168603949Y-33579940D01*
X168603949Y-33579940D02*
X168651568Y-33675178D01*
X168651568Y-33675178D02*
X168651568Y-34198988D01*
X169127759Y-33532321D02*
X169127759Y-34198988D01*
X169127759Y-33627559D02*
X169175378Y-33579940D01*
X169175378Y-33579940D02*
X169270616Y-33532321D01*
X169270616Y-33532321D02*
X169413473Y-33532321D01*
X169413473Y-33532321D02*
X169508711Y-33579940D01*
X169508711Y-33579940D02*
X169556330Y-33675178D01*
X169556330Y-33675178D02*
X169556330Y-34198988D01*
X170461092Y-34198988D02*
X170461092Y-33675178D01*
X170461092Y-33675178D02*
X170413473Y-33579940D01*
X170413473Y-33579940D02*
X170318235Y-33532321D01*
X170318235Y-33532321D02*
X170127759Y-33532321D01*
X170127759Y-33532321D02*
X170032521Y-33579940D01*
X170461092Y-34151369D02*
X170365854Y-34198988D01*
X170365854Y-34198988D02*
X170127759Y-34198988D01*
X170127759Y-34198988D02*
X170032521Y-34151369D01*
X170032521Y-34151369D02*
X169984902Y-34056130D01*
X169984902Y-34056130D02*
X169984902Y-33960892D01*
X169984902Y-33960892D02*
X170032521Y-33865654D01*
X170032521Y-33865654D02*
X170127759Y-33818035D01*
X170127759Y-33818035D02*
X170365854Y-33818035D01*
X170365854Y-33818035D02*
X170461092Y-33770416D01*
X171651569Y-33913273D02*
X172127759Y-33913273D01*
X171556331Y-34198988D02*
X171889664Y-33198988D01*
X171889664Y-33198988D02*
X172222997Y-34198988D01*
X172556331Y-34198988D02*
X172556331Y-33532321D01*
X172556331Y-33722797D02*
X172603950Y-33627559D01*
X172603950Y-33627559D02*
X172651569Y-33579940D01*
X172651569Y-33579940D02*
X172746807Y-33532321D01*
X172746807Y-33532321D02*
X172842045Y-33532321D01*
X173556331Y-34151369D02*
X173461093Y-34198988D01*
X173461093Y-34198988D02*
X173270617Y-34198988D01*
X173270617Y-34198988D02*
X173175379Y-34151369D01*
X173175379Y-34151369D02*
X173127760Y-34056130D01*
X173127760Y-34056130D02*
X173127760Y-33675178D01*
X173127760Y-33675178D02*
X173175379Y-33579940D01*
X173175379Y-33579940D02*
X173270617Y-33532321D01*
X173270617Y-33532321D02*
X173461093Y-33532321D01*
X173461093Y-33532321D02*
X173556331Y-33579940D01*
X173556331Y-33579940D02*
X173603950Y-33675178D01*
X173603950Y-33675178D02*
X173603950Y-33770416D01*
X173603950Y-33770416D02*
X173127760Y-33865654D01*
X174461093Y-34198988D02*
X174461093Y-33675178D01*
X174461093Y-33675178D02*
X174413474Y-33579940D01*
X174413474Y-33579940D02*
X174318236Y-33532321D01*
X174318236Y-33532321D02*
X174127760Y-33532321D01*
X174127760Y-33532321D02*
X174032522Y-33579940D01*
X174461093Y-34151369D02*
X174365855Y-34198988D01*
X174365855Y-34198988D02*
X174127760Y-34198988D01*
X174127760Y-34198988D02*
X174032522Y-34151369D01*
X174032522Y-34151369D02*
X173984903Y-34056130D01*
X173984903Y-34056130D02*
X173984903Y-33960892D01*
X173984903Y-33960892D02*
X174032522Y-33865654D01*
X174032522Y-33865654D02*
X174127760Y-33818035D01*
X174127760Y-33818035D02*
X174365855Y-33818035D01*
X174365855Y-33818035D02*
X174461093Y-33770416D01*
X155733332Y-47324200D02*
X155847618Y-47362295D01*
X155847618Y-47362295D02*
X156038094Y-47362295D01*
X156038094Y-47362295D02*
X156114285Y-47324200D01*
X156114285Y-47324200D02*
X156152380Y-47286104D01*
X156152380Y-47286104D02*
X156190475Y-47209914D01*
X156190475Y-47209914D02*
X156190475Y-47133723D01*
X156190475Y-47133723D02*
X156152380Y-47057533D01*
X156152380Y-47057533D02*
X156114285Y-47019438D01*
X156114285Y-47019438D02*
X156038094Y-46981342D01*
X156038094Y-46981342D02*
X155885713Y-46943247D01*
X155885713Y-46943247D02*
X155809523Y-46905152D01*
X155809523Y-46905152D02*
X155771428Y-46867057D01*
X155771428Y-46867057D02*
X155733332Y-46790866D01*
X155733332Y-46790866D02*
X155733332Y-46714676D01*
X155733332Y-46714676D02*
X155771428Y-46638485D01*
X155771428Y-46638485D02*
X155809523Y-46600390D01*
X155809523Y-46600390D02*
X155885713Y-46562295D01*
X155885713Y-46562295D02*
X156076190Y-46562295D01*
X156076190Y-46562295D02*
X156190475Y-46600390D01*
X156457142Y-46562295D02*
X156647618Y-47362295D01*
X156647618Y-47362295D02*
X156799999Y-46790866D01*
X156799999Y-46790866D02*
X156952380Y-47362295D01*
X156952380Y-47362295D02*
X157142857Y-46562295D01*
X157409523Y-46638485D02*
X157447619Y-46600390D01*
X157447619Y-46600390D02*
X157523809Y-46562295D01*
X157523809Y-46562295D02*
X157714285Y-46562295D01*
X157714285Y-46562295D02*
X157790476Y-46600390D01*
X157790476Y-46600390D02*
X157828571Y-46638485D01*
X157828571Y-46638485D02*
X157866666Y-46714676D01*
X157866666Y-46714676D02*
X157866666Y-46790866D01*
X157866666Y-46790866D02*
X157828571Y-46905152D01*
X157828571Y-46905152D02*
X157371428Y-47362295D01*
X157371428Y-47362295D02*
X157866666Y-47362295D01*
X167328571Y-75462295D02*
X167328571Y-74662295D01*
X167328571Y-74662295D02*
X167519047Y-74662295D01*
X167519047Y-74662295D02*
X167633333Y-74700390D01*
X167633333Y-74700390D02*
X167709523Y-74776580D01*
X167709523Y-74776580D02*
X167747618Y-74852771D01*
X167747618Y-74852771D02*
X167785714Y-75005152D01*
X167785714Y-75005152D02*
X167785714Y-75119438D01*
X167785714Y-75119438D02*
X167747618Y-75271819D01*
X167747618Y-75271819D02*
X167709523Y-75348009D01*
X167709523Y-75348009D02*
X167633333Y-75424200D01*
X167633333Y-75424200D02*
X167519047Y-75462295D01*
X167519047Y-75462295D02*
X167328571Y-75462295D01*
X168547618Y-75462295D02*
X168090475Y-75462295D01*
X168319047Y-75462295D02*
X168319047Y-74662295D01*
X168319047Y-74662295D02*
X168242856Y-74776580D01*
X168242856Y-74776580D02*
X168166666Y-74852771D01*
X168166666Y-74852771D02*
X168090475Y-74890866D01*
X169233333Y-74928961D02*
X169233333Y-75462295D01*
X169042857Y-74624200D02*
X168852380Y-75195628D01*
X168852380Y-75195628D02*
X169347619Y-75195628D01*
X165785714Y-69186104D02*
X165747618Y-69224200D01*
X165747618Y-69224200D02*
X165633333Y-69262295D01*
X165633333Y-69262295D02*
X165557142Y-69262295D01*
X165557142Y-69262295D02*
X165442856Y-69224200D01*
X165442856Y-69224200D02*
X165366666Y-69148009D01*
X165366666Y-69148009D02*
X165328571Y-69071819D01*
X165328571Y-69071819D02*
X165290475Y-68919438D01*
X165290475Y-68919438D02*
X165290475Y-68805152D01*
X165290475Y-68805152D02*
X165328571Y-68652771D01*
X165328571Y-68652771D02*
X165366666Y-68576580D01*
X165366666Y-68576580D02*
X165442856Y-68500390D01*
X165442856Y-68500390D02*
X165557142Y-68462295D01*
X165557142Y-68462295D02*
X165633333Y-68462295D01*
X165633333Y-68462295D02*
X165747618Y-68500390D01*
X165747618Y-68500390D02*
X165785714Y-68538485D01*
X166090475Y-68538485D02*
X166128571Y-68500390D01*
X166128571Y-68500390D02*
X166204761Y-68462295D01*
X166204761Y-68462295D02*
X166395237Y-68462295D01*
X166395237Y-68462295D02*
X166471428Y-68500390D01*
X166471428Y-68500390D02*
X166509523Y-68538485D01*
X166509523Y-68538485D02*
X166547618Y-68614676D01*
X166547618Y-68614676D02*
X166547618Y-68690866D01*
X166547618Y-68690866D02*
X166509523Y-68805152D01*
X166509523Y-68805152D02*
X166052380Y-69262295D01*
X166052380Y-69262295D02*
X166547618Y-69262295D01*
X167233333Y-68462295D02*
X167080952Y-68462295D01*
X167080952Y-68462295D02*
X167004761Y-68500390D01*
X167004761Y-68500390D02*
X166966666Y-68538485D01*
X166966666Y-68538485D02*
X166890476Y-68652771D01*
X166890476Y-68652771D02*
X166852380Y-68805152D01*
X166852380Y-68805152D02*
X166852380Y-69109914D01*
X166852380Y-69109914D02*
X166890476Y-69186104D01*
X166890476Y-69186104D02*
X166928571Y-69224200D01*
X166928571Y-69224200D02*
X167004761Y-69262295D01*
X167004761Y-69262295D02*
X167157142Y-69262295D01*
X167157142Y-69262295D02*
X167233333Y-69224200D01*
X167233333Y-69224200D02*
X167271428Y-69186104D01*
X167271428Y-69186104D02*
X167309523Y-69109914D01*
X167309523Y-69109914D02*
X167309523Y-68919438D01*
X167309523Y-68919438D02*
X167271428Y-68843247D01*
X167271428Y-68843247D02*
X167233333Y-68805152D01*
X167233333Y-68805152D02*
X167157142Y-68767057D01*
X167157142Y-68767057D02*
X167004761Y-68767057D01*
X167004761Y-68767057D02*
X166928571Y-68805152D01*
X166928571Y-68805152D02*
X166890476Y-68843247D01*
X166890476Y-68843247D02*
X166852380Y-68919438D01*
X179878200Y-72562295D02*
X179497248Y-72562295D01*
X179497248Y-72562295D02*
X179497248Y-71762295D01*
X180563914Y-72562295D02*
X180106771Y-72562295D01*
X180335343Y-72562295D02*
X180335343Y-71762295D01*
X180335343Y-71762295D02*
X180259152Y-71876580D01*
X180259152Y-71876580D02*
X180182962Y-71952771D01*
X180182962Y-71952771D02*
X180106771Y-71990866D01*
X163585714Y-76586104D02*
X163547618Y-76624200D01*
X163547618Y-76624200D02*
X163433333Y-76662295D01*
X163433333Y-76662295D02*
X163357142Y-76662295D01*
X163357142Y-76662295D02*
X163242856Y-76624200D01*
X163242856Y-76624200D02*
X163166666Y-76548009D01*
X163166666Y-76548009D02*
X163128571Y-76471819D01*
X163128571Y-76471819D02*
X163090475Y-76319438D01*
X163090475Y-76319438D02*
X163090475Y-76205152D01*
X163090475Y-76205152D02*
X163128571Y-76052771D01*
X163128571Y-76052771D02*
X163166666Y-75976580D01*
X163166666Y-75976580D02*
X163242856Y-75900390D01*
X163242856Y-75900390D02*
X163357142Y-75862295D01*
X163357142Y-75862295D02*
X163433333Y-75862295D01*
X163433333Y-75862295D02*
X163547618Y-75900390D01*
X163547618Y-75900390D02*
X163585714Y-75938485D01*
X163852380Y-75862295D02*
X164347618Y-75862295D01*
X164347618Y-75862295D02*
X164080952Y-76167057D01*
X164080952Y-76167057D02*
X164195237Y-76167057D01*
X164195237Y-76167057D02*
X164271428Y-76205152D01*
X164271428Y-76205152D02*
X164309523Y-76243247D01*
X164309523Y-76243247D02*
X164347618Y-76319438D01*
X164347618Y-76319438D02*
X164347618Y-76509914D01*
X164347618Y-76509914D02*
X164309523Y-76586104D01*
X164309523Y-76586104D02*
X164271428Y-76624200D01*
X164271428Y-76624200D02*
X164195237Y-76662295D01*
X164195237Y-76662295D02*
X163966666Y-76662295D01*
X163966666Y-76662295D02*
X163890475Y-76624200D01*
X163890475Y-76624200D02*
X163852380Y-76586104D01*
X164842857Y-75862295D02*
X164919047Y-75862295D01*
X164919047Y-75862295D02*
X164995238Y-75900390D01*
X164995238Y-75900390D02*
X165033333Y-75938485D01*
X165033333Y-75938485D02*
X165071428Y-76014676D01*
X165071428Y-76014676D02*
X165109523Y-76167057D01*
X165109523Y-76167057D02*
X165109523Y-76357533D01*
X165109523Y-76357533D02*
X165071428Y-76509914D01*
X165071428Y-76509914D02*
X165033333Y-76586104D01*
X165033333Y-76586104D02*
X164995238Y-76624200D01*
X164995238Y-76624200D02*
X164919047Y-76662295D01*
X164919047Y-76662295D02*
X164842857Y-76662295D01*
X164842857Y-76662295D02*
X164766666Y-76624200D01*
X164766666Y-76624200D02*
X164728571Y-76586104D01*
X164728571Y-76586104D02*
X164690476Y-76509914D01*
X164690476Y-76509914D02*
X164652380Y-76357533D01*
X164652380Y-76357533D02*
X164652380Y-76167057D01*
X164652380Y-76167057D02*
X164690476Y-76014676D01*
X164690476Y-76014676D02*
X164728571Y-75938485D01*
X164728571Y-75938485D02*
X164766666Y-75900390D01*
X164766666Y-75900390D02*
X164842857Y-75862295D01*
X159886104Y-75214285D02*
X159924200Y-75252381D01*
X159924200Y-75252381D02*
X159962295Y-75366666D01*
X159962295Y-75366666D02*
X159962295Y-75442857D01*
X159962295Y-75442857D02*
X159924200Y-75557143D01*
X159924200Y-75557143D02*
X159848009Y-75633333D01*
X159848009Y-75633333D02*
X159771819Y-75671428D01*
X159771819Y-75671428D02*
X159619438Y-75709524D01*
X159619438Y-75709524D02*
X159505152Y-75709524D01*
X159505152Y-75709524D02*
X159352771Y-75671428D01*
X159352771Y-75671428D02*
X159276580Y-75633333D01*
X159276580Y-75633333D02*
X159200390Y-75557143D01*
X159200390Y-75557143D02*
X159162295Y-75442857D01*
X159162295Y-75442857D02*
X159162295Y-75366666D01*
X159162295Y-75366666D02*
X159200390Y-75252381D01*
X159200390Y-75252381D02*
X159238485Y-75214285D01*
X159238485Y-74909524D02*
X159200390Y-74871428D01*
X159200390Y-74871428D02*
X159162295Y-74795238D01*
X159162295Y-74795238D02*
X159162295Y-74604762D01*
X159162295Y-74604762D02*
X159200390Y-74528571D01*
X159200390Y-74528571D02*
X159238485Y-74490476D01*
X159238485Y-74490476D02*
X159314676Y-74452381D01*
X159314676Y-74452381D02*
X159390866Y-74452381D01*
X159390866Y-74452381D02*
X159505152Y-74490476D01*
X159505152Y-74490476D02*
X159962295Y-74947619D01*
X159962295Y-74947619D02*
X159962295Y-74452381D01*
X159505152Y-73995238D02*
X159467057Y-74071428D01*
X159467057Y-74071428D02*
X159428961Y-74109523D01*
X159428961Y-74109523D02*
X159352771Y-74147619D01*
X159352771Y-74147619D02*
X159314676Y-74147619D01*
X159314676Y-74147619D02*
X159238485Y-74109523D01*
X159238485Y-74109523D02*
X159200390Y-74071428D01*
X159200390Y-74071428D02*
X159162295Y-73995238D01*
X159162295Y-73995238D02*
X159162295Y-73842857D01*
X159162295Y-73842857D02*
X159200390Y-73766666D01*
X159200390Y-73766666D02*
X159238485Y-73728571D01*
X159238485Y-73728571D02*
X159314676Y-73690476D01*
X159314676Y-73690476D02*
X159352771Y-73690476D01*
X159352771Y-73690476D02*
X159428961Y-73728571D01*
X159428961Y-73728571D02*
X159467057Y-73766666D01*
X159467057Y-73766666D02*
X159505152Y-73842857D01*
X159505152Y-73842857D02*
X159505152Y-73995238D01*
X159505152Y-73995238D02*
X159543247Y-74071428D01*
X159543247Y-74071428D02*
X159581342Y-74109523D01*
X159581342Y-74109523D02*
X159657533Y-74147619D01*
X159657533Y-74147619D02*
X159809914Y-74147619D01*
X159809914Y-74147619D02*
X159886104Y-74109523D01*
X159886104Y-74109523D02*
X159924200Y-74071428D01*
X159924200Y-74071428D02*
X159962295Y-73995238D01*
X159962295Y-73995238D02*
X159962295Y-73842857D01*
X159962295Y-73842857D02*
X159924200Y-73766666D01*
X159924200Y-73766666D02*
X159886104Y-73728571D01*
X159886104Y-73728571D02*
X159809914Y-73690476D01*
X159809914Y-73690476D02*
X159657533Y-73690476D01*
X159657533Y-73690476D02*
X159581342Y-73728571D01*
X159581342Y-73728571D02*
X159543247Y-73766666D01*
X159543247Y-73766666D02*
X159505152Y-73842857D01*
X159354819Y-88511904D02*
X158354819Y-88511904D01*
X158831009Y-88511904D02*
X158831009Y-87940476D01*
X159354819Y-87940476D02*
X158354819Y-87940476D01*
X158450057Y-87511904D02*
X158402438Y-87464285D01*
X158402438Y-87464285D02*
X158354819Y-87369047D01*
X158354819Y-87369047D02*
X158354819Y-87130952D01*
X158354819Y-87130952D02*
X158402438Y-87035714D01*
X158402438Y-87035714D02*
X158450057Y-86988095D01*
X158450057Y-86988095D02*
X158545295Y-86940476D01*
X158545295Y-86940476D02*
X158640533Y-86940476D01*
X158640533Y-86940476D02*
X158783390Y-86988095D01*
X158783390Y-86988095D02*
X159354819Y-87559523D01*
X159354819Y-87559523D02*
X159354819Y-86940476D01*
X181227648Y-53386104D02*
X181189552Y-53424200D01*
X181189552Y-53424200D02*
X181075267Y-53462295D01*
X181075267Y-53462295D02*
X180999076Y-53462295D01*
X180999076Y-53462295D02*
X180884790Y-53424200D01*
X180884790Y-53424200D02*
X180808600Y-53348009D01*
X180808600Y-53348009D02*
X180770505Y-53271819D01*
X180770505Y-53271819D02*
X180732409Y-53119438D01*
X180732409Y-53119438D02*
X180732409Y-53005152D01*
X180732409Y-53005152D02*
X180770505Y-52852771D01*
X180770505Y-52852771D02*
X180808600Y-52776580D01*
X180808600Y-52776580D02*
X180884790Y-52700390D01*
X180884790Y-52700390D02*
X180999076Y-52662295D01*
X180999076Y-52662295D02*
X181075267Y-52662295D01*
X181075267Y-52662295D02*
X181189552Y-52700390D01*
X181189552Y-52700390D02*
X181227648Y-52738485D01*
X181494314Y-52662295D02*
X181989552Y-52662295D01*
X181989552Y-52662295D02*
X181722886Y-52967057D01*
X181722886Y-52967057D02*
X181837171Y-52967057D01*
X181837171Y-52967057D02*
X181913362Y-53005152D01*
X181913362Y-53005152D02*
X181951457Y-53043247D01*
X181951457Y-53043247D02*
X181989552Y-53119438D01*
X181989552Y-53119438D02*
X181989552Y-53309914D01*
X181989552Y-53309914D02*
X181951457Y-53386104D01*
X181951457Y-53386104D02*
X181913362Y-53424200D01*
X181913362Y-53424200D02*
X181837171Y-53462295D01*
X181837171Y-53462295D02*
X181608600Y-53462295D01*
X181608600Y-53462295D02*
X181532409Y-53424200D01*
X181532409Y-53424200D02*
X181494314Y-53386104D01*
X182675267Y-52928961D02*
X182675267Y-53462295D01*
X182484791Y-52624200D02*
X182294314Y-53195628D01*
X182294314Y-53195628D02*
X182789553Y-53195628D01*
X174486324Y-72933495D02*
X174486324Y-72133495D01*
X174486324Y-72133495D02*
X174791086Y-72133495D01*
X174791086Y-72133495D02*
X174867276Y-72171590D01*
X174867276Y-72171590D02*
X174905371Y-72209685D01*
X174905371Y-72209685D02*
X174943467Y-72285876D01*
X174943467Y-72285876D02*
X174943467Y-72400161D01*
X174943467Y-72400161D02*
X174905371Y-72476352D01*
X174905371Y-72476352D02*
X174867276Y-72514447D01*
X174867276Y-72514447D02*
X174791086Y-72552542D01*
X174791086Y-72552542D02*
X174486324Y-72552542D01*
X175705371Y-72933495D02*
X175248228Y-72933495D01*
X175476800Y-72933495D02*
X175476800Y-72133495D01*
X175476800Y-72133495D02*
X175400609Y-72247780D01*
X175400609Y-72247780D02*
X175324419Y-72323971D01*
X175324419Y-72323971D02*
X175248228Y-72362066D01*
X177090476Y-74762295D02*
X177090476Y-75409914D01*
X177090476Y-75409914D02*
X177128571Y-75486104D01*
X177128571Y-75486104D02*
X177166666Y-75524200D01*
X177166666Y-75524200D02*
X177242857Y-75562295D01*
X177242857Y-75562295D02*
X177395238Y-75562295D01*
X177395238Y-75562295D02*
X177471428Y-75524200D01*
X177471428Y-75524200D02*
X177509523Y-75486104D01*
X177509523Y-75486104D02*
X177547619Y-75409914D01*
X177547619Y-75409914D02*
X177547619Y-74762295D01*
X178347618Y-75562295D02*
X177890475Y-75562295D01*
X178119047Y-75562295D02*
X178119047Y-74762295D01*
X178119047Y-74762295D02*
X178042856Y-74876580D01*
X178042856Y-74876580D02*
X177966666Y-74952771D01*
X177966666Y-74952771D02*
X177890475Y-74990866D01*
X171385714Y-80762295D02*
X171119047Y-80381342D01*
X170928571Y-80762295D02*
X170928571Y-79962295D01*
X170928571Y-79962295D02*
X171233333Y-79962295D01*
X171233333Y-79962295D02*
X171309523Y-80000390D01*
X171309523Y-80000390D02*
X171347618Y-80038485D01*
X171347618Y-80038485D02*
X171385714Y-80114676D01*
X171385714Y-80114676D02*
X171385714Y-80228961D01*
X171385714Y-80228961D02*
X171347618Y-80305152D01*
X171347618Y-80305152D02*
X171309523Y-80343247D01*
X171309523Y-80343247D02*
X171233333Y-80381342D01*
X171233333Y-80381342D02*
X170928571Y-80381342D01*
X171690475Y-80038485D02*
X171728571Y-80000390D01*
X171728571Y-80000390D02*
X171804761Y-79962295D01*
X171804761Y-79962295D02*
X171995237Y-79962295D01*
X171995237Y-79962295D02*
X172071428Y-80000390D01*
X172071428Y-80000390D02*
X172109523Y-80038485D01*
X172109523Y-80038485D02*
X172147618Y-80114676D01*
X172147618Y-80114676D02*
X172147618Y-80190866D01*
X172147618Y-80190866D02*
X172109523Y-80305152D01*
X172109523Y-80305152D02*
X171652380Y-80762295D01*
X171652380Y-80762295D02*
X172147618Y-80762295D01*
X172642857Y-79962295D02*
X172719047Y-79962295D01*
X172719047Y-79962295D02*
X172795238Y-80000390D01*
X172795238Y-80000390D02*
X172833333Y-80038485D01*
X172833333Y-80038485D02*
X172871428Y-80114676D01*
X172871428Y-80114676D02*
X172909523Y-80267057D01*
X172909523Y-80267057D02*
X172909523Y-80457533D01*
X172909523Y-80457533D02*
X172871428Y-80609914D01*
X172871428Y-80609914D02*
X172833333Y-80686104D01*
X172833333Y-80686104D02*
X172795238Y-80724200D01*
X172795238Y-80724200D02*
X172719047Y-80762295D01*
X172719047Y-80762295D02*
X172642857Y-80762295D01*
X172642857Y-80762295D02*
X172566666Y-80724200D01*
X172566666Y-80724200D02*
X172528571Y-80686104D01*
X172528571Y-80686104D02*
X172490476Y-80609914D01*
X172490476Y-80609914D02*
X172452380Y-80457533D01*
X172452380Y-80457533D02*
X172452380Y-80267057D01*
X172452380Y-80267057D02*
X172490476Y-80114676D01*
X172490476Y-80114676D02*
X172528571Y-80038485D01*
X172528571Y-80038485D02*
X172566666Y-80000390D01*
X172566666Y-80000390D02*
X172642857Y-79962295D01*
X165985714Y-65386104D02*
X165947618Y-65424200D01*
X165947618Y-65424200D02*
X165833333Y-65462295D01*
X165833333Y-65462295D02*
X165757142Y-65462295D01*
X165757142Y-65462295D02*
X165642856Y-65424200D01*
X165642856Y-65424200D02*
X165566666Y-65348009D01*
X165566666Y-65348009D02*
X165528571Y-65271819D01*
X165528571Y-65271819D02*
X165490475Y-65119438D01*
X165490475Y-65119438D02*
X165490475Y-65005152D01*
X165490475Y-65005152D02*
X165528571Y-64852771D01*
X165528571Y-64852771D02*
X165566666Y-64776580D01*
X165566666Y-64776580D02*
X165642856Y-64700390D01*
X165642856Y-64700390D02*
X165757142Y-64662295D01*
X165757142Y-64662295D02*
X165833333Y-64662295D01*
X165833333Y-64662295D02*
X165947618Y-64700390D01*
X165947618Y-64700390D02*
X165985714Y-64738485D01*
X166290475Y-64738485D02*
X166328571Y-64700390D01*
X166328571Y-64700390D02*
X166404761Y-64662295D01*
X166404761Y-64662295D02*
X166595237Y-64662295D01*
X166595237Y-64662295D02*
X166671428Y-64700390D01*
X166671428Y-64700390D02*
X166709523Y-64738485D01*
X166709523Y-64738485D02*
X166747618Y-64814676D01*
X166747618Y-64814676D02*
X166747618Y-64890866D01*
X166747618Y-64890866D02*
X166709523Y-65005152D01*
X166709523Y-65005152D02*
X166252380Y-65462295D01*
X166252380Y-65462295D02*
X166747618Y-65462295D01*
X167433333Y-64928961D02*
X167433333Y-65462295D01*
X167242857Y-64624200D02*
X167052380Y-65195628D01*
X167052380Y-65195628D02*
X167547619Y-65195628D01*
X181238095Y-37054819D02*
X181238095Y-36054819D01*
X181238095Y-36531009D02*
X181809523Y-36531009D01*
X181809523Y-37054819D02*
X181809523Y-36054819D01*
X182809523Y-37054819D02*
X182238095Y-37054819D01*
X182523809Y-37054819D02*
X182523809Y-36054819D01*
X182523809Y-36054819D02*
X182428571Y-36197676D01*
X182428571Y-36197676D02*
X182333333Y-36292914D01*
X182333333Y-36292914D02*
X182238095Y-36340533D01*
X171762295Y-69290475D02*
X170962295Y-69290475D01*
X170962295Y-69290475D02*
X170962295Y-69099999D01*
X170962295Y-69099999D02*
X171000390Y-68985713D01*
X171000390Y-68985713D02*
X171076580Y-68909523D01*
X171076580Y-68909523D02*
X171152771Y-68871428D01*
X171152771Y-68871428D02*
X171305152Y-68833332D01*
X171305152Y-68833332D02*
X171419438Y-68833332D01*
X171419438Y-68833332D02*
X171571819Y-68871428D01*
X171571819Y-68871428D02*
X171648009Y-68909523D01*
X171648009Y-68909523D02*
X171724200Y-68985713D01*
X171724200Y-68985713D02*
X171762295Y-69099999D01*
X171762295Y-69099999D02*
X171762295Y-69290475D01*
X170962295Y-68566666D02*
X170962295Y-68071428D01*
X170962295Y-68071428D02*
X171267057Y-68338094D01*
X171267057Y-68338094D02*
X171267057Y-68223809D01*
X171267057Y-68223809D02*
X171305152Y-68147618D01*
X171305152Y-68147618D02*
X171343247Y-68109523D01*
X171343247Y-68109523D02*
X171419438Y-68071428D01*
X171419438Y-68071428D02*
X171609914Y-68071428D01*
X171609914Y-68071428D02*
X171686104Y-68109523D01*
X171686104Y-68109523D02*
X171724200Y-68147618D01*
X171724200Y-68147618D02*
X171762295Y-68223809D01*
X171762295Y-68223809D02*
X171762295Y-68452380D01*
X171762295Y-68452380D02*
X171724200Y-68528571D01*
X171724200Y-68528571D02*
X171686104Y-68566666D01*
X157062295Y-65114285D02*
X156681342Y-65380952D01*
X157062295Y-65571428D02*
X156262295Y-65571428D01*
X156262295Y-65571428D02*
X156262295Y-65266666D01*
X156262295Y-65266666D02*
X156300390Y-65190476D01*
X156300390Y-65190476D02*
X156338485Y-65152381D01*
X156338485Y-65152381D02*
X156414676Y-65114285D01*
X156414676Y-65114285D02*
X156528961Y-65114285D01*
X156528961Y-65114285D02*
X156605152Y-65152381D01*
X156605152Y-65152381D02*
X156643247Y-65190476D01*
X156643247Y-65190476D02*
X156681342Y-65266666D01*
X156681342Y-65266666D02*
X156681342Y-65571428D01*
X156338485Y-64809524D02*
X156300390Y-64771428D01*
X156300390Y-64771428D02*
X156262295Y-64695238D01*
X156262295Y-64695238D02*
X156262295Y-64504762D01*
X156262295Y-64504762D02*
X156300390Y-64428571D01*
X156300390Y-64428571D02*
X156338485Y-64390476D01*
X156338485Y-64390476D02*
X156414676Y-64352381D01*
X156414676Y-64352381D02*
X156490866Y-64352381D01*
X156490866Y-64352381D02*
X156605152Y-64390476D01*
X156605152Y-64390476D02*
X157062295Y-64847619D01*
X157062295Y-64847619D02*
X157062295Y-64352381D01*
X156528961Y-63666666D02*
X157062295Y-63666666D01*
X156224200Y-63857142D02*
X156795628Y-64047619D01*
X156795628Y-64047619D02*
X156795628Y-63552380D01*
X168885714Y-79462295D02*
X168619047Y-79081342D01*
X168428571Y-79462295D02*
X168428571Y-78662295D01*
X168428571Y-78662295D02*
X168733333Y-78662295D01*
X168733333Y-78662295D02*
X168809523Y-78700390D01*
X168809523Y-78700390D02*
X168847618Y-78738485D01*
X168847618Y-78738485D02*
X168885714Y-78814676D01*
X168885714Y-78814676D02*
X168885714Y-78928961D01*
X168885714Y-78928961D02*
X168847618Y-79005152D01*
X168847618Y-79005152D02*
X168809523Y-79043247D01*
X168809523Y-79043247D02*
X168733333Y-79081342D01*
X168733333Y-79081342D02*
X168428571Y-79081342D01*
X169190475Y-78738485D02*
X169228571Y-78700390D01*
X169228571Y-78700390D02*
X169304761Y-78662295D01*
X169304761Y-78662295D02*
X169495237Y-78662295D01*
X169495237Y-78662295D02*
X169571428Y-78700390D01*
X169571428Y-78700390D02*
X169609523Y-78738485D01*
X169609523Y-78738485D02*
X169647618Y-78814676D01*
X169647618Y-78814676D02*
X169647618Y-78890866D01*
X169647618Y-78890866D02*
X169609523Y-79005152D01*
X169609523Y-79005152D02*
X169152380Y-79462295D01*
X169152380Y-79462295D02*
X169647618Y-79462295D01*
X170104761Y-79005152D02*
X170028571Y-78967057D01*
X170028571Y-78967057D02*
X169990476Y-78928961D01*
X169990476Y-78928961D02*
X169952380Y-78852771D01*
X169952380Y-78852771D02*
X169952380Y-78814676D01*
X169952380Y-78814676D02*
X169990476Y-78738485D01*
X169990476Y-78738485D02*
X170028571Y-78700390D01*
X170028571Y-78700390D02*
X170104761Y-78662295D01*
X170104761Y-78662295D02*
X170257142Y-78662295D01*
X170257142Y-78662295D02*
X170333333Y-78700390D01*
X170333333Y-78700390D02*
X170371428Y-78738485D01*
X170371428Y-78738485D02*
X170409523Y-78814676D01*
X170409523Y-78814676D02*
X170409523Y-78852771D01*
X170409523Y-78852771D02*
X170371428Y-78928961D01*
X170371428Y-78928961D02*
X170333333Y-78967057D01*
X170333333Y-78967057D02*
X170257142Y-79005152D01*
X170257142Y-79005152D02*
X170104761Y-79005152D01*
X170104761Y-79005152D02*
X170028571Y-79043247D01*
X170028571Y-79043247D02*
X169990476Y-79081342D01*
X169990476Y-79081342D02*
X169952380Y-79157533D01*
X169952380Y-79157533D02*
X169952380Y-79309914D01*
X169952380Y-79309914D02*
X169990476Y-79386104D01*
X169990476Y-79386104D02*
X170028571Y-79424200D01*
X170028571Y-79424200D02*
X170104761Y-79462295D01*
X170104761Y-79462295D02*
X170257142Y-79462295D01*
X170257142Y-79462295D02*
X170333333Y-79424200D01*
X170333333Y-79424200D02*
X170371428Y-79386104D01*
X170371428Y-79386104D02*
X170409523Y-79309914D01*
X170409523Y-79309914D02*
X170409523Y-79157533D01*
X170409523Y-79157533D02*
X170371428Y-79081342D01*
X170371428Y-79081342D02*
X170333333Y-79043247D01*
X170333333Y-79043247D02*
X170257142Y-79005152D01*
X155185714Y-50786104D02*
X155147618Y-50824200D01*
X155147618Y-50824200D02*
X155033333Y-50862295D01*
X155033333Y-50862295D02*
X154957142Y-50862295D01*
X154957142Y-50862295D02*
X154842856Y-50824200D01*
X154842856Y-50824200D02*
X154766666Y-50748009D01*
X154766666Y-50748009D02*
X154728571Y-50671819D01*
X154728571Y-50671819D02*
X154690475Y-50519438D01*
X154690475Y-50519438D02*
X154690475Y-50405152D01*
X154690475Y-50405152D02*
X154728571Y-50252771D01*
X154728571Y-50252771D02*
X154766666Y-50176580D01*
X154766666Y-50176580D02*
X154842856Y-50100390D01*
X154842856Y-50100390D02*
X154957142Y-50062295D01*
X154957142Y-50062295D02*
X155033333Y-50062295D01*
X155033333Y-50062295D02*
X155147618Y-50100390D01*
X155147618Y-50100390D02*
X155185714Y-50138485D01*
X155947618Y-50862295D02*
X155490475Y-50862295D01*
X155719047Y-50862295D02*
X155719047Y-50062295D01*
X155719047Y-50062295D02*
X155642856Y-50176580D01*
X155642856Y-50176580D02*
X155566666Y-50252771D01*
X155566666Y-50252771D02*
X155490475Y-50290866D01*
X156633333Y-50328961D02*
X156633333Y-50862295D01*
X156442857Y-50024200D02*
X156252380Y-50595628D01*
X156252380Y-50595628D02*
X156747619Y-50595628D01*
X160686104Y-87214285D02*
X160724200Y-87252381D01*
X160724200Y-87252381D02*
X160762295Y-87366666D01*
X160762295Y-87366666D02*
X160762295Y-87442857D01*
X160762295Y-87442857D02*
X160724200Y-87557143D01*
X160724200Y-87557143D02*
X160648009Y-87633333D01*
X160648009Y-87633333D02*
X160571819Y-87671428D01*
X160571819Y-87671428D02*
X160419438Y-87709524D01*
X160419438Y-87709524D02*
X160305152Y-87709524D01*
X160305152Y-87709524D02*
X160152771Y-87671428D01*
X160152771Y-87671428D02*
X160076580Y-87633333D01*
X160076580Y-87633333D02*
X160000390Y-87557143D01*
X160000390Y-87557143D02*
X159962295Y-87442857D01*
X159962295Y-87442857D02*
X159962295Y-87366666D01*
X159962295Y-87366666D02*
X160000390Y-87252381D01*
X160000390Y-87252381D02*
X160038485Y-87214285D01*
X160228961Y-86528571D02*
X160762295Y-86528571D01*
X159924200Y-86719047D02*
X160495628Y-86909524D01*
X160495628Y-86909524D02*
X160495628Y-86414285D01*
X159962295Y-85957142D02*
X159962295Y-85880952D01*
X159962295Y-85880952D02*
X160000390Y-85804761D01*
X160000390Y-85804761D02*
X160038485Y-85766666D01*
X160038485Y-85766666D02*
X160114676Y-85728571D01*
X160114676Y-85728571D02*
X160267057Y-85690476D01*
X160267057Y-85690476D02*
X160457533Y-85690476D01*
X160457533Y-85690476D02*
X160609914Y-85728571D01*
X160609914Y-85728571D02*
X160686104Y-85766666D01*
X160686104Y-85766666D02*
X160724200Y-85804761D01*
X160724200Y-85804761D02*
X160762295Y-85880952D01*
X160762295Y-85880952D02*
X160762295Y-85957142D01*
X160762295Y-85957142D02*
X160724200Y-86033333D01*
X160724200Y-86033333D02*
X160686104Y-86071428D01*
X160686104Y-86071428D02*
X160609914Y-86109523D01*
X160609914Y-86109523D02*
X160457533Y-86147619D01*
X160457533Y-86147619D02*
X160267057Y-86147619D01*
X160267057Y-86147619D02*
X160114676Y-86109523D01*
X160114676Y-86109523D02*
X160038485Y-86071428D01*
X160038485Y-86071428D02*
X160000390Y-86033333D01*
X160000390Y-86033333D02*
X159962295Y-85957142D01*
X157286104Y-39514285D02*
X157324200Y-39552381D01*
X157324200Y-39552381D02*
X157362295Y-39666666D01*
X157362295Y-39666666D02*
X157362295Y-39742857D01*
X157362295Y-39742857D02*
X157324200Y-39857143D01*
X157324200Y-39857143D02*
X157248009Y-39933333D01*
X157248009Y-39933333D02*
X157171819Y-39971428D01*
X157171819Y-39971428D02*
X157019438Y-40009524D01*
X157019438Y-40009524D02*
X156905152Y-40009524D01*
X156905152Y-40009524D02*
X156752771Y-39971428D01*
X156752771Y-39971428D02*
X156676580Y-39933333D01*
X156676580Y-39933333D02*
X156600390Y-39857143D01*
X156600390Y-39857143D02*
X156562295Y-39742857D01*
X156562295Y-39742857D02*
X156562295Y-39666666D01*
X156562295Y-39666666D02*
X156600390Y-39552381D01*
X156600390Y-39552381D02*
X156638485Y-39514285D01*
X157362295Y-38752381D02*
X157362295Y-39209524D01*
X157362295Y-38980952D02*
X156562295Y-38980952D01*
X156562295Y-38980952D02*
X156676580Y-39057143D01*
X156676580Y-39057143D02*
X156752771Y-39133333D01*
X156752771Y-39133333D02*
X156790866Y-39209524D01*
X156638485Y-38447619D02*
X156600390Y-38409523D01*
X156600390Y-38409523D02*
X156562295Y-38333333D01*
X156562295Y-38333333D02*
X156562295Y-38142857D01*
X156562295Y-38142857D02*
X156600390Y-38066666D01*
X156600390Y-38066666D02*
X156638485Y-38028571D01*
X156638485Y-38028571D02*
X156714676Y-37990476D01*
X156714676Y-37990476D02*
X156790866Y-37990476D01*
X156790866Y-37990476D02*
X156905152Y-38028571D01*
X156905152Y-38028571D02*
X157362295Y-38485714D01*
X157362295Y-38485714D02*
X157362295Y-37990476D01*
X178066667Y-72586104D02*
X178028571Y-72624200D01*
X178028571Y-72624200D02*
X177914286Y-72662295D01*
X177914286Y-72662295D02*
X177838095Y-72662295D01*
X177838095Y-72662295D02*
X177723809Y-72624200D01*
X177723809Y-72624200D02*
X177647619Y-72548009D01*
X177647619Y-72548009D02*
X177609524Y-72471819D01*
X177609524Y-72471819D02*
X177571428Y-72319438D01*
X177571428Y-72319438D02*
X177571428Y-72205152D01*
X177571428Y-72205152D02*
X177609524Y-72052771D01*
X177609524Y-72052771D02*
X177647619Y-71976580D01*
X177647619Y-71976580D02*
X177723809Y-71900390D01*
X177723809Y-71900390D02*
X177838095Y-71862295D01*
X177838095Y-71862295D02*
X177914286Y-71862295D01*
X177914286Y-71862295D02*
X178028571Y-71900390D01*
X178028571Y-71900390D02*
X178066667Y-71938485D01*
X178371428Y-71938485D02*
X178409524Y-71900390D01*
X178409524Y-71900390D02*
X178485714Y-71862295D01*
X178485714Y-71862295D02*
X178676190Y-71862295D01*
X178676190Y-71862295D02*
X178752381Y-71900390D01*
X178752381Y-71900390D02*
X178790476Y-71938485D01*
X178790476Y-71938485D02*
X178828571Y-72014676D01*
X178828571Y-72014676D02*
X178828571Y-72090866D01*
X178828571Y-72090866D02*
X178790476Y-72205152D01*
X178790476Y-72205152D02*
X178333333Y-72662295D01*
X178333333Y-72662295D02*
X178828571Y-72662295D01*
X158108601Y-75562295D02*
X157841934Y-75181342D01*
X157651458Y-75562295D02*
X157651458Y-74762295D01*
X157651458Y-74762295D02*
X157956220Y-74762295D01*
X157956220Y-74762295D02*
X158032410Y-74800390D01*
X158032410Y-74800390D02*
X158070505Y-74838485D01*
X158070505Y-74838485D02*
X158108601Y-74914676D01*
X158108601Y-74914676D02*
X158108601Y-75028961D01*
X158108601Y-75028961D02*
X158070505Y-75105152D01*
X158070505Y-75105152D02*
X158032410Y-75143247D01*
X158032410Y-75143247D02*
X157956220Y-75181342D01*
X157956220Y-75181342D02*
X157651458Y-75181342D01*
X158375267Y-74762295D02*
X158908601Y-74762295D01*
X158908601Y-74762295D02*
X158565743Y-75562295D01*
X170162295Y-77090475D02*
X169362295Y-77090475D01*
X169362295Y-77090475D02*
X169362295Y-76899999D01*
X169362295Y-76899999D02*
X169400390Y-76785713D01*
X169400390Y-76785713D02*
X169476580Y-76709523D01*
X169476580Y-76709523D02*
X169552771Y-76671428D01*
X169552771Y-76671428D02*
X169705152Y-76633332D01*
X169705152Y-76633332D02*
X169819438Y-76633332D01*
X169819438Y-76633332D02*
X169971819Y-76671428D01*
X169971819Y-76671428D02*
X170048009Y-76709523D01*
X170048009Y-76709523D02*
X170124200Y-76785713D01*
X170124200Y-76785713D02*
X170162295Y-76899999D01*
X170162295Y-76899999D02*
X170162295Y-77090475D01*
X169362295Y-75947618D02*
X169362295Y-76099999D01*
X169362295Y-76099999D02*
X169400390Y-76176190D01*
X169400390Y-76176190D02*
X169438485Y-76214285D01*
X169438485Y-76214285D02*
X169552771Y-76290475D01*
X169552771Y-76290475D02*
X169705152Y-76328571D01*
X169705152Y-76328571D02*
X170009914Y-76328571D01*
X170009914Y-76328571D02*
X170086104Y-76290475D01*
X170086104Y-76290475D02*
X170124200Y-76252380D01*
X170124200Y-76252380D02*
X170162295Y-76176190D01*
X170162295Y-76176190D02*
X170162295Y-76023809D01*
X170162295Y-76023809D02*
X170124200Y-75947618D01*
X170124200Y-75947618D02*
X170086104Y-75909523D01*
X170086104Y-75909523D02*
X170009914Y-75871428D01*
X170009914Y-75871428D02*
X169819438Y-75871428D01*
X169819438Y-75871428D02*
X169743247Y-75909523D01*
X169743247Y-75909523D02*
X169705152Y-75947618D01*
X169705152Y-75947618D02*
X169667057Y-76023809D01*
X169667057Y-76023809D02*
X169667057Y-76176190D01*
X169667057Y-76176190D02*
X169705152Y-76252380D01*
X169705152Y-76252380D02*
X169743247Y-76290475D01*
X169743247Y-76290475D02*
X169819438Y-76328571D01*
X183485704Y-80368332D02*
X183523800Y-80406428D01*
X183523800Y-80406428D02*
X183561895Y-80520713D01*
X183561895Y-80520713D02*
X183561895Y-80596904D01*
X183561895Y-80596904D02*
X183523800Y-80711190D01*
X183523800Y-80711190D02*
X183447609Y-80787380D01*
X183447609Y-80787380D02*
X183371419Y-80825475D01*
X183371419Y-80825475D02*
X183219038Y-80863571D01*
X183219038Y-80863571D02*
X183104752Y-80863571D01*
X183104752Y-80863571D02*
X182952371Y-80825475D01*
X182952371Y-80825475D02*
X182876180Y-80787380D01*
X182876180Y-80787380D02*
X182799990Y-80711190D01*
X182799990Y-80711190D02*
X182761895Y-80596904D01*
X182761895Y-80596904D02*
X182761895Y-80520713D01*
X182761895Y-80520713D02*
X182799990Y-80406428D01*
X182799990Y-80406428D02*
X182838085Y-80368332D01*
X183028561Y-79682618D02*
X183561895Y-79682618D01*
X182723800Y-79873094D02*
X183295228Y-80063571D01*
X183295228Y-80063571D02*
X183295228Y-79568332D01*
X174866667Y-74371104D02*
X174828571Y-74409200D01*
X174828571Y-74409200D02*
X174714286Y-74447295D01*
X174714286Y-74447295D02*
X174638095Y-74447295D01*
X174638095Y-74447295D02*
X174523809Y-74409200D01*
X174523809Y-74409200D02*
X174447619Y-74333009D01*
X174447619Y-74333009D02*
X174409524Y-74256819D01*
X174409524Y-74256819D02*
X174371428Y-74104438D01*
X174371428Y-74104438D02*
X174371428Y-73990152D01*
X174371428Y-73990152D02*
X174409524Y-73837771D01*
X174409524Y-73837771D02*
X174447619Y-73761580D01*
X174447619Y-73761580D02*
X174523809Y-73685390D01*
X174523809Y-73685390D02*
X174638095Y-73647295D01*
X174638095Y-73647295D02*
X174714286Y-73647295D01*
X174714286Y-73647295D02*
X174828571Y-73685390D01*
X174828571Y-73685390D02*
X174866667Y-73723485D01*
X175552381Y-73647295D02*
X175400000Y-73647295D01*
X175400000Y-73647295D02*
X175323809Y-73685390D01*
X175323809Y-73685390D02*
X175285714Y-73723485D01*
X175285714Y-73723485D02*
X175209524Y-73837771D01*
X175209524Y-73837771D02*
X175171428Y-73990152D01*
X175171428Y-73990152D02*
X175171428Y-74294914D01*
X175171428Y-74294914D02*
X175209524Y-74371104D01*
X175209524Y-74371104D02*
X175247619Y-74409200D01*
X175247619Y-74409200D02*
X175323809Y-74447295D01*
X175323809Y-74447295D02*
X175476190Y-74447295D01*
X175476190Y-74447295D02*
X175552381Y-74409200D01*
X175552381Y-74409200D02*
X175590476Y-74371104D01*
X175590476Y-74371104D02*
X175628571Y-74294914D01*
X175628571Y-74294914D02*
X175628571Y-74104438D01*
X175628571Y-74104438D02*
X175590476Y-74028247D01*
X175590476Y-74028247D02*
X175552381Y-73990152D01*
X175552381Y-73990152D02*
X175476190Y-73952057D01*
X175476190Y-73952057D02*
X175323809Y-73952057D01*
X175323809Y-73952057D02*
X175247619Y-73990152D01*
X175247619Y-73990152D02*
X175209524Y-74028247D01*
X175209524Y-74028247D02*
X175171428Y-74104438D01*
X168486104Y-80533332D02*
X168524200Y-80571428D01*
X168524200Y-80571428D02*
X168562295Y-80685713D01*
X168562295Y-80685713D02*
X168562295Y-80761904D01*
X168562295Y-80761904D02*
X168524200Y-80876190D01*
X168524200Y-80876190D02*
X168448009Y-80952380D01*
X168448009Y-80952380D02*
X168371819Y-80990475D01*
X168371819Y-80990475D02*
X168219438Y-81028571D01*
X168219438Y-81028571D02*
X168105152Y-81028571D01*
X168105152Y-81028571D02*
X167952771Y-80990475D01*
X167952771Y-80990475D02*
X167876580Y-80952380D01*
X167876580Y-80952380D02*
X167800390Y-80876190D01*
X167800390Y-80876190D02*
X167762295Y-80761904D01*
X167762295Y-80761904D02*
X167762295Y-80685713D01*
X167762295Y-80685713D02*
X167800390Y-80571428D01*
X167800390Y-80571428D02*
X167838485Y-80533332D01*
X167762295Y-80266666D02*
X167762295Y-79733332D01*
X167762295Y-79733332D02*
X168562295Y-80076190D01*
X181356105Y-76633332D02*
X181394201Y-76671428D01*
X181394201Y-76671428D02*
X181432296Y-76785713D01*
X181432296Y-76785713D02*
X181432296Y-76861904D01*
X181432296Y-76861904D02*
X181394201Y-76976190D01*
X181394201Y-76976190D02*
X181318010Y-77052380D01*
X181318010Y-77052380D02*
X181241820Y-77090475D01*
X181241820Y-77090475D02*
X181089439Y-77128571D01*
X181089439Y-77128571D02*
X180975153Y-77128571D01*
X180975153Y-77128571D02*
X180822772Y-77090475D01*
X180822772Y-77090475D02*
X180746581Y-77052380D01*
X180746581Y-77052380D02*
X180670391Y-76976190D01*
X180670391Y-76976190D02*
X180632296Y-76861904D01*
X180632296Y-76861904D02*
X180632296Y-76785713D01*
X180632296Y-76785713D02*
X180670391Y-76671428D01*
X180670391Y-76671428D02*
X180708486Y-76633332D01*
X180632296Y-76366666D02*
X180632296Y-75871428D01*
X180632296Y-75871428D02*
X180937058Y-76138094D01*
X180937058Y-76138094D02*
X180937058Y-76023809D01*
X180937058Y-76023809D02*
X180975153Y-75947618D01*
X180975153Y-75947618D02*
X181013248Y-75909523D01*
X181013248Y-75909523D02*
X181089439Y-75871428D01*
X181089439Y-75871428D02*
X181279915Y-75871428D01*
X181279915Y-75871428D02*
X181356105Y-75909523D01*
X181356105Y-75909523D02*
X181394201Y-75947618D01*
X181394201Y-75947618D02*
X181432296Y-76023809D01*
X181432296Y-76023809D02*
X181432296Y-76252380D01*
X181432296Y-76252380D02*
X181394201Y-76328571D01*
X181394201Y-76328571D02*
X181356105Y-76366666D01*
%TO.C,R29*%
D11*
X167370000Y-76653641D02*
X167370000Y-76346359D01*
X168130000Y-76653641D02*
X168130000Y-76346359D01*
%TO.C,D15*%
D12*
X168800000Y-69910000D02*
G75*
G02*
X168700000Y-69910000I-50000J0D01*
G01*
X168700000Y-69910000D02*
G75*
G02*
X168800000Y-69910000I50000J0D01*
G01*
%TO.C,C18*%
D11*
X161367200Y-67058964D02*
X161367200Y-67274636D01*
X162087200Y-67058964D02*
X162087200Y-67274636D01*
%TO.C,R11*%
X157903641Y-49120000D02*
X157596359Y-49120000D01*
X157903641Y-49880000D02*
X157596359Y-49880000D01*
%TO.C,R13*%
X173479961Y-69440263D02*
X173172679Y-69440263D01*
X173479961Y-70200263D02*
X173172679Y-70200263D01*
%TO.C,R4*%
X177870000Y-81596359D02*
X177870000Y-81903641D01*
X178630000Y-81596359D02*
X178630000Y-81903641D01*
%TO.C,C41*%
X162390000Y-103642164D02*
X162390000Y-103857836D01*
X163110000Y-103642164D02*
X163110000Y-103857836D01*
%TO.C,U2*%
X163896400Y-81525600D02*
X163896400Y-81295600D01*
X163896400Y-84515600D02*
X163896400Y-84285600D01*
X164871400Y-81295600D02*
X163896400Y-81295600D01*
X164871400Y-84515600D02*
X163896400Y-84515600D01*
X166826400Y-84515600D02*
X166141400Y-84515600D01*
X167116400Y-81295600D02*
X166141400Y-81295600D01*
X167116400Y-81525600D02*
X167116400Y-81295600D01*
X167146400Y-84515600D02*
X167426400Y-84515600D01*
X167146400Y-84795600D01*
X167146400Y-84515600D01*
G36*
X167146400Y-84795600D02*
G01*
X167146400Y-84515600D01*
X167426400Y-84515600D01*
X167146400Y-84795600D01*
G37*
%TO.C,L2*%
X167746400Y-82905600D02*
X167746400Y-81655600D01*
X170266400Y-84155600D02*
X170266400Y-81655600D01*
%TO.C,J4*%
X174640000Y-85540000D02*
X176390000Y-85540000D01*
X174640000Y-86190000D02*
X174640000Y-85540000D01*
X174640000Y-89460000D02*
X174640000Y-89010000D01*
X180610000Y-85540000D02*
X180610000Y-83650000D01*
X182360000Y-85540000D02*
X180610000Y-85540000D01*
X182360000Y-86190000D02*
X182360000Y-85540000D01*
X182360000Y-89010000D02*
X182360000Y-89460000D01*
X182360000Y-89460000D02*
X174640000Y-89460000D01*
%TO.C,R14*%
X173464421Y-63439801D02*
X173157139Y-63439801D01*
X173464421Y-64199801D02*
X173157139Y-64199801D01*
%TO.C,SW3*%
X154650000Y-41850000D02*
X158850000Y-41850000D01*
X154650000Y-42240000D02*
X154650000Y-41850000D01*
X154650000Y-44760000D02*
X154650000Y-45150000D01*
X154650000Y-45150000D02*
X158850000Y-45150000D01*
X158850000Y-41850000D02*
X158850000Y-42240000D01*
X158850000Y-45150000D02*
X158850000Y-44760000D01*
%TO.C,C23*%
X159470436Y-65376000D02*
X159254764Y-65376000D01*
X159470436Y-66096000D02*
X159254764Y-66096000D01*
%TO.C,C33*%
X164119364Y-70556800D02*
X164335036Y-70556800D01*
X164119364Y-71276800D02*
X164335036Y-71276800D01*
%TO.C,MK2*%
X163472500Y-101652500D02*
X166352500Y-101652500D01*
X163472500Y-105372500D02*
X163472500Y-101652500D01*
X166052500Y-105372500D02*
X163472500Y-105372500D01*
X166352500Y-101652500D02*
X166352500Y-105072500D01*
X166352500Y-105372500D02*
X166632500Y-105372500D01*
X166352500Y-105652500D01*
X166352500Y-105372500D01*
G36*
X166352500Y-105652500D02*
G01*
X166352500Y-105372500D01*
X166632500Y-105372500D01*
X166352500Y-105652500D01*
G37*
%TO.C,U6*%
D13*
X158637600Y-59736000D02*
X158637600Y-60031000D01*
X158637600Y-59736000D02*
X158932600Y-59736000D01*
X158637600Y-64736000D02*
X158637600Y-64441000D01*
X158637600Y-64736000D02*
X158932600Y-64736000D01*
X163637600Y-59736000D02*
X163342600Y-59736000D01*
X163637600Y-59736000D02*
X163637600Y-60031000D01*
X163637600Y-64736000D02*
X163342600Y-64736000D01*
X163637600Y-64736000D02*
X163637600Y-64441000D01*
D14*
X163287600Y-58941000D02*
G75*
G02*
X163087600Y-58941000I-100000J0D01*
G01*
X163087600Y-58941000D02*
G75*
G02*
X163287600Y-58941000I100000J0D01*
G01*
%TO.C,R18*%
D11*
X162153641Y-65370000D02*
X161846359Y-65370000D01*
X162153641Y-66130000D02*
X161846359Y-66130000D01*
%TO.C,R35*%
X181356359Y-57870000D02*
X181663641Y-57870000D01*
X181356359Y-58630000D02*
X181663641Y-58630000D01*
%TO.C,C21*%
X160335036Y-67306800D02*
X160119364Y-67306800D01*
X160335036Y-68026800D02*
X160119364Y-68026800D01*
%TO.C,R19*%
X173865959Y-78855000D02*
X174173241Y-78855000D01*
X173865959Y-79615000D02*
X174173241Y-79615000D01*
%TO.C,C9*%
X163470600Y-86288748D02*
X163470600Y-86811252D01*
X164940600Y-86288748D02*
X164940600Y-86811252D01*
%TO.C,C32*%
X156867200Y-71308964D02*
X156867200Y-71524636D01*
X157587200Y-71308964D02*
X157587200Y-71524636D01*
%TO.C,C39*%
X155765000Y-69061252D02*
X155765000Y-68538748D01*
X157235000Y-69061252D02*
X157235000Y-68538748D01*
%TO.C,R12*%
X155120000Y-40653641D02*
X155120000Y-40346359D01*
X155880000Y-40653641D02*
X155880000Y-40346359D01*
%TO.C,C5*%
X176159600Y-73842836D02*
X176159600Y-73627164D01*
X176879600Y-73842836D02*
X176879600Y-73627164D01*
%TO.C,R22*%
X173476490Y-65933670D02*
X173169208Y-65933670D01*
X173476490Y-66693670D02*
X173169208Y-66693670D01*
%TO.C,J1*%
X180331004Y-45210000D02*
X180331004Y-42735000D01*
X180824296Y-45210000D02*
X180331004Y-45210000D01*
X181173081Y-42735000D02*
X180331004Y-42735000D01*
X182651004Y-42735000D02*
X181808927Y-42735000D01*
X182651004Y-45210000D02*
X182157712Y-45210000D01*
X182651004Y-45210000D02*
X182651004Y-42735000D01*
X182651004Y-46020000D02*
X182651004Y-46830000D01*
X182651004Y-46830000D02*
X181491004Y-46830000D01*
%TO.C,D5*%
X169476800Y-68871200D02*
X169476800Y-70831200D01*
X169476800Y-70831200D02*
X170676800Y-70831200D01*
X170676800Y-68871200D02*
X170676800Y-70831200D01*
%TO.C,R33*%
X181903641Y-54620000D02*
X181596359Y-54620000D01*
X181903641Y-55380000D02*
X181596359Y-55380000D01*
%TO.C,C35*%
X155642164Y-60140000D02*
X155857836Y-60140000D01*
X155642164Y-60860000D02*
X155857836Y-60860000D01*
%TO.C,R6*%
X176870000Y-81596359D02*
X176870000Y-81903641D01*
X177630000Y-81596359D02*
X177630000Y-81903641D01*
%TO.C,R27*%
X167096359Y-77620000D02*
X167403641Y-77620000D01*
X167096359Y-78380000D02*
X167403641Y-78380000D01*
%TO.C,C1*%
X173530852Y-75750000D02*
X173008348Y-75750000D01*
X173530852Y-77220000D02*
X173008348Y-77220000D01*
%TO.C,D13*%
D12*
X167550000Y-69910000D02*
G75*
G02*
X167450000Y-69910000I-50000J0D01*
G01*
X167450000Y-69910000D02*
G75*
G02*
X167550000Y-69910000I50000J0D01*
G01*
%TO.C,C29*%
D11*
X161265000Y-74988748D02*
X161265000Y-75511252D01*
X162735000Y-74988748D02*
X162735000Y-75511252D01*
%TO.C,R3*%
X175620000Y-81596359D02*
X175620000Y-81903641D01*
X176380000Y-81596359D02*
X176380000Y-81903641D01*
%TO.C,C10*%
X162614236Y-82015600D02*
X162398564Y-82015600D01*
X162614236Y-82735600D02*
X162398564Y-82735600D01*
%TO.C,U7*%
D13*
X158477200Y-68916800D02*
X158477200Y-69606800D01*
X158477200Y-72226800D02*
X158477200Y-72916800D01*
X158477200Y-72916800D02*
X159167200Y-72916800D01*
X159167200Y-68916800D02*
X158477200Y-68916800D01*
X161787200Y-72916800D02*
X162477200Y-72916800D01*
X162477200Y-68916800D02*
X161787200Y-68916800D01*
X162477200Y-69606800D02*
X162477200Y-68916800D01*
X162477200Y-72916800D02*
X162477200Y-72226800D01*
D12*
X157527200Y-69916800D02*
G75*
G02*
X157427200Y-69916800I-50000J0D01*
G01*
X157427200Y-69916800D02*
G75*
G02*
X157527200Y-69916800I50000J0D01*
G01*
%TO.C,C27*%
D11*
X158857836Y-58390000D02*
X158642164Y-58390000D01*
X158857836Y-59110000D02*
X158642164Y-59110000D01*
%TO.C,D16*%
D12*
X168800000Y-72527500D02*
G75*
G02*
X168700000Y-72527500I-50000J0D01*
G01*
X168700000Y-72527500D02*
G75*
G02*
X168800000Y-72527500I50000J0D01*
G01*
%TO.C,R36*%
D11*
X155903641Y-61120000D02*
X155596359Y-61120000D01*
X155903641Y-61880000D02*
X155596359Y-61880000D01*
%TO.C,R10*%
X162876400Y-79721959D02*
X162876400Y-80029241D01*
X163636400Y-79721959D02*
X163636400Y-80029241D01*
%TO.C,R34*%
X181346359Y-50870000D02*
X181653641Y-50870000D01*
X181346359Y-51630000D02*
X181653641Y-51630000D01*
%TO.C,F2*%
X172678864Y-71161200D02*
X171474736Y-71161200D01*
X172678864Y-72981200D02*
X171474736Y-72981200D01*
%TO.C,C8*%
X165470600Y-86288748D02*
X165470600Y-86811252D01*
X166940600Y-86288748D02*
X166940600Y-86811252D01*
%TO.C,C19*%
X165004764Y-61640000D02*
X165220436Y-61640000D01*
X165004764Y-62360000D02*
X165220436Y-62360000D01*
%TO.C,C31*%
X162367200Y-67058964D02*
X162367200Y-67274636D01*
X163087200Y-67058964D02*
X163087200Y-67274636D01*
%TO.C,C22*%
X165004764Y-63126000D02*
X165220436Y-63126000D01*
X165004764Y-63846000D02*
X165220436Y-63846000D01*
%TO.C,D4*%
X172372849Y-64463670D02*
X174332849Y-64463670D01*
X172372849Y-65663670D02*
X174332849Y-65663670D01*
X174332849Y-65663670D02*
X174332849Y-64463670D01*
%TO.C,C13*%
X158640000Y-39127836D02*
X158640000Y-38912164D01*
X159360000Y-39127836D02*
X159360000Y-38912164D01*
%TO.C,R23*%
X173476131Y-66939318D02*
X173168849Y-66939318D01*
X173476131Y-67699318D02*
X173168849Y-67699318D01*
%TO.C,C15*%
X154140000Y-40392164D02*
X154140000Y-40607836D01*
X154860000Y-40392164D02*
X154860000Y-40607836D01*
%TO.C,C20*%
X163390000Y-66142164D02*
X163390000Y-66357836D01*
X164110000Y-66142164D02*
X164110000Y-66357836D01*
%TO.C,U4*%
X160746807Y-30244169D02*
X160746807Y-37494169D01*
X160746807Y-30244169D02*
X178746807Y-30244169D01*
X160746807Y-56994169D02*
X160746807Y-57744169D01*
X160746807Y-57744169D02*
X161746807Y-57744169D01*
X178746807Y-30244169D02*
X178746807Y-37494169D01*
X178746807Y-36744169D02*
X160746807Y-36744169D01*
X178746807Y-56969169D02*
X178746807Y-57744169D01*
X178746807Y-57744169D02*
X177746807Y-57744169D01*
%TO.C,SW2*%
X154650000Y-45600000D02*
X158850000Y-45600000D01*
X154650000Y-45990000D02*
X154650000Y-45600000D01*
X154650000Y-48510000D02*
X154650000Y-48900000D01*
X154650000Y-48900000D02*
X158850000Y-48900000D01*
X158850000Y-45600000D02*
X158850000Y-45990000D01*
X158850000Y-48900000D02*
X158850000Y-48510000D01*
%TO.C,D14*%
D12*
X167550000Y-72527500D02*
G75*
G02*
X167450000Y-72527500I-50000J0D01*
G01*
X167450000Y-72527500D02*
G75*
G02*
X167550000Y-72527500I50000J0D01*
G01*
%TO.C,C26*%
D11*
X164335036Y-68556800D02*
X164119364Y-68556800D01*
X164335036Y-69276800D02*
X164119364Y-69276800D01*
%TO.C,L1*%
X178769600Y-75245000D02*
X181269600Y-75245000D01*
X180019600Y-72725000D02*
X181269600Y-72725000D01*
%TO.C,C30*%
X164335036Y-74640000D02*
X164119364Y-74640000D01*
X164335036Y-75360000D02*
X164119364Y-75360000D01*
%TO.C,C28*%
X160140000Y-74642164D02*
X160140000Y-74857836D01*
X160860000Y-74642164D02*
X160860000Y-74857836D01*
%TO.C,C34*%
X181642164Y-53640000D02*
X181857836Y-53640000D01*
X181642164Y-54360000D02*
X181857836Y-54360000D01*
%TO.C,P1*%
X177651800Y-71331200D02*
X179571800Y-71331200D01*
X179571800Y-62171200D02*
X177651800Y-62171200D01*
X181581800Y-62171200D02*
X183286800Y-62171200D01*
X183286800Y-62171200D02*
X183286800Y-71331200D01*
X183286800Y-71331200D02*
X181581800Y-71331200D01*
%TO.C,U1*%
X175664600Y-75995000D02*
X176139600Y-75995000D01*
X175664600Y-76470000D02*
X175664600Y-75995000D01*
X175664600Y-80215000D02*
X175664600Y-79740000D01*
X176139600Y-80215000D02*
X175664600Y-80215000D01*
X179409600Y-75995000D02*
X179884600Y-75995000D01*
X179884600Y-75995000D02*
X179884600Y-76470000D01*
X179884600Y-79740000D02*
X179884600Y-80215000D01*
X179884600Y-80215000D02*
X179409600Y-80215000D01*
X175134600Y-76855000D02*
X174804600Y-77095000D01*
X174804600Y-76615000D01*
X175134600Y-76855000D01*
G36*
X175134600Y-76855000D02*
G01*
X174804600Y-77095000D01*
X174804600Y-76615000D01*
X175134600Y-76855000D01*
G37*
%TO.C,R20*%
X173865959Y-79855000D02*
X174173241Y-79855000D01*
X173865959Y-80615000D02*
X174173241Y-80615000D01*
%TO.C,C24*%
X164502600Y-64878164D02*
X164502600Y-65093836D01*
X165222600Y-64878164D02*
X165222600Y-65093836D01*
%TO.C,D3*%
X172372490Y-67969318D02*
X174332490Y-67969318D01*
X172372490Y-69169318D02*
X174332490Y-69169318D01*
X174332490Y-69169318D02*
X174332490Y-67969318D01*
%TO.C,R24*%
X157232600Y-62846359D02*
X157232600Y-63153641D01*
X157992600Y-62846359D02*
X157992600Y-63153641D01*
%TO.C,R28*%
X169096359Y-77620000D02*
X169403641Y-77620000D01*
X169096359Y-78380000D02*
X169403641Y-78380000D01*
%TO.C,C14*%
X155857836Y-49140000D02*
X155642164Y-49140000D01*
X155857836Y-49860000D02*
X155642164Y-49860000D01*
%TO.C,C40*%
X161045000Y-84480000D02*
X161045000Y-88400000D01*
X162955000Y-84480000D02*
X161045000Y-84480000D01*
X162955000Y-88400000D02*
X162955000Y-84480000D01*
%TO.C,C38*%
X164738748Y-71765000D02*
X165261252Y-71765000D01*
X164738748Y-73235000D02*
X165261252Y-73235000D01*
%TO.C,C12*%
X157640000Y-39127836D02*
X157640000Y-38912164D01*
X158360000Y-39127836D02*
X158360000Y-38912164D01*
%TO.C,C2*%
X177159600Y-73627164D02*
X177159600Y-73842836D01*
X177879600Y-73627164D02*
X177879600Y-73842836D01*
%TO.C,R7*%
X158096359Y-73786800D02*
X158403641Y-73786800D01*
X158096359Y-74546800D02*
X158403641Y-74546800D01*
%TO.C,D6*%
D12*
X168800000Y-75410000D02*
G75*
G02*
X168700000Y-75410000I-50000J0D01*
G01*
X168700000Y-75410000D02*
G75*
G02*
X168800000Y-75410000I50000J0D01*
G01*
%TO.C,J2*%
D11*
X154890000Y-77790000D02*
X156640000Y-77790000D01*
X154890000Y-78440000D02*
X154890000Y-77790000D01*
X154890000Y-81710000D02*
X154890000Y-81260000D01*
X159360000Y-77790000D02*
X159360000Y-75900000D01*
X161110000Y-77790000D02*
X159360000Y-77790000D01*
X161110000Y-78440000D02*
X161110000Y-77790000D01*
X161110000Y-81260000D02*
X161110000Y-81710000D01*
X161110000Y-81710000D02*
X154890000Y-81710000D01*
%TO.C,C4*%
X180784600Y-79973748D02*
X180784600Y-80496252D01*
X182254600Y-79973748D02*
X182254600Y-80496252D01*
%TO.C,C6*%
X175127436Y-74625000D02*
X174911764Y-74625000D01*
X175127436Y-75345000D02*
X174911764Y-75345000D01*
%TO.C,C7*%
X166017652Y-78920600D02*
X165495148Y-78920600D01*
X166017652Y-80390600D02*
X165495148Y-80390600D01*
%TO.C,C3*%
X182015000Y-76761253D02*
X182015000Y-76238747D01*
X183485000Y-76761253D02*
X183485000Y-76238747D01*
%TD*%
M02*
