M48
; DRILL file KiCad 10.0.3 date 2026-08-01T14:19:13
; FORMAT={-:-/ absolute / metric / decimal}
; #@! TF.CreationDate,2026-08-01T14:19:13+03:00
; #@! TF.GenerationSoftware,Kicad,Pcbnew,10.0.3
; #@! TF.FileFunction,Plated,1,4,PTH
FMAT,2
METRIC
; #@! TA.AperFunction,Plated,PTH,ViaDrill
T1C0.200
; #@! TA.AperFunction,Plated,PTH,ComponentDrill
T2C0.200
; #@! TA.AperFunction,Plated,PTH,ComponentDrill
T3C0.400
; #@! TA.AperFunction,Plated,PTH,ComponentDrill
T4C0.600
; #@! TA.AperFunction,Plated,PTH,ComponentDrill
T5C0.650
; #@! TA.AperFunction,Plated,PTH,ComponentDrill
T6C2.200
%
G90
G05
T1
X154.55Y-61.7
X154.6Y-60.25
X155.0Y-57.9
X155.3Y-48.8
X155.75Y-43.85
X155.8Y-42.4
X155.8Y-56.45
X156.045Y-52.795
X156.1Y-64.0
X156.25Y-46.75
X156.25Y-48.45
X156.4Y-66.8
X156.4Y-72.0
X156.45Y-42.1
X156.6Y-58.2
X156.6Y-71.45
X156.85Y-72.45
X156.9Y-66.8
X157.0Y-59.9
X157.0Y-60.325
X157.123Y-74.15
X157.305Y-39.15
X157.305Y-39.575
X157.35Y-50.45
X157.405Y-40.025
X157.6Y-72.5
X157.8Y-68.65
X157.85Y-66.75
X157.85Y-67.412
X157.871Y-69.429
X157.9Y-68.05
X157.95Y-50.8
X158.0Y-61.824
X158.005Y-38.025
X158.086Y-60.986
X158.1Y-60.4
X158.15Y-68.65
X158.192Y-51.258
X158.344Y-69.3
X158.5Y-58.05
X158.705Y-38.025
X158.75Y-59.65
X159.15Y-58.1
X159.27Y-65.349
X159.4Y-38.0
X159.65Y-58.1
X159.7Y-63.6
X159.75Y-49.15
X159.8Y-60.8
X159.9Y-55.9
X160.1Y-38.0
X160.101Y-59.101
X160.35Y-58.5
X160.4Y-73.573
X160.65Y-66.2
X160.7Y-84.1
X160.701Y-75.9
X160.9Y-76.2
X160.9Y-89.3
X161.2Y-62.3
X161.2Y-73.75
X161.2Y-84.1
X161.4Y-89.3
X161.7Y-84.1
X161.9Y-89.3
X162.0Y-73.4
X162.15Y-43.8
X162.2Y-84.1
X162.4Y-89.3
X162.5Y-60.8
X162.5Y-63.7
X162.5Y-69.45
X162.5Y-73.4
X162.55Y-42.9
X162.7Y-84.1
X162.85Y-83.4
X162.9Y-56.75
X162.9Y-89.3
X163.0Y-75.5
X163.033Y-68.917
X163.05Y-105.5
X163.2Y-76.2
X163.2Y-84.1
X163.3Y-71.25
X163.3Y-71.9
X163.35Y-83.4
X163.5Y-75.8
X163.5Y-84.5
X163.7Y-71.5
X163.851Y-88.406
X164.124Y-54.824
X164.2Y-48.7
X164.2Y-53.4
X164.2Y-71.5
X164.25Y-63.15
X164.277Y-88.406
X164.35Y-61.15
X164.4Y-64.15
X164.4Y-64.6
X164.5Y-56.85
X164.5Y-105.5
X164.55Y-51.2
X164.55Y-67.55
X164.614Y-66.036
X164.8Y-46.05
X164.8Y-63.0
X164.8Y-80.9
X164.8Y-88.406
X164.85Y-61.15
X164.9Y-71.6
X164.905Y-54.805
X164.95Y-101.65
X165.0Y-81.4
X165.3Y-80.9
X165.5Y-105.5
X165.593Y-64.668
X165.6Y-81.3
X165.647Y-62.903
X165.7Y-62.5
X165.7Y-73.45
X165.7Y-73.9
X165.7Y-88.406
X165.95Y-53.1
X166.2Y-73.45
X166.2Y-73.9
X166.25Y-88.406
X166.6Y-47.9
X166.75Y-68.4
X166.8Y-88.406
X166.85Y-50.9
X166.868Y-105.268
X167.35Y-45.05
X167.5Y-72.2
X167.75Y-47.85
X167.75Y-74.85
X167.8Y-79.7
X167.843Y-39.45
X168.0Y-69.9
X168.1Y-80.2
X168.15Y-72.1
X168.288Y-76.512
X168.3Y-79.4
X168.4Y-63.05
X168.5Y-88.3
X168.6Y-79.9
X168.6Y-80.6
X168.7Y-49.55
X168.9Y-44.05
X168.9Y-69.0
X168.905Y-69.895
X169.03Y-80.796
X169.1Y-80.2
X169.5Y-59.6
X169.5Y-80.6
X169.6Y-60.6
X169.825Y-41.961
X170.55Y-44.1
X170.65Y-49.45
X170.7Y-80.1
X170.8Y-79.6
X171.1Y-80.5
X171.2Y-79.2
X171.3Y-62.35
X171.3Y-75.8
X171.3Y-76.55
X171.3Y-80.0
X171.6Y-75.3
X171.6Y-79.6
X171.7Y-42.55
X171.7Y-59.2
X171.7Y-80.5
X171.8Y-39.903
X172.0Y-71.5
X172.0Y-71.958
X172.0Y-72.415
X172.0Y-72.9
X172.1Y-58.8
X172.1Y-80.0
X172.3Y-44.1
X172.3Y-74.65
X172.3Y-75.1
X172.4Y-69.3
X172.55Y-58.45
X172.7Y-49.6
X172.9Y-74.65
X172.9Y-75.1
X172.95Y-58.1
X173.05Y-77.45
X173.2Y-76.5
X173.2Y-77.0
X173.3Y-45.1
X173.4Y-46.8
X173.4Y-48.5
X173.5Y-74.65
X173.5Y-75.1
X173.6Y-70.6
X174.0Y-78.6
X174.05Y-44.9
X174.35Y-80.9
X174.4Y-70.6
X174.7Y-63.2
X174.95Y-44.4
X174.95Y-75.5
X175.108Y-54.45
X175.8Y-80.6
X176.15Y-40.8
X176.25Y-39.6
X176.657Y-53.85
X176.7Y-38.3
X176.8Y-45.695
X176.95Y-55.15
X177.15Y-38.05
X177.2Y-38.6
X177.45Y-64.3
X177.5Y-75.4
X177.55Y-82.7
X177.6Y-70.05
X177.85Y-63.95
X177.9Y-64.4
X178.35Y-65.6
X178.4Y-64.9
X178.65Y-68.75
X179.0Y-63.5
X179.0Y-64.0
X179.0Y-64.5
X179.1Y-80.9
X179.6Y-63.5
X179.6Y-64.0
X179.6Y-64.5
X180.4Y-51.9
X180.45Y-57.65
X180.5Y-50.4
X180.6Y-55.2
X180.8Y-82.1
X180.873Y-68.631
X180.9Y-66.9
X180.9Y-82.6
X181.1Y-66.6
X181.1Y-67.2
X181.3Y-82.1
X181.356Y-70.155
X181.5Y-82.6
X181.534Y-64.389
X181.785Y-51.965
X181.8Y-82.1
X181.991Y-64.389
X182.118Y-68.58
X182.118Y-69.088
X182.118Y-69.647
X182.118Y-70.104
X182.2Y-74.0
X182.2Y-74.5
X182.55Y-64.389
X182.6Y-67.6
X182.7Y-51.9
X182.7Y-74.0
X182.7Y-74.5
X182.8Y-78.5
X182.8Y-79.1
X182.8Y-79.7
X182.8Y-80.3
X182.829Y-64.846
X182.855Y-65.405
X182.855Y-65.888
X182.88Y-66.599
X182.9Y-67.1
X182.985Y-58.165
X183.2Y-74.0
X183.2Y-74.5
X183.3Y-54.4
X183.3Y-78.5
X183.3Y-79.1
X183.3Y-79.7
X183.3Y-80.3
T2
X164.931Y-82.906
X165.506Y-81.956
X165.506Y-83.856
X166.081Y-82.906
X176.675Y-77.005
X176.675Y-78.105
X176.675Y-79.205
X177.775Y-77.005
X177.775Y-78.105
X177.775Y-79.205
X178.875Y-77.005
X178.875Y-78.105
X178.875Y-79.205
T3
X154.1Y-87.75
X154.583Y-86.583
X154.583Y-88.917
X155.75Y-86.1
X155.75Y-89.4
X156.917Y-86.583
X156.917Y-88.917
X157.4Y-87.75
X180.35Y-39.75
X180.833Y-38.583
X180.833Y-40.917
X182.0Y-38.1
X182.0Y-41.4
X183.167Y-38.583
X183.167Y-40.917
X183.65Y-39.75
T5
X181.491Y-43.48
X181.491Y-44.75
X181.491Y-46.02
T6
X155.75Y-87.75
X182.0Y-39.75
T4
G00X175.827Y-62.431
M15
G01X176.927Y-62.431
M16
G05
G00X175.827Y-71.071
M15
G01X176.927Y-71.071
M16
G05
G00X180.177Y-62.431
M15
G01X180.977Y-62.431
M16
G05
G00X180.177Y-71.071
M15
G01X180.977Y-71.071
M16
G05
M30
