%TF.GenerationSoftware,KiCad,Pcbnew,10.0.3*%
%TF.CreationDate,2026-08-01T14:18:51+03:00*%
%TF.ProjectId,Conversational AI audio guide handset,436f6e76-6572-4736-9174-696f6e616c20,rev?*%
%TF.SameCoordinates,Original*%
%TF.FileFunction,Paste,Top*%
%TF.FilePolarity,Positive*%
%FSLAX46Y46*%
G04 Gerber Fmt 4.6, Leading zero omitted, Abs format (unit mm)*
G04 Created by KiCad (PCBNEW 10.0.3) date 2026-08-01 14:18:51*
%MOMM*%
%LPD*%
G01*
G04 APERTURE LIST*
G04 Aperture macros list*
%AMRoundRect*
0 Rectangle with rounded corners*
0 $1 Rounding radius*
0 $2 $3 $4 $5 $6 $7 $8 $9 X,Y pos of 4 corners*
0 Add a 4 corners polygon primitive as box body*
4,1,4,$2,$3,$4,$5,$6,$7,$8,$9,$2,$3,0*
0 Add four circle primitives for the rounded corners*
1,1,$1+$1,$2,$3*
1,1,$1+$1,$4,$5*
1,1,$1+$1,$6,$7*
1,1,$1+$1,$8,$9*
0 Add four rect primitives between the rounded corners*
20,1,$1+$1,$2,$3,$4,$5,0*
20,1,$1+$1,$4,$5,$6,$7,0*
20,1,$1+$1,$6,$7,$8,$9,0*
20,1,$1+$1,$8,$9,$2,$3,0*%
G04 Aperture macros list end*
%ADD10C,0.300000*%
%ADD11C,0.010000*%
%ADD12RoundRect,0.135000X0.185000X-0.135000X0.185000X0.135000X-0.185000X0.135000X-0.185000X-0.135000X0*%
%ADD13RoundRect,0.147500X-0.172500X0.147500X-0.172500X-0.147500X0.172500X-0.147500X0.172500X0.147500X0*%
%ADD14RoundRect,0.140000X-0.170000X0.140000X-0.170000X-0.140000X0.170000X-0.140000X0.170000X0.140000X0*%
%ADD15RoundRect,0.135000X0.135000X0.185000X-0.135000X0.185000X-0.135000X-0.185000X0.135000X-0.185000X0*%
%ADD16RoundRect,0.135000X-0.185000X0.135000X-0.185000X-0.135000X0.185000X-0.135000X0.185000X0.135000X0*%
%ADD17RoundRect,0.025000X0.100000X0.145000X-0.100000X0.145000X-0.100000X-0.145000X0.100000X-0.145000X0*%
%ADD18RoundRect,0.106000X0.644000X0.424000X-0.644000X0.424000X-0.644000X-0.424000X0.644000X-0.424000X0*%
%ADD19RoundRect,0.060000X0.240000X0.060000X-0.240000X0.060000X-0.240000X-0.060000X0.240000X-0.060000X0*%
%ADD20R,2.000000X0.950000*%
%ADD21RoundRect,0.175000X0.175000X1.675000X-0.175000X1.675000X-0.175000X-1.675000X0.175000X-1.675000X0*%
%ADD22RoundRect,0.250001X0.499999X0.899999X-0.499999X0.899999X-0.499999X-0.899999X0.499999X-0.899999X0*%
%ADD23RoundRect,0.250000X-0.275000X-0.750000X0.275000X-0.750000X0.275000X0.750000X-0.275000X0.750000X0*%
%ADD24RoundRect,0.140000X0.140000X0.170000X-0.140000X0.170000X-0.140000X-0.170000X0.140000X-0.170000X0*%
%ADD25RoundRect,0.140000X-0.140000X-0.170000X0.140000X-0.170000X0.140000X0.170000X-0.140000X0.170000X0*%
%ADD26R,0.725000X0.522000*%
%ADD27RoundRect,0.031250X-0.093750X0.268750X-0.093750X-0.268750X0.093750X-0.268750X0.093750X0.268750X0*%
%ADD28RoundRect,0.031250X-0.268750X0.093750X-0.268750X-0.093750X0.268750X-0.093750X0.268750X0.093750X0*%
%ADD29RoundRect,0.135000X-0.135000X-0.185000X0.135000X-0.185000X0.135000X0.185000X-0.135000X0.185000X0*%
%ADD30RoundRect,0.250000X-0.475000X0.250000X-0.475000X-0.250000X0.475000X-0.250000X0.475000X0.250000X0*%
%ADD31RoundRect,0.250000X0.475000X-0.250000X0.475000X0.250000X-0.475000X0.250000X-0.475000X-0.250000X0*%
%ADD32RoundRect,0.140000X0.170000X-0.140000X0.170000X0.140000X-0.170000X0.140000X-0.170000X-0.140000X0*%
%ADD33RoundRect,0.150000X-0.200000X0.150000X-0.200000X-0.150000X0.200000X-0.150000X0.200000X0.150000X0*%
%ADD34RoundRect,0.147500X0.147500X0.172500X-0.147500X0.172500X-0.147500X-0.172500X0.147500X-0.172500X0*%
%ADD35RoundRect,0.250000X0.250000X0.475000X-0.250000X0.475000X-0.250000X-0.475000X0.250000X-0.475000X0*%
%ADD36RoundRect,0.009100X-0.410900X-0.120900X0.410900X-0.120900X0.410900X0.120900X-0.410900X0.120900X0*%
%ADD37RoundRect,0.009100X-0.120900X-0.410900X0.120900X-0.410900X0.120900X0.410900X-0.120900X0.410900X0*%
%ADD38R,2.680000X2.680000*%
%ADD39RoundRect,0.147500X-0.147500X-0.172500X0.147500X-0.172500X0.147500X0.172500X-0.147500X0.172500X0*%
%ADD40RoundRect,0.250000X0.375000X0.625000X-0.375000X0.625000X-0.375000X-0.625000X0.375000X-0.625000X0*%
%ADD41RoundRect,0.150000X-0.150000X-0.200000X0.150000X-0.200000X0.150000X0.200000X-0.150000X0.200000X0*%
%ADD42R,1.500000X0.900000*%
%ADD43R,1.300000X1.300000*%
%ADD44R,0.950000X2.000000*%
%ADD45RoundRect,0.150000X0.470000X-0.150000X0.470000X0.150000X-0.470000X0.150000X-0.470000X-0.150000X0*%
%ADD46RoundRect,0.075000X0.545000X-0.075000X0.545000X0.075000X-0.545000X0.075000X-0.545000X-0.075000X0*%
%ADD47RoundRect,0.250000X-0.315000X-0.315000X0.315000X-0.315000X0.315000X0.315000X-0.315000X0.315000X0*%
%ADD48RoundRect,0.062500X-0.350000X-0.062500X0.350000X-0.062500X0.350000X0.062500X-0.350000X0.062500X0*%
%ADD49RoundRect,0.062500X-0.062500X-0.350000X0.062500X-0.350000X0.062500X0.350000X-0.062500X0.350000X0*%
%ADD50RoundRect,0.250000X-0.445000X0.457500X-0.445000X-0.457500X0.445000X-0.457500X0.445000X0.457500X0*%
%ADD51RoundRect,0.250000X-0.250000X-0.475000X0.250000X-0.475000X0.250000X0.475000X-0.250000X0.475000X0*%
G04 APERTURE END LIST*
%TO.C,MK2*%
D10*
X164312500Y-102462500D02*
G75*
G02*
X164641261Y-102138489I600001J-280001D01*
G01*
X164632500Y-103342500D02*
G75*
G02*
X164308701Y-103014210I280000J600000D01*
G01*
X165192500Y-102142500D02*
G75*
G02*
X165516511Y-102471261I-280000J-600000D01*
G01*
X165512500Y-103022500D02*
G75*
G02*
X165183739Y-103346511I-600000J280000D01*
G01*
D11*
%TO.C,U6*%
X161037600Y-60646000D02*
X161037600Y-62136000D01*
X159547600Y-62136000D01*
X159547600Y-60646000D01*
X161037600Y-60646000D01*
G36*
X161037600Y-62136000D02*
G01*
X159547600Y-62136000D01*
X159547600Y-60646000D01*
X161037600Y-60646000D01*
X161037600Y-62136000D01*
G37*
X161037600Y-62336000D02*
X161037600Y-63826000D01*
X159547600Y-63826000D01*
X159547600Y-62336000D01*
X161037600Y-62336000D01*
G36*
X161037600Y-63826000D02*
G01*
X159547600Y-63826000D01*
X159547600Y-62336000D01*
X161037600Y-62336000D01*
X161037600Y-63826000D01*
G37*
X162727600Y-60646000D02*
X162727600Y-62136000D01*
X161237600Y-62136000D01*
X161237600Y-60646000D01*
X162727600Y-60646000D01*
G36*
X162727600Y-62136000D02*
G01*
X161237600Y-62136000D01*
X161237600Y-60646000D01*
X162727600Y-60646000D01*
X162727600Y-62136000D01*
G37*
X162727600Y-62336000D02*
X162727600Y-63826000D01*
X161237600Y-63826000D01*
X161237600Y-62336000D01*
X162727600Y-62336000D01*
G36*
X162727600Y-63826000D02*
G01*
X161237600Y-63826000D01*
X161237600Y-62336000D01*
X162727600Y-62336000D01*
X162727600Y-63826000D01*
G37*
%TD*%
D12*
%TO.C,R29*%
X167750000Y-77010000D03*
X167750000Y-75990000D03*
%TD*%
D13*
%TO.C,D15*%
X168750000Y-70515000D03*
X168750000Y-71485000D03*
%TD*%
D14*
%TO.C,C18*%
X161727200Y-66686800D03*
X161727200Y-67646800D03*
%TD*%
D15*
%TO.C,R11*%
X158260000Y-49500000D03*
X157240000Y-49500000D03*
%TD*%
%TO.C,R13*%
X173836320Y-69820263D03*
X172816320Y-69820263D03*
%TD*%
D16*
%TO.C,R4*%
X178250000Y-81240000D03*
X178250000Y-82260000D03*
%TD*%
D14*
%TO.C,C41*%
X162750000Y-103270000D03*
X162750000Y-104230000D03*
%TD*%
D17*
%TO.C,U2*%
X165756400Y-84435600D03*
X165756400Y-81375600D03*
D18*
X165506400Y-83535600D03*
X165506400Y-82275600D03*
D17*
X165256400Y-84435600D03*
X165256400Y-81375600D03*
D19*
X166906400Y-83905600D03*
X166906400Y-83405600D03*
X166906400Y-82905600D03*
X166906400Y-82405600D03*
X166906400Y-81905600D03*
X164106400Y-81905600D03*
X164106400Y-82405600D03*
X164106400Y-82905600D03*
X164106400Y-83405600D03*
X164106400Y-83905600D03*
%TD*%
D20*
%TO.C,L2*%
X169006400Y-83780600D03*
X169006400Y-82030600D03*
%TD*%
D21*
%TO.C,J4*%
X180000000Y-85500000D03*
X178500000Y-85500000D03*
X177000000Y-85500000D03*
D22*
X182050000Y-87600000D03*
X174950000Y-87600000D03*
%TD*%
D15*
%TO.C,R14*%
X173820780Y-63819801D03*
X172800780Y-63819801D03*
%TD*%
D23*
%TO.C,SW3*%
X154525000Y-43500000D03*
X158975000Y-43500000D03*
%TD*%
D24*
%TO.C,C23*%
X159842600Y-65736000D03*
X158882600Y-65736000D03*
%TD*%
D25*
%TO.C,C33*%
X163747200Y-70916800D03*
X164707200Y-70916800D03*
%TD*%
D26*
%TO.C,MK2*%
X165750000Y-104816500D03*
X165750000Y-103994500D03*
X164075000Y-103994500D03*
X164075000Y-104816500D03*
%TD*%
D27*
%TO.C,U6*%
X162887600Y-59836000D03*
X162387600Y-59836000D03*
X161887600Y-59836000D03*
X161387600Y-59836000D03*
X160887600Y-59836000D03*
X160387600Y-59836000D03*
X159887600Y-59836000D03*
X159387600Y-59836000D03*
D28*
X158737600Y-60486000D03*
X158737600Y-60986000D03*
X158737600Y-61486000D03*
X158737600Y-61986000D03*
X158737600Y-62486000D03*
X158737600Y-62986000D03*
X158737600Y-63486000D03*
X158737600Y-63986000D03*
D27*
X159387600Y-64636000D03*
X159887600Y-64636000D03*
X160387600Y-64636000D03*
X160887600Y-64636000D03*
X161387600Y-64636000D03*
X161887600Y-64636000D03*
X162387600Y-64636000D03*
X162887600Y-64636000D03*
D28*
X163537600Y-63986000D03*
X163537600Y-63486000D03*
X163537600Y-62986000D03*
X163537600Y-62486000D03*
X163537600Y-61986000D03*
X163537600Y-61486000D03*
X163537600Y-60986000D03*
X163537600Y-60486000D03*
%TD*%
D15*
%TO.C,R18*%
X162510000Y-65750000D03*
X161490000Y-65750000D03*
%TD*%
D29*
%TO.C,R35*%
X181000000Y-58250000D03*
X182020000Y-58250000D03*
%TD*%
D24*
%TO.C,C21*%
X160707200Y-67666800D03*
X159747200Y-67666800D03*
%TD*%
D29*
%TO.C,R19*%
X173509600Y-79235000D03*
X174529600Y-79235000D03*
%TD*%
D30*
%TO.C,C9*%
X164205600Y-85600000D03*
X164205600Y-87500000D03*
%TD*%
D14*
%TO.C,C32*%
X157227200Y-70936800D03*
X157227200Y-71896800D03*
%TD*%
D31*
%TO.C,C39*%
X156500000Y-69750000D03*
X156500000Y-67850000D03*
%TD*%
D12*
%TO.C,R12*%
X155500000Y-41010000D03*
X155500000Y-39990000D03*
%TD*%
D32*
%TO.C,C5*%
X176519600Y-74215000D03*
X176519600Y-73255000D03*
%TD*%
D15*
%TO.C,R22*%
X173832849Y-66313670D03*
X172812849Y-66313670D03*
%TD*%
D33*
%TO.C,D5*%
X170076800Y-70271200D03*
X170076800Y-68871200D03*
%TD*%
D15*
%TO.C,R33*%
X182260000Y-55000000D03*
X181240000Y-55000000D03*
%TD*%
D25*
%TO.C,C35*%
X155270000Y-60500000D03*
X156230000Y-60500000D03*
%TD*%
D34*
%TO.C,FB2*%
X164712200Y-74000000D03*
X163742200Y-74000000D03*
%TD*%
D16*
%TO.C,R6*%
X177250000Y-81240000D03*
X177250000Y-82260000D03*
%TD*%
D29*
%TO.C,R27*%
X166740000Y-78000000D03*
X167760000Y-78000000D03*
%TD*%
D35*
%TO.C,C1*%
X174219600Y-76485000D03*
X172319600Y-76485000D03*
%TD*%
D13*
%TO.C,D13*%
X167500000Y-70515000D03*
X167500000Y-71485000D03*
%TD*%
D30*
%TO.C,C29*%
X162000000Y-74300000D03*
X162000000Y-76200000D03*
%TD*%
D16*
%TO.C,R3*%
X176000000Y-81240000D03*
X176000000Y-82260000D03*
%TD*%
D24*
%TO.C,C10*%
X162986400Y-82375600D03*
X162026400Y-82375600D03*
%TD*%
D36*
%TO.C,U7*%
X158507200Y-69916800D03*
X158507200Y-70416800D03*
X158507200Y-70916800D03*
X158507200Y-71416800D03*
X158507200Y-71916800D03*
D37*
X159477200Y-72886800D03*
X159977200Y-72886800D03*
X160477200Y-72886800D03*
X160977200Y-72886800D03*
X161477200Y-72886800D03*
D36*
X162447200Y-71916800D03*
X162447200Y-71416800D03*
X162447200Y-70916800D03*
X162447200Y-70416800D03*
X162447200Y-69916800D03*
D37*
X161477200Y-68946800D03*
X160977200Y-68946800D03*
X160477200Y-68946800D03*
X159977200Y-68946800D03*
X159477200Y-68946800D03*
D38*
X160477200Y-70916800D03*
%TD*%
D24*
%TO.C,C27*%
X159230000Y-58750000D03*
X158270000Y-58750000D03*
%TD*%
D13*
%TO.C,D16*%
X168750000Y-73132500D03*
X168750000Y-74102500D03*
%TD*%
D15*
%TO.C,R36*%
X156260000Y-61500000D03*
X155240000Y-61500000D03*
%TD*%
D16*
%TO.C,R10*%
X163256400Y-79365600D03*
X163256400Y-80385600D03*
%TD*%
D29*
%TO.C,R34*%
X180990000Y-51250000D03*
X182010000Y-51250000D03*
%TD*%
D39*
%TO.C,FB1*%
X163742200Y-69916800D03*
X164712200Y-69916800D03*
%TD*%
D40*
%TO.C,F2*%
X173476800Y-72071200D03*
X170676800Y-72071200D03*
%TD*%
D30*
%TO.C,C8*%
X166205600Y-85600000D03*
X166205600Y-87500000D03*
%TD*%
D25*
%TO.C,C19*%
X164632600Y-62000000D03*
X165592600Y-62000000D03*
%TD*%
D14*
%TO.C,C31*%
X162727200Y-66686800D03*
X162727200Y-67646800D03*
%TD*%
D25*
%TO.C,C22*%
X164632600Y-63486000D03*
X165592600Y-63486000D03*
%TD*%
D41*
%TO.C,D4*%
X173772849Y-65063670D03*
X172372849Y-65063670D03*
%TD*%
D32*
%TO.C,C13*%
X159000000Y-39500000D03*
X159000000Y-38540000D03*
%TD*%
D15*
%TO.C,R23*%
X173832490Y-67319318D03*
X172812490Y-67319318D03*
%TD*%
D14*
%TO.C,C15*%
X154500000Y-40020000D03*
X154500000Y-40980000D03*
%TD*%
%TO.C,C20*%
X163750000Y-65770000D03*
X163750000Y-66730000D03*
%TD*%
D42*
%TO.C,U4*%
X160996807Y-38234169D03*
X160996807Y-39504169D03*
X160996807Y-40774169D03*
X160996807Y-42044169D03*
X160996807Y-43314169D03*
X160996807Y-44584169D03*
X160996807Y-45854169D03*
X160996807Y-47124169D03*
X160996807Y-48394169D03*
X160996807Y-49664169D03*
X160996807Y-50934169D03*
X160996807Y-52204169D03*
X160996807Y-53474169D03*
X160996807Y-54744169D03*
X178496807Y-54744169D03*
X178496807Y-53474169D03*
X178496807Y-52204169D03*
X178496807Y-50934169D03*
X178496807Y-49664169D03*
X178496807Y-48394169D03*
X178496807Y-47124169D03*
X178496807Y-45854169D03*
X178496807Y-44584169D03*
X178496807Y-43314169D03*
X178496807Y-42044169D03*
X178496807Y-40774169D03*
X178496807Y-39504169D03*
X178496807Y-38234169D03*
D43*
X168876607Y-45122169D03*
X168876607Y-46822169D03*
X168876607Y-48522169D03*
X170576607Y-45122169D03*
X170576607Y-46822169D03*
X170576607Y-48522169D03*
X172276607Y-45122169D03*
X172276607Y-46822169D03*
X172276607Y-48522169D03*
%TD*%
D23*
%TO.C,SW2*%
X154525000Y-47250000D03*
X158975000Y-47250000D03*
%TD*%
D13*
%TO.C,D14*%
X167500000Y-73132500D03*
X167500000Y-74102500D03*
%TD*%
D24*
%TO.C,C26*%
X164707200Y-68916800D03*
X163747200Y-68916800D03*
%TD*%
D44*
%TO.C,L1*%
X179144600Y-73985000D03*
X180894600Y-73985000D03*
%TD*%
D24*
%TO.C,C30*%
X164707200Y-75000000D03*
X163747200Y-75000000D03*
%TD*%
D14*
%TO.C,C28*%
X160500000Y-74270000D03*
X160500000Y-75230000D03*
%TD*%
D25*
%TO.C,C34*%
X181270000Y-54000000D03*
X182230000Y-54000000D03*
%TD*%
D45*
%TO.C,P1*%
X175776800Y-69951200D03*
X175776800Y-69151200D03*
D46*
X175776800Y-68001200D03*
X175776800Y-67001200D03*
X175776800Y-66501200D03*
X175776800Y-65501200D03*
D45*
X175776800Y-64351200D03*
X175776800Y-63551200D03*
X175776800Y-63551200D03*
X175776800Y-64351200D03*
D46*
X175776800Y-65001200D03*
X175776800Y-66001200D03*
X175776800Y-67501200D03*
X175776800Y-68501200D03*
D45*
X175776800Y-69151200D03*
X175776800Y-69951200D03*
%TD*%
D47*
%TO.C,U1*%
X177099600Y-77430000D03*
X177099600Y-78780000D03*
X178449600Y-77430000D03*
X178449600Y-78780000D03*
D48*
X175812100Y-76855000D03*
X175812100Y-77355000D03*
X175812100Y-77855000D03*
X175812100Y-78355000D03*
X175812100Y-78855000D03*
X175812100Y-79355000D03*
D49*
X176524600Y-80067500D03*
X177024600Y-80067500D03*
X177524600Y-80067500D03*
X178024600Y-80067500D03*
X178524600Y-80067500D03*
X179024600Y-80067500D03*
D48*
X179737100Y-79355000D03*
X179737100Y-78855000D03*
X179737100Y-78355000D03*
X179737100Y-77855000D03*
X179737100Y-77355000D03*
X179737100Y-76855000D03*
D49*
X179024600Y-76142500D03*
X178524600Y-76142500D03*
X178024600Y-76142500D03*
X177524600Y-76142500D03*
X177024600Y-76142500D03*
X176524600Y-76142500D03*
%TD*%
D29*
%TO.C,R20*%
X173509600Y-80235000D03*
X174529600Y-80235000D03*
%TD*%
D14*
%TO.C,C24*%
X164862600Y-64506000D03*
X164862600Y-65466000D03*
%TD*%
D41*
%TO.C,D3*%
X173772490Y-68569318D03*
X172372490Y-68569318D03*
%TD*%
D16*
%TO.C,R24*%
X157612600Y-62490000D03*
X157612600Y-63510000D03*
%TD*%
D29*
%TO.C,R28*%
X168740000Y-78000000D03*
X169760000Y-78000000D03*
%TD*%
D24*
%TO.C,C14*%
X156230000Y-49500000D03*
X155270000Y-49500000D03*
%TD*%
D50*
%TO.C,C40*%
X162000000Y-85447500D03*
X162000000Y-88152500D03*
%TD*%
D51*
%TO.C,C38*%
X164050000Y-72500000D03*
X165950000Y-72500000D03*
%TD*%
D32*
%TO.C,C12*%
X158000000Y-39500000D03*
X158000000Y-38540000D03*
%TD*%
D14*
%TO.C,C2*%
X177519600Y-73255000D03*
X177519600Y-74215000D03*
%TD*%
D29*
%TO.C,R7*%
X157740000Y-74166800D03*
X158760000Y-74166800D03*
%TD*%
D13*
%TO.C,D6*%
X168750000Y-76015000D03*
X168750000Y-76985000D03*
%TD*%
D21*
%TO.C,J2*%
X158750000Y-77750000D03*
X157250000Y-77750000D03*
D22*
X160800000Y-79850000D03*
X155200000Y-79850000D03*
%TD*%
D30*
%TO.C,C4*%
X181519600Y-79285000D03*
X181519600Y-81185000D03*
%TD*%
D24*
%TO.C,C6*%
X175499600Y-74985000D03*
X174539600Y-74985000D03*
%TD*%
D35*
%TO.C,C7*%
X166706400Y-79655600D03*
X164806400Y-79655600D03*
%TD*%
D31*
%TO.C,C3*%
X182750000Y-77449999D03*
X182750000Y-75550001D03*
%TD*%
M02*
